{
  "title" : "",
  "description" : "",
  "author" : "",
  "targetLoudness" : -18.0,
  "shouldApplyLoudnessNormalization" : true,
  "videoFormatFrameRate" : 30,
  "audioFormatSampleRate" : 44100,
  "allowSubFrameEditing" : false,
  "width" : 1920.0,
  "height" : 1080.0,
  "version" : "7.0",
  "editRate" : 705600000,
  "authoringClientName" :  {
    "name" : "Camtasia",
    "platform" : "Mac",
    "version" : "2023.3.11"
  },
  "sourceBin" : [
    {
      "id" : 1,
      "src" : "./media/1712947398.735339/IMG_0782.mov",
      "rect" : [0, 0, 1920, 1080],
      "lastMod" : "20240412T180043",
      "loudnessNormalization" : true,
      "sourceTracks" : [
        {
          "range" : [0, 42482],
          "type" : 0,
          "editRate" : 600,
          "trackRect" : [0, 0, 1920, 1080],
          "sampleRate" : "14999/500",
          "bitDepth" : 0,
          "numChannels" : 0,
          "integratedLUFS" : 100.0,
          "peakLevel" : -1.0,
          "metaData" : "IMG_0782.mov;"
        },
        {
          "range" : [0, 42481],
          "type" : 2,
          "editRate" : 600,
          "trackRect" : [0, 0, 0, 0],
          "sampleRate" : 44100,
          "bitDepth" : 0,
          "numChannels" : 2,
          "integratedLUFS" : -32.1919192678095,
          "peakLevel" : 0.628369510173798,
          "metaData" : "IMG_0782.mov;"
        }
      ],
      "metadata" : {
        "timeAdded" : "20240412T180557.758795"
      }
    },
    {
      "id" : 2,
      "src" : "./media/1712947398.735504/IMG_0783.mov",
      "rect" : [0, 0, 1920, 1080],
      "lastMod" : "20240412T180244",
      "loudnessNormalization" : true,
      "sourceTracks" : [
        {
          "range" : [0, 32583],
          "type" : 0,
          "editRate" : 600,
          "trackRect" : [0, 0, 1920, 1080],
          "sampleRate" : "29997/1000",
          "bitDepth" : 0,
          "numChannels" : 0,
          "integratedLUFS" : 100.0,
          "peakLevel" : -1.0,
          "metaData" : "IMG_0783.mov;"
        },
        {
          "range" : [0, 32582],
          "type" : 2,
          "editRate" : 600,
          "trackRect" : [0, 0, 0, 0],
          "sampleRate" : 44100,
          "bitDepth" : 0,
          "numChannels" : 2,
          "integratedLUFS" : -32.2966835867691,
          "peakLevel" : 0.347002297639847,
          "metaData" : "IMG_0783.mov;"
        }
      ],
      "metadata" : {
        "timeAdded" : "20240412T180557.816441"
      }
    },
    {
      "id" : 3,
      "src" : "./media/1712947398.735656/fourcornergradient.tscshadervid",
      "rect" : [0, 0, 1920, 1080],
      "lastMod" : "20240322T154339",
      "loudnessNormalization" : true,
      "sourceTracks" : [
        {
          "range" : [0, 9223372036854775807],
          "type" : 0,
          "editRate" : 30,
          "trackRect" : [0, 0, 1920, 1080],
          "sampleRate" : 30,
          "bitDepth" : 32,
          "numChannels" : 0,
          "integratedLUFS" : 100.0,
          "peakLevel" : -1.0,
          "metaData" : "fourcornergradient.tscshadervid;"
        }
      ],
      "effectDef" : [
        {
          "name" : "Color0",
          "type" : "Color",
          "defaultValue" : [ 0, 0.937255, 1, 1],
          "scalingType" : 3,
          "unitType" : 0,
          "userInterfaceType" : 6
        },
        {
          "name" : "Color1",
          "type" : "Color",
          "defaultValue" : [ 0, 0.560784, 1, 1],
          "scalingType" : 3,
          "unitType" : 0,
          "userInterfaceType" : 6
        },
        {
          "name" : "Color2",
          "type" : "Color",
          "defaultValue" : [ 1, 0.870588, 0.223529, 1],
          "scalingType" : 3,
          "unitType" : 0,
          "userInterfaceType" : 6
        },
        {
          "name" : "Color3",
          "type" : "Color",
          "defaultValue" : [ 1, 0, 0.627451, 1],
          "scalingType" : 3,
          "unitType" : 0,
          "userInterfaceType" : 6
        },
        {
          "name" : "MidPointX",
          "type" : "double",
          "defaultValue" : 0.5,
          "maxValue" : 0.9,
          "minValue" : 0.1,
          "scalingType" : 0,
          "unitType" : 1,
          "userInterfaceType" : 0
        },
        {
          "name" : "MidPointY",
          "type" : "double",
          "defaultValue" : 0.5,
          "maxValue" : 0.9,
          "minValue" : 0.1,
          "scalingType" : 0,
          "unitType" : 1,
          "userInterfaceType" : 0
        },
        {
          "name" : "Speed",
          "type" : "double",
          "defaultValue" : 5.0,
          "maxValue" : 10.0,
          "minValue" : 0.0,
          "scalingType" : 0,
          "unitType" : 0,
          "userInterfaceType" : 0
        },
        {
          "name" : "sourceFileType",
          "type" : "string",
          "defaultValue" : "tscshadervid",
          "maxValue" : "",
          "minValue" : "",
          "scalingType" : 0,
          "unitType" : 0,
          "userInterfaceType" : 0
        }    ]
,
      "metadata" : {
        "previewImageTime" : 27.1254378678277,
        "timeAdded" : "20240412T180632.212353"
      }
    },
    {
      "id" : 4,
      "src" : "./recordings/1712947398.735756/Rec 4-10-2024 11.trec",
      "rect" : [0, 0, 2812, 1572],
      "lastMod" : "20240410T233331",
      "loudnessNormalization" : true,
      "sourceTracks" : [
        {
          "range" : [0, 13456895],
          "type" : 0,
          "editRate" : 44100,
          "trackRect" : [0, 0, 2812, 1572],
          "sampleRate" : "122369/10000",
          "bitDepth" : 24,
          "numChannels" : 0,
          "integratedLUFS" : 100.0,
          "peakLevel" : -1.0,
          "metaData" : "Rec 4-10-2024 11.trec;2b7b6af0-7a1f-11e2-83d0-0017f200be7f;2b7b6af1-7a1f-11e2-83d0-0017f200be7f;2b7b6af2-7a1f-11e2-83d0-0017f200be7f;2b7b6af3-7a1f-11e2-83d0-0017f200be7f;2b7b6af5-7a1f-11e2-83d0-0017f200be7f;2b7b6af6-7a1f-11e2-83d0-0017f200be7f;2b7b6af7-7a1f-11e2-83d0-0017f200be7f;2b7b6af8-7a1f-11e2-83d0-0017f200be7f;2b7b6af9-7a1f-11e2-83d0-0017f200be7f;2b7b6afa-7a1f-11e2-83d0-0017f200be7f;2b7b6afb-7a1f-11e2-83d0-0017f200be7f;"
        },
        {
          "range" : [0, 13456283],
          "type" : 2,
          "editRate" : 44100,
          "trackRect" : [0, 0, 0, 0],
          "sampleRate" : 44100,
          "bitDepth" : 16,
          "numChannels" : 1,
          "integratedLUFS" : -42.6546283860877,
          "peakLevel" : 0.089935302734375,
          "metaData" : "Rec 4-10-2024 11.trec;"
        }
      ],
      "metadata" : {
        "timeAdded" : "20240412T180632.212382"
      }
    },
    {
      "id" : 5,
      "src" : "./media/1712947398.735916/IMG_0784.mov",
      "rect" : [0, 0, 1920, 1080],
      "lastMod" : "20240412T181803",
      "loudnessNormalization" : true,
      "sourceTracks" : [
        {
          "range" : [0, 41242],
          "type" : 0,
          "editRate" : 600,
          "trackRect" : [0, 0, 1920, 1080],
          "sampleRate" : "14999/500",
          "bitDepth" : 0,
          "numChannels" : 0,
          "integratedLUFS" : 100.0,
          "peakLevel" : -1.0,
          "metaData" : "IMG_0784.mov;"
        },
        {
          "range" : [0, 41242],
          "type" : 2,
          "editRate" : 600,
          "trackRect" : [0, 0, 0, 0],
          "sampleRate" : 44100,
          "bitDepth" : 0,
          "numChannels" : 2,
          "integratedLUFS" : -30.3431591891525,
          "peakLevel" : 0.463061302900314,
          "metaData" : "IMG_0784.mov;"
        }
      ],
      "metadata" : {
        "timeAdded" : "20240412T181956.238838"
      }
    },
    {
      "id" : 6,
      "src" : "./media/1712947398.736070/fourcornergradient.tscshadervid",
      "rect" : [0, 0, 1920, 1080],
      "lastMod" : "20240318T132304",
      "loudnessNormalization" : true,
      "sourceTracks" : [
        {
          "range" : [0, 9223372036854775807],
          "type" : 0,
          "editRate" : 30,
          "trackRect" : [0, 0, 1920, 1080],
          "sampleRate" : 30,
          "bitDepth" : 32,
          "numChannels" : 0,
          "integratedLUFS" : 100.0,
          "peakLevel" : -1.0,
          "metaData" : "fourcornergradient.tscshadervid;"
        }
      ],
      "effectDef" : [
        {
          "name" : "Color0",
          "type" : "Color",
          "defaultValue" : [ 0, 0.937255, 1, 1],
          "scalingType" : 3,
          "unitType" : 0,
          "userInterfaceType" : 6
        },
        {
          "name" : "Color1",
          "type" : "Color",
          "defaultValue" : [ 0, 0.560784, 1, 1],
          "scalingType" : 3,
          "unitType" : 0,
          "userInterfaceType" : 6
        },
        {
          "name" : "Color2",
          "type" : "Color",
          "defaultValue" : [ 1, 0.870588, 0.223529, 1],
          "scalingType" : 3,
          "unitType" : 0,
          "userInterfaceType" : 6
        },
        {
          "name" : "Color3",
          "type" : "Color",
          "defaultValue" : [ 1, 0, 0.627451, 1],
          "scalingType" : 3,
          "unitType" : 0,
          "userInterfaceType" : 6
        },
        {
          "name" : "MidPointX",
          "type" : "double",
          "defaultValue" : 0.5,
          "maxValue" : 0.9,
          "minValue" : 0.1,
          "scalingType" : 0,
          "unitType" : 1,
          "userInterfaceType" : 0
        },
        {
          "name" : "MidPointY",
          "type" : "double",
          "defaultValue" : 0.5,
          "maxValue" : 0.9,
          "minValue" : 0.1,
          "scalingType" : 0,
          "unitType" : 1,
          "userInterfaceType" : 0
        },
        {
          "name" : "Speed",
          "type" : "double",
          "defaultValue" : 5.0,
          "maxValue" : 10.0,
          "minValue" : 0.0,
          "scalingType" : 0,
          "unitType" : 0,
          "userInterfaceType" : 0
        },
        {
          "name" : "sourceFileType",
          "type" : "string",
          "defaultValue" : "tscshadervid",
          "maxValue" : "",
          "minValue" : "",
          "scalingType" : 0,
          "unitType" : 0,
          "userInterfaceType" : 0
        }    ]
,
      "metadata" : {
        "previewImageTime" : 27.1254378678277,
        "timeAdded" : "20240412T182400.852374"
      }
    },
    {
      "id" : 7,
      "src" : "./recordings/1712947398.736192/Rec 3-27-2024 5.trec",
      "rect" : [0, 0, 1920, 1080],
      "lastMod" : "20240327T172611",
      "loudnessNormalization" : true,
      "sourceTracks" : [
        {
          "range" : [0, 18573156],
          "type" : 0,
          "editRate" : 44100,
          "trackRect" : [0, 0, 1920, 1080],
          "sampleRate" : "18023/10000",
          "bitDepth" : 24,
          "numChannels" : 0,
          "integratedLUFS" : 100.0,
          "peakLevel" : -1.0,
          "metaData" : "Rec 3-27-2024 5.trec;2b7b6af0-7a1f-11e2-83d0-0017f200be7f;2b7b6af1-7a1f-11e2-83d0-0017f200be7f;2b7b6af2-7a1f-11e2-83d0-0017f200be7f;2b7b6af3-7a1f-11e2-83d0-0017f200be7f;2b7b6af5-7a1f-11e2-83d0-0017f200be7f;2b7b6af6-7a1f-11e2-83d0-0017f200be7f;2b7b6af7-7a1f-11e2-83d0-0017f200be7f;2b7b6af8-7a1f-11e2-83d0-0017f200be7f;2b7b6af9-7a1f-11e2-83d0-0017f200be7f;2b7b6afa-7a1f-11e2-83d0-0017f200be7f;2b7b6afb-7a1f-11e2-83d0-0017f200be7f;"
        },
        {
          "range" : [0, 18600794],
          "type" : 2,
          "editRate" : 44100,
          "trackRect" : [0, 0, 0, 0],
          "sampleRate" : 44100,
          "bitDepth" : 16,
          "numChannels" : 1,
          "integratedLUFS" : -40.7089593645107,
          "peakLevel" : 0.197418212890625,
          "metaData" : "Rec 3-27-2024 5.trec;"
        }
      ],
      "metadata" : {
        "timeAdded" : "20240412T182400.852400"
      }
    },
    {
      "id" : 8,
      "src" : "./media/1712947398.736293/frame.png",
      "rect" : [0, 0, 1920, 1080],
      "lastMod" : "20240412T183354",
      "loudnessNormalization" : true,
      "sourceTracks" : [
        {
          "range" : [0, 1],
          "type" : 1,
          "editRate" : 600,
          "trackRect" : [0, 0, 1920, 1080],
          "sampleRate" : 0,
          "bitDepth" : 0,
          "numChannels" : 0,
          "integratedLUFS" : 100.0,
          "peakLevel" : -1.0,
          "metaData" : "frame.png;"
        }
      ],
      "metadata" : {
        "timeAdded" : "20240412T183354.087244"
      }
    }
  ],
  "timeline" : {
    "id" : 9,
    "sceneTrack" : {
      "scenes" : [
        {
          "csml" : {
            "tracks" : [
              {
                "trackIndex" : 0,
                "medias" : [
                  {
                    "id" : 10,
                    "_type" : "StitchedMedia",
                    "minMediaStart" : 0,
                    "attributes" : {
                      "ident" : "IMG_0782",
                      "gain" : 1.0,
                      "mixToMono" : false,
                      "loudnessNormalization" : true,
                      "sourceFileOffset" : 0
                    },
                    "parameters" : {
                      "geometryCrop0" : 0.0,
                      "geometryCrop1" : 0.0,
                      "geometryCrop2" : 0.0,
                      "geometryCrop3" : 0.0,
                      "volume" : 0.631578947368421,
                      "smoothCursorAcrossEditDuration" : 0
                    },
                    "medias" : [
                        {
                          "id" : 11,
                          "_type" : "UnifiedMedia",
                          "video" : 
                              {
                                "id" : 12,
                                "_type" : "VMFile",
                                "src" : 1,
                                "trackNumber" : 0,
                                "attributes" : {
                                  "ident" : "IMG_0782"
                                },
                                "parameters" : {
                                  "geometryCrop0" : {
                                    "type" : "double",
                                    "defaultValue" : 0.0,
                                    "interp" : "eioe"
                                  },
                                  "geometryCrop1" : {
                                    "type" : "double",
                                    "defaultValue" : 0.0,
                                    "interp" : "eioe"
                                  },
                                  "geometryCrop2" : {
                                    "type" : "double",
                                    "defaultValue" : 0.0,
                                    "interp" : "eioe"
                                  },
                                  "geometryCrop3" : {
                                    "type" : "double",
                                    "defaultValue" : 0.0,
                                    "interp" : "eioe"
                                  }
                                },
                                "effects" : [

                                ],
                                "start" : 0,
                                "duration" : 6726720000,
                                "mediaStart" : 0,
                                "mediaDuration" : 6726720000,
                                "scalar" : 1,
                                "animationTracks" : {

                                }
                              },
                          "audio" : 
                              {
                                "id" : 13,
                                "_type" : "AMFile",
                                "src" : 1,
                                "trackNumber" : 1,
                                "attributes" : {
                                  "ident" : "",
                                  "gain" : 1.0,
                                  "mixToMono" : false,
                                  "loudnessNormalization" : true,
                                  "sourceFileOffset" : 0
                                },
                                  "channelNumber" : "0,1",
                                "effects" : [

                                ],
                                "start" : 0,
                                "duration" : 6726720000,
                                "mediaStart" : 0,
                                "mediaDuration" : 6726720000,
                                "scalar" : 1,
                                "animationTracks" : {

                                }
                              }
,
                          "start" : 0,
                          "duration" : 6726720000,
                          "mediaStart" : 0,
                          "mediaDuration" : 6726720000,
                          "scalar" : 1,
                          "metadata" : {
                            "audiateLinkedSession" : "",
                            "clipSpeedAttribute" : false,
                            "default-scale" : "1",
                            "effectApplied" : "none"
                          }
                        },
                        {
                          "id" : 14,
                          "_type" : "UnifiedMedia",
                          "video" : 
                              {
                                "id" : 15,
                                "_type" : "VMFile",
                                "src" : 1,
                                "trackNumber" : 0,
                                "attributes" : {
                                  "ident" : "IMG_0782"
                                },
                                "parameters" : {
                                  "geometryCrop0" : {
                                    "type" : "double",
                                    "defaultValue" : 0.0,
                                    "interp" : "eioe"
                                  },
                                  "geometryCrop1" : {
                                    "type" : "double",
                                    "defaultValue" : 0.0,
                                    "interp" : "eioe"
                                  },
                                  "geometryCrop2" : {
                                    "type" : "double",
                                    "defaultValue" : 0.0,
                                    "interp" : "eioe"
                                  },
                                  "geometryCrop3" : {
                                    "type" : "double",
                                    "defaultValue" : 0.0,
                                    "interp" : "eioe"
                                  }
                                },
                                "effects" : [

                                ],
                                "start" : 6726720000,
                                "duration" : 2234400000,
                                "mediaStart" : 7032480000,
                                "mediaDuration" : 2234400000,
                                "scalar" : 1,
                                "animationTracks" : {

                                }
                              },
                          "audio" : 
                              {
                                "id" : 16,
                                "_type" : "AMFile",
                                "src" : 1,
                                "trackNumber" : 1,
                                "attributes" : {
                                  "ident" : "",
                                  "gain" : 1.0,
                                  "mixToMono" : false,
                                  "loudnessNormalization" : true,
                                  "sourceFileOffset" : 0
                                },
                                  "channelNumber" : "0,1",
                                "effects" : [

                                ],
                                "start" : 6726720000,
                                "duration" : 2234400000,
                                "mediaStart" : 7032480000,
                                "mediaDuration" : 2234400000,
                                "scalar" : 1,
                                "animationTracks" : {

                                }
                              }
,
                          "start" : 6726720000,
                          "duration" : 2234400000,
                          "mediaStart" : 7032480000,
                          "mediaDuration" : 2234400000,
                          "scalar" : 1,
                          "metadata" : {
                            "audiateLinkedSession" : "",
                            "clipSpeedAttribute" : false,
                            "default-scale" : "1",
                            "effectApplied" : "none"
                          }
                        },
                        {
                          "id" : 17,
                          "_type" : "UnifiedMedia",
                          "video" : 
                              {
                                "id" : 18,
                                "_type" : "VMFile",
                                "src" : 1,
                                "trackNumber" : 0,
                                "attributes" : {
                                  "ident" : "IMG_0782"
                                },
                                "parameters" : {
                                  "geometryCrop0" : {
                                    "type" : "double",
                                    "defaultValue" : 0.0,
                                    "interp" : "eioe"
                                  },
                                  "geometryCrop1" : {
                                    "type" : "double",
                                    "defaultValue" : 0.0,
                                    "interp" : "eioe"
                                  },
                                  "geometryCrop2" : {
                                    "type" : "double",
                                    "defaultValue" : 0.0,
                                    "interp" : "eioe"
                                  },
                                  "geometryCrop3" : {
                                    "type" : "double",
                                    "defaultValue" : 0.0,
                                    "interp" : "eioe"
                                  }
                                },
                                "effects" : [

                                ],
                                "start" : 8961120000,
                                "duration" : 15852480000,
                                "mediaStart" : 9596160000,
                                "mediaDuration" : 15852480000,
                                "scalar" : 1,
                                "animationTracks" : {

                                }
                              },
                          "audio" : 
                              {
                                "id" : 19,
                                "_type" : "AMFile",
                                "src" : 1,
                                "trackNumber" : 1,
                                "attributes" : {
                                  "ident" : "",
                                  "gain" : 1.0,
                                  "mixToMono" : false,
                                  "loudnessNormalization" : true,
                                  "sourceFileOffset" : 0
                                },
                                  "channelNumber" : "0,1",
                                "effects" : [

                                ],
                                "start" : 8961120000,
                                "duration" : 15852480000,
                                "mediaStart" : 9596160000,
                                "mediaDuration" : 15852480000,
                                "scalar" : 1,
                                "animationTracks" : {

                                }
                              }
,
                          "start" : 8961120000,
                          "duration" : 15852480000,
                          "mediaStart" : 9596160000,
                          "mediaDuration" : 15852480000,
                          "scalar" : 1,
                          "metadata" : {
                            "audiateLinkedSession" : "",
                            "clipSpeedAttribute" : false,
                            "default-scale" : "1",
                            "effectApplied" : "none"
                          }
                        },
                        {
                          "id" : 20,
                          "_type" : "UnifiedMedia",
                          "video" : 
                              {
                                "id" : 21,
                                "_type" : "VMFile",
                                "src" : 1,
                                "trackNumber" : 0,
                                "attributes" : {
                                  "ident" : "IMG_0782"
                                },
                                "parameters" : {
                                  "geometryCrop0" : {
                                    "type" : "double",
                                    "defaultValue" : 0.0,
                                    "interp" : "eioe"
                                  },
                                  "geometryCrop1" : {
                                    "type" : "double",
                                    "defaultValue" : 0.0,
                                    "interp" : "eioe"
                                  },
                                  "geometryCrop2" : {
                                    "type" : "double",
                                    "defaultValue" : 0.0,
                                    "interp" : "eioe"
                                  },
                                  "geometryCrop3" : {
                                    "type" : "double",
                                    "defaultValue" : 0.0,
                                    "interp" : "eioe"
                                  }
                                },
                                "effects" : [

                                ],
                                "start" : 24813600000,
                                "duration" : 3551520000,
                                "mediaStart" : 28529760000,
                                "mediaDuration" : 3551520000,
                                "scalar" : 1,
                                "animationTracks" : {

                                }
                              },
                          "audio" : 
                              {
                                "id" : 22,
                                "_type" : "AMFile",
                                "src" : 1,
                                "trackNumber" : 1,
                                "attributes" : {
                                  "ident" : "",
                                  "gain" : 1.0,
                                  "mixToMono" : false,
                                  "loudnessNormalization" : true,
                                  "sourceFileOffset" : 0
                                },
                                  "channelNumber" : "0,1",
                                "effects" : [

                                ],
                                "start" : 24813600000,
                                "duration" : 3551520000,
                                "mediaStart" : 28529760000,
                                "mediaDuration" : 3551520000,
                                "scalar" : 1,
                                "animationTracks" : {

                                }
                              }
,
                          "start" : 24813600000,
                          "duration" : 3551520000,
                          "mediaStart" : 28529760000,
                          "mediaDuration" : 3551520000,
                          "scalar" : 1,
                          "metadata" : {
                            "audiateLinkedSession" : "",
                            "clipSpeedAttribute" : false,
                            "default-scale" : "1",
                            "effectApplied" : "none"
                          }
                        },
                        {
                          "id" : 23,
                          "_type" : "UnifiedMedia",
                          "video" : 
                              {
                                "id" : 24,
                                "_type" : "VMFile",
                                "src" : 1,
                                "trackNumber" : 0,
                                "attributes" : {
                                  "ident" : "IMG_0782"
                                },
                                "parameters" : {
                                  "geometryCrop0" : {
                                    "type" : "double",
                                    "defaultValue" : 0.0,
                                    "interp" : "eioe"
                                  },
                                  "geometryCrop1" : {
                                    "type" : "double",
                                    "defaultValue" : 0.0,
                                    "interp" : "eioe"
                                  },
                                  "geometryCrop2" : {
                                    "type" : "double",
                                    "defaultValue" : 0.0,
                                    "interp" : "eioe"
                                  },
                                  "geometryCrop3" : {
                                    "type" : "double",
                                    "defaultValue" : 0.0,
                                    "interp" : "eioe"
                                  }
                                },
                                "effects" : [

                                ],
                                "start" : 28365120000,
                                "duration" : 9125760000,
                                "mediaStart" : 37279200000,
                                "mediaDuration" : 9125760000,
                                "scalar" : 1,
                                "animationTracks" : {

                                }
                              },
                          "audio" : 
                              {
                                "id" : 25,
                                "_type" : "AMFile",
                                "src" : 1,
                                "trackNumber" : 1,
                                "attributes" : {
                                  "ident" : "",
                                  "gain" : 1.0,
                                  "mixToMono" : false,
                                  "loudnessNormalization" : true,
                                  "sourceFileOffset" : 0
                                },
                                  "channelNumber" : "0,1",
                                "effects" : [

                                ],
                                "start" : 28365120000,
                                "duration" : 9125760000,
                                "mediaStart" : 37279200000,
                                "mediaDuration" : 9125760000,
                                "scalar" : 1,
                                "animationTracks" : {

                                }
                              }
,
                          "start" : 28365120000,
                          "duration" : 9125760000,
                          "mediaStart" : 37279200000,
                          "mediaDuration" : 9125760000,
                          "scalar" : 1,
                          "metadata" : {
                            "audiateLinkedSession" : "",
                            "clipSpeedAttribute" : false,
                            "default-scale" : "1",
                            "effectApplied" : "none"
                          }
                        },
                        {
                          "id" : 26,
                          "_type" : "UnifiedMedia",
                          "video" : 
                              {
                                "id" : 27,
                                "_type" : "VMFile",
                                "src" : 1,
                                "trackNumber" : 0,
                                "attributes" : {
                                  "ident" : "IMG_0782"
                                },
                                "parameters" : {
                                  "geometryCrop0" : {
                                    "type" : "double",
                                    "defaultValue" : 0.0,
                                    "interp" : "eioe"
                                  },
                                  "geometryCrop1" : {
                                    "type" : "double",
                                    "defaultValue" : 0.0,
                                    "interp" : "eioe"
                                  },
                                  "geometryCrop2" : {
                                    "type" : "double",
                                    "defaultValue" : 0.0,
                                    "interp" : "eioe"
                                  },
                                  "geometryCrop3" : {
                                    "type" : "double",
                                    "defaultValue" : 0.0,
                                    "interp" : "eioe"
                                  }
                                },
                                "effects" : [

                                ],
                                "start" : 37490880000,
                                "duration" : 3104640000,
                                "mediaStart" : 46851840000,
                                "mediaDuration" : 3104640000,
                                "scalar" : 1,
                                "animationTracks" : {

                                }
                              },
                          "audio" : 
                              {
                                "id" : 28,
                                "_type" : "AMFile",
                                "src" : 1,
                                "trackNumber" : 1,
                                "attributes" : {
                                  "ident" : "",
                                  "gain" : 1.0,
                                  "mixToMono" : false,
                                  "loudnessNormalization" : true,
                                  "sourceFileOffset" : 0
                                },
                                  "channelNumber" : "0,1",
                                "effects" : [

                                ],
                                "start" : 37490880000,
                                "duration" : 3104640000,
                                "mediaStart" : 46851840000,
                                "mediaDuration" : 3104640000,
                                "scalar" : 1,
                                "animationTracks" : {

                                }
                              }
,
                          "start" : 37490880000,
                          "duration" : 3104640000,
                          "mediaStart" : 46851840000,
                          "mediaDuration" : 3104640000,
                          "scalar" : 1,
                          "metadata" : {
                            "audiateLinkedSession" : "",
                            "clipSpeedAttribute" : false,
                            "default-scale" : "1",
                            "effectApplied" : "none"
                          }
                        }
                    ],
                    "effects" : [

                    ],
                    "start" : 0,
                    "duration" : 37443840000,
                    "mediaStart" : 2352000000,
                    "mediaDuration" : 37443840000,
                    "scalar" : 1,
                    "metadata" : {
                      "audiateLinkedSession" : "",
                      "clipSpeedAttribute" : false,
                      "default-scale" : "1",
                      "effectApplied" : "none"
                    },
                    "animationTracks" : {

                    }
                  }
                ]
              },
              {
                "trackIndex" : 1,
                "medias" : [
                  {
                    "id" : 29,
                    "_type" : "Group",
                    "parameters" : {
                      "translation0" : {
                        "type" : "double",
                        "defaultValue" : -2.27373675443232e-13,
                        "interp" : "eioe"
                      },
                      "translation1" : {
                        "type" : "double",
                        "defaultValue" : -5.6843418860808e-14,
                        "interp" : "eioe"
                      },
                      "geometryCrop0" : {
                        "type" : "double",
                        "defaultValue" : 0.0,
                        "interp" : "eioe"
                      },
                      "geometryCrop1" : {
                        "type" : "double",
                        "defaultValue" : 0.0,
                        "interp" : "eioe"
                      },
                      "geometryCrop2" : {
                        "type" : "double",
                        "defaultValue" : 0.0,
                        "interp" : "eioe"
                      },
                      "geometryCrop3" : {
                        "type" : "double",
                        "defaultValue" : 0.0,
                        "interp" : "eioe"
                      },
                      "volume" : 1.0
                    },
                    "tracks" : [
                      {
                        "trackIndex" : 0,
                        "medias" : [
                          {
                            "id" : 30,
                            "_type" : "Callout",
                            "def" : {
                                "kind" : "remix",
                                "shape" : "shape-rectangle",
                                "style" : "bold",
                                "fill-color-blue" : {
                                  "type" : "double",
                                  "defaultValue" : 0.690196078431373,
                                  "interp" : "linr",
                                  "keyframes" : [
                                    {
                                      "endTime" : 258720000,
                                      "time" : -23520000,
                                      "value" : 0.690196078431373,
                                      "interp" : "eioe",
                                      "duration" : 282240000
                                    },
                                    {
                                      "endTime" : 2116800000,
                                      "time" : 1928640000,
                                      "value" : 0.690196078431373,
                                      "interp" : "eioe",
                                      "duration" : 188160000
                                    },
                                    {
                                      "endTime" : 2187360000,
                                      "time" : 2116800000,
                                      "value" : 0.690196078431373,
                                      "interp" : "eioe",
                                      "duration" : 70560000
                                    }
                                  ]
                                },
                                "fill-color-green" : {
                                  "type" : "double",
                                  "defaultValue" : 0.247058823529412,
                                  "interp" : "linr",
                                  "keyframes" : [
                                    {
                                      "endTime" : 258720000,
                                      "time" : -23520000,
                                      "value" : 0.247058823529412,
                                      "interp" : "eioe",
                                      "duration" : 282240000
                                    },
                                    {
                                      "endTime" : 2116800000,
                                      "time" : 1928640000,
                                      "value" : 0.247058823529412,
                                      "interp" : "eioe",
                                      "duration" : 188160000
                                    },
                                    {
                                      "endTime" : 2187360000,
                                      "time" : 2116800000,
                                      "value" : 0.247058823529412,
                                      "interp" : "eioe",
                                      "duration" : 70560000
                                    }
                                  ]
                                },
                                "fill-color-opacity" : {
                                  "type" : "double",
                                  "defaultValue" : 1.0,
                                  "interp" : "linr"
                                },
                                "fill-color-red" : {
                                  "type" : "double",
                                  "defaultValue" : 1.0,
                                  "interp" : "linr",
                                  "keyframes" : [
                                    {
                                      "endTime" : 258720000,
                                      "time" : -23520000,
                                      "value" : 1.0,
                                      "interp" : "eioe",
                                      "duration" : 282240000
                                    },
                                    {
                                      "endTime" : 2116800000,
                                      "time" : 1928640000,
                                      "value" : 1.0,
                                      "interp" : "eioe",
                                      "duration" : 188160000
                                    },
                                    {
                                      "endTime" : 2187360000,
                                      "time" : 2116800000,
                                      "value" : 1.0,
                                      "interp" : "eioe",
                                      "duration" : 70560000
                                    }
                                  ]
                                },
                                "height" : {
                                  "type" : "double",
                                  "defaultValue" : 5.32714047095101,
                                  "interp" : "linr",
                                  "keyframes" : [
                                    {
                                      "endTime" : 258720000,
                                      "time" : -23520000,
                                      "value" : 233.926318098882,
                                      "interp" : "eioe",
                                      "duration" : 282240000
                                    },
                                    {
                                      "endTime" : 2187360000,
                                      "time" : 2116800000,
                                      "value" : 6.95333080673066,
                                      "interp" : "eioe",
                                      "duration" : 70560000
                                    }
                                  ]
                                },
                                "stroke-color-blue" : {
                                  "type" : "double",
                                  "defaultValue" : 1.0,
                                  "interp" : "linr"
                                },
                                "stroke-color-green" : {
                                  "type" : "double",
                                  "defaultValue" : 1.0,
                                  "interp" : "linr"
                                },
                                "stroke-color-opacity" : {
                                  "type" : "double",
                                  "defaultValue" : 1.0,
                                  "interp" : "linr"
                                },
                                "stroke-color-red" : {
                                  "type" : "double",
                                  "defaultValue" : 1.0,
                                  "interp" : "linr"
                                },
                                "stroke-width" : {
                                  "type" : "double",
                                  "defaultValue" : 0.0,
                                  "interp" : "linr"
                                },
                                "width" : {
                                  "type" : "double",
                                  "defaultValue" : 21.8339042663574,
                                  "interp" : "linr"
                                },
                                "fill-style" : "solid",
                                "stroke-style" : "solid"
                            },
                            "attributes" : {
                              "ident" : "",
                              "autoRotateText" : true
                            },
                            "parameters" : {
                              "translation0" : {
                                "type" : "double",
                                "defaultValue" : -247.704621467845,
                                "interp" : "eioe",
                                "keyframes" : [
                                  {
                                    "endTime" : 258720000,
                                    "time" : -23520000,
                                    "value" : -386.468841947763,
                                    "interp" : "eioe",
                                    "duration" : 282240000
                                  },
                                  {
                                    "endTime" : 2116800000,
                                    "time" : 1928640000,
                                    "value" : -146.468841947763,
                                    "interp" : "eioe",
                                    "duration" : 188160000
                                  },
                                  {
                                    "endTime" : 2187360000,
                                    "time" : 2116800000,
                                    "value" : -122.873673458997,
                                    "interp" : "eioe",
                                    "duration" : 70560000
                                  }
                                ]
                              },
                              "translation1" : {
                                "type" : "double",
                                "defaultValue" : -267.848698972074,
                                "interp" : "eioe",
                                "keyframes" : [
                                  {
                                    "endTime" : 258720000,
                                    "time" : -23520000,
                                    "value" : -379.650566170181,
                                    "interp" : "eioe",
                                    "duration" : 282240000
                                  },
                                  {
                                    "endTime" : 2116800000,
                                    "time" : 1928640000,
                                    "value" : -379.650566170181,
                                    "interp" : "eioe",
                                    "duration" : 188160000
                                  },
                                  {
                                    "endTime" : 2187360000,
                                    "time" : 2116800000,
                                    "value" : -268.644026059714,
                                    "interp" : "eioe",
                                    "duration" : 70560000
                                  }
                                ]
                              },
                              "rotation2" : {
                                "type" : "double",
                                "defaultValue" : -0.20943951023932,
                                "interp" : "eioe",
                                "keyframes" : [
                                  {
                                    "endTime" : 258720000,
                                    "time" : -23520000,
                                    "value" : -0.20943951023932,
                                    "interp" : "eioe",
                                    "duration" : 282240000
                                  },
                                  {
                                    "endTime" : 2116800000,
                                    "time" : 1928640000,
                                    "value" : -0.20943951023932,
                                    "interp" : "eioe",
                                    "duration" : 188160000
                                  },
                                  {
                                    "endTime" : 2187360000,
                                    "time" : 2116800000,
                                    "value" : -0.20943951023932,
                                    "interp" : "eioe",
                                    "duration" : 70560000
                                  }
                                ]
                              },
                              "geometryCrop0" : {
                                "type" : "double",
                                "defaultValue" : 0.0,
                                "interp" : "eioe"
                              },
                              "geometryCrop1" : {
                                "type" : "double",
                                "defaultValue" : 0.0,
                                "interp" : "eioe"
                              },
                              "geometryCrop2" : {
                                "type" : "double",
                                "defaultValue" : 0.0,
                                "interp" : "eioe"
                              },
                              "geometryCrop3" : {
                                "type" : "double",
                                "defaultValue" : 0.0,
                                "interp" : "eioe"
                              }
                            },
                            "effects" : [

                            ],
                            "start" : 282240000,
                            "duration" : 2352000000,
                            "mediaStart" : -117600000,
                            "mediaDuration" : 2352000000,
                            "scalar" : 1,
                            "metadata" : {
                              "AppliedThemeId" : "",
                              "clipSpeedAttribute" : false,
                              "default-callout-fill-color" : "(152,201,45,255)",
                              "default-scale" : "1",
                              "effectApplied" : "none",
                              "lockAspectRatio" : true
                            },
                            "animationTracks" : {
                              "visual" : [
                                {
                                  "endTime" : 258720000,
                                  "duration" : 282240000,
                                  "range" : [ -23520000, 282240000],
                                  "interp" : "eioe"
                                },
                                {
                                  "endTime" : 2116800000,
                                  "duration" : 188160000,
                                  "range" : [ 1928640000, 188160000],
                                  "interp" : "eioe"
                                },
                                {
                                  "endTime" : 2187360000,
                                  "duration" : 70560000,
                                  "range" : [ 2116800000, 70560000],
                                  "interp" : "eioe"
                                }
                              ]
                            }
                          }
                        ],
                          "ident" : "",
                          "audioMuted" : false,
                          "videoHidden" : false,
                          "magnetic" : false,
                          "matte" : 0,
                          "solo" : false,
                          "metadata" : {
                            "IsLocked" : "False",
                            "trackHeight" : "54"
                          }
                      },
                      {
                        "trackIndex" : 1,
                        "medias" : [
                          {
                            "id" : 31,
                            "_type" : "Callout",
                            "def" : {
                                "kind" : "remix",
                                "shape" : "text",
                                "style" : "basic",
                                "enable-ligatures" : {
                                  "type" : "double",
                                  "defaultValue" : 1.0,
                                  "interp" : "linr"
                                },
                                "hasDropShadow" : {
                                  "type" : "double",
                                  "defaultValue" : 0.0,
                                  "interp" : "linr"
                                },
                                "height" : {
                                  "type" : "double",
                                  "defaultValue" : 204.644111570247,
                                  "interp" : "linr"
                                },
                                "line-spacing" : {
                                  "type" : "double",
                                  "defaultValue" : 0.0,
                                  "interp" : "linr"
                                },
                                "savedXScale" : {
                                  "type" : "double",
                                  "defaultValue" : 1.0,
                                  "interp" : "linr"
                                },
                                "savedYScale" : {
                                  "type" : "double",
                                  "defaultValue" : 1.0,
                                  "interp" : "linr"
                                },
                                "text-stroke-alignment" : {
                                  "type" : "double",
                                  "defaultValue" : 2.0,
                                  "interp" : "linr"
                                },
                                "text-stroke-color-alpha" : {
                                  "type" : "double",
                                  "defaultValue" : 1.0,
                                  "interp" : "linr"
                                },
                                "text-stroke-color-blue" : {
                                  "type" : "double",
                                  "defaultValue" : 0.0,
                                  "interp" : "linr"
                                },
                                "text-stroke-color-green" : {
                                  "type" : "double",
                                  "defaultValue" : 0.0,
                                  "interp" : "linr"
                                },
                                "text-stroke-color-red" : {
                                  "type" : "double",
                                  "defaultValue" : 0.0,
                                  "interp" : "linr"
                                },
                                "text-stroke-width" : {
                                  "type" : "double",
                                  "defaultValue" : 0.0,
                                  "interp" : "linr"
                                },
                                "width" : {
                                  "type" : "double",
                                  "defaultValue" : 758.738636363638,
                                  "interp" : "linr"
                                },
                                "word-wrap" : {
                                  "type" : "double",
                                  "defaultValue" : 1.0,
                                  "interp" : "linr"
                                },
                                "custom" : "Y",
                                "horizontal-alignment" : "right",
                                "resize-behavior" : "resizeText",
                                "text" : "Paulo",
                                "vertical-alignment" : "top",
                                "font" : {
                                  "color-blue" : {
                                    "type" : "double",
                                    "defaultValue" : 1.0,
                                    "interp" : "linr"
                                  },
                                  "color-green" : {
                                    "type" : "double",
                                    "defaultValue" : 1.0,
                                    "interp" : "linr"
                                  },
                                  "color-red" : {
                                    "type" : "double",
                                    "defaultValue" : 1.0,
                                    "interp" : "linr"
                                  },
                                  "size" : {
                                    "type" : "double",
                                    "defaultValue" : 96.0,
                                    "interp" : "linr"
                                  },
                                  "tracking" : {
                                    "type" : "double",
                                    "defaultValue" : 0.0,
                                    "interp" : "linr"
                                  },
                                  "name" : "Montserrat",
                                  "weight" : "Regular"
                                },
                                "textAttributes" : {
                                  "type" : "textAttributeList",
                                  "keyframes" : [
                                    {
                                      "endTime" : 0,
                                      "time" : 0,
                                      "value" : [{"name":"fgColor","rangeEnd":5,"rangeStart":0,"value":"(239,240,244,255)","valueType":"color"},{"name":"fontItalic","rangeEnd":5,"rangeStart":0,"value":2,"valueType":"int"},{"name":"fontWeight","rangeEnd":5,"rangeStart":0,"value":700,"valueType":"int"},{"name":"strikethrough","rangeEnd":5,"rangeStart":0,"value":0,"valueType":"int"},{"name":"kerning","rangeEnd":5,"rangeStart":0,"value":0.0,"valueType":"double"},{"name":"underline","rangeEnd":5,"rangeStart":0,"value":0,"valueType":"int"},{"name":"fontSize","rangeEnd":5,"rangeStart":0,"value":140.0,"valueType":"double"},{"name":"fontName","rangeEnd":5,"rangeStart":0,"value":"Roboto","valueType":"string"}],
                                      "duration" : 0
                                    }
                                  ]
                                }
                            },
                            "attributes" : {
                              "ident" : "",
                              "autoRotateText" : true
                            },
                            "parameters" : {
                              "translation0" : {
                                "type" : "double",
                                "defaultValue" : -310.51441732435,
                                "interp" : "eioe",
                                "keyframes" : [
                                  {
                                    "endTime" : 658560000,
                                    "time" : 0,
                                    "value" : -820.51441732435,
                                    "interp" : "eioe",
                                    "duration" : 658560000
                                  },
                                  {
                                    "endTime" : 2610720000,
                                    "time" : 2328480000,
                                    "value" : -355.51441732435,
                                    "interp" : "eioe",
                                    "duration" : 282240000
                                  }
                                ]
                              },
                              "translation1" : {
                                "type" : "double",
                                "defaultValue" : -397.370603400706,
                                "interp" : "eioe",
                                "keyframes" : [
                                  {
                                    "endTime" : 658560000,
                                    "time" : 0,
                                    "value" : -397.370603400706,
                                    "interp" : "eioe",
                                    "duration" : 658560000
                                  },
                                  {
                                    "endTime" : 2610720000,
                                    "time" : 2328480000,
                                    "value" : -397.370603400706,
                                    "interp" : "eioe",
                                    "duration" : 282240000
                                  }
                                ]
                              },
                              "geometryCrop0" : {
                                "type" : "double",
                                "defaultValue" : 0.0,
                                "interp" : "eioe"
                              },
                              "geometryCrop1" : {
                                "type" : "double",
                                "defaultValue" : 0.0,
                                "interp" : "eioe"
                              },
                              "geometryCrop2" : {
                                "type" : "double",
                                "defaultValue" : 0.0,
                                "interp" : "eioe"
                              },
                              "geometryCrop3" : {
                                "type" : "double",
                                "defaultValue" : 0.0,
                                "interp" : "eioe"
                              }
                            },
                            "effects" : [
                                {
                                  "_type" : "GenericBehaviorEffect",
                                  "effectName" : "popUp",
                                  "bypassed" : false,
                                  "start" : 0,
                                  "duration" : 2728320000                                ,
                                  "in" : {
                                    "attributes" : {
                                      "name" : "hinge",
                                      "type" : 1,
                                      "characterOrder" : 6,
                                      "offsetBetweenCharacters" : 70545888,
                                      "suggestedDurationPerCharacter" : 864360000,
                                      "overlapProportion" : "1/3",
                                      "movement" : 30,
                                      "springDamping" : 5.0,
                                      "springStiffness" : 50.0,
                                      "bounceBounciness" : 0.45
                                    },
                                    "parameters" : {
                                      "direction" : {
                                        "type" : "int",
                                        "valueBounds" : {
                                          "minValue" : 0,
                                          "maxValue" : 3,
                                          "defaultValue" : 3
                                        },
                                        "uiHints" : {
                                          "userInterfaceType" : 2,
                                          "unitType" : 0
                                        },
                                        "keyframes" : [
                                          {
                                            "endTime" : 0,
                                            "time" : 0,
                                            "value" : 3,
                                            "duration" : 0
                                          }
                                        ]
                                      }
                                    }
                                  
                                  },
                                  "center" : {
                                    "attributes" : {
                                      "name" : "none",
                                      "type" : 1,
                                      "characterOrder" : 6,
                                      "offsetBetweenCharacters" : 0,
                                      "secondsPerLoop" : 1,
                                      "numberOfLoops" : -1,
                                      "delayBetweenLoops" : 0
                                    }
                                  
                                  },
                                  "out" : {
                                    "attributes" : {
                                      "name" : "hinge",
                                      "type" : 1,
                                      "characterOrder" : 1,
                                      "offsetBetweenCharacters" : 70545888,
                                      "suggestedDurationPerCharacter" : 235200000,
                                      "overlapProportion" : "1/2",
                                      "movement" : 7,
                                      "springDamping" : 5.0,
                                      "springStiffness" : 50.0,
                                      "bounceBounciness" : 0.45
                                    },
                                    "parameters" : {
                                      "direction" : {
                                        "type" : "int",
                                        "valueBounds" : {
                                          "minValue" : 0,
                                          "maxValue" : 3,
                                          "defaultValue" : 3
                                        },
                                        "uiHints" : {
                                          "userInterfaceType" : 2,
                                          "unitType" : 0
                                        },
                                        "keyframes" : [
                                          {
                                            "endTime" : 0,
                                            "time" : 0,
                                            "value" : 3,
                                            "duration" : 0
                                          }
                                        ]
                                      }
                                    }
                                  
                                  }
                                },
                                {
                                  "_type" : "GenericBehaviorEffect",
                                  "effectName" : "reveal",
                                  "bypassed" : false,
                                  "start" : 0,
                                  "duration" : 2728320000                                ,
                                  "in" : {
                                    "attributes" : {
                                      "name" : "reveal",
                                      "type" : 1,
                                      "characterOrder" : 6,
                                      "offsetBetweenCharacters" : 17640000,
                                      "suggestedDurationPerCharacter" : 258720000,
                                      "overlapProportion" : 0,
                                      "movement" : 16,
                                      "springDamping" : 5.0,
                                      "springStiffness" : 50.0,
                                      "bounceBounciness" : 0.45
                                    },
                                    "parameters" : {
                                      "direction" : {
                                        "type" : "int",
                                        "valueBounds" : {
                                          "minValue" : 0,
                                          "maxValue" : 3,
                                          "defaultValue" : 0
                                        },
                                        "uiHints" : {
                                          "userInterfaceType" : 2,
                                          "unitType" : 0
                                        },
                                        "keyframes" : [
                                          {
                                            "endTime" : 0,
                                            "time" : 0,
                                            "value" : 3,
                                            "duration" : 0
                                          }
                                        ]
                                      }
                                    }
                                  
                                  },
                                  "center" : {
                                    "attributes" : {
                                      "name" : "none",
                                      "type" : 1,
                                      "characterOrder" : 6,
                                      "offsetBetweenCharacters" : 0,
                                      "secondsPerLoop" : 1,
                                      "numberOfLoops" : -1,
                                      "delayBetweenLoops" : 0
                                    }
                                  
                                  },
                                  "out" : {
                                    "attributes" : {
                                      "name" : "reveal",
                                      "type" : 1,
                                      "characterOrder" : 7,
                                      "offsetBetweenCharacters" : 17640000,
                                      "suggestedDurationPerCharacter" : 199920000,
                                      "overlapProportion" : "1/2",
                                      "movement" : 6,
                                      "springDamping" : 5.0,
                                      "springStiffness" : 50.0,
                                      "bounceBounciness" : 0.45
                                    },
                                    "parameters" : {
                                      "direction" : {
                                        "type" : "int",
                                        "valueBounds" : {
                                          "minValue" : 0,
                                          "maxValue" : 3,
                                          "defaultValue" : 2
                                        },
                                        "uiHints" : {
                                          "userInterfaceType" : 2,
                                          "unitType" : 0
                                        },
                                        "keyframes" : [
                                          {
                                            "endTime" : 0,
                                            "time" : 0,
                                            "value" : 3,
                                            "duration" : 0
                                          }
                                        ]
                                      }
                                    }
                                  
                                  }
                                }
                            ],
                            "start" : 0,
                            "duration" : 2728320000,
                            "mediaStart" : 0,
                            "mediaDuration" : 2728320000,
                            "scalar" : 1,
                            "metadata" : {
                              "AppliedThemeId" : "",
                              "clipSpeedAttribute" : false,
                              "default-callout-resize-behavior" : "resizeCallout",
                              "default-scale" : "1",
                              "default-text" : "{\\rtf1\\ansi\\ansicpg1252\\cocoartf1671\\cocoasubrtf500\n{\\fonttbl\\f0\\fnil\\fcharset0 Montserrat-Regular;}\n{\\colortbl;\\red255\\green255\\blue255;\\red255\\green255\\blue255;}\n{\\*\\expandedcolortbl;;\\cssrgb\\c100000\\c100000\\c100000;}\n\\pard\\tx560\\tx1120\\tx1680\\tx2240\\tx2800\\tx3360\\tx3920\\tx4480\\tx5040\\tx5600\\tx6160\\tx6720\\pardirnatural\\partightenfactor0\n\n\\f0\\fs192 \\cf2 \\expnd0\\expndtw0\\kerning0\n\\ulnone ABC}",
                              "effectApplied" : "Pasted Effects"
                            },
                            "animationTracks" : {
                              "visual" : [
                                {
                                  "endTime" : 658560000,
                                  "duration" : 658560000,
                                  "range" : [ 0, 658560000],
                                  "interp" : "eioe"
                                },
                                {
                                  "endTime" : 2610720000,
                                  "duration" : 282240000,
                                  "range" : [ 2328480000, 282240000],
                                  "interp" : "eioe"
                                }
                              ]
                            }
                          }
                        ],
                          "ident" : "",
                          "audioMuted" : false,
                          "videoHidden" : false,
                          "magnetic" : false,
                          "matte" : 0,
                          "solo" : false,
                          "metadata" : {
                            "IsLocked" : "False",
                            "trackHeight" : "54"
                          }
                      },
                      {
                        "trackIndex" : 2,
                        "medias" : [
                          {
                            "id" : 32,
                            "_type" : "Callout",
                            "def" : {
                                "kind" : "remix",
                                "shape" : "text",
                                "style" : "basic",
                                "enable-ligatures" : {
                                  "type" : "double",
                                  "defaultValue" : 1.0,
                                  "interp" : "linr"
                                },
                                "hasDropShadow" : {
                                  "type" : "double",
                                  "defaultValue" : 0.0,
                                  "interp" : "linr"
                                },
                                "height" : {
                                  "type" : "double",
                                  "defaultValue" : 204.644111570249,
                                  "interp" : "linr"
                                },
                                "line-spacing" : {
                                  "type" : "double",
                                  "defaultValue" : 0.0,
                                  "interp" : "linr"
                                },
                                "savedXScale" : {
                                  "type" : "double",
                                  "defaultValue" : 1.0,
                                  "interp" : "linr"
                                },
                                "savedYScale" : {
                                  "type" : "double",
                                  "defaultValue" : 1.0,
                                  "interp" : "linr"
                                },
                                "text-stroke-alignment" : {
                                  "type" : "double",
                                  "defaultValue" : 2.0,
                                  "interp" : "linr"
                                },
                                "text-stroke-color-alpha" : {
                                  "type" : "double",
                                  "defaultValue" : 1.0,
                                  "interp" : "linr"
                                },
                                "text-stroke-color-blue" : {
                                  "type" : "double",
                                  "defaultValue" : 0.0,
                                  "interp" : "linr"
                                },
                                "text-stroke-color-green" : {
                                  "type" : "double",
                                  "defaultValue" : 0.0,
                                  "interp" : "linr"
                                },
                                "text-stroke-color-red" : {
                                  "type" : "double",
                                  "defaultValue" : 0.0,
                                  "interp" : "linr"
                                },
                                "text-stroke-width" : {
                                  "type" : "double",
                                  "defaultValue" : 0.0,
                                  "interp" : "linr"
                                },
                                "width" : {
                                  "type" : "double",
                                  "defaultValue" : 758.738636363638,
                                  "interp" : "linr"
                                },
                                "word-wrap" : {
                                  "type" : "double",
                                  "defaultValue" : 1.0,
                                  "interp" : "linr"
                                },
                                "custom" : "Y",
                                "horizontal-alignment" : "left",
                                "resize-behavior" : "resizeText",
                                "text" : "Dichone",
                                "vertical-alignment" : "top",
                                "font" : {
                                  "color-blue" : {
                                    "type" : "double",
                                    "defaultValue" : 1.0,
                                    "interp" : "linr"
                                  },
                                  "color-green" : {
                                    "type" : "double",
                                    "defaultValue" : 1.0,
                                    "interp" : "linr"
                                  },
                                  "color-red" : {
                                    "type" : "double",
                                    "defaultValue" : 1.0,
                                    "interp" : "linr"
                                  },
                                  "size" : {
                                    "type" : "double",
                                    "defaultValue" : 96.0,
                                    "interp" : "linr"
                                  },
                                  "tracking" : {
                                    "type" : "double",
                                    "defaultValue" : 0.0,
                                    "interp" : "linr"
                                  },
                                  "name" : "Montserrat",
                                  "weight" : "Regular"
                                },
                                "textAttributes" : {
                                  "type" : "textAttributeList",
                                  "keyframes" : [
                                    {
                                      "endTime" : 0,
                                      "time" : 0,
                                      "value" : [{"name":"fontSize","rangeEnd":7,"rangeStart":0,"value":140.0,"valueType":"double"},{"name":"strikethrough","rangeEnd":7,"rangeStart":0,"value":0,"valueType":"int"},{"name":"fontItalic","rangeEnd":7,"rangeStart":0,"value":2,"valueType":"int"},{"name":"fgColor","rangeEnd":7,"rangeStart":0,"value":"(239,240,244,255)","valueType":"color"},{"name":"kerning","rangeEnd":7,"rangeStart":0,"value":0.0,"valueType":"double"},{"name":"fontName","rangeEnd":7,"rangeStart":0,"value":"Roboto","valueType":"string"},{"name":"underline","rangeEnd":7,"rangeStart":0,"value":0,"valueType":"int"},{"name":"fontWeight","rangeEnd":7,"rangeStart":0,"value":200,"valueType":"int"}],
                                      "duration" : 0
                                    }
                                  ]
                                }
                            },
                            "attributes" : {
                              "ident" : "",
                              "autoRotateText" : true
                            },
                            "parameters" : {
                              "translation0" : {
                                "type" : "double",
                                "defaultValue" : 159.48558267565,
                                "interp" : "eioe",
                                "keyframes" : [
                                  {
                                    "endTime" : 670320000,
                                    "time" : 458640000,
                                    "value" : 44.48558267565,
                                    "interp" : "eioe",
                                    "duration" : 211680000
                                  },
                                  {
                                    "endTime" : 2551920000,
                                    "time" : 2340240000,
                                    "value" : 284.48558267565,
                                    "interp" : "eioe",
                                    "duration" : 211680000
                                  }
                                ]
                              },
                              "translation1" : {
                                "type" : "double",
                                "defaultValue" : -397.370603400706,
                                "interp" : "eioe",
                                "keyframes" : [
                                  {
                                    "endTime" : 670320000,
                                    "time" : 458640000,
                                    "value" : -397.370603400706,
                                    "interp" : "eioe",
                                    "duration" : 211680000
                                  },
                                  {
                                    "endTime" : 2551920000,
                                    "time" : 2340240000,
                                    "value" : -397.370603400706,
                                    "interp" : "eioe",
                                    "duration" : 211680000
                                  }
                                ]
                              },
                              "geometryCrop0" : {
                                "type" : "double",
                                "defaultValue" : 0.0,
                                "interp" : "eioe"
                              },
                              "geometryCrop1" : {
                                "type" : "double",
                                "defaultValue" : 0.0,
                                "interp" : "eioe"
                              },
                              "geometryCrop2" : {
                                "type" : "double",
                                "defaultValue" : 0.0,
                                "interp" : "eioe"
                              },
                              "geometryCrop3" : {
                                "type" : "double",
                                "defaultValue" : 0.0,
                                "interp" : "eioe"
                              }
                            },
                            "effects" : [
                                {
                                  "_type" : "GenericBehaviorEffect",
                                  "effectName" : "reveal",
                                  "bypassed" : false,
                                  "start" : 411600000,
                                  "duration" : 2175600000                                ,
                                  "in" : {
                                    "attributes" : {
                                      "name" : "reveal",
                                      "type" : 1,
                                      "characterOrder" : 6,
                                      "offsetBetweenCharacters" : 17640000,
                                      "suggestedDurationPerCharacter" : 258720000,
                                      "overlapProportion" : 0,
                                      "movement" : 16,
                                      "springDamping" : 5.0,
                                      "springStiffness" : 50.0,
                                      "bounceBounciness" : 0.45
                                    },
                                    "parameters" : {
                                      "direction" : {
                                        "type" : "int",
                                        "valueBounds" : {
                                          "minValue" : 0,
                                          "maxValue" : 3,
                                          "defaultValue" : 0
                                        },
                                        "uiHints" : {
                                          "userInterfaceType" : 2,
                                          "unitType" : 0
                                        },
                                        "keyframes" : [
                                          {
                                            "endTime" : 0,
                                            "time" : 0,
                                            "value" : 3,
                                            "duration" : 0
                                          }
                                        ]
                                      }
                                    }
                                  
                                  },
                                  "center" : {
                                    "attributes" : {
                                      "name" : "none",
                                      "type" : 1,
                                      "characterOrder" : 6,
                                      "offsetBetweenCharacters" : 0,
                                      "secondsPerLoop" : 1,
                                      "numberOfLoops" : -1,
                                      "delayBetweenLoops" : 0
                                    }
                                  
                                  },
                                  "out" : {
                                    "attributes" : {
                                      "name" : "reveal",
                                      "type" : 1,
                                      "characterOrder" : 7,
                                      "offsetBetweenCharacters" : 17640000,
                                      "suggestedDurationPerCharacter" : 199920000,
                                      "overlapProportion" : "1/2",
                                      "movement" : 6,
                                      "springDamping" : 5.0,
                                      "springStiffness" : 50.0,
                                      "bounceBounciness" : 0.45
                                    },
                                    "parameters" : {
                                      "direction" : {
                                        "type" : "int",
                                        "valueBounds" : {
                                          "minValue" : 0,
                                          "maxValue" : 3,
                                          "defaultValue" : 2
                                        },
                                        "uiHints" : {
                                          "userInterfaceType" : 2,
                                          "unitType" : 0
                                        },
                                        "keyframes" : [
                                          {
                                            "endTime" : 0,
                                            "time" : 0,
                                            "value" : 3,
                                            "duration" : 0
                                          }
                                        ]
                                      }
                                    }
                                  
                                  }
                                },
                                {
                                  "_type" : "GenericBehaviorEffect",
                                  "effectName" : "popUp",
                                  "bypassed" : false,
                                  "start" : 411600000,
                                  "duration" : 2175600000                                ,
                                  "in" : {
                                    "attributes" : {
                                      "name" : "hinge",
                                      "type" : 1,
                                      "characterOrder" : 6,
                                      "offsetBetweenCharacters" : 70545888,
                                      "suggestedDurationPerCharacter" : 864360000,
                                      "overlapProportion" : "1/3",
                                      "movement" : 30,
                                      "springDamping" : 5.0,
                                      "springStiffness" : 50.0,
                                      "bounceBounciness" : 0.45
                                    },
                                    "parameters" : {
                                      "direction" : {
                                        "type" : "int",
                                        "valueBounds" : {
                                          "minValue" : 0,
                                          "maxValue" : 3,
                                          "defaultValue" : 3
                                        },
                                        "uiHints" : {
                                          "userInterfaceType" : 2,
                                          "unitType" : 0
                                        },
                                        "keyframes" : [
                                          {
                                            "endTime" : 0,
                                            "time" : 0,
                                            "value" : 3,
                                            "duration" : 0
                                          }
                                        ]
                                      }
                                    }
                                  
                                  },
                                  "center" : {
                                    "attributes" : {
                                      "name" : "none",
                                      "type" : 1,
                                      "characterOrder" : 6,
                                      "offsetBetweenCharacters" : 0,
                                      "secondsPerLoop" : 1,
                                      "numberOfLoops" : -1,
                                      "delayBetweenLoops" : 0
                                    }
                                  
                                  },
                                  "out" : {
                                    "attributes" : {
                                      "name" : "hinge",
                                      "type" : 1,
                                      "characterOrder" : 1,
                                      "offsetBetweenCharacters" : 70545888,
                                      "suggestedDurationPerCharacter" : 235200000,
                                      "overlapProportion" : "1/2",
                                      "movement" : 7,
                                      "springDamping" : 5.0,
                                      "springStiffness" : 50.0,
                                      "bounceBounciness" : 0.45
                                    },
                                    "parameters" : {
                                      "direction" : {
                                        "type" : "int",
                                        "valueBounds" : {
                                          "minValue" : 0,
                                          "maxValue" : 3,
                                          "defaultValue" : 3
                                        },
                                        "uiHints" : {
                                          "userInterfaceType" : 2,
                                          "unitType" : 0
                                        },
                                        "keyframes" : [
                                          {
                                            "endTime" : 0,
                                            "time" : 0,
                                            "value" : 3,
                                            "duration" : 0
                                          }
                                        ]
                                      }
                                    }
                                  
                                  }
                                }
                            ],
                            "start" : 399840000,
                            "duration" : 2187360000,
                            "mediaStart" : 411600000,
                            "mediaDuration" : 2187360000,
                            "scalar" : 1,
                            "metadata" : {
                              "AppliedThemeId" : "",
                              "clipSpeedAttribute" : false,
                              "default-callout-resize-behavior" : "resizeCallout",
                              "default-scale" : "1",
                              "default-text" : "{\\rtf1\\ansi\\ansicpg1252\\cocoartf1671\\cocoasubrtf500\n{\\fonttbl\\f0\\fnil\\fcharset0 Montserrat-Regular;}\n{\\colortbl;\\red255\\green255\\blue255;\\red255\\green255\\blue255;}\n{\\*\\expandedcolortbl;;\\cssrgb\\c100000\\c100000\\c100000;}\n\\pard\\tx560\\tx1120\\tx1680\\tx2240\\tx2800\\tx3360\\tx3920\\tx4480\\tx5040\\tx5600\\tx6160\\tx6720\\pardirnatural\\partightenfactor0\n\n\\f0\\fs192 \\cf2 \\expnd0\\expndtw0\\kerning0\n\\ulnone ABC}",
                              "effectApplied" : "Pasted Effects"
                            },
                            "animationTracks" : {
                              "visual" : [
                                {
                                  "endTime" : 670320000,
                                  "duration" : 211680000,
                                  "range" : [ 458640000, 211680000],
                                  "interp" : "eioe"
                                },
                                {
                                  "endTime" : 2551920000,
                                  "duration" : 211680000,
                                  "range" : [ 2340240000, 211680000],
                                  "interp" : "eioe"
                                }
                              ]
                            }
                          }
                        ],
                          "ident" : "",
                          "audioMuted" : false,
                          "videoHidden" : false,
                          "magnetic" : false,
                          "matte" : 0,
                          "solo" : false,
                          "metadata" : {
                            "IsLocked" : "False",
                            "trackHeight" : "54"
                          }
                      }
                    ],
                    "attributes" : {
                      "ident" : "Lower Third 1",
                      "widthAttr" : 1920.0,
                      "heightAttr" : 1080.0,
                      "gain" : 1.0,
                      "mixToMono" : false,
                      "assetProperties" : [
                        {
                          "type" : 1,
                          "name" : "Divider",
                          "objects" : [ 30 ],
                          "themeMappings" :  {
                            "fill" : "accent-1"
                          }
                        },
                        {
                          "type" : 0,
                          "name" : "First",
                          "objects" : [ 31 ],
                          "themeMappings" :  {
                            "font-color" : "foreground-1"
                          }
                        },
                        {
                          "type" : 0,
                          "name" : "Last",
                          "objects" : [ 32 ],
                          "themeMappings" :  {
                            "font-color" : "foreground-1"
                          }
                        }
                      ]
                    },
                    "effects" : [

                    ],
                    "start" : 1058400000,
                    "duration" : 2987040000,
                    "mediaStart" : 0.0,
                    "mediaDuration" : 2987040000.0,
                    "scalar" : 1,
                    "metadata" : {
                      "AppliedThemeId" : "8e797988-b823-4beb-b251-1d31b461ba07",
                      "audiateLinkedSession" : "",
                      "clipSpeedAttribute" : false,
                      "default-height" : 1080.0,
                      "default-scale" : "1",
                      "default-translation0" : -1248.45323741007,
                      "default-translation1" : -318.738437821172,
                      "default-translation2" : 0.0,
                      "default-width" : 1920.0,
                      "effectApplied" : "none",
                      "isOpen" : false,
                      "lockAspectRatio" : true
                    },
                    "animationTracks" : {

                    }
                  },
                  {
                    "id" : 33,
                    "_type" : "StitchedMedia",
                    "minMediaStart" : 0,
                    "attributes" : {
                      "ident" : "IMG_0783",
                      "gain" : 1.0,
                      "mixToMono" : false,
                      "loudnessNormalization" : true,
                      "sourceFileOffset" : 0
                    },
                    "parameters" : {
                      "geometryCrop0" : 0.0,
                      "geometryCrop1" : 0.0,
                      "geometryCrop2" : 0.0,
                      "geometryCrop3" : 0.0,
                      "volume" : 0.702138157894737,
                      "smoothCursorAcrossEditDuration" : 0
                    },
                    "medias" : [
                        {
                          "id" : 34,
                          "_type" : "UnifiedMedia",
                          "video" : 
                              {
                                "id" : 35,
                                "_type" : "VMFile",
                                "src" : 2,
                                "trackNumber" : 0,
                                "attributes" : {
                                  "ident" : "IMG_0783"
                                },
                                "parameters" : {
                                  "geometryCrop0" : {
                                    "type" : "double",
                                    "defaultValue" : 0.0,
                                    "interp" : "eioe"
                                  },
                                  "geometryCrop1" : {
                                    "type" : "double",
                                    "defaultValue" : 0.0,
                                    "interp" : "eioe"
                                  },
                                  "geometryCrop2" : {
                                    "type" : "double",
                                    "defaultValue" : 0.0,
                                    "interp" : "eioe"
                                  },
                                  "geometryCrop3" : {
                                    "type" : "double",
                                    "defaultValue" : 0.0,
                                    "interp" : "eioe"
                                  }
                                },
                                "effects" : [

                                ],
                                "start" : 0,
                                "duration" : 28482720000,
                                "mediaStart" : 0,
                                "mediaDuration" : 28482720000,
                                "scalar" : 1,
                                "animationTracks" : {

                                }
                              },
                          "audio" : 
                              {
                                "id" : 36,
                                "_type" : "AMFile",
                                "src" : 2,
                                "trackNumber" : 1,
                                "attributes" : {
                                  "ident" : "",
                                  "gain" : 1.0,
                                  "mixToMono" : false,
                                  "loudnessNormalization" : true,
                                  "sourceFileOffset" : 0
                                },
                                  "channelNumber" : "0,1",
                                "effects" : [

                                ],
                                "start" : 0,
                                "duration" : 28482720000,
                                "mediaStart" : 0,
                                "mediaDuration" : 28482720000,
                                "scalar" : 1,
                                "animationTracks" : {

                                }
                              }
,
                          "start" : 0,
                          "duration" : 28482720000,
                          "mediaStart" : 0,
                          "mediaDuration" : 28482720000,
                          "scalar" : 1,
                          "metadata" : {
                            "audiateLinkedSession" : "",
                            "clipSpeedAttribute" : false,
                            "default-scale" : "1",
                            "effectApplied" : "none"
                          }
                        },
                        {
                          "id" : 37,
                          "_type" : "UnifiedMedia",
                          "video" : 
                              {
                                "id" : 38,
                                "_type" : "VMFile",
                                "src" : 2,
                                "trackNumber" : 0,
                                "attributes" : {
                                  "ident" : "IMG_0783"
                                },
                                "parameters" : {
                                  "geometryCrop0" : {
                                    "type" : "double",
                                    "defaultValue" : 0.0,
                                    "interp" : "eioe"
                                  },
                                  "geometryCrop1" : {
                                    "type" : "double",
                                    "defaultValue" : 0.0,
                                    "interp" : "eioe"
                                  },
                                  "geometryCrop2" : {
                                    "type" : "double",
                                    "defaultValue" : 0.0,
                                    "interp" : "eioe"
                                  },
                                  "geometryCrop3" : {
                                    "type" : "double",
                                    "defaultValue" : 0.0,
                                    "interp" : "eioe"
                                  }
                                },
                                "effects" : [

                                ],
                                "start" : 28482720000,
                                "duration" : 8349600000,
                                "mediaStart" : 29964480000,
                                "mediaDuration" : 8349600000,
                                "scalar" : 1,
                                "animationTracks" : {

                                }
                              },
                          "audio" : 
                              {
                                "id" : 39,
                                "_type" : "AMFile",
                                "src" : 2,
                                "trackNumber" : 1,
                                "attributes" : {
                                  "ident" : "",
                                  "gain" : 1.0,
                                  "mixToMono" : false,
                                  "loudnessNormalization" : true,
                                  "sourceFileOffset" : 0
                                },
                                  "channelNumber" : "0,1",
                                "effects" : [

                                ],
                                "start" : 28482720000,
                                "duration" : 8349600000,
                                "mediaStart" : 29964480000,
                                "mediaDuration" : 8349600000,
                                "scalar" : 1,
                                "animationTracks" : {

                                }
                              }
,
                          "start" : 28482720000,
                          "duration" : 8349600000,
                          "mediaStart" : 29964480000,
                          "mediaDuration" : 8349600000,
                          "scalar" : 1,
                          "metadata" : {
                            "audiateLinkedSession" : "",
                            "clipSpeedAttribute" : false,
                            "default-scale" : "1",
                            "effectApplied" : "none"
                          }
                        }
                    ],
                    "effects" : [

                    ],
                    "start" : 37443840000,
                    "duration" : 34762560000,
                    "mediaStart" : 705600000,
                    "mediaDuration" : 34762560000,
                    "scalar" : 1,
                    "metadata" : {
                      "audiateLinkedSession" : "",
                      "clipSpeedAttribute" : false,
                      "default-scale" : "1",
                      "effectApplied" : "none"
                    },
                    "animationTracks" : {

                    }
                  }
                ],
                "transitions" : [
                  {
                    "name" : "ArrowsSolid",
                    "duration" : 705600000,
                    "rightMedia" : 33,
                    "attributes" : {
                      "Color-blue" : 0.192156862745098,
                      "Color-green" : 0.631372549019608,
                      "Color-red" : 0.415686274509804,
                      "FlipX" : false,
                      "bypass" : false,
                      "reverse" : false,
                      "trivial" : false,
                      "useAudioPreRoll" : true,
                      "useVisualPreRoll" : true
                    }

                  },
                  {
                    "name" : "ArrowsSolid",
                    "duration" : 705600000,
                    "leftMedia" : 33,
                    "attributes" : {
                      "Color-blue" : 0.192156862745098,
                      "Color-green" : 0.631372549019608,
                      "Color-red" : 0.415686274509804,
                      "FlipX" : false,
                      "bypass" : false,
                      "reverse" : false,
                      "trivial" : false,
                      "useAudioPreRoll" : true,
                      "useVisualPreRoll" : true
                    }

                  }
                ]
              },
              {
                "trackIndex" : 2,
                "medias" : [
                  {
                    "id" : 40,
                    "_type" : "StitchedMedia",
                    "minMediaStart" : 0,
                    "attributes" : {
                      "ident" : "Rec 4-10-2024 11",
                      "gain" : 1.0,
                      "mixToMono" : false,
                      "loudnessNormalization" : true,
                      "sourceFileOffset" : 0
                    },
                    "parameters" : {
                      "translation0" : 1.4210854715202e-13,
                      "translation1" : 3.32859174964426,
                      "scale0" : 0.682788051209104,
                      "scale1" : 0.682788051209104,
                      "geometryCrop0" : 6.05690266460475e-14,
                      "geometryCrop1" : -5.0812941817154e-14,
                      "geometryCrop2" : 6.05690266460475e-14,
                      "geometryCrop3" : -5.0812941817154e-14,
                      "volume" : 0.547334558823529,
                      "cursorOpacity" : 1.0,
                      "cursorScale" : 0.915771663188934,
                      "smoothCursorAcrossEditDuration" : 0
                    },
                    "medias" : [
                        {
                          "id" : 41,
                          "_type" : "UnifiedMedia",
                          "video" : 
                              {
                                "id" : 42,
                                "_type" : "ScreenVMFile",
                                "src" : 4,
                                "trackNumber" : 0,
                                "attributes" : {
                                  "ident" : "Rec 4-10-2024 11"
                                },
                                "parameters" : {
                                  "geometryCrop0" : {
                                    "type" : "double",
                                    "defaultValue" : 0.0,
                                    "interp" : "eioe"
                                  },
                                  "geometryCrop1" : {
                                    "type" : "double",
                                    "defaultValue" : 0.0,
                                    "interp" : "eioe"
                                  },
                                  "geometryCrop2" : {
                                    "type" : "double",
                                    "defaultValue" : 0.0,
                                    "interp" : "eioe"
                                  },
                                  "geometryCrop3" : {
                                    "type" : "double",
                                    "defaultValue" : 0.0,
                                    "interp" : "eioe"
                                  },
                                  "cursorScale" : {
                                    "type" : "double",
                                    "defaultValue" : 0.0,
                                    "interp" : "linr"
                                  },
                                  "cursorOpacity" : {
                                    "type" : "double",
                                    "defaultValue" : 0.0,
                                    "interp" : "linr"
                                  },
                                  "smoothCursorAcrossEditDuration" : 0
                                },
                                "effects" : [

                                ],
                                "start" : 0,
                                "duration" : 4445280000,
                                "mediaStart" : 0,
                                "mediaDuration" : 4445280000,
                                "scalar" : 1,
                                "animationTracks" : {

                                }
                              },
                          "audio" : 
                              {
                                "id" : 43,
                                "_type" : "AMFile",
                                "src" : 4,
                                "trackNumber" : 1,
                                "attributes" : {
                                  "ident" : "",
                                  "gain" : 1.0,
                                  "mixToMono" : false,
                                  "loudnessNormalization" : true,
                                  "sourceFileOffset" : 0
                                },
                                  "channelNumber" : "0",
                                "effects" : [

                                ],
                                "start" : 0,
                                "duration" : 4445280000,
                                "mediaStart" : 0,
                                "mediaDuration" : 4445280000,
                                "scalar" : 1,
                                "animationTracks" : {

                                }
                              }
,
                          "start" : 0,
                          "duration" : 4445280000,
                          "mediaStart" : 0,
                          "mediaDuration" : 4445280000,
                          "scalar" : 1,
                          "metadata" : {
                            "audiateLinkedSession" : "",
                            "clipSpeedAttribute" : false,
                            "default-anchor0" : 0.0,
                            "default-anchor1" : 0.0,
                            "default-anchor2" : 0.0,
                            "default-height" : 858.674253200569,
                            "default-rotation0" : 0.0,
                            "default-rotation1" : 0.0,
                            "default-rotation2" : 0.0,
                            "default-scale0" : 0.546230440967283,
                            "default-scale1" : 0.546230440967283,
                            "default-scale2" : 1.0,
                            "default-shear0" : 0.0,
                            "default-shear1" : 0.0,
                            "default-shear2" : 0.0,
                            "default-translation0" : 0.0,
                            "default-translation1" : 2.66287339971552,
                            "default-translation2" : 0.0,
                            "default-width" : 1536.0,
                            "effectApplied" : "none"
                          }
                        },
                        {
                          "id" : 44,
                          "_type" : "UnifiedMedia",
                          "video" : 
                              {
                                "id" : 45,
                                "_type" : "ScreenVMFile",
                                "src" : 4,
                                "trackNumber" : 0,
                                "attributes" : {
                                  "ident" : "Rec 4-10-2024 11"
                                },
                                "parameters" : {
                                  "geometryCrop0" : {
                                    "type" : "double",
                                    "defaultValue" : 0.0,
                                    "interp" : "eioe"
                                  },
                                  "geometryCrop1" : {
                                    "type" : "double",
                                    "defaultValue" : 0.0,
                                    "interp" : "eioe"
                                  },
                                  "geometryCrop2" : {
                                    "type" : "double",
                                    "defaultValue" : 0.0,
                                    "interp" : "eioe"
                                  },
                                  "geometryCrop3" : {
                                    "type" : "double",
                                    "defaultValue" : 0.0,
                                    "interp" : "eioe"
                                  },
                                  "cursorScale" : {
                                    "type" : "double",
                                    "defaultValue" : 0.0,
                                    "interp" : "linr"
                                  },
                                  "cursorOpacity" : {
                                    "type" : "double",
                                    "defaultValue" : 0.0,
                                    "interp" : "linr"
                                  },
                                  "smoothCursorAcrossEditDuration" : 0
                                },
                                "effects" : [

                                ],
                                "start" : 4445280000,
                                "duration" : 19592160000,
                                "mediaStart" : 30411360000,
                                "mediaDuration" : 19592160000,
                                "scalar" : 1,
                                "animationTracks" : {

                                }
                              },
                          "audio" : 
                              {
                                "id" : 46,
                                "_type" : "AMFile",
                                "src" : 4,
                                "trackNumber" : 1,
                                "attributes" : {
                                  "ident" : "",
                                  "gain" : 1.0,
                                  "mixToMono" : false,
                                  "loudnessNormalization" : true,
                                  "sourceFileOffset" : 0
                                },
                                  "channelNumber" : "0",
                                "effects" : [

                                ],
                                "start" : 4445280000,
                                "duration" : 19592160000,
                                "mediaStart" : 30411360000,
                                "mediaDuration" : 19592160000,
                                "scalar" : 1,
                                "animationTracks" : {

                                }
                              }
,
                          "start" : 4445280000,
                          "duration" : 19592160000,
                          "mediaStart" : 30411360000,
                          "mediaDuration" : 19592160000,
                          "scalar" : 1,
                          "metadata" : {
                            "audiateLinkedSession" : "",
                            "clipSpeedAttribute" : false,
                            "default-anchor0" : 0.0,
                            "default-anchor1" : 0.0,
                            "default-anchor2" : 0.0,
                            "default-height" : 858.674253200569,
                            "default-rotation0" : 0.0,
                            "default-rotation1" : 0.0,
                            "default-rotation2" : 0.0,
                            "default-scale0" : 0.546230440967283,
                            "default-scale1" : 0.546230440967283,
                            "default-scale2" : 1.0,
                            "default-shear0" : 0.0,
                            "default-shear1" : 0.0,
                            "default-shear2" : 0.0,
                            "default-translation0" : 0.0,
                            "default-translation1" : 2.66287339971552,
                            "default-translation2" : 0.0,
                            "default-width" : 1536.0,
                            "effectApplied" : "none"
                          }
                        },
                        {
                          "id" : 47,
                          "_type" : "UnifiedMedia",
                          "video" : 
                              {
                                "id" : 48,
                                "_type" : "ScreenVMFile",
                                "src" : 4,
                                "trackNumber" : 0,
                                "attributes" : {
                                  "ident" : "Rec 4-10-2024 11"
                                },
                                "parameters" : {
                                  "geometryCrop0" : {
                                    "type" : "double",
                                    "defaultValue" : 0.0,
                                    "interp" : "eioe"
                                  },
                                  "geometryCrop1" : {
                                    "type" : "double",
                                    "defaultValue" : 0.0,
                                    "interp" : "eioe"
                                  },
                                  "geometryCrop2" : {
                                    "type" : "double",
                                    "defaultValue" : 0.0,
                                    "interp" : "eioe"
                                  },
                                  "geometryCrop3" : {
                                    "type" : "double",
                                    "defaultValue" : 0.0,
                                    "interp" : "eioe"
                                  },
                                  "cursorScale" : {
                                    "type" : "double",
                                    "defaultValue" : 0.0,
                                    "interp" : "linr"
                                  },
                                  "cursorOpacity" : {
                                    "type" : "double",
                                    "defaultValue" : 0.0,
                                    "interp" : "linr"
                                  },
                                  "smoothCursorAcrossEditDuration" : 0
                                },
                                "effects" : [

                                ],
                                "start" : 24037440000,
                                "duration" : 32739840000,
                                "mediaStart" : 51226560000,
                                "mediaDuration" : 32739840000,
                                "scalar" : 1,
                                "animationTracks" : {

                                }
                              },
                          "audio" : 
                              {
                                "id" : 49,
                                "_type" : "AMFile",
                                "src" : 4,
                                "trackNumber" : 1,
                                "attributes" : {
                                  "ident" : "",
                                  "gain" : 1.0,
                                  "mixToMono" : false,
                                  "loudnessNormalization" : true,
                                  "sourceFileOffset" : 0
                                },
                                  "channelNumber" : "0",
                                "effects" : [

                                ],
                                "start" : 24037440000,
                                "duration" : 32739840000,
                                "mediaStart" : 51226560000,
                                "mediaDuration" : 32739840000,
                                "scalar" : 1,
                                "animationTracks" : {

                                }
                              }
,
                          "start" : 24037440000,
                          "duration" : 32739840000,
                          "mediaStart" : 51226560000,
                          "mediaDuration" : 32739840000,
                          "scalar" : 1,
                          "metadata" : {
                            "audiateLinkedSession" : "",
                            "clipSpeedAttribute" : false,
                            "default-anchor0" : 0.0,
                            "default-anchor1" : 0.0,
                            "default-anchor2" : 0.0,
                            "default-height" : 858.674253200569,
                            "default-rotation0" : 0.0,
                            "default-rotation1" : 0.0,
                            "default-rotation2" : 0.0,
                            "default-scale0" : 0.546230440967283,
                            "default-scale1" : 0.546230440967283,
                            "default-scale2" : 1.0,
                            "default-shear0" : 0.0,
                            "default-shear1" : 0.0,
                            "default-shear2" : 0.0,
                            "default-translation0" : 0.0,
                            "default-translation1" : 2.66287339971552,
                            "default-translation2" : 0.0,
                            "default-width" : 1536.0,
                            "effectApplied" : "none"
                          }
                        },
                        {
                          "id" : 50,
                          "_type" : "UnifiedMedia",
                          "video" : 
                              {
                                "id" : 51,
                                "_type" : "ScreenVMFile",
                                "src" : 4,
                                "trackNumber" : 0,
                                "attributes" : {
                                  "ident" : "Rec 4-10-2024 11"
                                },
                                "parameters" : {
                                  "geometryCrop0" : {
                                    "type" : "double",
                                    "defaultValue" : 0.0,
                                    "interp" : "eioe"
                                  },
                                  "geometryCrop1" : {
                                    "type" : "double",
                                    "defaultValue" : 0.0,
                                    "interp" : "eioe"
                                  },
                                  "geometryCrop2" : {
                                    "type" : "double",
                                    "defaultValue" : 0.0,
                                    "interp" : "eioe"
                                  },
                                  "geometryCrop3" : {
                                    "type" : "double",
                                    "defaultValue" : 0.0,
                                    "interp" : "eioe"
                                  },
                                  "cursorScale" : {
                                    "type" : "double",
                                    "defaultValue" : 0.0,
                                    "interp" : "linr"
                                  },
                                  "cursorOpacity" : {
                                    "type" : "double",
                                    "defaultValue" : 0.0,
                                    "interp" : "linr"
                                  },
                                  "smoothCursorAcrossEditDuration" : 0
                                },
                                "effects" : [

                                ],
                                "start" : 56777280000,
                                "duration" : 1270080000,
                                "mediaStart" : 84907200000,
                                "mediaDuration" : 1270080000,
                                "scalar" : 1,
                                "animationTracks" : {

                                }
                              },
                          "audio" : 
                              {
                                "id" : 52,
                                "_type" : "AMFile",
                                "src" : 4,
                                "trackNumber" : 1,
                                "attributes" : {
                                  "ident" : "",
                                  "gain" : 1.0,
                                  "mixToMono" : false,
                                  "loudnessNormalization" : true,
                                  "sourceFileOffset" : 0
                                },
                                  "channelNumber" : "0",
                                "effects" : [

                                ],
                                "start" : 56777280000,
                                "duration" : 1270080000,
                                "mediaStart" : 84907200000,
                                "mediaDuration" : 1270080000,
                                "scalar" : 1,
                                "animationTracks" : {

                                }
                              }
,
                          "start" : 56777280000,
                          "duration" : 1270080000,
                          "mediaStart" : 84907200000,
                          "mediaDuration" : 1270080000,
                          "scalar" : 1,
                          "metadata" : {
                            "audiateLinkedSession" : "",
                            "clipSpeedAttribute" : false,
                            "default-anchor0" : 0.0,
                            "default-anchor1" : 0.0,
                            "default-anchor2" : 0.0,
                            "default-height" : 858.674253200569,
                            "default-rotation0" : 0.0,
                            "default-rotation1" : 0.0,
                            "default-rotation2" : 0.0,
                            "default-scale0" : 0.546230440967283,
                            "default-scale1" : 0.546230440967283,
                            "default-scale2" : 1.0,
                            "default-shear0" : 0.0,
                            "default-shear1" : 0.0,
                            "default-shear2" : 0.0,
                            "default-translation0" : 0.0,
                            "default-translation1" : 2.66287339971552,
                            "default-translation2" : 0.0,
                            "default-width" : 1536.0,
                            "effectApplied" : "none"
                          }
                        },
                        {
                          "id" : 53,
                          "_type" : "UnifiedMedia",
                          "video" : 
                              {
                                "id" : 54,
                                "_type" : "ScreenVMFile",
                                "src" : 4,
                                "trackNumber" : 0,
                                "attributes" : {
                                  "ident" : "Rec 4-10-2024 11"
                                },
                                "parameters" : {
                                  "geometryCrop0" : {
                                    "type" : "double",
                                    "defaultValue" : 0.0,
                                    "interp" : "eioe"
                                  },
                                  "geometryCrop1" : {
                                    "type" : "double",
                                    "defaultValue" : 0.0,
                                    "interp" : "eioe"
                                  },
                                  "geometryCrop2" : {
                                    "type" : "double",
                                    "defaultValue" : 0.0,
                                    "interp" : "eioe"
                                  },
                                  "geometryCrop3" : {
                                    "type" : "double",
                                    "defaultValue" : 0.0,
                                    "interp" : "eioe"
                                  },
                                  "cursorScale" : {
                                    "type" : "double",
                                    "defaultValue" : 0.0,
                                    "interp" : "linr"
                                  },
                                  "cursorOpacity" : {
                                    "type" : "double",
                                    "defaultValue" : 0.0,
                                    "interp" : "linr"
                                  },
                                  "smoothCursorAcrossEditDuration" : 0
                                },
                                "effects" : [

                                ],
                                "start" : 58047360000,
                                "duration" : 70560000,
                                "mediaStart" : 87447360000,
                                "mediaDuration" : 70560000,
                                "scalar" : 1,
                                "animationTracks" : {

                                }
                              },
                          "audio" : 
                              {
                                "id" : 55,
                                "_type" : "AMFile",
                                "src" : 4,
                                "trackNumber" : 1,
                                "attributes" : {
                                  "ident" : "",
                                  "gain" : 1.0,
                                  "mixToMono" : false,
                                  "loudnessNormalization" : true,
                                  "sourceFileOffset" : 0
                                },
                                  "channelNumber" : "0",
                                "effects" : [

                                ],
                                "start" : 58047360000,
                                "duration" : 70560000,
                                "mediaStart" : 87447360000,
                                "mediaDuration" : 70560000,
                                "scalar" : 1,
                                "animationTracks" : {

                                }
                              }
,
                          "start" : 58047360000,
                          "duration" : 70560000,
                          "mediaStart" : 87447360000,
                          "mediaDuration" : 70560000,
                          "scalar" : 1,
                          "metadata" : {
                            "audiateLinkedSession" : "",
                            "clipSpeedAttribute" : false,
                            "default-anchor0" : 0.0,
                            "default-anchor1" : 0.0,
                            "default-anchor2" : 0.0,
                            "default-height" : 858.674253200569,
                            "default-rotation0" : 0.0,
                            "default-rotation1" : 0.0,
                            "default-rotation2" : 0.0,
                            "default-scale0" : 0.546230440967283,
                            "default-scale1" : 0.546230440967283,
                            "default-scale2" : 1.0,
                            "default-shear0" : 0.0,
                            "default-shear1" : 0.0,
                            "default-shear2" : 0.0,
                            "default-translation0" : 0.0,
                            "default-translation1" : 2.66287339971552,
                            "default-translation2" : 0.0,
                            "default-width" : 1536.0,
                            "effectApplied" : "none"
                          }
                        },
                        {
                          "id" : 56,
                          "_type" : "UnifiedMedia",
                          "video" : 
                              {
                                "id" : 57,
                                "_type" : "ScreenVMFile",
                                "src" : 4,
                                "trackNumber" : 0,
                                "attributes" : {
                                  "ident" : "Rec 4-10-2024 11"
                                },
                                "parameters" : {
                                  "geometryCrop0" : {
                                    "type" : "double",
                                    "defaultValue" : 0.0,
                                    "interp" : "eioe"
                                  },
                                  "geometryCrop1" : {
                                    "type" : "double",
                                    "defaultValue" : 0.0,
                                    "interp" : "eioe"
                                  },
                                  "geometryCrop2" : {
                                    "type" : "double",
                                    "defaultValue" : 0.0,
                                    "interp" : "eioe"
                                  },
                                  "geometryCrop3" : {
                                    "type" : "double",
                                    "defaultValue" : 0.0,
                                    "interp" : "eioe"
                                  },
                                  "cursorScale" : {
                                    "type" : "double",
                                    "defaultValue" : 0.0,
                                    "interp" : "linr"
                                  },
                                  "cursorOpacity" : {
                                    "type" : "double",
                                    "defaultValue" : 0.0,
                                    "interp" : "linr"
                                  },
                                  "smoothCursorAcrossEditDuration" : 0
                                },
                                "effects" : [

                                ],
                                "start" : 58117920000,
                                "duration" : 9384480000,
                                "mediaStart" : 89846400000,
                                "mediaDuration" : 9384480000,
                                "scalar" : 1,
                                "animationTracks" : {

                                }
                              },
                          "audio" : 
                              {
                                "id" : 58,
                                "_type" : "AMFile",
                                "src" : 4,
                                "trackNumber" : 1,
                                "attributes" : {
                                  "ident" : "",
                                  "gain" : 1.0,
                                  "mixToMono" : false,
                                  "loudnessNormalization" : true,
                                  "sourceFileOffset" : 0
                                },
                                  "channelNumber" : "0",
                                "effects" : [

                                ],
                                "start" : 58117920000,
                                "duration" : 9384480000,
                                "mediaStart" : 89846400000,
                                "mediaDuration" : 9384480000,
                                "scalar" : 1,
                                "animationTracks" : {

                                }
                              }
,
                          "start" : 58117920000,
                          "duration" : 9384480000,
                          "mediaStart" : 89846400000,
                          "mediaDuration" : 9384480000,
                          "scalar" : 1,
                          "metadata" : {
                            "audiateLinkedSession" : "",
                            "clipSpeedAttribute" : false,
                            "default-anchor0" : 0.0,
                            "default-anchor1" : 0.0,
                            "default-anchor2" : 0.0,
                            "default-height" : 858.674253200569,
                            "default-rotation0" : 0.0,
                            "default-rotation1" : 0.0,
                            "default-rotation2" : 0.0,
                            "default-scale0" : 0.546230440967283,
                            "default-scale1" : 0.546230440967283,
                            "default-scale2" : 1.0,
                            "default-shear0" : 0.0,
                            "default-shear1" : 0.0,
                            "default-shear2" : 0.0,
                            "default-translation0" : 0.0,
                            "default-translation1" : 2.66287339971552,
                            "default-translation2" : 0.0,
                            "default-width" : 1536.0,
                            "effectApplied" : "none"
                          }
                        },
                        {
                          "id" : 59,
                          "_type" : "UnifiedMedia",
                          "video" : 
                              {
                                "id" : 60,
                                "_type" : "ScreenVMFile",
                                "src" : 4,
                                "trackNumber" : 0,
                                "attributes" : {
                                  "ident" : "Rec 4-10-2024 11"
                                },
                                "parameters" : {
                                  "geometryCrop0" : {
                                    "type" : "double",
                                    "defaultValue" : 0.0,
                                    "interp" : "eioe"
                                  },
                                  "geometryCrop1" : {
                                    "type" : "double",
                                    "defaultValue" : 0.0,
                                    "interp" : "eioe"
                                  },
                                  "geometryCrop2" : {
                                    "type" : "double",
                                    "defaultValue" : 0.0,
                                    "interp" : "eioe"
                                  },
                                  "geometryCrop3" : {
                                    "type" : "double",
                                    "defaultValue" : 0.0,
                                    "interp" : "eioe"
                                  },
                                  "cursorScale" : {
                                    "type" : "double",
                                    "defaultValue" : 0.0,
                                    "interp" : "linr"
                                  },
                                  "cursorOpacity" : {
                                    "type" : "double",
                                    "defaultValue" : 0.0,
                                    "interp" : "linr"
                                  },
                                  "smoothCursorAcrossEditDuration" : 0
                                },
                                "effects" : [

                                ],
                                "start" : 67502400000,
                                "duration" : 3292800000,
                                "mediaStart" : 112872480000,
                                "mediaDuration" : 3292800000,
                                "scalar" : 1,
                                "animationTracks" : {

                                }
                              },
                          "audio" : 
                              {
                                "id" : 61,
                                "_type" : "AMFile",
                                "src" : 4,
                                "trackNumber" : 1,
                                "attributes" : {
                                  "ident" : "",
                                  "gain" : 1.0,
                                  "mixToMono" : false,
                                  "loudnessNormalization" : true,
                                  "sourceFileOffset" : 0
                                },
                                  "channelNumber" : "0",
                                "effects" : [

                                ],
                                "start" : 67502400000,
                                "duration" : 3292800000,
                                "mediaStart" : 112872480000,
                                "mediaDuration" : 3292800000,
                                "scalar" : 1,
                                "animationTracks" : {

                                }
                              }
,
                          "start" : 67502400000,
                          "duration" : 3292800000,
                          "mediaStart" : 112872480000,
                          "mediaDuration" : 3292800000,
                          "scalar" : 1,
                          "metadata" : {
                            "audiateLinkedSession" : "",
                            "clipSpeedAttribute" : false,
                            "default-anchor0" : 0.0,
                            "default-anchor1" : 0.0,
                            "default-anchor2" : 0.0,
                            "default-height" : 858.674253200569,
                            "default-rotation0" : 0.0,
                            "default-rotation1" : 0.0,
                            "default-rotation2" : 0.0,
                            "default-scale0" : 0.546230440967283,
                            "default-scale1" : 0.546230440967283,
                            "default-scale2" : 1.0,
                            "default-shear0" : 0.0,
                            "default-shear1" : 0.0,
                            "default-shear2" : 0.0,
                            "default-translation0" : 0.0,
                            "default-translation1" : 2.66287339971552,
                            "default-translation2" : 0.0,
                            "default-width" : 1536.0,
                            "effectApplied" : "none"
                          }
                        },
                        {
                          "id" : 62,
                          "_type" : "UnifiedMedia",
                          "video" : 
                              {
                                "id" : 63,
                                "_type" : "ScreenVMFile",
                                "src" : 4,
                                "trackNumber" : 0,
                                "attributes" : {
                                  "ident" : "Rec 4-10-2024 11"
                                },
                                "parameters" : {
                                  "geometryCrop0" : {
                                    "type" : "double",
                                    "defaultValue" : 0.0,
                                    "interp" : "eioe"
                                  },
                                  "geometryCrop1" : {
                                    "type" : "double",
                                    "defaultValue" : 0.0,
                                    "interp" : "eioe"
                                  },
                                  "geometryCrop2" : {
                                    "type" : "double",
                                    "defaultValue" : 0.0,
                                    "interp" : "eioe"
                                  },
                                  "geometryCrop3" : {
                                    "type" : "double",
                                    "defaultValue" : 0.0,
                                    "interp" : "eioe"
                                  },
                                  "cursorScale" : {
                                    "type" : "double",
                                    "defaultValue" : 0.0,
                                    "interp" : "linr"
                                  },
                                  "cursorOpacity" : {
                                    "type" : "double",
                                    "defaultValue" : 0.0,
                                    "interp" : "linr"
                                  },
                                  "smoothCursorAcrossEditDuration" : 0
                                },
                                "effects" : [

                                ],
                                "start" : 70795200000,
                                "duration" : 1270080000,
                                "mediaStart" : 124491360000,
                                "mediaDuration" : 1270080000,
                                "scalar" : 1,
                                "animationTracks" : {

                                }
                              },
                          "audio" : 
                              {
                                "id" : 64,
                                "_type" : "AMFile",
                                "src" : 4,
                                "trackNumber" : 1,
                                "attributes" : {
                                  "ident" : "",
                                  "gain" : 1.0,
                                  "mixToMono" : false,
                                  "loudnessNormalization" : true,
                                  "sourceFileOffset" : 0
                                },
                                  "channelNumber" : "0",
                                "effects" : [

                                ],
                                "start" : 70795200000,
                                "duration" : 1270080000,
                                "mediaStart" : 124491360000,
                                "mediaDuration" : 1270080000,
                                "scalar" : 1,
                                "animationTracks" : {

                                }
                              }
,
                          "start" : 70795200000,
                          "duration" : 1270080000,
                          "mediaStart" : 124491360000,
                          "mediaDuration" : 1270080000,
                          "scalar" : 1,
                          "metadata" : {
                            "audiateLinkedSession" : "",
                            "clipSpeedAttribute" : false,
                            "default-anchor0" : 0.0,
                            "default-anchor1" : 0.0,
                            "default-anchor2" : 0.0,
                            "default-height" : 858.674253200569,
                            "default-rotation0" : 0.0,
                            "default-rotation1" : 0.0,
                            "default-rotation2" : 0.0,
                            "default-scale0" : 0.546230440967283,
                            "default-scale1" : 0.546230440967283,
                            "default-scale2" : 1.0,
                            "default-shear0" : 0.0,
                            "default-shear1" : 0.0,
                            "default-shear2" : 0.0,
                            "default-translation0" : 0.0,
                            "default-translation1" : 2.66287339971552,
                            "default-translation2" : 0.0,
                            "default-width" : 1536.0,
                            "effectApplied" : "none"
                          }
                        },
                        {
                          "id" : 65,
                          "_type" : "UnifiedMedia",
                          "video" : 
                              {
                                "id" : 66,
                                "_type" : "ScreenVMFile",
                                "src" : 4,
                                "trackNumber" : 0,
                                "attributes" : {
                                  "ident" : "Rec 4-10-2024 11"
                                },
                                "parameters" : {
                                  "geometryCrop0" : {
                                    "type" : "double",
                                    "defaultValue" : 0.0,
                                    "interp" : "eioe"
                                  },
                                  "geometryCrop1" : {
                                    "type" : "double",
                                    "defaultValue" : 0.0,
                                    "interp" : "eioe"
                                  },
                                  "geometryCrop2" : {
                                    "type" : "double",
                                    "defaultValue" : 0.0,
                                    "interp" : "eioe"
                                  },
                                  "geometryCrop3" : {
                                    "type" : "double",
                                    "defaultValue" : 0.0,
                                    "interp" : "eioe"
                                  },
                                  "cursorScale" : {
                                    "type" : "double",
                                    "defaultValue" : 0.0,
                                    "interp" : "linr"
                                  },
                                  "cursorOpacity" : {
                                    "type" : "double",
                                    "defaultValue" : 0.0,
                                    "interp" : "linr"
                                  },
                                  "smoothCursorAcrossEditDuration" : 0
                                },
                                "effects" : [

                                ],
                                "start" : 72065280000,
                                "duration" : 1199520000,
                                "mediaStart" : 129054240000,
                                "mediaDuration" : 1199520000,
                                "scalar" : 1,
                                "animationTracks" : {

                                }
                              },
                          "audio" : 
                              {
                                "id" : 67,
                                "_type" : "AMFile",
                                "src" : 4,
                                "trackNumber" : 1,
                                "attributes" : {
                                  "ident" : "",
                                  "gain" : 1.0,
                                  "mixToMono" : false,
                                  "loudnessNormalization" : true,
                                  "sourceFileOffset" : 0
                                },
                                  "channelNumber" : "0",
                                "effects" : [

                                ],
                                "start" : 72065280000,
                                "duration" : 1199520000,
                                "mediaStart" : 129054240000,
                                "mediaDuration" : 1199520000,
                                "scalar" : 1,
                                "animationTracks" : {

                                }
                              }
,
                          "start" : 72065280000,
                          "duration" : 1199520000,
                          "mediaStart" : 129054240000,
                          "mediaDuration" : 1199520000,
                          "scalar" : 1,
                          "metadata" : {
                            "audiateLinkedSession" : "",
                            "clipSpeedAttribute" : false,
                            "default-anchor0" : 0.0,
                            "default-anchor1" : 0.0,
                            "default-anchor2" : 0.0,
                            "default-height" : 858.674253200569,
                            "default-rotation0" : 0.0,
                            "default-rotation1" : 0.0,
                            "default-rotation2" : 0.0,
                            "default-scale0" : 0.546230440967283,
                            "default-scale1" : 0.546230440967283,
                            "default-scale2" : 1.0,
                            "default-shear0" : 0.0,
                            "default-shear1" : 0.0,
                            "default-shear2" : 0.0,
                            "default-translation0" : 0.0,
                            "default-translation1" : 2.66287339971552,
                            "default-translation2" : 0.0,
                            "default-width" : 1536.0,
                            "effectApplied" : "none"
                          }
                        },
                        {
                          "id" : 68,
                          "_type" : "UnifiedMedia",
                          "video" : 
                              {
                                "id" : 69,
                                "_type" : "ScreenVMFile",
                                "src" : 4,
                                "trackNumber" : 0,
                                "attributes" : {
                                  "ident" : "Rec 4-10-2024 11"
                                },
                                "parameters" : {
                                  "geometryCrop0" : {
                                    "type" : "double",
                                    "defaultValue" : 0.0,
                                    "interp" : "eioe"
                                  },
                                  "geometryCrop1" : {
                                    "type" : "double",
                                    "defaultValue" : 0.0,
                                    "interp" : "eioe"
                                  },
                                  "geometryCrop2" : {
                                    "type" : "double",
                                    "defaultValue" : 0.0,
                                    "interp" : "eioe"
                                  },
                                  "geometryCrop3" : {
                                    "type" : "double",
                                    "defaultValue" : 0.0,
                                    "interp" : "eioe"
                                  },
                                  "cursorScale" : {
                                    "type" : "double",
                                    "defaultValue" : 0.0,
                                    "interp" : "linr"
                                  },
                                  "cursorOpacity" : {
                                    "type" : "double",
                                    "defaultValue" : 0.0,
                                    "interp" : "linr"
                                  },
                                  "smoothCursorAcrossEditDuration" : 0
                                },
                                "effects" : [

                                ],
                                "start" : 73264800000,
                                "duration" : 2375520000,
                                "mediaStart" : 133099680000,
                                "mediaDuration" : 2375520000,
                                "scalar" : 1,
                                "animationTracks" : {

                                }
                              },
                          "audio" : 
                              {
                                "id" : 70,
                                "_type" : "AMFile",
                                "src" : 4,
                                "trackNumber" : 1,
                                "attributes" : {
                                  "ident" : "",
                                  "gain" : 1.0,
                                  "mixToMono" : false,
                                  "loudnessNormalization" : true,
                                  "sourceFileOffset" : 0
                                },
                                  "channelNumber" : "0",
                                "effects" : [

                                ],
                                "start" : 73264800000,
                                "duration" : 2375520000,
                                "mediaStart" : 133099680000,
                                "mediaDuration" : 2375520000,
                                "scalar" : 1,
                                "animationTracks" : {

                                }
                              }
,
                          "start" : 73264800000,
                          "duration" : 2375520000,
                          "mediaStart" : 133099680000,
                          "mediaDuration" : 2375520000,
                          "scalar" : 1,
                          "metadata" : {
                            "audiateLinkedSession" : "",
                            "clipSpeedAttribute" : false,
                            "default-anchor0" : 0.0,
                            "default-anchor1" : 0.0,
                            "default-anchor2" : 0.0,
                            "default-height" : 858.674253200569,
                            "default-rotation0" : 0.0,
                            "default-rotation1" : 0.0,
                            "default-rotation2" : 0.0,
                            "default-scale0" : 0.546230440967283,
                            "default-scale1" : 0.546230440967283,
                            "default-scale2" : 1.0,
                            "default-shear0" : 0.0,
                            "default-shear1" : 0.0,
                            "default-shear2" : 0.0,
                            "default-translation0" : 0.0,
                            "default-translation1" : 2.66287339971552,
                            "default-translation2" : 0.0,
                            "default-width" : 1536.0,
                            "effectApplied" : "none"
                          }
                        },
                        {
                          "id" : 71,
                          "_type" : "UnifiedMedia",
                          "video" : 
                              {
                                "id" : 72,
                                "_type" : "ScreenVMFile",
                                "src" : 4,
                                "trackNumber" : 0,
                                "attributes" : {
                                  "ident" : "Rec 4-10-2024 11"
                                },
                                "parameters" : {
                                  "geometryCrop0" : {
                                    "type" : "double",
                                    "defaultValue" : 0.0,
                                    "interp" : "eioe"
                                  },
                                  "geometryCrop1" : {
                                    "type" : "double",
                                    "defaultValue" : 0.0,
                                    "interp" : "eioe"
                                  },
                                  "geometryCrop2" : {
                                    "type" : "double",
                                    "defaultValue" : 0.0,
                                    "interp" : "eioe"
                                  },
                                  "geometryCrop3" : {
                                    "type" : "double",
                                    "defaultValue" : 0.0,
                                    "interp" : "eioe"
                                  },
                                  "cursorScale" : {
                                    "type" : "double",
                                    "defaultValue" : 0.0,
                                    "interp" : "linr"
                                  },
                                  "cursorOpacity" : {
                                    "type" : "double",
                                    "defaultValue" : 0.0,
                                    "interp" : "linr"
                                  },
                                  "smoothCursorAcrossEditDuration" : 0
                                },
                                "effects" : [

                                ],
                                "start" : 75640320000,
                                "duration" : 1387680000,
                                "mediaStart" : 144412800000,
                                "mediaDuration" : 1387680000,
                                "scalar" : 1,
                                "animationTracks" : {

                                }
                              },
                          "audio" : 
                              {
                                "id" : 73,
                                "_type" : "AMFile",
                                "src" : 4,
                                "trackNumber" : 1,
                                "attributes" : {
                                  "ident" : "",
                                  "gain" : 1.0,
                                  "mixToMono" : false,
                                  "loudnessNormalization" : true,
                                  "sourceFileOffset" : 0
                                },
                                  "channelNumber" : "0",
                                "effects" : [

                                ],
                                "start" : 75640320000,
                                "duration" : 1387680000,
                                "mediaStart" : 144412800000,
                                "mediaDuration" : 1387680000,
                                "scalar" : 1,
                                "animationTracks" : {

                                }
                              }
,
                          "start" : 75640320000,
                          "duration" : 1387680000,
                          "mediaStart" : 144412800000,
                          "mediaDuration" : 1387680000,
                          "scalar" : 1,
                          "metadata" : {
                            "audiateLinkedSession" : "",
                            "clipSpeedAttribute" : false,
                            "default-anchor0" : 0.0,
                            "default-anchor1" : 0.0,
                            "default-anchor2" : 0.0,
                            "default-height" : 858.674253200569,
                            "default-rotation0" : 0.0,
                            "default-rotation1" : 0.0,
                            "default-rotation2" : 0.0,
                            "default-scale0" : 0.546230440967283,
                            "default-scale1" : 0.546230440967283,
                            "default-scale2" : 1.0,
                            "default-shear0" : 0.0,
                            "default-shear1" : 0.0,
                            "default-shear2" : 0.0,
                            "default-translation0" : 0.0,
                            "default-translation1" : 2.66287339971552,
                            "default-translation2" : 0.0,
                            "default-width" : 1536.0,
                            "effectApplied" : "none"
                          }
                        },
                        {
                          "id" : 74,
                          "_type" : "UnifiedMedia",
                          "video" : 
                              {
                                "id" : 75,
                                "_type" : "ScreenVMFile",
                                "src" : 4,
                                "trackNumber" : 0,
                                "attributes" : {
                                  "ident" : "Rec 4-10-2024 11"
                                },
                                "parameters" : {
                                  "geometryCrop0" : {
                                    "type" : "double",
                                    "defaultValue" : 0.0,
                                    "interp" : "eioe"
                                  },
                                  "geometryCrop1" : {
                                    "type" : "double",
                                    "defaultValue" : 0.0,
                                    "interp" : "eioe"
                                  },
                                  "geometryCrop2" : {
                                    "type" : "double",
                                    "defaultValue" : 0.0,
                                    "interp" : "eioe"
                                  },
                                  "geometryCrop3" : {
                                    "type" : "double",
                                    "defaultValue" : 0.0,
                                    "interp" : "eioe"
                                  },
                                  "cursorScale" : {
                                    "type" : "double",
                                    "defaultValue" : 0.0,
                                    "interp" : "linr"
                                  },
                                  "cursorOpacity" : {
                                    "type" : "double",
                                    "defaultValue" : 0.0,
                                    "interp" : "linr"
                                  },
                                  "smoothCursorAcrossEditDuration" : 0
                                },
                                "effects" : [

                                ],
                                "start" : 77028000000,
                                "duration" : 23520000,
                                "mediaStart" : 146835360000,
                                "mediaDuration" : 23520000,
                                "scalar" : 1,
                                "animationTracks" : {

                                }
                              },
                          "audio" : 
                              {
                                "id" : 76,
                                "_type" : "AMFile",
                                "src" : 4,
                                "trackNumber" : 1,
                                "attributes" : {
                                  "ident" : "",
                                  "gain" : 1.0,
                                  "mixToMono" : false,
                                  "loudnessNormalization" : true,
                                  "sourceFileOffset" : 0
                                },
                                  "channelNumber" : "0",
                                "effects" : [

                                ],
                                "start" : 77028000000,
                                "duration" : 23520000,
                                "mediaStart" : 146835360000,
                                "mediaDuration" : 23520000,
                                "scalar" : 1,
                                "animationTracks" : {

                                }
                              }
,
                          "start" : 77028000000,
                          "duration" : 23520000,
                          "mediaStart" : 146835360000,
                          "mediaDuration" : 23520000,
                          "scalar" : 1,
                          "metadata" : {
                            "audiateLinkedSession" : "",
                            "clipSpeedAttribute" : false,
                            "default-anchor0" : 0.0,
                            "default-anchor1" : 0.0,
                            "default-anchor2" : 0.0,
                            "default-height" : 858.674253200569,
                            "default-rotation0" : 0.0,
                            "default-rotation1" : 0.0,
                            "default-rotation2" : 0.0,
                            "default-scale0" : 0.546230440967283,
                            "default-scale1" : 0.546230440967283,
                            "default-scale2" : 1.0,
                            "default-shear0" : 0.0,
                            "default-shear1" : 0.0,
                            "default-shear2" : 0.0,
                            "default-translation0" : 0.0,
                            "default-translation1" : 2.66287339971552,
                            "default-translation2" : 0.0,
                            "default-width" : 1536.0,
                            "effectApplied" : "none"
                          }
                        },
                        {
                          "id" : 77,
                          "_type" : "UnifiedMedia",
                          "video" : 
                              {
                                "id" : 78,
                                "_type" : "ScreenVMFile",
                                "src" : 4,
                                "trackNumber" : 0,
                                "attributes" : {
                                  "ident" : "Rec 4-10-2024 11"
                                },
                                "parameters" : {
                                  "geometryCrop0" : {
                                    "type" : "double",
                                    "defaultValue" : 0.0,
                                    "interp" : "eioe"
                                  },
                                  "geometryCrop1" : {
                                    "type" : "double",
                                    "defaultValue" : 0.0,
                                    "interp" : "eioe"
                                  },
                                  "geometryCrop2" : {
                                    "type" : "double",
                                    "defaultValue" : 0.0,
                                    "interp" : "eioe"
                                  },
                                  "geometryCrop3" : {
                                    "type" : "double",
                                    "defaultValue" : 0.0,
                                    "interp" : "eioe"
                                  },
                                  "cursorScale" : {
                                    "type" : "double",
                                    "defaultValue" : 0.0,
                                    "interp" : "linr"
                                  },
                                  "cursorOpacity" : {
                                    "type" : "double",
                                    "defaultValue" : 0.0,
                                    "interp" : "linr"
                                  },
                                  "smoothCursorAcrossEditDuration" : 0
                                },
                                "effects" : [

                                ],
                                "start" : 77051520000,
                                "duration" : 19733280000,
                                "mediaStart" : 160241760000,
                                "mediaDuration" : 19733280000,
                                "scalar" : 1,
                                "animationTracks" : {

                                }
                              },
                          "audio" : 
                              {
                                "id" : 79,
                                "_type" : "AMFile",
                                "src" : 4,
                                "trackNumber" : 1,
                                "attributes" : {
                                  "ident" : "",
                                  "gain" : 1.0,
                                  "mixToMono" : false,
                                  "loudnessNormalization" : true,
                                  "sourceFileOffset" : 0
                                },
                                  "channelNumber" : "0",
                                "effects" : [

                                ],
                                "start" : 77051520000,
                                "duration" : 19733280000,
                                "mediaStart" : 160241760000,
                                "mediaDuration" : 19733280000,
                                "scalar" : 1,
                                "animationTracks" : {

                                }
                              }
,
                          "start" : 77051520000,
                          "duration" : 19733280000,
                          "mediaStart" : 160241760000,
                          "mediaDuration" : 19733280000,
                          "scalar" : 1,
                          "metadata" : {
                            "audiateLinkedSession" : "",
                            "clipSpeedAttribute" : false,
                            "default-anchor0" : 0.0,
                            "default-anchor1" : 0.0,
                            "default-anchor2" : 0.0,
                            "default-height" : 858.674253200569,
                            "default-rotation0" : 0.0,
                            "default-rotation1" : 0.0,
                            "default-rotation2" : 0.0,
                            "default-scale0" : 0.546230440967283,
                            "default-scale1" : 0.546230440967283,
                            "default-scale2" : 1.0,
                            "default-shear0" : 0.0,
                            "default-shear1" : 0.0,
                            "default-shear2" : 0.0,
                            "default-translation0" : 0.0,
                            "default-translation1" : 2.66287339971552,
                            "default-translation2" : 0.0,
                            "default-width" : 1536.0,
                            "effectApplied" : "none"
                          }
                        },
                        {
                          "id" : 80,
                          "_type" : "UnifiedMedia",
                          "video" : 
                              {
                                "id" : 81,
                                "_type" : "ScreenVMFile",
                                "src" : 4,
                                "trackNumber" : 0,
                                "attributes" : {
                                  "ident" : "Rec 4-10-2024 11"
                                },
                                "parameters" : {
                                  "geometryCrop0" : {
                                    "type" : "double",
                                    "defaultValue" : 0.0,
                                    "interp" : "eioe"
                                  },
                                  "geometryCrop1" : {
                                    "type" : "double",
                                    "defaultValue" : 0.0,
                                    "interp" : "eioe"
                                  },
                                  "geometryCrop2" : {
                                    "type" : "double",
                                    "defaultValue" : 0.0,
                                    "interp" : "eioe"
                                  },
                                  "geometryCrop3" : {
                                    "type" : "double",
                                    "defaultValue" : 0.0,
                                    "interp" : "eioe"
                                  },
                                  "cursorScale" : {
                                    "type" : "double",
                                    "defaultValue" : 0.0,
                                    "interp" : "linr"
                                  },
                                  "cursorOpacity" : {
                                    "type" : "double",
                                    "defaultValue" : 0.0,
                                    "interp" : "linr"
                                  },
                                  "smoothCursorAcrossEditDuration" : 0
                                },
                                "effects" : [

                                ],
                                "start" : 96784800000,
                                "duration" : 5762400000,
                                "mediaStart" : 182421120000,
                                "mediaDuration" : 5762400000,
                                "scalar" : 1,
                                "animationTracks" : {

                                }
                              },
                          "audio" : 
                              {
                                "id" : 82,
                                "_type" : "AMFile",
                                "src" : 4,
                                "trackNumber" : 1,
                                "attributes" : {
                                  "ident" : "",
                                  "gain" : 1.0,
                                  "mixToMono" : false,
                                  "loudnessNormalization" : true,
                                  "sourceFileOffset" : 0
                                },
                                  "channelNumber" : "0",
                                "effects" : [

                                ],
                                "start" : 96784800000,
                                "duration" : 5762400000,
                                "mediaStart" : 182421120000,
                                "mediaDuration" : 5762400000,
                                "scalar" : 1,
                                "animationTracks" : {

                                }
                              }
,
                          "start" : 96784800000,
                          "duration" : 5762400000,
                          "mediaStart" : 182421120000,
                          "mediaDuration" : 5762400000,
                          "scalar" : 1,
                          "metadata" : {
                            "audiateLinkedSession" : "",
                            "clipSpeedAttribute" : false,
                            "default-anchor0" : 0.0,
                            "default-anchor1" : 0.0,
                            "default-anchor2" : 0.0,
                            "default-height" : 858.674253200569,
                            "default-rotation0" : 0.0,
                            "default-rotation1" : 0.0,
                            "default-rotation2" : 0.0,
                            "default-scale0" : 0.546230440967283,
                            "default-scale1" : 0.546230440967283,
                            "default-scale2" : 1.0,
                            "default-shear0" : 0.0,
                            "default-shear1" : 0.0,
                            "default-shear2" : 0.0,
                            "default-translation0" : 0.0,
                            "default-translation1" : 2.66287339971552,
                            "default-translation2" : 0.0,
                            "default-width" : 1536.0,
                            "effectApplied" : "none"
                          }
                        },
                        {
                          "id" : 83,
                          "_type" : "UnifiedMedia",
                          "video" : 
                              {
                                "id" : 84,
                                "_type" : "ScreenVMFile",
                                "src" : 4,
                                "trackNumber" : 0,
                                "attributes" : {
                                  "ident" : "Rec 4-10-2024 11"
                                },
                                "parameters" : {
                                  "geometryCrop0" : {
                                    "type" : "double",
                                    "defaultValue" : 0.0,
                                    "interp" : "eioe"
                                  },
                                  "geometryCrop1" : {
                                    "type" : "double",
                                    "defaultValue" : 0.0,
                                    "interp" : "eioe"
                                  },
                                  "geometryCrop2" : {
                                    "type" : "double",
                                    "defaultValue" : 0.0,
                                    "interp" : "eioe"
                                  },
                                  "geometryCrop3" : {
                                    "type" : "double",
                                    "defaultValue" : 0.0,
                                    "interp" : "eioe"
                                  },
                                  "cursorScale" : {
                                    "type" : "double",
                                    "defaultValue" : 0.0,
                                    "interp" : "linr"
                                  },
                                  "cursorOpacity" : {
                                    "type" : "double",
                                    "defaultValue" : 0.0,
                                    "interp" : "linr"
                                  },
                                  "smoothCursorAcrossEditDuration" : 0
                                },
                                "effects" : [

                                ],
                                "start" : 102547200000,
                                "duration" : 5809440000,
                                "mediaStart" : 189665280000,
                                "mediaDuration" : 5809440000,
                                "scalar" : 1,
                                "animationTracks" : {

                                }
                              },
                          "audio" : 
                              {
                                "id" : 85,
                                "_type" : "AMFile",
                                "src" : 4,
                                "trackNumber" : 1,
                                "attributes" : {
                                  "ident" : "",
                                  "gain" : 1.0,
                                  "mixToMono" : false,
                                  "loudnessNormalization" : true,
                                  "sourceFileOffset" : 0
                                },
                                  "channelNumber" : "0",
                                "effects" : [

                                ],
                                "start" : 102547200000,
                                "duration" : 5809440000,
                                "mediaStart" : 189665280000,
                                "mediaDuration" : 5809440000,
                                "scalar" : 1,
                                "animationTracks" : {

                                }
                              }
,
                          "start" : 102547200000,
                          "duration" : 5809440000,
                          "mediaStart" : 189665280000,
                          "mediaDuration" : 5809440000,
                          "scalar" : 1,
                          "metadata" : {
                            "audiateLinkedSession" : "",
                            "clipSpeedAttribute" : false,
                            "default-anchor0" : 0.0,
                            "default-anchor1" : 0.0,
                            "default-anchor2" : 0.0,
                            "default-height" : 858.674253200569,
                            "default-rotation0" : 0.0,
                            "default-rotation1" : 0.0,
                            "default-rotation2" : 0.0,
                            "default-scale0" : 0.546230440967283,
                            "default-scale1" : 0.546230440967283,
                            "default-scale2" : 1.0,
                            "default-shear0" : 0.0,
                            "default-shear1" : 0.0,
                            "default-shear2" : 0.0,
                            "default-translation0" : 0.0,
                            "default-translation1" : 2.66287339971552,
                            "default-translation2" : 0.0,
                            "default-width" : 1536.0,
                            "effectApplied" : "none"
                          }
                        },
                        {
                          "id" : 86,
                          "_type" : "UnifiedMedia",
                          "video" : 
                              {
                                "id" : 87,
                                "_type" : "ScreenVMFile",
                                "src" : 4,
                                "trackNumber" : 0,
                                "attributes" : {
                                  "ident" : "Rec 4-10-2024 11"
                                },
                                "parameters" : {
                                  "geometryCrop0" : {
                                    "type" : "double",
                                    "defaultValue" : 0.0,
                                    "interp" : "eioe"
                                  },
                                  "geometryCrop1" : {
                                    "type" : "double",
                                    "defaultValue" : 0.0,
                                    "interp" : "eioe"
                                  },
                                  "geometryCrop2" : {
                                    "type" : "double",
                                    "defaultValue" : 0.0,
                                    "interp" : "eioe"
                                  },
                                  "geometryCrop3" : {
                                    "type" : "double",
                                    "defaultValue" : 0.0,
                                    "interp" : "eioe"
                                  },
                                  "cursorScale" : {
                                    "type" : "double",
                                    "defaultValue" : 0.0,
                                    "interp" : "linr"
                                  },
                                  "cursorOpacity" : {
                                    "type" : "double",
                                    "defaultValue" : 0.0,
                                    "interp" : "linr"
                                  },
                                  "smoothCursorAcrossEditDuration" : 0
                                },
                                "effects" : [

                                ],
                                "start" : 108356640000,
                                "duration" : 14064960000,
                                "mediaStart" : 196697760000,
                                "mediaDuration" : 14064960000,
                                "scalar" : 1,
                                "animationTracks" : {

                                }
                              },
                          "audio" : 
                              {
                                "id" : 88,
                                "_type" : "AMFile",
                                "src" : 4,
                                "trackNumber" : 1,
                                "attributes" : {
                                  "ident" : "",
                                  "gain" : 1.0,
                                  "mixToMono" : false,
                                  "loudnessNormalization" : true,
                                  "sourceFileOffset" : 0
                                },
                                  "channelNumber" : "0",
                                "effects" : [

                                ],
                                "start" : 108356640000,
                                "duration" : 14064960000,
                                "mediaStart" : 196697760000,
                                "mediaDuration" : 14064960000,
                                "scalar" : 1,
                                "animationTracks" : {

                                }
                              }
,
                          "start" : 108356640000,
                          "duration" : 14064960000,
                          "mediaStart" : 196697760000,
                          "mediaDuration" : 14064960000,
                          "scalar" : 1,
                          "metadata" : {
                            "audiateLinkedSession" : "",
                            "clipSpeedAttribute" : false,
                            "default-anchor0" : 0.0,
                            "default-anchor1" : 0.0,
                            "default-anchor2" : 0.0,
                            "default-height" : 858.674253200569,
                            "default-rotation0" : 0.0,
                            "default-rotation1" : 0.0,
                            "default-rotation2" : 0.0,
                            "default-scale0" : 0.546230440967283,
                            "default-scale1" : 0.546230440967283,
                            "default-scale2" : 1.0,
                            "default-shear0" : 0.0,
                            "default-shear1" : 0.0,
                            "default-shear2" : 0.0,
                            "default-translation0" : 0.0,
                            "default-translation1" : 2.66287339971552,
                            "default-translation2" : 0.0,
                            "default-width" : 1536.0,
                            "effectApplied" : "none"
                          }
                        },
                        {
                          "id" : 89,
                          "_type" : "UnifiedMedia",
                          "video" : 
                              {
                                "id" : 90,
                                "_type" : "ScreenVMFile",
                                "src" : 4,
                                "trackNumber" : 0,
                                "attributes" : {
                                  "ident" : "Rec 4-10-2024 11"
                                },
                                "parameters" : {
                                  "geometryCrop0" : {
                                    "type" : "double",
                                    "defaultValue" : 0.0,
                                    "interp" : "eioe"
                                  },
                                  "geometryCrop1" : {
                                    "type" : "double",
                                    "defaultValue" : 0.0,
                                    "interp" : "eioe"
                                  },
                                  "geometryCrop2" : {
                                    "type" : "double",
                                    "defaultValue" : 0.0,
                                    "interp" : "eioe"
                                  },
                                  "geometryCrop3" : {
                                    "type" : "double",
                                    "defaultValue" : 0.0,
                                    "interp" : "eioe"
                                  },
                                  "cursorScale" : {
                                    "type" : "double",
                                    "defaultValue" : 0.0,
                                    "interp" : "linr"
                                  },
                                  "cursorOpacity" : {
                                    "type" : "double",
                                    "defaultValue" : 0.0,
                                    "interp" : "linr"
                                  },
                                  "smoothCursorAcrossEditDuration" : 0
                                },
                                "effects" : [

                                ],
                                "start" : 122421600000,
                                "duration" : 3692640000,
                                "mediaStart" : 211585920000,
                                "mediaDuration" : 3692640000,
                                "scalar" : 1,
                                "animationTracks" : {

                                }
                              },
                          "audio" : 
                              {
                                "id" : 91,
                                "_type" : "AMFile",
                                "src" : 4,
                                "trackNumber" : 1,
                                "attributes" : {
                                  "ident" : "",
                                  "gain" : 1.0,
                                  "mixToMono" : false,
                                  "loudnessNormalization" : true,
                                  "sourceFileOffset" : 0
                                },
                                  "channelNumber" : "0",
                                "effects" : [

                                ],
                                "start" : 122421600000,
                                "duration" : 3692640000,
                                "mediaStart" : 211585920000,
                                "mediaDuration" : 3692640000,
                                "scalar" : 1,
                                "animationTracks" : {

                                }
                              }
,
                          "start" : 122421600000,
                          "duration" : 3692640000,
                          "mediaStart" : 211585920000,
                          "mediaDuration" : 3692640000,
                          "scalar" : 1,
                          "metadata" : {
                            "audiateLinkedSession" : "",
                            "clipSpeedAttribute" : false,
                            "default-anchor0" : 0.0,
                            "default-anchor1" : 0.0,
                            "default-anchor2" : 0.0,
                            "default-height" : 858.674253200569,
                            "default-rotation0" : 0.0,
                            "default-rotation1" : 0.0,
                            "default-rotation2" : 0.0,
                            "default-scale0" : 0.546230440967283,
                            "default-scale1" : 0.546230440967283,
                            "default-scale2" : 1.0,
                            "default-shear0" : 0.0,
                            "default-shear1" : 0.0,
                            "default-shear2" : 0.0,
                            "default-translation0" : 0.0,
                            "default-translation1" : 2.66287339971552,
                            "default-translation2" : 0.0,
                            "default-width" : 1536.0,
                            "effectApplied" : "none"
                          }
                        }
                    ],
                    "effects" : [
                        {
                          "effectName" : "Emphasize",
                          "bypassed" : false,
                          "category" : "categoryAudioEffects",
                          "parameters" : {
                            "emphasizeAmount" : 0.8,
                            "emphasizeRampPosition" : 0,
                            "emphasizeRampInTime" : 705600000,
                            "emphasizeRampOutTime" : 705600000
                          },
                          "metadata" : {
                            "effectIndex" : "0"
                          }
                        },
                        {
                          "effectName" : "Reflection",
                          "bypassed" : false,
                          "category" : "categoryVisualEffects",
                          "parameters" : {
                            "distance" : {
                              "type" : "double",
                              "defaultValue" : 20.0,
                              "interp" : "linr",
                              "uiHints" : {
                                "userInterfaceType" : 0,
                                "unitType" : 0
                              }
                            },
                            "opacity" : {
                              "type" : "double",
                              "defaultValue" : 0.2,
                              "interp" : "linr",
                              "uiHints" : {
                                "userInterfaceType" : 1,
                                "unitType" : 1
                              }
                            }
                          },
                          "metadata" : {
                            "effectIndex" : "1"
                          }
                        },
                        {
                          "effectName" : "Border",
                          "bypassed" : true,
                          "category" : "categoryVisualEffects",
                          "parameters" : {
                            "enabled" : 1,
                            "color-red" : {
                              "type" : "double",
                              "defaultValue" : 1.0,
                              "interp" : "linr",
                              "uiHints" : {
                                "userInterfaceType" : 0,
                                "unitType" : 0
                              }
                            },
                            "color-green" : {
                              "type" : "double",
                              "defaultValue" : 1.0,
                              "interp" : "linr",
                              "uiHints" : {
                                "userInterfaceType" : 0,
                                "unitType" : 0
                              }
                            },
                            "color-blue" : {
                              "type" : "double",
                              "defaultValue" : 1.0,
                              "interp" : "linr",
                              "uiHints" : {
                                "userInterfaceType" : 0,
                                "unitType" : 0
                              }
                            },
                            "color-alpha" : {
                              "type" : "double",
                              "defaultValue" : 1.0,
                              "interp" : "linr",
                              "uiHints" : {
                                "userInterfaceType" : 0,
                                "unitType" : 0
                              }
                            },
                            "width" : {
                              "type" : "double",
                              "defaultValue" : 29.2916666666667,
                              "interp" : "linr",
                              "uiHints" : {
                                "userInterfaceType" : 0,
                                "unitType" : 0
                              }
                            },
                            "type" : 1
                          },
                          "metadata" : {
                            "effectIndex" : "2"
                          }
                        }
                    ],
                    "start" : 72206400000,
                    "duration" : 119387520000,
                    "mediaStart" : 4515840000,
                    "mediaDuration" : 119387520000,
                    "scalar" : 1,
                    "metadata" : {
                      "audiateLinkedSession" : "",
                      "clipSpeedAttribute" : false,
                      "effectApplied" : "none"
                    },
                    "animationTracks" : {

                    }
                  }
                ]
              },
              {
                "trackIndex" : 3,
                "medias" : [
                  {
                    "id" : 92,
                    "_type" : "StitchedMedia",
                    "minMediaStart" : 0,
                    "attributes" : {
                      "ident" : "IMG_0784",
                      "gain" : 1.0,
                      "mixToMono" : false,
                      "loudnessNormalization" : true,
                      "sourceFileOffset" : 0
                    },
                    "parameters" : {
                      "geometryCrop0" : 0.0,
                      "geometryCrop1" : 0.0,
                      "geometryCrop2" : 0.0,
                      "geometryCrop3" : 0.0,
                      "volume" : 0.577302631578947,
                      "smoothCursorAcrossEditDuration" : 0
                    },
                    "medias" : [
                        {
                          "id" : 93,
                          "_type" : "UnifiedMedia",
                          "video" : 
                              {
                                "id" : 94,
                                "_type" : "VMFile",
                                "src" : 5,
                                "trackNumber" : 0,
                                "attributes" : {
                                  "ident" : "IMG_0784"
                                },
                                "parameters" : {
                                  "geometryCrop0" : {
                                    "type" : "double",
                                    "defaultValue" : 0.0,
                                    "interp" : "eioe"
                                  },
                                  "geometryCrop1" : {
                                    "type" : "double",
                                    "defaultValue" : 0.0,
                                    "interp" : "eioe"
                                  },
                                  "geometryCrop2" : {
                                    "type" : "double",
                                    "defaultValue" : 0.0,
                                    "interp" : "eioe"
                                  },
                                  "geometryCrop3" : {
                                    "type" : "double",
                                    "defaultValue" : 0.0,
                                    "interp" : "eioe"
                                  }
                                },
                                "effects" : [

                                ],
                                "start" : 0,
                                "duration" : 13618080000,
                                "mediaStart" : 0,
                                "mediaDuration" : 13618080000,
                                "scalar" : 1,
                                "animationTracks" : {

                                }
                              },
                          "audio" : 
                              {
                                "id" : 95,
                                "_type" : "AMFile",
                                "src" : 5,
                                "trackNumber" : 1,
                                "attributes" : {
                                  "ident" : "",
                                  "gain" : 1.0,
                                  "mixToMono" : false,
                                  "loudnessNormalization" : true,
                                  "sourceFileOffset" : 0
                                },
                                  "channelNumber" : "0,1",
                                "effects" : [

                                ],
                                "start" : 0,
                                "duration" : 13618080000,
                                "mediaStart" : 0,
                                "mediaDuration" : 13618080000,
                                "scalar" : 1,
                                "animationTracks" : {

                                }
                              }
,
                          "start" : 0,
                          "duration" : 13618080000,
                          "mediaStart" : 0,
                          "mediaDuration" : 13618080000,
                          "scalar" : 1,
                          "metadata" : {
                            "audiateLinkedSession" : "",
                            "clipSpeedAttribute" : false,
                            "default-scale" : "1",
                            "effectApplied" : "none",
                            "lockAspectRatio" : true
                          }
                        },
                        {
                          "id" : 96,
                          "_type" : "UnifiedMedia",
                          "video" : 
                              {
                                "id" : 97,
                                "_type" : "VMFile",
                                "src" : 5,
                                "trackNumber" : 0,
                                "attributes" : {
                                  "ident" : "IMG_0784"
                                },
                                "parameters" : {
                                  "geometryCrop0" : {
                                    "type" : "double",
                                    "defaultValue" : 0.0,
                                    "interp" : "eioe"
                                  },
                                  "geometryCrop1" : {
                                    "type" : "double",
                                    "defaultValue" : 0.0,
                                    "interp" : "eioe"
                                  },
                                  "geometryCrop2" : {
                                    "type" : "double",
                                    "defaultValue" : 0.0,
                                    "interp" : "eioe"
                                  },
                                  "geometryCrop3" : {
                                    "type" : "double",
                                    "defaultValue" : 0.0,
                                    "interp" : "eioe"
                                  }
                                },
                                "effects" : [

                                ],
                                "start" : 13618080000,
                                "duration" : 23520000,
                                "mediaStart" : 14723520000,
                                "mediaDuration" : 23520000,
                                "scalar" : 1,
                                "animationTracks" : {

                                }
                              },
                          "audio" : 
                              {
                                "id" : 98,
                                "_type" : "AMFile",
                                "src" : 5,
                                "trackNumber" : 1,
                                "attributes" : {
                                  "ident" : "",
                                  "gain" : 1.0,
                                  "mixToMono" : false,
                                  "loudnessNormalization" : true,
                                  "sourceFileOffset" : 0
                                },
                                  "channelNumber" : "0,1",
                                "effects" : [

                                ],
                                "start" : 13618080000,
                                "duration" : 23520000,
                                "mediaStart" : 14723520000,
                                "mediaDuration" : 23520000,
                                "scalar" : 1,
                                "animationTracks" : {

                                }
                              }
,
                          "start" : 13618080000,
                          "duration" : 23520000,
                          "mediaStart" : 14723520000,
                          "mediaDuration" : 23520000,
                          "scalar" : 1,
                          "metadata" : {
                            "audiateLinkedSession" : "",
                            "clipSpeedAttribute" : false,
                            "default-scale" : "1",
                            "effectApplied" : "none",
                            "lockAspectRatio" : true
                          }
                        },
                        {
                          "id" : 99,
                          "_type" : "UnifiedMedia",
                          "video" : 
                              {
                                "id" : 100,
                                "_type" : "VMFile",
                                "src" : 5,
                                "trackNumber" : 0,
                                "attributes" : {
                                  "ident" : "IMG_0784"
                                },
                                "parameters" : {
                                  "geometryCrop0" : {
                                    "type" : "double",
                                    "defaultValue" : 0.0,
                                    "interp" : "eioe"
                                  },
                                  "geometryCrop1" : {
                                    "type" : "double",
                                    "defaultValue" : 0.0,
                                    "interp" : "eioe"
                                  },
                                  "geometryCrop2" : {
                                    "type" : "double",
                                    "defaultValue" : 0.0,
                                    "interp" : "eioe"
                                  },
                                  "geometryCrop3" : {
                                    "type" : "double",
                                    "defaultValue" : 0.0,
                                    "interp" : "eioe"
                                  }
                                },
                                "effects" : [

                                ],
                                "start" : 13641600000,
                                "duration" : 11736480000,
                                "mediaStart" : 16040640000,
                                "mediaDuration" : 11736480000,
                                "scalar" : 1,
                                "animationTracks" : {

                                }
                              },
                          "audio" : 
                              {
                                "id" : 101,
                                "_type" : "AMFile",
                                "src" : 5,
                                "trackNumber" : 1,
                                "attributes" : {
                                  "ident" : "",
                                  "gain" : 1.0,
                                  "mixToMono" : false,
                                  "loudnessNormalization" : true,
                                  "sourceFileOffset" : 0
                                },
                                  "channelNumber" : "0,1",
                                "effects" : [

                                ],
                                "start" : 13641600000,
                                "duration" : 11736480000,
                                "mediaStart" : 16040640000,
                                "mediaDuration" : 11736480000,
                                "scalar" : 1,
                                "animationTracks" : {

                                }
                              }
,
                          "start" : 13641600000,
                          "duration" : 11736480000,
                          "mediaStart" : 16040640000,
                          "mediaDuration" : 11736480000,
                          "scalar" : 1,
                          "metadata" : {
                            "audiateLinkedSession" : "",
                            "clipSpeedAttribute" : false,
                            "default-scale" : "1",
                            "effectApplied" : "none",
                            "lockAspectRatio" : true
                          }
                        },
                        {
                          "id" : 102,
                          "_type" : "UnifiedMedia",
                          "video" : 
                              {
                                "id" : 103,
                                "_type" : "VMFile",
                                "src" : 5,
                                "trackNumber" : 0,
                                "attributes" : {
                                  "ident" : "IMG_0784"
                                },
                                "parameters" : {
                                  "geometryCrop0" : {
                                    "type" : "double",
                                    "defaultValue" : 0.0,
                                    "interp" : "eioe"
                                  },
                                  "geometryCrop1" : {
                                    "type" : "double",
                                    "defaultValue" : 0.0,
                                    "interp" : "eioe"
                                  },
                                  "geometryCrop2" : {
                                    "type" : "double",
                                    "defaultValue" : 0.0,
                                    "interp" : "eioe"
                                  },
                                  "geometryCrop3" : {
                                    "type" : "double",
                                    "defaultValue" : 0.0,
                                    "interp" : "eioe"
                                  }
                                },
                                "effects" : [

                                ],
                                "start" : 25378080000,
                                "duration" : 846720000,
                                "mediaStart" : 28388640000,
                                "mediaDuration" : 846720000,
                                "scalar" : 1,
                                "animationTracks" : {

                                }
                              },
                          "audio" : 
                              {
                                "id" : 104,
                                "_type" : "AMFile",
                                "src" : 5,
                                "trackNumber" : 1,
                                "attributes" : {
                                  "ident" : "",
                                  "gain" : 1.0,
                                  "mixToMono" : false,
                                  "loudnessNormalization" : true,
                                  "sourceFileOffset" : 0
                                },
                                  "channelNumber" : "0,1",
                                "effects" : [

                                ],
                                "start" : 25378080000,
                                "duration" : 846720000,
                                "mediaStart" : 28388640000,
                                "mediaDuration" : 846720000,
                                "scalar" : 1,
                                "animationTracks" : {

                                }
                              }
,
                          "start" : 25378080000,
                          "duration" : 846720000,
                          "mediaStart" : 28388640000,
                          "mediaDuration" : 846720000,
                          "scalar" : 1,
                          "metadata" : {
                            "audiateLinkedSession" : "",
                            "clipSpeedAttribute" : false,
                            "default-scale" : "1",
                            "effectApplied" : "none",
                            "lockAspectRatio" : true
                          }
                        },
                        {
                          "id" : 105,
                          "_type" : "UnifiedMedia",
                          "video" : 
                              {
                                "id" : 106,
                                "_type" : "VMFile",
                                "src" : 5,
                                "trackNumber" : 0,
                                "attributes" : {
                                  "ident" : "IMG_0784"
                                },
                                "parameters" : {
                                  "geometryCrop0" : {
                                    "type" : "double",
                                    "defaultValue" : 0.0,
                                    "interp" : "eioe"
                                  },
                                  "geometryCrop1" : {
                                    "type" : "double",
                                    "defaultValue" : 0.0,
                                    "interp" : "eioe"
                                  },
                                  "geometryCrop2" : {
                                    "type" : "double",
                                    "defaultValue" : 0.0,
                                    "interp" : "eioe"
                                  },
                                  "geometryCrop3" : {
                                    "type" : "double",
                                    "defaultValue" : 0.0,
                                    "interp" : "eioe"
                                  }
                                },
                                "effects" : [

                                ],
                                "start" : 26224800000,
                                "duration" : 47040000,
                                "mediaStart" : 32904480000,
                                "mediaDuration" : 47040000,
                                "scalar" : 1,
                                "animationTracks" : {

                                }
                              },
                          "audio" : 
                              {
                                "id" : 107,
                                "_type" : "AMFile",
                                "src" : 5,
                                "trackNumber" : 1,
                                "attributes" : {
                                  "ident" : "",
                                  "gain" : 1.0,
                                  "mixToMono" : false,
                                  "loudnessNormalization" : true,
                                  "sourceFileOffset" : 0
                                },
                                  "channelNumber" : "0,1",
                                "effects" : [

                                ],
                                "start" : 26224800000,
                                "duration" : 47040000,
                                "mediaStart" : 32904480000,
                                "mediaDuration" : 47040000,
                                "scalar" : 1,
                                "animationTracks" : {

                                }
                              }
,
                          "start" : 26224800000,
                          "duration" : 47040000,
                          "mediaStart" : 32904480000,
                          "mediaDuration" : 47040000,
                          "scalar" : 1,
                          "metadata" : {
                            "audiateLinkedSession" : "",
                            "clipSpeedAttribute" : false,
                            "default-scale" : "1",
                            "effectApplied" : "none",
                            "lockAspectRatio" : true
                          }
                        },
                        {
                          "id" : 108,
                          "_type" : "UnifiedMedia",
                          "video" : 
                              {
                                "id" : 109,
                                "_type" : "VMFile",
                                "src" : 5,
                                "trackNumber" : 0,
                                "attributes" : {
                                  "ident" : "IMG_0784"
                                },
                                "parameters" : {
                                  "geometryCrop0" : {
                                    "type" : "double",
                                    "defaultValue" : 0.0,
                                    "interp" : "eioe"
                                  },
                                  "geometryCrop1" : {
                                    "type" : "double",
                                    "defaultValue" : 0.0,
                                    "interp" : "eioe"
                                  },
                                  "geometryCrop2" : {
                                    "type" : "double",
                                    "defaultValue" : 0.0,
                                    "interp" : "eioe"
                                  },
                                  "geometryCrop3" : {
                                    "type" : "double",
                                    "defaultValue" : 0.0,
                                    "interp" : "eioe"
                                  }
                                },
                                "effects" : [

                                ],
                                "start" : 26271840000,
                                "duration" : 6679680000,
                                "mediaStart" : 34221600000,
                                "mediaDuration" : 6679680000,
                                "scalar" : 1,
                                "animationTracks" : {

                                }
                              },
                          "audio" : 
                              {
                                "id" : 110,
                                "_type" : "AMFile",
                                "src" : 5,
                                "trackNumber" : 1,
                                "attributes" : {
                                  "ident" : "",
                                  "gain" : 1.0,
                                  "mixToMono" : false,
                                  "loudnessNormalization" : true,
                                  "sourceFileOffset" : 0
                                },
                                  "channelNumber" : "0,1",
                                "effects" : [

                                ],
                                "start" : 26271840000,
                                "duration" : 6679680000,
                                "mediaStart" : 34221600000,
                                "mediaDuration" : 6679680000,
                                "scalar" : 1,
                                "animationTracks" : {

                                }
                              }
,
                          "start" : 26271840000,
                          "duration" : 6679680000,
                          "mediaStart" : 34221600000,
                          "mediaDuration" : 6679680000,
                          "scalar" : 1,
                          "metadata" : {
                            "audiateLinkedSession" : "",
                            "clipSpeedAttribute" : false,
                            "default-scale" : "1",
                            "effectApplied" : "none",
                            "lockAspectRatio" : true
                          }
                        },
                        {
                          "id" : 111,
                          "_type" : "UnifiedMedia",
                          "video" : 
                              {
                                "id" : 112,
                                "_type" : "VMFile",
                                "src" : 5,
                                "trackNumber" : 0,
                                "attributes" : {
                                  "ident" : "IMG_0784"
                                },
                                "parameters" : {
                                  "geometryCrop0" : {
                                    "type" : "double",
                                    "defaultValue" : 0.0,
                                    "interp" : "eioe"
                                  },
                                  "geometryCrop1" : {
                                    "type" : "double",
                                    "defaultValue" : 0.0,
                                    "interp" : "eioe"
                                  },
                                  "geometryCrop2" : {
                                    "type" : "double",
                                    "defaultValue" : 0.0,
                                    "interp" : "eioe"
                                  },
                                  "geometryCrop3" : {
                                    "type" : "double",
                                    "defaultValue" : 0.0,
                                    "interp" : "eioe"
                                  }
                                },
                                "effects" : [

                                ],
                                "start" : 32951520000,
                                "duration" : 7338240000,
                                "mediaStart" : 41160000000,
                                "mediaDuration" : 7338240000,
                                "scalar" : 1,
                                "animationTracks" : {

                                }
                              },
                          "audio" : 
                              {
                                "id" : 113,
                                "_type" : "AMFile",
                                "src" : 5,
                                "trackNumber" : 1,
                                "attributes" : {
                                  "ident" : "",
                                  "gain" : 1.0,
                                  "mixToMono" : false,
                                  "loudnessNormalization" : true,
                                  "sourceFileOffset" : 0
                                },
                                  "channelNumber" : "0,1",
                                "effects" : [

                                ],
                                "start" : 32951520000,
                                "duration" : 7338240000,
                                "mediaStart" : 41160000000,
                                "mediaDuration" : 7338240000,
                                "scalar" : 1,
                                "animationTracks" : {

                                }
                              }
,
                          "start" : 32951520000,
                          "duration" : 7338240000,
                          "mediaStart" : 41160000000,
                          "mediaDuration" : 7338240000,
                          "scalar" : 1,
                          "metadata" : {
                            "audiateLinkedSession" : "",
                            "clipSpeedAttribute" : false,
                            "default-scale" : "1",
                            "effectApplied" : "none",
                            "lockAspectRatio" : true
                          }
                        }
                    ],
                    "effects" : [

                    ],
                    "start" : 191593920000,
                    "duration" : 35538720000,
                    "mediaStart" : 4068960000,
                    "mediaDuration" : 35538720000,
                    "scalar" : 1,
                    "metadata" : {
                      "audiateLinkedSession" : "",
                      "clipSpeedAttribute" : false,
                      "default-scale" : "1",
                      "effectApplied" : "none",
                      "lockAspectRatio" : true
                    },
                    "animationTracks" : {

                    }
                  }
                ],
                "transitions" : [
                  {
                    "name" : "CardSlide",
                    "duration" : 705600000,
                    "rightMedia" : 92,
                    "attributes" : {
                      "bypass" : false,
                      "reverse" : false,
                      "trivial" : false,
                      "useAudioPreRoll" : true,
                      "useVisualPreRoll" : true
                    }

                  },
                  {
                    "name" : "CardSlide",
                    "duration" : 705600000,
                    "leftMedia" : 92,
                    "attributes" : {
                      "bypass" : false,
                      "reverse" : false,
                      "trivial" : false,
                      "useAudioPreRoll" : true,
                      "useVisualPreRoll" : true
                    }

                  }
                ]
              },
              {
                "trackIndex" : 4,
                "medias" : [
                  {
                    "id" : 114,
                    "_type" : "IMFile",
                    "src" : 8,
                    "trackNumber" : 0,
                    "trimStartSum" : 0,
                    "attributes" : {
                      "ident" : "frame"
                    },
                    "parameters" : {
                      "translation0" : {
                        "type" : "double",
                        "defaultValue" : 1468.36429020077,
                        "interp" : "eioe"
                      },
                      "translation1" : {
                        "type" : "double",
                        "defaultValue" : -781.744493688917,
                        "interp" : "eioe"
                      },
                      "scale0" : {
                        "type" : "double",
                        "defaultValue" : 2.63665894553556,
                        "interp" : "eioe"
                      },
                      "scale1" : {
                        "type" : "double",
                        "defaultValue" : 2.63665894553557,
                        "interp" : "eioe"
                      },
                      "geometryCrop0" : {
                        "type" : "double",
                        "defaultValue" : 0.0,
                        "interp" : "eioe"
                      },
                      "geometryCrop1" : {
                        "type" : "double",
                        "defaultValue" : 0.0,
                        "interp" : "eioe"
                      },
                      "geometryCrop2" : {
                        "type" : "double",
                        "defaultValue" : 0.0,
                        "interp" : "eioe"
                      },
                      "geometryCrop3" : {
                        "type" : "double",
                        "defaultValue" : 0.0,
                        "interp" : "eioe"
                      }
                    },
                    "effects" : [

                    ],
                    "start" : 196439040000,
                    "duration" : 6703200000,
                    "mediaStart" : 0,
                    "mediaDuration" : 1,
                    "scalar" : 1,
                    "metadata" : {
                      "audiateLinkedSession" : "",
                      "clipSpeedAttribute" : false,
                      "default-anchor0" : 0.0,
                      "default-anchor1" : 0.0,
                      "default-anchor2" : 0.0,
                      "default-height" : 1080.0,
                      "default-rotation0" : 0.0,
                      "default-rotation1" : 0.0,
                      "default-rotation2" : 0.0,
                      "default-scale" : "1",
                      "default-scale0" : 1.0,
                      "default-scale1" : 1.0,
                      "default-scale2" : 1.0,
                      "default-shear0" : 0.0,
                      "default-shear1" : 0.0,
                      "default-shear2" : 0.0,
                      "default-translation0" : 0.0,
                      "default-translation1" : 0.0,
                      "default-translation2" : 0.0,
                      "default-width" : 1920.0,
                      "effectApplied" : "none",
                      "lockAspectRatio" : true
                    },
                    "animationTracks" : {

                    }
                  },
                  {
                    "id" : 115,
                    "_type" : "Callout",
                    "def" : {
                        "kind" : "remix",
                        "shape" : "text-rectangle",
                        "style" : "urban",
                        "enable-ligatures" : 1.0,
                        "fill-color-blue" : 0.384313725490196,
                        "fill-color-green" : 0.505882352941176,
                        "fill-color-opacity" : 1.0,
                        "fill-color-red" : 0.96078431372549,
                        "height" : 150.0,
                        "line-spacing" : 0.0,
                        "stroke-color-blue" : 1.0,
                        "stroke-color-green" : 1.0,
                        "stroke-color-opacity" : 1.0,
                        "stroke-color-red" : 1.0,
                        "stroke-width" : 0.0,
                        "tail-x" : 0.0,
                        "tail-y" : -20.0,
                        "text-stroke-alignment" : 2.0,
                        "text-stroke-color-alpha" : 1.0,
                        "text-stroke-color-blue" : 0.0,
                        "text-stroke-color-green" : 0.0,
                        "text-stroke-color-red" : 0.0,
                        "text-stroke-width" : 0.0,
                        "width" : 1519.65837615622,
                        "word-wrap" : 1.0,
                        "fill-style" : "solid",
                        "horizontal-alignment" : "center",
                        "resize-behavior" : "resizeText",
                        "stroke-style" : "solid",
                        "text" : "About 15+ hours so far... it could be more once I am done editing :)",
                        "vertical-alignment" : "center",
                        "font" : {
                          "color-blue" : 1.0,
                          "color-green" : 1.0,
                          "color-red" : 1.0,
                          "size" : 70.0,
                          "tracking" : 0.0,
                          "name" : "Dosis",
                          "weight" : "Semi Bold"
                        },
                        "textAttributes" : {
                          "type" : "textAttributeList",
                          "keyframes" : [
                            {
                              "endTime" : 0,
                              "time" : 0,
                              "value" : [{"name":"kerning","rangeEnd":68,"rangeStart":0,"value":0.0,"valueType":"double"},{"name":"fontSize","rangeEnd":68,"rangeStart":0,"value":70.0,"valueType":"double"},{"name":"underline","rangeEnd":68,"rangeStart":0,"value":0,"valueType":"int"},{"name":"fgColor","rangeEnd":68,"rangeStart":0,"value":"(255,255,255,255)","valueType":"color"},{"name":"fontWeight","rangeEnd":68,"rangeStart":0,"value":600,"valueType":"int"},{"name":"fontName","rangeEnd":68,"rangeStart":0,"value":"Dosis","valueType":"string"},{"name":"strikethrough","rangeEnd":68,"rangeStart":0,"value":0,"valueType":"int"},{"name":"fontItalic","rangeEnd":68,"rangeStart":0,"value":0,"valueType":"int"}],
                              "duration" : 0
                            }
                          ]
                        }
                    },
                    "attributes" : {
                      "ident" : "",
                      "autoRotateText" : true
                    },
                    "parameters" : {
                      "translation0" : -109.105190133608,
                      "translation1" : -430.815339157246,
                      "geometryCrop0" : 0.0,
                      "geometryCrop1" : 0.0,
                      "geometryCrop2" : 0.0,
                      "geometryCrop3" : 0.0
                    },
                    "effects" : [

                    ],
                    "start" : 204294720000,
                    "duration" : 3528000000,
                    "mediaStart" : 0,
                    "mediaDuration" : 3528000000,
                    "scalar" : 1,
                    "metadata" : {
                      "AppliedThemeId" : "",
                      "audiateLinkedSession" : "",
                      "clipSpeedAttribute" : false,
                      "default-anchor0" : 0.0,
                      "default-anchor1" : 0.0,
                      "default-anchor2" : 0.0,
                      "default-height" : 174.0,
                      "default-rotation0" : 0.0,
                      "default-rotation1" : 0.0,
                      "default-rotation2" : 0.0,
                      "default-scale" : "1",
                      "default-scale0" : 1.0,
                      "default-scale1" : 1.0,
                      "default-scale2" : 1.0,
                      "default-shear0" : 0.0,
                      "default-shear1" : 0.0,
                      "default-shear2" : 0.0,
                      "default-translation0" : -1509.22939362795,
                      "default-translation1" : -36.6450924974306,
                      "default-translation2" : 0.0,
                      "default-width" : 526.0,
                      "effectApplied" : "none"
                    },
                    "animationTracks" : {

                    }
                  },
                  {
                    "id" : 116,
                    "_type" : "Callout",
                    "def" : {
                        "kind" : "remix",
                        "shape" : "text-arrow",
                        "style" : "bold",
                        "enable-ligatures" : 1.0,
                        "fill-color-blue" : 0.109803921568627,
                        "fill-color-green" : 0.274509803921569,
                        "fill-color-opacity" : 1.0,
                        "fill-color-red" : 0.898039215686275,
                        "height" : 130.0,
                        "line-spacing" : 0.0,
                        "stroke-color-blue" : 1.0,
                        "stroke-color-green" : 1.0,
                        "stroke-color-opacity" : 1.0,
                        "stroke-color-red" : 1.0,
                        "stroke-width" : 0.0,
                        "tail-x" : 0.0,
                        "tail-y" : -20.0,
                        "text-stroke-alignment" : 2.0,
                        "text-stroke-color-alpha" : 1.0,
                        "text-stroke-color-blue" : 0.0,
                        "text-stroke-color-green" : 0.0,
                        "text-stroke-color-red" : 0.0,
                        "text-stroke-width" : 0.0,
                        "width" : 1485.62479445015,
                        "word-wrap" : 1.0,
                        "fill-style" : "solid",
                        "horizontal-alignment" : "center",
                        "resize-behavior" : "resizeText",
                        "stroke-style" : "solid",
                        "text" : "Follow link below and get notified when the course is launched",
                        "vertical-alignment" : "center",
                        "font" : {
                          "color-blue" : 1.0,
                          "color-green" : 1.0,
                          "color-red" : 1.0,
                          "size" : 70.0,
                          "tracking" : 0.0,
                          "name" : "Source Sans Pro",
                          "weight" : "Semi Bold"
                        },
                        "textAttributes" : {
                          "type" : "textAttributeList",
                          "keyframes" : [
                            {
                              "endTime" : 0,
                              "time" : 0,
                              "value" : [{"name":"kerning","rangeEnd":62,"rangeStart":0,"value":0.0,"valueType":"double"},{"name":"fontSize","rangeEnd":62,"rangeStart":0,"value":70.0,"valueType":"double"},{"name":"fontItalic","rangeEnd":62,"rangeStart":0,"value":0,"valueType":"int"},{"name":"fgColor","rangeEnd":62,"rangeStart":0,"value":"(255,255,255,255)","valueType":"color"},{"name":"fontWeight","rangeEnd":62,"rangeStart":0,"value":600,"valueType":"int"},{"name":"strikethrough","rangeEnd":62,"rangeStart":0,"value":0,"valueType":"int"},{"name":"fontName","rangeEnd":62,"rangeStart":0,"value":"Source Sans Pro","valueType":"string"},{"name":"underline","rangeEnd":62,"rangeStart":0,"value":0,"valueType":"int"}],
                              "duration" : 0
                            }
                          ]
                        }
                    },
                    "attributes" : {
                      "ident" : "",
                      "autoRotateText" : true
                    },
                    "parameters" : {
                      "translation1" : -475.0,
                      "geometryCrop0" : 0.0,
                      "geometryCrop1" : 0.0,
                      "geometryCrop2" : 0.0,
                      "geometryCrop3" : 0.0
                    },
                    "effects" : [

                    ],
                    "start" : 214972800000,
                    "duration" : 8490720000,
                    "mediaStart" : 0,
                    "mediaDuration" : 8490720000,
                    "scalar" : 1,
                    "metadata" : {
                      "AppliedThemeId" : "",
                      "audiateLinkedSession" : "",
                      "clipSpeedAttribute" : false,
                      "default-anchor0" : 0.0,
                      "default-anchor1" : 0.0,
                      "default-anchor2" : 0.0,
                      "default-height" : 154.0,
                      "default-rotation0" : 0.0,
                      "default-rotation1" : 0.0,
                      "default-rotation2" : 0.0,
                      "default-scale" : "1",
                      "default-scale0" : 1.0,
                      "default-scale1" : 1.0,
                      "default-scale2" : 1.0,
                      "default-shear0" : 0.0,
                      "default-shear1" : 0.0,
                      "default-shear2" : 0.0,
                      "default-translation0" : -1251.58799845838,
                      "default-translation1" : -792.249365364851,
                      "default-translation2" : 0.0,
                      "default-width" : 452.0,
                      "effectApplied" : "none"
                    },
                    "animationTracks" : {

                    }
                  }
                ],
                "transitions" : [
                  {
                    "name" : "CardSlide",
                    "duration" : 705600000,
                    "rightMedia" : 114,
                    "attributes" : {
                      "bypass" : false,
                      "reverse" : false,
                      "trivial" : false,
                      "useAudioPreRoll" : true,
                      "useVisualPreRoll" : true
                    }

                  },
                  {
                    "name" : "CardSlide",
                    "duration" : 705600000,
                    "leftMedia" : 114,
                    "attributes" : {
                      "bypass" : false,
                      "reverse" : false,
                      "trivial" : false,
                      "useAudioPreRoll" : true,
                      "useVisualPreRoll" : true
                    }

                  },
                  {
                    "name" : "Fade",
                    "duration" : 705600000,
                    "rightMedia" : 116,
                    "attributes" : {
                      "bypass" : false,
                      "reverse" : false,
                      "trivial" : false,
                      "useAudioPreRoll" : true,
                      "useVisualPreRoll" : true
                    }

                  },
                  {
                    "name" : "Fade",
                    "duration" : 705600000,
                    "leftMedia" : 116,
                    "attributes" : {
                      "bypass" : false,
                      "reverse" : false,
                      "trivial" : false,
                      "useAudioPreRoll" : true,
                      "useVisualPreRoll" : true
                    }

                  }
                ]
              },
              {
                "trackIndex" : 5,
                "medias" : [
                  {
                    "id" : 117,
                    "_type" : "Callout",
                    "def" : {
                        "kind" : "remix",
                        "shape" : "text-arrow2",
                        "style" : "abstract",
                        "enable-ligatures" : 1.0,
                        "fill-color-blue" : 0.615686274509804,
                        "fill-color-green" : 0.647058823529412,
                        "fill-color-opacity" : 1.0,
                        "fill-color-red" : 0.337254901960784,
                        "height" : 100.0,
                        "line-spacing" : 0.0,
                        "stroke-color-blue" : 1.0,
                        "stroke-color-green" : 1.0,
                        "stroke-color-opacity" : 1.0,
                        "stroke-color-red" : 1.0,
                        "stroke-width" : 0.0,
                        "tail-x" : 0.0,
                        "tail-y" : -20.0,
                        "text-stroke-alignment" : 2.0,
                        "text-stroke-color-alpha" : 1.0,
                        "text-stroke-color-blue" : 0.0,
                        "text-stroke-color-green" : 0.0,
                        "text-stroke-color-red" : 0.0,
                        "text-stroke-width" : 0.0,
                        "width" : 300.0,
                        "word-wrap" : 1.0,
                        "fill-style" : "solid",
                        "horizontal-alignment" : "center",
                        "resize-behavior" : "resizeText",
                        "stroke-style" : "solid",
                        "text" : "Go here :)",
                        "vertical-alignment" : "center",
                        "font" : {
                          "color-blue" : 1.0,
                          "color-green" : 1.0,
                          "color-red" : 1.0,
                          "size" : 64.0,
                          "tracking" : 0.0,
                          "name" : "Lato",
                          "weight" : "Regular"
                        },
                        "textAttributes" : {
                          "type" : "textAttributeList",
                          "keyframes" : [
                            {
                              "endTime" : 0,
                              "time" : 0,
                              "value" : [{"name":"fgColor","rangeEnd":10,"rangeStart":0,"value":"(255,255,255,255)","valueType":"color"},{"name":"fontItalic","rangeEnd":10,"rangeStart":0,"value":0,"valueType":"int"},{"name":"kerning","rangeEnd":10,"rangeStart":0,"value":0.0,"valueType":"double"},{"name":"underline","rangeEnd":10,"rangeStart":0,"value":0,"valueType":"int"},{"name":"fontSize","rangeEnd":10,"rangeStart":0,"value":64.0,"valueType":"double"},{"name":"strikethrough","rangeEnd":10,"rangeStart":0,"value":0,"valueType":"int"},{"name":"fontWeight","rangeEnd":10,"rangeStart":0,"value":400,"valueType":"int"},{"name":"fontName","rangeEnd":10,"rangeStart":0,"value":"Lato","valueType":"string"}],
                              "duration" : 0
                            }
                          ]
                        }
                    },
                    "attributes" : {
                      "ident" : "",
                      "autoRotateText" : true
                    },
                    "parameters" : {
                      "translation0" : -727.315082219939,
                      "translation1" : 241.546094552929,
                      "rotation2" : 0.607134811624021,
                      "shear0" : -8.20634654868138e-18,
                      "geometryCrop0" : 0.0,
                      "geometryCrop1" : 0.0,
                      "geometryCrop2" : 0.0,
                      "geometryCrop3" : 0.0
                    },
                    "effects" : [

                    ],
                    "start" : 198014880000,
                    "duration" : 4421760000,
                    "mediaStart" : 0,
                    "mediaDuration" : 4421760000,
                    "scalar" : 1,
                    "metadata" : {
                      "AppliedThemeId" : "",
                      "audiateLinkedSession" : "",
                      "clipSpeedAttribute" : false,
                      "default-anchor0" : 0.0,
                      "default-anchor1" : 0.0,
                      "default-anchor2" : 0.0,
                      "default-height" : 262.0,
                      "default-rotation0" : 0.0,
                      "default-rotation1" : 0.0,
                      "default-rotation2" : 0.0,
                      "default-scale" : "1",
                      "default-scale0" : 1.0,
                      "default-scale1" : 1.0,
                      "default-scale2" : 1.0,
                      "default-shear0" : 0.0,
                      "default-shear1" : 0.0,
                      "default-shear2" : 0.0,
                      "default-translation0" : -1421.46397738952,
                      "default-translation1" : -68.2723535457348,
                      "default-translation2" : 0.0,
                      "default-width" : 526.0,
                      "effectApplied" : "none"
                    },
                    "animationTracks" : {

                    }
                  }
                ]
              },
              {
                "trackIndex" : 6,
                "medias" : [
                  {
                    "id" : 118,
                    "_type" : "VMFile",
                    "src" : 6,
                    "trackNumber" : 0,
                    "attributes" : {
                      "ident" : "Dynamic Fill 15"
                    },
                    "parameters" : {
                      "geometryCrop0" : 0.0,
                      "geometryCrop1" : 0.0,
                      "geometryCrop2" : 0.0,
                      "geometryCrop3" : 0.0
                    },
                    "sourceEffect" :                       {
                        "effectName" : "SourceEffect",
                        "bypassed" : false,
                        "category" : "",
                        "parameters" : {
                          "Color0-alpha" : 1.0,
                          "Color0-blue" : 0.505882352941176,
                          "Color0-green" : 0.505882352941176,
                          "Color0-red" : 0.937254901960784,
                          "Color1-alpha" : 1.0,
                          "Color1-blue" : 0.364705882352941,
                          "Color1-green" : 0.454901960784314,
                          "Color1-red" : 0.905882352941176,
                          "Color2-alpha" : 1.0,
                          "Color2-blue" : 0.949019607843137,
                          "Color2-green" : 0.2,
                          "Color2-red" : 0.580392156862745,
                          "Color3-alpha" : 1.0,
                          "Color3-blue" : 1.0,
                          "Color3-green" : 0.0,
                          "Color3-red" : 0.23921568627451,
                          "MidPointX" : 0.5,
                          "MidPointY" : 0.5,
                          "Speed" : 5.0,
                          "sourceFileType" : "tscshadervid"
                        }
                      },
                    "effects" : [

                    ],
                    "start" : 6750240000,
                    "duration" : 13006560000,
                    "mediaStart" : 395277120000,
                    "mediaDuration" : 13006560000,
                    "scalar" : 1,
                    "metadata" : {
                      "audiateLinkedSession" : "",
                      "clipSpeedAttribute" : false,
                      "effectApplied" : "none",
                      "lockAspectRatio" : true
                    },
                    "animationTracks" : {

                    }
                  }
                ]
              },
              {
                "trackIndex" : 7,
                "medias" : [
                  {
                    "id" : 119,
                    "_type" : "StitchedMedia",
                    "minMediaStart" : 0,
                    "attributes" : {
                      "ident" : "Rec 3-27-2024 5",
                      "gain" : 1.0,
                      "mixToMono" : false,
                      "loudnessNormalization" : true,
                      "sourceFileOffset" : 0
                    },
                    "parameters" : {
                      "translation0" : -1.4210854715202e-14,
                      "scale0" : 0.860137604202353,
                      "scale1" : 0.860137604202353,
                      "geometryCrop0" : 5.32907051820075e-14,
                      "geometryCrop1" : 2.99760216648792e-14,
                      "geometryCrop2" : 5.32907051820075e-14,
                      "geometryCrop3" : 2.99760216648792e-14,
                      "volume" : 0.0,
                      "cursorOpacity" : 1.0,
                      "cursorScale" : 2.25,
                      "smoothCursorAcrossEditDuration" : 0
                    },
                    "medias" : [
                        {
                          "id" : 120,
                          "_type" : "UnifiedMedia",
                          "video" : 
                              {
                                "id" : 121,
                                "_type" : "ScreenVMFile",
                                "src" : 7,
                                "trackNumber" : 0,
                                "attributes" : {
                                  "ident" : "Rec 3-27-2024 5"
                                },
                                "parameters" : {
                                  "geometryCrop0" : {
                                    "type" : "double",
                                    "defaultValue" : 0.0,
                                    "interp" : "eioe"
                                  },
                                  "geometryCrop1" : {
                                    "type" : "double",
                                    "defaultValue" : 0.0,
                                    "interp" : "eioe"
                                  },
                                  "geometryCrop2" : {
                                    "type" : "double",
                                    "defaultValue" : 0.0,
                                    "interp" : "eioe"
                                  },
                                  "geometryCrop3" : {
                                    "type" : "double",
                                    "defaultValue" : 0.0,
                                    "interp" : "eioe"
                                  },
                                  "cursorScale" : {
                                    "type" : "double",
                                    "defaultValue" : 0.0,
                                    "interp" : "linr"
                                  },
                                  "cursorOpacity" : {
                                    "type" : "double",
                                    "defaultValue" : 0.0,
                                    "interp" : "linr"
                                  },
                                  "smoothCursorAcrossEditDuration" : 0
                                },
                                "effects" : [

                                ],
                                "start" : 0,
                                "duration" : 12300960000,
                                "mediaStart" : 0,
                                "mediaDuration" : 12300960000,
                                "scalar" : 1,
                                "animationTracks" : {

                                }
                              },
                          "audio" : 
                              {
                                "id" : 122,
                                "_type" : "AMFile",
                                "src" : 7,
                                "trackNumber" : 1,
                                "attributes" : {
                                  "ident" : "",
                                  "gain" : 1.0,
                                  "mixToMono" : false,
                                  "loudnessNormalization" : true,
                                  "sourceFileOffset" : 0
                                },
                                  "channelNumber" : "0",
                                "effects" : [

                                ],
                                "start" : 0,
                                "duration" : 12300960000,
                                "mediaStart" : 0,
                                "mediaDuration" : 12300960000,
                                "scalar" : 1,
                                "animationTracks" : {

                                }
                              }
,
                          "start" : 0,
                          "duration" : 12300960000,
                          "mediaStart" : 0,
                          "mediaDuration" : 12300960000,
                          "scalar" : 1,
                          "metadata" : {
                            "audiateLinkedSession" : "",
                            "clipSpeedAttribute" : false,
                            "effectApplied" : "none"
                          }
                        },
                        {
                          "id" : 123,
                          "_type" : "UnifiedMedia",
                          "video" : 
                              {
                                "id" : 124,
                                "_type" : "ScreenVMFile",
                                "src" : 7,
                                "trackNumber" : 0,
                                "attributes" : {
                                  "ident" : "Rec 3-27-2024 5"
                                },
                                "parameters" : {
                                  "geometryCrop0" : {
                                    "type" : "double",
                                    "defaultValue" : 0.0,
                                    "interp" : "eioe"
                                  },
                                  "geometryCrop1" : {
                                    "type" : "double",
                                    "defaultValue" : 0.0,
                                    "interp" : "eioe"
                                  },
                                  "geometryCrop2" : {
                                    "type" : "double",
                                    "defaultValue" : 0.0,
                                    "interp" : "eioe"
                                  },
                                  "geometryCrop3" : {
                                    "type" : "double",
                                    "defaultValue" : 0.0,
                                    "interp" : "eioe"
                                  },
                                  "cursorScale" : {
                                    "type" : "double",
                                    "defaultValue" : 0.0,
                                    "interp" : "linr"
                                  },
                                  "cursorOpacity" : {
                                    "type" : "double",
                                    "defaultValue" : 0.0,
                                    "interp" : "linr"
                                  },
                                  "smoothCursorAcrossEditDuration" : 0
                                },
                                "effects" : [

                                ],
                                "start" : 12300960000,
                                "duration" : 8114400000,
                                "mediaStart" : 14064960000,
                                "mediaDuration" : 8114400000,
                                "scalar" : 1,
                                "animationTracks" : {

                                }
                              },
                          "audio" : 
                              {
                                "id" : 125,
                                "_type" : "AMFile",
                                "src" : 7,
                                "trackNumber" : 1,
                                "attributes" : {
                                  "ident" : "",
                                  "gain" : 1.0,
                                  "mixToMono" : false,
                                  "loudnessNormalization" : true,
                                  "sourceFileOffset" : 0
                                },
                                  "channelNumber" : "0",
                                "effects" : [

                                ],
                                "start" : 12300960000,
                                "duration" : 8114400000,
                                "mediaStart" : 14064960000,
                                "mediaDuration" : 8114400000,
                                "scalar" : 1,
                                "animationTracks" : {

                                }
                              }
,
                          "start" : 12300960000,
                          "duration" : 8114400000,
                          "mediaStart" : 14064960000,
                          "mediaDuration" : 8114400000,
                          "scalar" : 1,
                          "metadata" : {
                            "audiateLinkedSession" : "",
                            "clipSpeedAttribute" : false,
                            "effectApplied" : "none"
                          }
                        },
                        {
                          "id" : 126,
                          "_type" : "UnifiedMedia",
                          "video" : 
                              {
                                "id" : 127,
                                "_type" : "ScreenVMFile",
                                "src" : 7,
                                "trackNumber" : 0,
                                "attributes" : {
                                  "ident" : "Rec 3-27-2024 5"
                                },
                                "parameters" : {
                                  "geometryCrop0" : {
                                    "type" : "double",
                                    "defaultValue" : 0.0,
                                    "interp" : "eioe"
                                  },
                                  "geometryCrop1" : {
                                    "type" : "double",
                                    "defaultValue" : 0.0,
                                    "interp" : "eioe"
                                  },
                                  "geometryCrop2" : {
                                    "type" : "double",
                                    "defaultValue" : 0.0,
                                    "interp" : "eioe"
                                  },
                                  "geometryCrop3" : {
                                    "type" : "double",
                                    "defaultValue" : 0.0,
                                    "interp" : "eioe"
                                  },
                                  "cursorScale" : {
                                    "type" : "double",
                                    "defaultValue" : 0.0,
                                    "interp" : "linr"
                                  },
                                  "cursorOpacity" : {
                                    "type" : "double",
                                    "defaultValue" : 0.0,
                                    "interp" : "linr"
                                  },
                                  "smoothCursorAcrossEditDuration" : 0
                                },
                                "effects" : [

                                ],
                                "start" : 20415360000,
                                "duration" : 258720000,
                                "mediaStart" : 49580160000,
                                "mediaDuration" : 258720000,
                                "scalar" : 1,
                                "animationTracks" : {

                                }
                              },
                          "audio" : 
                              {
                                "id" : 128,
                                "_type" : "AMFile",
                                "src" : 7,
                                "trackNumber" : 1,
                                "attributes" : {
                                  "ident" : "",
                                  "gain" : 1.0,
                                  "mixToMono" : false,
                                  "loudnessNormalization" : true,
                                  "sourceFileOffset" : 0
                                },
                                  "channelNumber" : "0",
                                "effects" : [

                                ],
                                "start" : 20415360000,
                                "duration" : 258720000,
                                "mediaStart" : 49580160000,
                                "mediaDuration" : 258720000,
                                "scalar" : 1,
                                "animationTracks" : {

                                }
                              }
,
                          "start" : 20415360000,
                          "duration" : 258720000,
                          "mediaStart" : 49580160000,
                          "mediaDuration" : 258720000,
                          "scalar" : 1,
                          "metadata" : {
                            "audiateLinkedSession" : "",
                            "clipSpeedAttribute" : false,
                            "effectApplied" : "none"
                          }
                        },
                        {
                          "id" : 129,
                          "_type" : "UnifiedMedia",
                          "video" : 
                              {
                                "id" : 130,
                                "_type" : "ScreenVMFile",
                                "src" : 7,
                                "trackNumber" : 0,
                                "attributes" : {
                                  "ident" : "Rec 3-27-2024 5"
                                },
                                "parameters" : {
                                  "geometryCrop0" : {
                                    "type" : "double",
                                    "defaultValue" : 0.0,
                                    "interp" : "eioe"
                                  },
                                  "geometryCrop1" : {
                                    "type" : "double",
                                    "defaultValue" : 0.0,
                                    "interp" : "eioe"
                                  },
                                  "geometryCrop2" : {
                                    "type" : "double",
                                    "defaultValue" : 0.0,
                                    "interp" : "eioe"
                                  },
                                  "geometryCrop3" : {
                                    "type" : "double",
                                    "defaultValue" : 0.0,
                                    "interp" : "eioe"
                                  },
                                  "cursorScale" : {
                                    "type" : "double",
                                    "defaultValue" : 0.0,
                                    "interp" : "linr"
                                  },
                                  "cursorOpacity" : {
                                    "type" : "double",
                                    "defaultValue" : 0.0,
                                    "interp" : "linr"
                                  },
                                  "smoothCursorAcrossEditDuration" : 0
                                },
                                "effects" : [

                                ],
                                "start" : 20674080000,
                                "duration" : 11901120000,
                                "mediaStart" : 69336960000,
                                "mediaDuration" : 11901120000,
                                "scalar" : 1,
                                "animationTracks" : {

                                }
                              },
                          "audio" : 
                              {
                                "id" : 131,
                                "_type" : "AMFile",
                                "src" : 7,
                                "trackNumber" : 1,
                                "attributes" : {
                                  "ident" : "",
                                  "gain" : 1.0,
                                  "mixToMono" : false,
                                  "loudnessNormalization" : true,
                                  "sourceFileOffset" : 0
                                },
                                  "channelNumber" : "0",
                                "effects" : [

                                ],
                                "start" : 20674080000,
                                "duration" : 11901120000,
                                "mediaStart" : 69336960000,
                                "mediaDuration" : 11901120000,
                                "scalar" : 1,
                                "animationTracks" : {

                                }
                              }
,
                          "start" : 20674080000,
                          "duration" : 11901120000,
                          "mediaStart" : 69336960000,
                          "mediaDuration" : 11901120000,
                          "scalar" : 1,
                          "metadata" : {
                            "audiateLinkedSession" : "",
                            "clipSpeedAttribute" : false,
                            "effectApplied" : "none"
                          }
                        },
                        {
                          "id" : 132,
                          "_type" : "UnifiedMedia",
                          "video" : 
                              {
                                "id" : 133,
                                "_type" : "ScreenVMFile",
                                "src" : 7,
                                "trackNumber" : 0,
                                "attributes" : {
                                  "ident" : "Rec 3-27-2024 5"
                                },
                                "parameters" : {
                                  "geometryCrop0" : {
                                    "type" : "double",
                                    "defaultValue" : 0.0,
                                    "interp" : "eioe"
                                  },
                                  "geometryCrop1" : {
                                    "type" : "double",
                                    "defaultValue" : 0.0,
                                    "interp" : "eioe"
                                  },
                                  "geometryCrop2" : {
                                    "type" : "double",
                                    "defaultValue" : 0.0,
                                    "interp" : "eioe"
                                  },
                                  "geometryCrop3" : {
                                    "type" : "double",
                                    "defaultValue" : 0.0,
                                    "interp" : "eioe"
                                  },
                                  "cursorScale" : {
                                    "type" : "double",
                                    "defaultValue" : 0.0,
                                    "interp" : "linr"
                                  },
                                  "cursorOpacity" : {
                                    "type" : "double",
                                    "defaultValue" : 0.0,
                                    "interp" : "linr"
                                  },
                                  "smoothCursorAcrossEditDuration" : 0
                                },
                                "effects" : [

                                ],
                                "start" : 32575200000,
                                "duration" : 5597760000,
                                "mediaStart" : 83543040000,
                                "mediaDuration" : 5597760000,
                                "scalar" : 1,
                                "animationTracks" : {

                                }
                              },
                          "audio" : 
                              {
                                "id" : 134,
                                "_type" : "AMFile",
                                "src" : 7,
                                "trackNumber" : 1,
                                "attributes" : {
                                  "ident" : "",
                                  "gain" : 1.0,
                                  "mixToMono" : false,
                                  "loudnessNormalization" : true,
                                  "sourceFileOffset" : 0
                                },
                                  "channelNumber" : "0",
                                "effects" : [

                                ],
                                "start" : 32575200000,
                                "duration" : 5597760000,
                                "mediaStart" : 83543040000,
                                "mediaDuration" : 5597760000,
                                "scalar" : 1,
                                "animationTracks" : {

                                }
                              }
,
                          "start" : 32575200000,
                          "duration" : 5597760000,
                          "mediaStart" : 83543040000,
                          "mediaDuration" : 5597760000,
                          "scalar" : 1,
                          "metadata" : {
                            "audiateLinkedSession" : "",
                            "clipSpeedAttribute" : false,
                            "effectApplied" : "none"
                          }
                        },
                        {
                          "id" : 135,
                          "_type" : "UnifiedMedia",
                          "video" : 
                              {
                                "id" : 136,
                                "_type" : "ScreenVMFile",
                                "src" : 7,
                                "trackNumber" : 0,
                                "attributes" : {
                                  "ident" : "Rec 3-27-2024 5"
                                },
                                "parameters" : {
                                  "geometryCrop0" : {
                                    "type" : "double",
                                    "defaultValue" : 0.0,
                                    "interp" : "eioe"
                                  },
                                  "geometryCrop1" : {
                                    "type" : "double",
                                    "defaultValue" : 0.0,
                                    "interp" : "eioe"
                                  },
                                  "geometryCrop2" : {
                                    "type" : "double",
                                    "defaultValue" : 0.0,
                                    "interp" : "eioe"
                                  },
                                  "geometryCrop3" : {
                                    "type" : "double",
                                    "defaultValue" : 0.0,
                                    "interp" : "eioe"
                                  },
                                  "cursorScale" : {
                                    "type" : "double",
                                    "defaultValue" : 0.0,
                                    "interp" : "linr"
                                  },
                                  "cursorOpacity" : {
                                    "type" : "double",
                                    "defaultValue" : 0.0,
                                    "interp" : "linr"
                                  },
                                  "smoothCursorAcrossEditDuration" : 0
                                },
                                "effects" : [

                                ],
                                "start" : 38172960000,
                                "duration" : 47040000,
                                "mediaStart" : 123762240000,
                                "mediaDuration" : 47040000,
                                "scalar" : 1,
                                "animationTracks" : {

                                }
                              },
                          "audio" : 
                              {
                                "id" : 137,
                                "_type" : "AMFile",
                                "src" : 7,
                                "trackNumber" : 1,
                                "attributes" : {
                                  "ident" : "",
                                  "gain" : 1.0,
                                  "mixToMono" : false,
                                  "loudnessNormalization" : true,
                                  "sourceFileOffset" : 0
                                },
                                  "channelNumber" : "0",
                                "effects" : [

                                ],
                                "start" : 38172960000,
                                "duration" : 47040000,
                                "mediaStart" : 123762240000,
                                "mediaDuration" : 47040000,
                                "scalar" : 1,
                                "animationTracks" : {

                                }
                              }
,
                          "start" : 38172960000,
                          "duration" : 47040000,
                          "mediaStart" : 123762240000,
                          "mediaDuration" : 47040000,
                          "scalar" : 1,
                          "metadata" : {
                            "audiateLinkedSession" : "",
                            "clipSpeedAttribute" : false,
                            "effectApplied" : "none"
                          }
                        },
                        {
                          "id" : 138,
                          "_type" : "UnifiedMedia",
                          "video" : 
                              {
                                "id" : 139,
                                "_type" : "ScreenVMFile",
                                "src" : 7,
                                "trackNumber" : 0,
                                "attributes" : {
                                  "ident" : "Rec 3-27-2024 5"
                                },
                                "parameters" : {
                                  "geometryCrop0" : {
                                    "type" : "double",
                                    "defaultValue" : 0.0,
                                    "interp" : "eioe"
                                  },
                                  "geometryCrop1" : {
                                    "type" : "double",
                                    "defaultValue" : 0.0,
                                    "interp" : "eioe"
                                  },
                                  "geometryCrop2" : {
                                    "type" : "double",
                                    "defaultValue" : 0.0,
                                    "interp" : "eioe"
                                  },
                                  "geometryCrop3" : {
                                    "type" : "double",
                                    "defaultValue" : 0.0,
                                    "interp" : "eioe"
                                  },
                                  "cursorScale" : {
                                    "type" : "double",
                                    "defaultValue" : 0.0,
                                    "interp" : "linr"
                                  },
                                  "cursorOpacity" : {
                                    "type" : "double",
                                    "defaultValue" : 0.0,
                                    "interp" : "linr"
                                  },
                                  "smoothCursorAcrossEditDuration" : 0
                                },
                                "effects" : [

                                ],
                                "start" : 38220000000,
                                "duration" : 11712960000,
                                "mediaStart" : 131994240000,
                                "mediaDuration" : 11712960000,
                                "scalar" : 1,
                                "animationTracks" : {

                                }
                              },
                          "audio" : 
                              {
                                "id" : 140,
                                "_type" : "AMFile",
                                "src" : 7,
                                "trackNumber" : 1,
                                "attributes" : {
                                  "ident" : "",
                                  "gain" : 1.0,
                                  "mixToMono" : false,
                                  "loudnessNormalization" : true,
                                  "sourceFileOffset" : 0
                                },
                                  "channelNumber" : "0",
                                "effects" : [

                                ],
                                "start" : 38220000000,
                                "duration" : 11712960000,
                                "mediaStart" : 131994240000,
                                "mediaDuration" : 11712960000,
                                "scalar" : 1,
                                "animationTracks" : {

                                }
                              }
,
                          "start" : 38220000000,
                          "duration" : 11712960000,
                          "mediaStart" : 131994240000,
                          "mediaDuration" : 11712960000,
                          "scalar" : 1,
                          "metadata" : {
                            "audiateLinkedSession" : "",
                            "clipSpeedAttribute" : false,
                            "effectApplied" : "none"
                          }
                        },
                        {
                          "id" : 141,
                          "_type" : "UnifiedMedia",
                          "video" : 
                              {
                                "id" : 142,
                                "_type" : "ScreenVMFile",
                                "src" : 7,
                                "trackNumber" : 0,
                                "attributes" : {
                                  "ident" : "Rec 3-27-2024 5"
                                },
                                "parameters" : {
                                  "geometryCrop0" : {
                                    "type" : "double",
                                    "defaultValue" : 0.0,
                                    "interp" : "eioe"
                                  },
                                  "geometryCrop1" : {
                                    "type" : "double",
                                    "defaultValue" : 0.0,
                                    "interp" : "eioe"
                                  },
                                  "geometryCrop2" : {
                                    "type" : "double",
                                    "defaultValue" : 0.0,
                                    "interp" : "eioe"
                                  },
                                  "geometryCrop3" : {
                                    "type" : "double",
                                    "defaultValue" : 0.0,
                                    "interp" : "eioe"
                                  },
                                  "cursorScale" : {
                                    "type" : "double",
                                    "defaultValue" : 0.0,
                                    "interp" : "linr"
                                  },
                                  "cursorOpacity" : {
                                    "type" : "double",
                                    "defaultValue" : 0.0,
                                    "interp" : "linr"
                                  },
                                  "smoothCursorAcrossEditDuration" : 0
                                },
                                "effects" : [

                                ],
                                "start" : 49932960000,
                                "duration" : 7455840000,
                                "mediaStart" : 145824000000,
                                "mediaDuration" : 7455840000,
                                "scalar" : 1,
                                "animationTracks" : {

                                }
                              },
                          "audio" : 
                              {
                                "id" : 143,
                                "_type" : "AMFile",
                                "src" : 7,
                                "trackNumber" : 1,
                                "attributes" : {
                                  "ident" : "",
                                  "gain" : 1.0,
                                  "mixToMono" : false,
                                  "loudnessNormalization" : true,
                                  "sourceFileOffset" : 0
                                },
                                  "channelNumber" : "0",
                                "effects" : [

                                ],
                                "start" : 49932960000,
                                "duration" : 7455840000,
                                "mediaStart" : 145824000000,
                                "mediaDuration" : 7455840000,
                                "scalar" : 1,
                                "animationTracks" : {

                                }
                              }
,
                          "start" : 49932960000,
                          "duration" : 7455840000,
                          "mediaStart" : 145824000000,
                          "mediaDuration" : 7455840000,
                          "scalar" : 1,
                          "metadata" : {
                            "audiateLinkedSession" : "",
                            "clipSpeedAttribute" : false,
                            "effectApplied" : "none"
                          }
                        },
                        {
                          "id" : 144,
                          "_type" : "UnifiedMedia",
                          "video" : 
                              {
                                "id" : 145,
                                "_type" : "ScreenVMFile",
                                "src" : 7,
                                "trackNumber" : 0,
                                "attributes" : {
                                  "ident" : "Rec 3-27-2024 5"
                                },
                                "parameters" : {
                                  "geometryCrop0" : {
                                    "type" : "double",
                                    "defaultValue" : 0.0,
                                    "interp" : "eioe"
                                  },
                                  "geometryCrop1" : {
                                    "type" : "double",
                                    "defaultValue" : 0.0,
                                    "interp" : "eioe"
                                  },
                                  "geometryCrop2" : {
                                    "type" : "double",
                                    "defaultValue" : 0.0,
                                    "interp" : "eioe"
                                  },
                                  "geometryCrop3" : {
                                    "type" : "double",
                                    "defaultValue" : 0.0,
                                    "interp" : "eioe"
                                  },
                                  "cursorScale" : {
                                    "type" : "double",
                                    "defaultValue" : 0.0,
                                    "interp" : "linr"
                                  },
                                  "cursorOpacity" : {
                                    "type" : "double",
                                    "defaultValue" : 0.0,
                                    "interp" : "linr"
                                  },
                                  "smoothCursorAcrossEditDuration" : 0
                                },
                                "effects" : [

                                ],
                                "start" : 57388800000,
                                "duration" : 5997600000,
                                "mediaStart" : 167838720000,
                                "mediaDuration" : 5997600000,
                                "scalar" : 1,
                                "animationTracks" : {

                                }
                              },
                          "audio" : 
                              {
                                "id" : 146,
                                "_type" : "AMFile",
                                "src" : 7,
                                "trackNumber" : 1,
                                "attributes" : {
                                  "ident" : "",
                                  "gain" : 1.0,
                                  "mixToMono" : false,
                                  "loudnessNormalization" : true,
                                  "sourceFileOffset" : 0
                                },
                                  "channelNumber" : "0",
                                "effects" : [

                                ],
                                "start" : 57388800000,
                                "duration" : 5997600000,
                                "mediaStart" : 167838720000,
                                "mediaDuration" : 5997600000,
                                "scalar" : 1,
                                "animationTracks" : {

                                }
                              }
,
                          "start" : 57388800000,
                          "duration" : 5997600000,
                          "mediaStart" : 167838720000,
                          "mediaDuration" : 5997600000,
                          "scalar" : 1,
                          "metadata" : {
                            "audiateLinkedSession" : "",
                            "clipSpeedAttribute" : false,
                            "effectApplied" : "none"
                          }
                        },
                        {
                          "id" : 147,
                          "_type" : "UnifiedMedia",
                          "video" : 
                              {
                                "id" : 148,
                                "_type" : "ScreenVMFile",
                                "src" : 7,
                                "trackNumber" : 0,
                                "attributes" : {
                                  "ident" : "Rec 3-27-2024 5"
                                },
                                "parameters" : {
                                  "geometryCrop0" : {
                                    "type" : "double",
                                    "defaultValue" : 0.0,
                                    "interp" : "eioe"
                                  },
                                  "geometryCrop1" : {
                                    "type" : "double",
                                    "defaultValue" : 0.0,
                                    "interp" : "eioe"
                                  },
                                  "geometryCrop2" : {
                                    "type" : "double",
                                    "defaultValue" : 0.0,
                                    "interp" : "eioe"
                                  },
                                  "geometryCrop3" : {
                                    "type" : "double",
                                    "defaultValue" : 0.0,
                                    "interp" : "eioe"
                                  },
                                  "cursorScale" : {
                                    "type" : "double",
                                    "defaultValue" : 0.0,
                                    "interp" : "linr"
                                  },
                                  "cursorOpacity" : {
                                    "type" : "double",
                                    "defaultValue" : 0.0,
                                    "interp" : "linr"
                                  },
                                  "smoothCursorAcrossEditDuration" : 0
                                },
                                "effects" : [

                                ],
                                "start" : 63386400000,
                                "duration" : 1834560000,
                                "mediaStart" : 177105600000,
                                "mediaDuration" : 1834560000,
                                "scalar" : 1,
                                "animationTracks" : {

                                }
                              },
                          "audio" : 
                              {
                                "id" : 149,
                                "_type" : "AMFile",
                                "src" : 7,
                                "trackNumber" : 1,
                                "attributes" : {
                                  "ident" : "",
                                  "gain" : 1.0,
                                  "mixToMono" : false,
                                  "loudnessNormalization" : true,
                                  "sourceFileOffset" : 0
                                },
                                  "channelNumber" : "0",
                                "effects" : [

                                ],
                                "start" : 63386400000,
                                "duration" : 1834560000,
                                "mediaStart" : 177105600000,
                                "mediaDuration" : 1834560000,
                                "scalar" : 1,
                                "animationTracks" : {

                                }
                              }
,
                          "start" : 63386400000,
                          "duration" : 1834560000,
                          "mediaStart" : 177105600000,
                          "mediaDuration" : 1834560000,
                          "scalar" : 1,
                          "metadata" : {
                            "audiateLinkedSession" : "",
                            "clipSpeedAttribute" : false,
                            "effectApplied" : "none"
                          }
                        },
                        {
                          "id" : 150,
                          "_type" : "UnifiedMedia",
                          "video" : 
                              {
                                "id" : 151,
                                "_type" : "ScreenVMFile",
                                "src" : 7,
                                "trackNumber" : 0,
                                "attributes" : {
                                  "ident" : "Rec 3-27-2024 5"
                                },
                                "parameters" : {
                                  "geometryCrop0" : {
                                    "type" : "double",
                                    "defaultValue" : 0.0,
                                    "interp" : "eioe"
                                  },
                                  "geometryCrop1" : {
                                    "type" : "double",
                                    "defaultValue" : 0.0,
                                    "interp" : "eioe"
                                  },
                                  "geometryCrop2" : {
                                    "type" : "double",
                                    "defaultValue" : 0.0,
                                    "interp" : "eioe"
                                  },
                                  "geometryCrop3" : {
                                    "type" : "double",
                                    "defaultValue" : 0.0,
                                    "interp" : "eioe"
                                  },
                                  "cursorScale" : {
                                    "type" : "double",
                                    "defaultValue" : 0.0,
                                    "interp" : "linr"
                                  },
                                  "cursorOpacity" : {
                                    "type" : "double",
                                    "defaultValue" : 0.0,
                                    "interp" : "linr"
                                  },
                                  "smoothCursorAcrossEditDuration" : 0
                                },
                                "effects" : [

                                ],
                                "start" : 65220960000,
                                "duration" : 7573440000,
                                "mediaStart" : 179975040000,
                                "mediaDuration" : 7573440000,
                                "scalar" : 1,
                                "animationTracks" : {

                                }
                              },
                          "audio" : 
                              {
                                "id" : 152,
                                "_type" : "AMFile",
                                "src" : 7,
                                "trackNumber" : 1,
                                "attributes" : {
                                  "ident" : "",
                                  "gain" : 1.0,
                                  "mixToMono" : false,
                                  "loudnessNormalization" : true,
                                  "sourceFileOffset" : 0
                                },
                                  "channelNumber" : "0",
                                "effects" : [

                                ],
                                "start" : 65220960000,
                                "duration" : 7573440000,
                                "mediaStart" : 179975040000,
                                "mediaDuration" : 7573440000,
                                "scalar" : 1,
                                "animationTracks" : {

                                }
                              }
,
                          "start" : 65220960000,
                          "duration" : 7573440000,
                          "mediaStart" : 179975040000,
                          "mediaDuration" : 7573440000,
                          "scalar" : 1,
                          "metadata" : {
                            "audiateLinkedSession" : "",
                            "clipSpeedAttribute" : false,
                            "effectApplied" : "none"
                          }
                        },
                        {
                          "id" : 153,
                          "_type" : "UnifiedMedia",
                          "video" : 
                              {
                                "id" : 154,
                                "_type" : "ScreenVMFile",
                                "src" : 7,
                                "trackNumber" : 0,
                                "attributes" : {
                                  "ident" : "Rec 3-27-2024 5"
                                },
                                "parameters" : {
                                  "geometryCrop0" : {
                                    "type" : "double",
                                    "defaultValue" : 0.0,
                                    "interp" : "eioe"
                                  },
                                  "geometryCrop1" : {
                                    "type" : "double",
                                    "defaultValue" : 0.0,
                                    "interp" : "eioe"
                                  },
                                  "geometryCrop2" : {
                                    "type" : "double",
                                    "defaultValue" : 0.0,
                                    "interp" : "eioe"
                                  },
                                  "geometryCrop3" : {
                                    "type" : "double",
                                    "defaultValue" : 0.0,
                                    "interp" : "eioe"
                                  },
                                  "cursorScale" : {
                                    "type" : "double",
                                    "defaultValue" : 0.0,
                                    "interp" : "linr"
                                  },
                                  "cursorOpacity" : {
                                    "type" : "double",
                                    "defaultValue" : 0.0,
                                    "interp" : "linr"
                                  },
                                  "smoothCursorAcrossEditDuration" : 0
                                },
                                "effects" : [

                                ],
                                "start" : 72794400000,
                                "duration" : 47040000,
                                "mediaStart" : 200225760000,
                                "mediaDuration" : 47040000,
                                "scalar" : 1,
                                "animationTracks" : {

                                }
                              },
                          "audio" : 
                              {
                                "id" : 155,
                                "_type" : "AMFile",
                                "src" : 7,
                                "trackNumber" : 1,
                                "attributes" : {
                                  "ident" : "",
                                  "gain" : 1.0,
                                  "mixToMono" : false,
                                  "loudnessNormalization" : true,
                                  "sourceFileOffset" : 0
                                },
                                  "channelNumber" : "0",
                                "effects" : [

                                ],
                                "start" : 72794400000,
                                "duration" : 47040000,
                                "mediaStart" : 200225760000,
                                "mediaDuration" : 47040000,
                                "scalar" : 1,
                                "animationTracks" : {

                                }
                              }
,
                          "start" : 72794400000,
                          "duration" : 47040000,
                          "mediaStart" : 200225760000,
                          "mediaDuration" : 47040000,
                          "scalar" : 1,
                          "metadata" : {
                            "audiateLinkedSession" : "",
                            "clipSpeedAttribute" : false,
                            "effectApplied" : "none"
                          }
                        },
                        {
                          "id" : 156,
                          "_type" : "UnifiedMedia",
                          "video" : 
                              {
                                "id" : 157,
                                "_type" : "ScreenVMFile",
                                "src" : 7,
                                "trackNumber" : 0,
                                "attributes" : {
                                  "ident" : "Rec 3-27-2024 5"
                                },
                                "parameters" : {
                                  "geometryCrop0" : {
                                    "type" : "double",
                                    "defaultValue" : 0.0,
                                    "interp" : "eioe"
                                  },
                                  "geometryCrop1" : {
                                    "type" : "double",
                                    "defaultValue" : 0.0,
                                    "interp" : "eioe"
                                  },
                                  "geometryCrop2" : {
                                    "type" : "double",
                                    "defaultValue" : 0.0,
                                    "interp" : "eioe"
                                  },
                                  "geometryCrop3" : {
                                    "type" : "double",
                                    "defaultValue" : 0.0,
                                    "interp" : "eioe"
                                  },
                                  "cursorScale" : {
                                    "type" : "double",
                                    "defaultValue" : 0.0,
                                    "interp" : "linr"
                                  },
                                  "cursorOpacity" : {
                                    "type" : "double",
                                    "defaultValue" : 0.0,
                                    "interp" : "linr"
                                  },
                                  "smoothCursorAcrossEditDuration" : 0
                                },
                                "effects" : [

                                ],
                                "start" : 72841440000,
                                "duration" : 13476960000,
                                "mediaStart" : 201872160000,
                                "mediaDuration" : 13476960000,
                                "scalar" : 1,
                                "animationTracks" : {

                                }
                              },
                          "audio" : 
                              {
                                "id" : 158,
                                "_type" : "AMFile",
                                "src" : 7,
                                "trackNumber" : 1,
                                "attributes" : {
                                  "ident" : "",
                                  "gain" : 1.0,
                                  "mixToMono" : false,
                                  "loudnessNormalization" : true,
                                  "sourceFileOffset" : 0
                                },
                                  "channelNumber" : "0",
                                "effects" : [

                                ],
                                "start" : 72841440000,
                                "duration" : 13476960000,
                                "mediaStart" : 201872160000,
                                "mediaDuration" : 13476960000,
                                "scalar" : 1,
                                "animationTracks" : {

                                }
                              }
,
                          "start" : 72841440000,
                          "duration" : 13476960000,
                          "mediaStart" : 201872160000,
                          "mediaDuration" : 13476960000,
                          "scalar" : 1,
                          "metadata" : {
                            "audiateLinkedSession" : "",
                            "clipSpeedAttribute" : false,
                            "effectApplied" : "none"
                          }
                        },
                        {
                          "id" : 159,
                          "_type" : "UnifiedMedia",
                          "video" : 
                              {
                                "id" : 160,
                                "_type" : "ScreenVMFile",
                                "src" : 7,
                                "trackNumber" : 0,
                                "attributes" : {
                                  "ident" : "Rec 3-27-2024 5"
                                },
                                "parameters" : {
                                  "geometryCrop0" : {
                                    "type" : "double",
                                    "defaultValue" : 0.0,
                                    "interp" : "eioe"
                                  },
                                  "geometryCrop1" : {
                                    "type" : "double",
                                    "defaultValue" : 0.0,
                                    "interp" : "eioe"
                                  },
                                  "geometryCrop2" : {
                                    "type" : "double",
                                    "defaultValue" : 0.0,
                                    "interp" : "eioe"
                                  },
                                  "geometryCrop3" : {
                                    "type" : "double",
                                    "defaultValue" : 0.0,
                                    "interp" : "eioe"
                                  },
                                  "cursorScale" : {
                                    "type" : "double",
                                    "defaultValue" : 0.0,
                                    "interp" : "linr"
                                  },
                                  "cursorOpacity" : {
                                    "type" : "double",
                                    "defaultValue" : 0.0,
                                    "interp" : "linr"
                                  },
                                  "smoothCursorAcrossEditDuration" : 0
                                },
                                "effects" : [

                                ],
                                "start" : 86318400000,
                                "duration" : 8443680000,
                                "mediaStart" : 216454560000,
                                "mediaDuration" : 8443680000,
                                "scalar" : 1,
                                "animationTracks" : {

                                }
                              },
                          "audio" : 
                              {
                                "id" : 161,
                                "_type" : "AMFile",
                                "src" : 7,
                                "trackNumber" : 1,
                                "attributes" : {
                                  "ident" : "",
                                  "gain" : 1.0,
                                  "mixToMono" : false,
                                  "loudnessNormalization" : true,
                                  "sourceFileOffset" : 0
                                },
                                  "channelNumber" : "0",
                                "effects" : [

                                ],
                                "start" : 86318400000,
                                "duration" : 8443680000,
                                "mediaStart" : 216454560000,
                                "mediaDuration" : 8443680000,
                                "scalar" : 1,
                                "animationTracks" : {

                                }
                              }
,
                          "start" : 86318400000,
                          "duration" : 8443680000,
                          "mediaStart" : 216454560000,
                          "mediaDuration" : 8443680000,
                          "scalar" : 1,
                          "metadata" : {
                            "audiateLinkedSession" : "",
                            "clipSpeedAttribute" : false,
                            "effectApplied" : "none"
                          }
                        },
                        {
                          "id" : 162,
                          "_type" : "UnifiedMedia",
                          "video" : 
                              {
                                "id" : 163,
                                "_type" : "ScreenVMFile",
                                "src" : 7,
                                "trackNumber" : 0,
                                "attributes" : {
                                  "ident" : "Rec 3-27-2024 5"
                                },
                                "parameters" : {
                                  "geometryCrop0" : {
                                    "type" : "double",
                                    "defaultValue" : 0.0,
                                    "interp" : "eioe"
                                  },
                                  "geometryCrop1" : {
                                    "type" : "double",
                                    "defaultValue" : 0.0,
                                    "interp" : "eioe"
                                  },
                                  "geometryCrop2" : {
                                    "type" : "double",
                                    "defaultValue" : 0.0,
                                    "interp" : "eioe"
                                  },
                                  "geometryCrop3" : {
                                    "type" : "double",
                                    "defaultValue" : 0.0,
                                    "interp" : "eioe"
                                  },
                                  "cursorScale" : {
                                    "type" : "double",
                                    "defaultValue" : 0.0,
                                    "interp" : "linr"
                                  },
                                  "cursorOpacity" : {
                                    "type" : "double",
                                    "defaultValue" : 0.0,
                                    "interp" : "linr"
                                  },
                                  "smoothCursorAcrossEditDuration" : 0
                                },
                                "effects" : [

                                ],
                                "start" : 94762080000,
                                "duration" : 6585600000,
                                "mediaStart" : 225886080000,
                                "mediaDuration" : 6585600000,
                                "scalar" : 1,
                                "animationTracks" : {

                                }
                              },
                          "audio" : 
                              {
                                "id" : 164,
                                "_type" : "AMFile",
                                "src" : 7,
                                "trackNumber" : 1,
                                "attributes" : {
                                  "ident" : "",
                                  "gain" : 1.0,
                                  "mixToMono" : false,
                                  "loudnessNormalization" : true,
                                  "sourceFileOffset" : 0
                                },
                                  "channelNumber" : "0",
                                "effects" : [

                                ],
                                "start" : 94762080000,
                                "duration" : 6585600000,
                                "mediaStart" : 225886080000,
                                "mediaDuration" : 6585600000,
                                "scalar" : 1,
                                "animationTracks" : {

                                }
                              }
,
                          "start" : 94762080000,
                          "duration" : 6585600000,
                          "mediaStart" : 225886080000,
                          "mediaDuration" : 6585600000,
                          "scalar" : 1,
                          "metadata" : {
                            "audiateLinkedSession" : "",
                            "clipSpeedAttribute" : false,
                            "effectApplied" : "none"
                          }
                        },
                        {
                          "id" : 165,
                          "_type" : "UnifiedMedia",
                          "video" : 
                              {
                                "id" : 166,
                                "_type" : "ScreenVMFile",
                                "src" : 7,
                                "trackNumber" : 0,
                                "attributes" : {
                                  "ident" : "Rec 3-27-2024 5"
                                },
                                "parameters" : {
                                  "geometryCrop0" : {
                                    "type" : "double",
                                    "defaultValue" : 0.0,
                                    "interp" : "eioe"
                                  },
                                  "geometryCrop1" : {
                                    "type" : "double",
                                    "defaultValue" : 0.0,
                                    "interp" : "eioe"
                                  },
                                  "geometryCrop2" : {
                                    "type" : "double",
                                    "defaultValue" : 0.0,
                                    "interp" : "eioe"
                                  },
                                  "geometryCrop3" : {
                                    "type" : "double",
                                    "defaultValue" : 0.0,
                                    "interp" : "eioe"
                                  },
                                  "cursorScale" : {
                                    "type" : "double",
                                    "defaultValue" : 0.0,
                                    "interp" : "linr"
                                  },
                                  "cursorOpacity" : {
                                    "type" : "double",
                                    "defaultValue" : 0.0,
                                    "interp" : "linr"
                                  },
                                  "smoothCursorAcrossEditDuration" : 0
                                },
                                "effects" : [

                                ],
                                "start" : 101347680000,
                                "duration" : 9102240000,
                                "mediaStart" : 234094560000,
                                "mediaDuration" : 9102240000,
                                "scalar" : 1,
                                "animationTracks" : {

                                }
                              },
                          "audio" : 
                              {
                                "id" : 167,
                                "_type" : "AMFile",
                                "src" : 7,
                                "trackNumber" : 1,
                                "attributes" : {
                                  "ident" : "",
                                  "gain" : 1.0,
                                  "mixToMono" : false,
                                  "loudnessNormalization" : true,
                                  "sourceFileOffset" : 0
                                },
                                  "channelNumber" : "0",
                                "effects" : [

                                ],
                                "start" : 101347680000,
                                "duration" : 9102240000,
                                "mediaStart" : 234094560000,
                                "mediaDuration" : 9102240000,
                                "scalar" : 1,
                                "animationTracks" : {

                                }
                              }
,
                          "start" : 101347680000,
                          "duration" : 9102240000,
                          "mediaStart" : 234094560000,
                          "mediaDuration" : 9102240000,
                          "scalar" : 1,
                          "metadata" : {
                            "audiateLinkedSession" : "",
                            "clipSpeedAttribute" : false,
                            "effectApplied" : "none"
                          }
                        },
                        {
                          "id" : 168,
                          "_type" : "UnifiedMedia",
                          "video" : 
                              {
                                "id" : 169,
                                "_type" : "ScreenVMFile",
                                "src" : 7,
                                "trackNumber" : 0,
                                "attributes" : {
                                  "ident" : "Rec 3-27-2024 5"
                                },
                                "parameters" : {
                                  "geometryCrop0" : {
                                    "type" : "double",
                                    "defaultValue" : 0.0,
                                    "interp" : "eioe"
                                  },
                                  "geometryCrop1" : {
                                    "type" : "double",
                                    "defaultValue" : 0.0,
                                    "interp" : "eioe"
                                  },
                                  "geometryCrop2" : {
                                    "type" : "double",
                                    "defaultValue" : 0.0,
                                    "interp" : "eioe"
                                  },
                                  "geometryCrop3" : {
                                    "type" : "double",
                                    "defaultValue" : 0.0,
                                    "interp" : "eioe"
                                  },
                                  "cursorScale" : {
                                    "type" : "double",
                                    "defaultValue" : 0.0,
                                    "interp" : "linr"
                                  },
                                  "cursorOpacity" : {
                                    "type" : "double",
                                    "defaultValue" : 0.0,
                                    "interp" : "linr"
                                  },
                                  "smoothCursorAcrossEditDuration" : 0
                                },
                                "effects" : [

                                ],
                                "start" : 110449920000,
                                "duration" : 6609120000,
                                "mediaStart" : 247759680000,
                                "mediaDuration" : 6609120000,
                                "scalar" : 1,
                                "animationTracks" : {

                                }
                              },
                          "audio" : 
                              {
                                "id" : 170,
                                "_type" : "AMFile",
                                "src" : 7,
                                "trackNumber" : 1,
                                "attributes" : {
                                  "ident" : "",
                                  "gain" : 1.0,
                                  "mixToMono" : false,
                                  "loudnessNormalization" : true,
                                  "sourceFileOffset" : 0
                                },
                                  "channelNumber" : "0",
                                "effects" : [

                                ],
                                "start" : 110449920000,
                                "duration" : 6609120000,
                                "mediaStart" : 247759680000,
                                "mediaDuration" : 6609120000,
                                "scalar" : 1,
                                "animationTracks" : {

                                }
                              }
,
                          "start" : 110449920000,
                          "duration" : 6609120000,
                          "mediaStart" : 247759680000,
                          "mediaDuration" : 6609120000,
                          "scalar" : 1,
                          "metadata" : {
                            "audiateLinkedSession" : "",
                            "clipSpeedAttribute" : false,
                            "effectApplied" : "none"
                          }
                        },
                        {
                          "id" : 171,
                          "_type" : "UnifiedMedia",
                          "video" : 
                              {
                                "id" : 172,
                                "_type" : "ScreenVMFile",
                                "src" : 7,
                                "trackNumber" : 0,
                                "attributes" : {
                                  "ident" : "Rec 3-27-2024 5"
                                },
                                "parameters" : {
                                  "geometryCrop0" : {
                                    "type" : "double",
                                    "defaultValue" : 0.0,
                                    "interp" : "eioe"
                                  },
                                  "geometryCrop1" : {
                                    "type" : "double",
                                    "defaultValue" : 0.0,
                                    "interp" : "eioe"
                                  },
                                  "geometryCrop2" : {
                                    "type" : "double",
                                    "defaultValue" : 0.0,
                                    "interp" : "eioe"
                                  },
                                  "geometryCrop3" : {
                                    "type" : "double",
                                    "defaultValue" : 0.0,
                                    "interp" : "eioe"
                                  },
                                  "cursorScale" : {
                                    "type" : "double",
                                    "defaultValue" : 0.0,
                                    "interp" : "linr"
                                  },
                                  "cursorOpacity" : {
                                    "type" : "double",
                                    "defaultValue" : 0.0,
                                    "interp" : "linr"
                                  },
                                  "smoothCursorAcrossEditDuration" : 0
                                },
                                "effects" : [

                                ],
                                "start" : 117059040000,
                                "duration" : 14182560000,
                                "mediaStart" : 266387520000,
                                "mediaDuration" : 14182560000,
                                "scalar" : 1,
                                "animationTracks" : {

                                }
                              },
                          "audio" : 
                              {
                                "id" : 173,
                                "_type" : "AMFile",
                                "src" : 7,
                                "trackNumber" : 1,
                                "attributes" : {
                                  "ident" : "",
                                  "gain" : 1.0,
                                  "mixToMono" : false,
                                  "loudnessNormalization" : true,
                                  "sourceFileOffset" : 0
                                },
                                  "channelNumber" : "0",
                                "effects" : [

                                ],
                                "start" : 117059040000,
                                "duration" : 14182560000,
                                "mediaStart" : 266387520000,
                                "mediaDuration" : 14182560000,
                                "scalar" : 1,
                                "animationTracks" : {

                                }
                              }
,
                          "start" : 117059040000,
                          "duration" : 14182560000,
                          "mediaStart" : 266387520000,
                          "mediaDuration" : 14182560000,
                          "scalar" : 1,
                          "metadata" : {
                            "audiateLinkedSession" : "",
                            "clipSpeedAttribute" : false,
                            "effectApplied" : "none"
                          }
                        },
                        {
                          "id" : 174,
                          "_type" : "UnifiedMedia",
                          "video" : 
                              {
                                "id" : 175,
                                "_type" : "ScreenVMFile",
                                "src" : 7,
                                "trackNumber" : 0,
                                "attributes" : {
                                  "ident" : "Rec 3-27-2024 5"
                                },
                                "parameters" : {
                                  "geometryCrop0" : {
                                    "type" : "double",
                                    "defaultValue" : 0.0,
                                    "interp" : "eioe"
                                  },
                                  "geometryCrop1" : {
                                    "type" : "double",
                                    "defaultValue" : 0.0,
                                    "interp" : "eioe"
                                  },
                                  "geometryCrop2" : {
                                    "type" : "double",
                                    "defaultValue" : 0.0,
                                    "interp" : "eioe"
                                  },
                                  "geometryCrop3" : {
                                    "type" : "double",
                                    "defaultValue" : 0.0,
                                    "interp" : "eioe"
                                  },
                                  "cursorScale" : {
                                    "type" : "double",
                                    "defaultValue" : 0.0,
                                    "interp" : "linr"
                                  },
                                  "cursorOpacity" : {
                                    "type" : "double",
                                    "defaultValue" : 0.0,
                                    "interp" : "linr"
                                  },
                                  "smoothCursorAcrossEditDuration" : 0
                                },
                                "effects" : [

                                ],
                                "start" : 131241600000,
                                "duration" : 15052800000,
                                "mediaStart" : 282098880000,
                                "mediaDuration" : 15052800000,
                                "scalar" : 1,
                                "animationTracks" : {

                                }
                              },
                          "audio" : 
                              {
                                "id" : 176,
                                "_type" : "AMFile",
                                "src" : 7,
                                "trackNumber" : 1,
                                "attributes" : {
                                  "ident" : "",
                                  "gain" : 1.0,
                                  "mixToMono" : false,
                                  "loudnessNormalization" : true,
                                  "sourceFileOffset" : 0
                                },
                                  "channelNumber" : "0",
                                "effects" : [

                                ],
                                "start" : 131241600000,
                                "duration" : 15052800000,
                                "mediaStart" : 282098880000,
                                "mediaDuration" : 15052800000,
                                "scalar" : 1,
                                "animationTracks" : {

                                }
                              }
,
                          "start" : 131241600000,
                          "duration" : 15052800000,
                          "mediaStart" : 282098880000,
                          "mediaDuration" : 15052800000,
                          "scalar" : 1,
                          "metadata" : {
                            "audiateLinkedSession" : "",
                            "clipSpeedAttribute" : false,
                            "effectApplied" : "none"
                          }
                        }
                    ],
                    "effects" : [
                        {
                          "effectName" : "Emphasize",
                          "bypassed" : true,
                          "category" : "categoryAudioEffects",
                          "parameters" : {
                            "emphasizeAmount" : 0.8,
                            "emphasizeRampPosition" : 0,
                            "emphasizeRampInTime" : 705600000,
                            "emphasizeRampOutTime" : 705600000
                          },
                          "metadata" : {
                            "effectIndex" : "0"
                          }
                        },
                        {
                          "effectName" : "Reflection",
                          "bypassed" : false,
                          "category" : "categoryVisualEffects",
                          "parameters" : {
                            "distance" : {
                              "type" : "double",
                              "defaultValue" : 20.0,
                              "interp" : "linr",
                              "uiHints" : {
                                "userInterfaceType" : 0,
                                "unitType" : 0
                              }
                            },
                            "opacity" : {
                              "type" : "double",
                              "defaultValue" : 0.2,
                              "interp" : "linr",
                              "uiHints" : {
                                "userInterfaceType" : 1,
                                "unitType" : 1
                              }
                            }
                          },
                          "metadata" : {
                            "effectIndex" : "1"
                          }
                        },
                        {
                          "effectName" : "Border",
                          "bypassed" : false,
                          "category" : "categoryVisualEffects",
                          "parameters" : {
                            "enabled" : 1,
                            "color-red" : {
                              "type" : "double",
                              "defaultValue" : 1.0,
                              "interp" : "linr",
                              "uiHints" : {
                                "userInterfaceType" : 0,
                                "unitType" : 0
                              }
                            },
                            "color-green" : {
                              "type" : "double",
                              "defaultValue" : 1.0,
                              "interp" : "linr",
                              "uiHints" : {
                                "userInterfaceType" : 0,
                                "unitType" : 0
                              }
                            },
                            "color-blue" : {
                              "type" : "double",
                              "defaultValue" : 1.0,
                              "interp" : "linr",
                              "uiHints" : {
                                "userInterfaceType" : 0,
                                "unitType" : 0
                              }
                            },
                            "color-alpha" : {
                              "type" : "double",
                              "defaultValue" : 1.0,
                              "interp" : "linr",
                              "uiHints" : {
                                "userInterfaceType" : 0,
                                "unitType" : 0
                              }
                            },
                            "width" : {
                              "type" : "double",
                              "defaultValue" : 20.0,
                              "interp" : "linr",
                              "uiHints" : {
                                "userInterfaceType" : 0,
                                "unitType" : 0
                              }
                            },
                            "type" : 1
                          },
                          "metadata" : {
                            "effectIndex" : "2"
                          }
                        }
                    ],
                    "start" : 6750240000,
                    "duration" : 12996164160,
                    "mediaStart" : 14253120000,
                    "mediaDuration" : 117082560000,
                    "scalar" : "111/1000",
                    "metadata" : {
                      "audiateLinkedSession" : "",
                      "clipSpeedAttribute" : true,
                      "effectApplied" : "Clip Speed"
                    },
                    "animationTracks" : {

                    }
                  }
                ],
                "transitions" : [
                  {
                    "name" : "CardFlip",
                    "duration" : 705600000,
                    "rightMedia" : 119,
                    "attributes" : {
                      "Angle" : -0.5,
                      "Color-blue" : 1.0,
                      "Color-green" : 1.0,
                      "Color-red" : 1.0,
                      "Depth" : 1.25,
                      "bypass" : false,
                      "reverse" : false,
                      "trivial" : false,
                      "useAudioPreRoll" : true,
                      "useVisualPreRoll" : true
                    }

                  },
                  {
                    "name" : "CardFlip",
                    "duration" : 705600000,
                    "leftMedia" : 119,
                    "attributes" : {
                      "Angle" : -0.5,
                      "Color-blue" : 1.0,
                      "Color-green" : 1.0,
                      "Color-red" : 1.0,
                      "Depth" : 1.25,
                      "bypass" : false,
                      "reverse" : false,
                      "trivial" : false,
                      "useAudioPreRoll" : true,
                      "useVisualPreRoll" : true
                    }

                  }
                ]
              }            ]
          }
        }
      ]
    },
    "trackAttributes" : [
      {
        "ident" : "",
        "audioMuted" : false,
        "videoHidden" : false,
        "magnetic" : false,
        "matte" : 0,
        "solo" : false,
        "metadata" : {
          "IsLocked" : "False",
          "trackHeight" : "54"
        }
      },
      {
        "ident" : "",
        "audioMuted" : false,
        "videoHidden" : false,
        "magnetic" : false,
        "matte" : 0,
        "solo" : false,
        "metadata" : {
          "IsLocked" : "False",
          "trackHeight" : "54"
        }
      },
      {
        "ident" : "",
        "audioMuted" : false,
        "videoHidden" : false,
        "magnetic" : false,
        "matte" : 0,
        "solo" : false,
        "metadata" : {
          "IsLocked" : "False",
          "trackHeight" : "54"
        }
      },
      {
        "ident" : "",
        "audioMuted" : false,
        "videoHidden" : false,
        "magnetic" : false,
        "matte" : 0,
        "solo" : false,
        "metadata" : {
          "IsLocked" : "False",
          "trackHeight" : "54"
        }
      },
      {
        "ident" : "",
        "audioMuted" : false,
        "videoHidden" : false,
        "magnetic" : false,
        "matte" : 0,
        "solo" : false,
        "metadata" : {
          "IsLocked" : "False",
          "trackHeight" : "54"
        }
      },
      {
        "ident" : "",
        "audioMuted" : false,
        "videoHidden" : false,
        "magnetic" : false,
        "matte" : 0,
        "solo" : false,
        "metadata" : {
          "IsLocked" : "False",
          "trackHeight" : "54"
        }
      },
      {
        "ident" : "",
        "audioMuted" : false,
        "videoHidden" : false,
        "magnetic" : false,
        "matte" : 0,
        "solo" : false,
        "metadata" : {
          "IsLocked" : "False",
          "trackHeight" : "54"
        }
      },
      {
        "ident" : "",
        "audioMuted" : false,
        "videoHidden" : false,
        "magnetic" : false,
        "matte" : 0,
        "solo" : false,
        "metadata" : {
          "IsLocked" : "False",
          "trackHeight" : "54"
        }
      }
    ],
    "captionAttributes" : {
      "enabled" : true,
      "fontName" : "Arial",
      "fontSize" : 32,
      "backgroundColor" : [ 0, 0, 0, 204],
      "foregroundColor" : [ 255, 255, 255, 255],
      "lang" : "en",
      "alignment" : 0,
      "defaultFontSize" : true,
      "opacity" : 0.5,
      "backgroundEnabled" : true,
      "backgroundOnlyAroundText" : true
    },
    "gain" : 1.0,
    "legacyAttenuateAudioMix" : false,
    "backgroundColor" : [ 0, 0, 0, 255]
  },
  "metadata" : {
    "ProjectThumbnail" : "iVBORw0KGgoAAAANSUhEUgAAAoAAAAFoCAYAAADHMkpRAAAAAXNSR0IArs4c6QAAAERlWElmTU0AKgAAAAgAAYdpAAQAAAABAAAAGgAAAAAAA6ABAAMAAAABAAEAAKACAAQAAAABAAACgKADAAQAAAABAAABaAAAAACeojBPAABAAElEQVR4Aex9B6AkRfF+37vEHRw5KelQgohEySogSM6goAhKUsCAgBFQkqCIiICJH/5BRQFBFCSI5IwIiCASRMk5pzvg0rt/fdVd3dVhZvfdewfvHT13u1Nd9VV1de3u7Pe6Z2aH3bH3ydNNupEmV6aguO3xXojtaasIKyqt5/RuMlL+Sky7bmxPnwEn6+Icu/TvCGsANKjdeApWpVJi4/ibDOybBcgURfdWVJfGVlip1xYHa2oBlOKVdC7EgMXzfbRE7DrtroFJr75JQocYreZWo+6kIAffIBVgmapv6OBOfn127avDUMb3LfdhvrDOLyi8pZMQu3ToPwZz6FjVwT9Jxvt6oXt/7+JjFnxzkCmoKELB18e1Avtlzu1+GdzHJL8GY4O6NcdhjU7l/BrhbMh9GvF6PCITuE948svwmSLklJmk32gf6ts1vqs8pJPpec5i0nvX+TD3/hphpouoUe2yH3qXjMnjddii0gLKJlW2BJA0dS9FeXqXeWvnqI+oAZTKTTllMGXLP98W3eqj/UV2Dl2+/OKl9opa96lzO+ZWl8yYKfIy+MzKNW1yUKPwEZqFhthwoBRDlkFqjgVLSzznaCMl8ZKmhXaOpTN04VXO0HQRo+NnoFOM4ohcOt35Su7xPvHNapQpZrhPGynpL0pmRvoq+fS1j7cL333uNsMcHzRuDEERVRaNMEoChUbX72V28fG9UPZX8SWRWGX9fRQvxKjMVyXhXQSkB+V0wzJQcuTy3XmBPeOWDcaeWbyAZCk02SnpzWWFHQEpVgJ3PtiVjBZd9OG8suS4nxI5DMgghc6HZXkxynec+Nhe2F1ixIi4ZfPxwcQl+ENSx8t01HEu4hb68HinChbB0t69MUIWVsqwrLDagEUc4nGxQgVX7MAFFM2IrAPlBtHbvaABcY9FSBRE+6rYsVq1KKIKqkSFaRYZX3SK89YRMnim0GjIzR8pRjb45+rmnHSc3M/mwJiWJ+/nBQG395vBxQ0vTLNRo7xcPrwoM8Qopm1EqgQeml2MwwfyQnAvSs0x8whOkxtU5OZ4ArLurUEImsQpwotK6YbKnMTwFi20xWjx925e0EFJDr5NiOSNoPyDr1IqsSlim98M+KgvBNU5iX3t5+3Cl8bcfS7Wu4BvVOX9BQ05hUZczqiiDuT6iF0KHbtIbGFw7BG3CFUIEauCh5dYiFEyAK9lwXp4PwGlnRLA+3lM8h3jAV4o+KCkFCzrMPEJTe7NwjMnshGQ1Ak89smMVpGqw0en3E/XBNG55/TQDZs7zvtI8SEfKbjyoRjpKJTVOZDGKcNYg5QTsxDBoxwoWCQX2s9EcjhChofufOdeUEmwGAxBSjANhgZ17KxAVvTliXGFVv4iFkBhhEpyONV3yRO6MsTlWDY2+KQ9OOd4l4Ja2jYHn4IXWly8KTm4eL0TGmMlfaZ+xTYFS+IlzcSru9efY4SnJEapWY5bzsVpy0YVvNuYHQNRjcqxVGckdnjdiofqOIJtFfLxqjgPr47ClLUWEvtHbtwYIF8Xxu7a+mzqr80HiZb8Btqnr330F9+Wf19j41vE+RRcrarQX6KyzTxA0DiHoIjeUiEcAUJDMiOsUkaethFm50IHQQKG/AshYlXw8BILMUq6Z603WQ/vJ6Ck05CnAJJjgY/nBQbGLXcEyTsjrEXyc+LUlCH7kDGBc7/eJzNaRaoO3+Wl5Ii+JQ4BFaTQcUr33KfZx4h9sozIHCNUi8ApXlk5BfZ2St+lqlJ+qA8RPH4mksMRodgu34adTcunZFEh18irQR1hdFUDPkgxOLQY0RnmHWIo5R8rPE4LrZDIaBuRSgdqkskh9knq2uRH+sjPN7zQ6NmMaK9Js1+DJVHHze7HKQMp/xUr1nRfjh/nID5OWzYKiPZxzHZ4i9Wb4njoyJtUr03aAMnjBJuTOLCNXu4DuE5xmj1tL539swhe0dnXjaSwa/P1HSR+bT6A9t0v+epV/bX0VTzotuCLeQ0UvjTmOHZoFbDO2N2Msi1PE1m00UNvvpiJyjbzXIKGEKHhw4gQ+avYwUUpxcntA/kK6CABRL4F91gVPFjyzRjlotme2WSBHm4ttk8vk0CAOFLi541eYO+4hTDkl3fm+2N84tT6ecjyskmzTxLHWnLyBr39+JQSy8kh420weHpJxLQHRvhcFN55RngyxwjVohg2jA+WYBEwBAioIPWPHFJsFypEtJLK0kQzgFKd4ouovQRoh6BaDaLzbQihnEKqUBaPkwqdill8r/BC5FLWKkgCSJoEjPNVnlYkh9wnReWISBM1Ul9p5y+sWPy+MU7x1fZuRYFjddFnszNbfEpeKDm01zh3VRol5pHjuK3QplcxcwoxM1OUQLvVQkMs70puuWeu8XgWCnFiALXyGEGT+AeDilJUOnvir7yC2OQffMuIsrbxc+nhXggpsBT6SwzUfDt9+ppXX/CdsWHkBWwwJiUrUELnXrAkvrY5c4miT6ahb1HTANWww3CVUqBuP5Ak0ffHQrlP1nqT9fB+nJM32gzJmGhIn3wPxEFLUaxH3BHhQuRCiLQXmw98XJzgbU1WXUrYIjO8z8cLrg/scoIYUEEKuaTRXZqsVnjXw+Aih5SkSzHPlDRuaOVzAHPqyUPMA7mR611jpxqkZevQL7LXMTF/KNEdB7ngX1AFvFRWNARuxwsw3lsf90p0GaAMc9qykTttNrn+49T8gJr9mi0SyiO8AEtDf+Kk9tYtcg7WBnUavxHGkVqskcnmHKlCJonUDcrF6wjtCKC+m+sZvIPkk41UzTE8vvUdHvyjsMGZpGZLNoYMmilc5NBv1JVvtPs1Wcu5zkhfA+1TyrjQh4d5wVckq7W39AHLXVp8oXcXsXDMLXVB74tiDFI2WHzGIviekviNGSYden8JSPsQihNRliCGMIQOjdg3wCNpRkii6oJihQxZ8s0YhU69hgUL9HCflUexJuQnAEUQPdQL1kegbs8eWUfBh6XQZC/Vi4pGIIqTQB2ednmyUJbxnE+WlMUnHQRUkKTTUnRGcYwEn2ZD5hihWuRv0wjJKCt3z95OGVBByulbiOBjOxVdBexiJrsGdYxSICXGmEIrJnsh8QI0T69DR7E5buXB0heilIHSUTgbsT1n5cFilEVzI3KLYJGFGpnR5pOpU7+0zQ7lj1wKzdtJn113HoBByqOHMTbXuuxf1voeInMyBg8qCZFjCcA6/tLqDkr4TsAu84s/UIXcmmso4M7vgs4xeDyNQ+rk35ZBZ18ZR7zvh1/jOJoMbX0NlE+JqsiIbR9xFnFLkOX3XRMWXkn+3LT4xBK6gORDlnITaMOYCoGLSOqj/0TRJypJqdytqjTakCInEXyVFCITOjRURZUy9eMOQi9BApD8Cq6xynp4PxZihItke2ZT4mMttj+RCZJHUZ9fb/RCAY/XjQLZ7iRy1E9+rl8Gtn6O8YTenJp3pWQtMsNz+FIfXc4coj92z+mhUwuAM5OnCE3AOAPVooTTzJXVhQsBwviClJJDvwScB5L0QlzRdMQKkPb5d1Ozd2bJFCowYsfNuMXGMHAYW/GxN4PL+LI2i98MUz0VD2nB3hAjVset4OwkZ25GxTVK/SO/qAFkpojcy1bXX9nY4N8FWDzVO7w7r84oi6C8O0NdFu3AYG2ofQB0FU8OCwBnri6C3bVZVS6NsNgQt9CDihH1K43cQyx99o1Cxf1GJu4g19h+Y7+QC6QZ8WnyG+h+SrnZPnJLrmmvdV/xUjXrF43Uh2rKTXxp7x2b6VzR4vuQWAWUi12wiJPf+yNyErcwOpWzdS+NMoQha2j4/iD4oQPgcxVIsIpG9mHiKwQOElDkm7jHTYv2PizECBfFdsmmxMdabF8iEySOosghMN7ohaCSGFSLnDsk+NBkr6QXF4lAWT7WxPgkhiSXqkMudvw+Tco8JaqwBVSQrDKiexyGEdyhwroOIjSZY4Rqkb/NOWSurC5aCCCohiVgh6ddHiTYUikUKbXotu06i5sptE+HPCLf8tsgjqZa5Bu5K1NZ9IcIa+7SOYcpjRKlz4JKTMnevZTk0L2PDpHUqw9BOh5Qi7GssmjSaUVyGKOo2/3brXGMPLbYy/ty7FjrYqYBYpCzFpVsC5aGeFH8gPbqTBXHycxJrz6OF2J/r46EclSGOHLegiBYk7VT301+6HlGfJt9bE9Jf77Z7FceW1/xbePxSQDktr7G7w6fo6xG/f0lCST7kGMUw6uT42viHV7KpqNPwd/H1sEK/pRQQaudvMy9JHFtMxpV9tZzVfJxIIQwnEBkk4b3U+EjPwGqPUMZFJBBApAQKp7TqAgW7X1YSBxsFOsTOlRjyqMG4ipdJd9BHCfuJ26hZpSMT0ziBFRKypIenAPhKUbwkjgSumSMKBk7BN6TJUTkMI8eUEGyYynERg8cQmFdmhGazDFCtcjfZhFyESvfCNrFSwKItrznABKlDCGtBWSwTBEHaDUnxqRJgcIg46g2nRyfobwiwoZX2dtLQuSTAiKjzTNSpfi07cCxT9xKXaQdoaJGS73IOYJKML8nawugbGrpTzko0fWWa3wamZB8CXR0bQbklkL+OYgyypW5BokX4mXjgYK8ywGcug9xivFF2RwnfAQaEuEQzf7SQ+NAuvAvH8jhWOg3SjNqhFQ69tnkV+jPRx0on7728dbhm0Zo34yxNc7KtWgXo3zxlGARkb93Sj7jyotFdir4e1zB38cWUIEOumQKFnHy+xkniVki4TOem7g/m5Yz+hwlFaeQptuzll1C0CABRIjENW5atPdhIUa4KCpO6RMc+7QSRA/1QpoidUl9+KSQAbYEH5qutpmD9SG1gnIkiywYCJlhfVgvcAx+InKY4b1V4VlswHIAhXX+EZrMMSK0yjOAPokg5AUNtlQK4Sm70Ehh3G41J8akqeIlFmomGoUtixE+agg+fqmKEIEWjLkq14i7JN+C8ND07el9vKCgRbH0gUyADbG6OQgmkdwL00WfmWNL/Yv5FZU+amyNYzeAvFq/u+I4CpJ9tLVNyRwgRAmSwrDYkGMKkzdPppesXZzmjsiz1Uj2bnJpe40b/H23XiiMosHXI5t8y34BHSQfioWyX8CU/Prg493bfDwodNv6GsxsPNJwfbi04+zjVikbcfdxKGLshT6spttZxcifO3X+CFXavEPTkWzmkkQfPSlQlo3P0w6iNCobwgGTePAKIciYwYJVl4m1HCsEDJKLmriGZkDGIQIiyit0Ft4aPhnlQ8FUixDJcYaNMSJuOY+QnuvFogruaQ8Bn+Ui7+aCgbJO88BAbRr22Q8XwltEDv05gLrzGSN7fjQ6VCQXhhnsiTFpBlwqcbdZaVNU1PaxvRCZo0by9ops7tWLdF2EdHjK2YG797GuAU9SaER5lBplqKtd2dghfLNTgyWMvZSg02W+rMi0jREsssN7IguXKVrG3iE2MvPhWt9BbgxdxGOkDxrCR32h0fdYHDp6sjFCb5FRNRRCiRbQTR6Zk4vtvxpVX6nY7Jsi43bi55ud8vXAOFxrvXMfq2nrK/dpf03fOnyctWu57ktZhEI5q3MpxiFwYww2BGvsj15IQ/8DIvQcpGD1/l7V4f3GDhbsfX3ggq+PK6CM0rl882jiIXuOnsQrZqJCWTF2Ci2yhoZ0o97FZHSxAkwF9x4OxqCADJLzSVxD0yI9noVglW68hoXEh0EeYVs+oERQx18P9YIMVcBUGgqQxVD4ILKPiu5jyJsxgbqwFDw1kCJT+TSyZMg/xwdUkGyHDVjucLqxM4DKR40iEyNY1AA0HkJm1tESY9LUyFgmYMAGKQaFVoSIGgGjpTKExlU2NKl1SCs7f7trCJZ7xfGLbnHNEaIIk9hFY/ktLC7FvYtTOKwV4bky6bOYV+oVxtoVnEFlZFkb4qc9Z20XuxwnRXcXN6lIwwvZXSzt3JxjQ6zIIWqkA6N2HCNH55o4SOwf29BK/KNmu29WTx+83S/rs19+M9JXm09UAJdZgo8gUaOM9+OD0I5na9Kddc/9YphrOViOliScxcGLMRqyDKmH6EV/UgaE9Kv31hr5sspqGn3ZXPDl0DNAEl0CnY6xPrJKrJhFNCB8cpVDVFMCxiY3AqkRGX1uokuCOzVrOVYIGCSyJm5x0yI9noUY4VssJHhJTXUy05eWfUK28/IxiECUagJ1JS8YCJliAW4cbeM5h9bDl4W7GkY3gm6ZX49cfMMLOpaXMyGBJ80M7hUEbMfGZYmwUcNHjIRGiDd4oUMeUVhOOngmNm7GeUMV4aNGyd/qLKwB3Cd1no/vleI0hHKQZmtkiRpwbemTrBnc9RZZmkHKv70fH1YEN/XdElqQtO8cO8QJkkpOxYLYOR5QNpKKB2W2qVit0NgYtxBUxcn6EEXuJZbIvwFWPkhKhE79NwRl9xn1bfazb4+mPpv95FWTUYV9X30GAT4Zvs0oz4thuZqGngQgTYA5yUFypFTOWRw8+MMeWkV/VgZLQEts0tD/gBC93ltr5Msqq2n0ZXMTpUsoWSFIgnB5RlnoJL3Mfkm8LIskTNpXcCdgaKg+RCSjixVgSXAHDYTMIgMeAPJJ3EIzwXMzWCUT1nh16UjjjTwm1aIQCT4OlqZm8fEA7BhcMikvS6ILqpCHlJuCxwly/FQVVm/TZIhIJmAgaAnYbhE8aghC9ulbQ/S0T/ySpgImIgG7wuoBNPqQweNESMrd1plzyT4gkrInzCFIkAgkXQo+3RM4wns7tOQc+QdkkAjmGxHYR0IMDwnaWGoAROosfGSleLajVBt3ZGGZziki36gBQKpQCXUzxlII128wqT7ST4jCFkXnqiIomNbGeStQJmovNkYKaah4WYRE4aDwFK/waRBN4oOmdFUwBZWOarWpxocpdpWiQ+SOEh/pikE7utrBWV+fXxdetoDw65MX4WfEp5uENEb10VV6Cq/DNMqEhwtvoYMgKbPAinsfhKzWO4qhzUV/KDUovJsFrq2i83s2BkTuHUf3fpFg/aPsSRWiRuCkob8/bQT4QYr8o4YNEb6TWvyS3tBkP45n/aArhIfab6EvqEJ/DCg455ETHx85CP6r1GcT9xqQVsr7wDhIW8gHHgGPlgXp6kPrNzKX8UDElrJGEazAwlx4epdlIULS6ddO6T3J+VOM4GVD27AFAyEzrM/BC1gCzkYeDThA3VhkVzAUVIIOewJ1hXMewGIg06mC06eFMFEQN9I8bqmzoGN8WiXVhe7Dx9avZIuvhumQOibro9x7A9Qn53uObJG2KY8IlNQ9scXvFmekXQoLSTipBKB8InXUyCIocOGtXxpbSzw2tdh9Zw1xW12ReivAGdPxy5BbfQUkfQRwkBRGxNI4YCu8AUtxvM4LElj2jQYBxHvKh9/Fzk0fcPsYydW6z14+n8K7ydsyQerI3c1onzPip3yUmOXHbzwk2QrK3VjTF58+YKVmqle83jpCAaLQqag9rS39ckw94rb1lz7REjnGuVZmtAQkyiLFRMY4qn+vpz4xLE6K4ll4XLfIpSGe99P2lvwQk6H01NKbJOTfahI+8xFDlGxwR2c2HXou5aX8RfR4HVOMSiezh4xne6kDGXDIKUZRSxRJH9JkszQ8WCWCLlwMIbR865cecsIxmH19APdaa3+qquTg1QofRLZmrwFrCSRd+RgytIKBspCw2S+B2FzEnEXziixnb0kEAnaLjXDcwNMw09vba3pG9JiekT0+eIT1WiUogBIVoFnMX5AWbMlU7NAqi6Y0hgIpMUU1trvKX17iBBz1FzUaurPvvfYXuRhHvZUlF91F0ScAvNkLwebf3V5FIMZJR6pvj0mELuJ6iBcQI2okQVUzgUlTvvCk3RgvAFTQWARERoy0eNReEWP71EreM6lvY2pi4Bx0dmJIIzW1O/i6cJ2jdkaUM3ir/ZBFX/uc2Xhdmea+unq7eVAex5t0d13LROj6EcATulJ/HePSWNxwGNoRL50Ep6KLLlEGaJlB01gdg7rlcWq7pNK0Jyz7JHEyeBIzbnZytscuoOxr2Bkv/Yd+Ep9gECjvgzrBRyjXIHDAQ5f7TJ82zfROnWZ6eoivJObom4cDhWhBko4Jnfjr3tP3dhRbQiBbipHGtmHlIhAPdkLWaTaO1MO2ya/gWsaS1mO9kELpbUYV6Bk10kx7cwo9JsUA54cdBlgKo3URRhs4arl8UYfOJ3ONQHEjwkaNGCetHKI0ShQ89g1qDWGZcW3g1GbfOyoOAVKMsnqxDSbvxIY4Xp0LPrwWPEwrS3ID0KobjKU4TgcPP5TIPWq0RLCmzmiFUCK8k2bSV7s1AYcmu8lnIfrEBExXUvf9l5FOWzY2ZACwf1UaMLHahu9TJyrATPBrDNloUPlA7BYnbn3Fqz6k1BLK7RvUzlrur9GnaMhjFGFJXqHp/J1TZ98O/bUGCL6tMJ9cyK07vDhav0afgsGqQn4SqXnvCGYhVpNPRqK78M0IaSHFjqQw6Sc0C8EKyTOenzrjQ2wbaPiYUWbEbKPMtClTC3+ABLTMHEr3ctTldkggNAXIe0JnqanYQRR05G0buAgEB8wkUNIsOJLKgbrCBrj3y4OGSEGi7IYPN5NfecOMXWRuM+8HFzdjFp6zj4f4vKduNToPGW+3vp1wUewBBTcFa++x3doUsx966nDm9dkeud2ajKlP4MS3X83uOu4OpRLps4PynWGxf52+nd4zPGR27F/m/eu75P125NPcZ/IdVUp4JunynKJcosZMSqGrsCHPLKVM0VXADqCWGcQOnt7cx7wygugDvXVCSDnUO+o9ACJ11iBG9sZTL5jn/3G/ef3xZ83IcWPM9N4Qk8P4WBHdc6G80S8rW0OCjQN5PhTyaSaHiSuuAu7yi7hbnMvCD9sLIT0tBXMYPNtxIhGto0+bNNUssf0qZvEdVjY9o/01KzpElWsFagVqBWoFagVqBWoF3vYKvGfnjczD515jHr3gBjptjTgLSCDRG+Y6nvDEfCcmZgnhSyhePHOYYONAiSdyoAR8DnQVcJHzO4DCtRbV47xQhgdzkBiZNqlgw0YON9MmTjbv+eyaZtEtluc19enTeiNGXe6lat/xFUjeT1k94s9eMHfyC8gq1QoMcAXqm2+ACzprh2s6hjWNuvT26muMpthV7yswDBd/DO8x7/n0RmbkXHOY//7qEjNi9tlML5aDYXNbkOwLw8/+NQpWwLnlVQnhSyheX8mhnVJzHfv+JcuGfZxsA4jUxXis9KNhZ48j9fRpOOdvhJk6YZKZb9XFmPxNmzzVDCcdtmHDeVefagVqBWoFagVqBWoFagUGVQXAbqZNnmIW23Jt8+KdD5jnb/uPGTVuLOuGDQfJ0dyI2nBQW2haZsTPmiSlWHZQWG8PkaAqkcMR0+XaZe8UC75fL8R23Yoh1IoVHtqg9nZcpAwiuNB6S7OOL6uGhGVhGlPKgRlUn2oFagVqBfpYgXBDhD46Dkl4pyPvkBxUTbpW4O2rgFyKK1dk4CNGM33CWRb+6CrmuVv/w7+3YT99CSlD5mwIn80gEVbBlShOyjW2Iixr+MlGDHG9NdwIGipsDIqR1pA8FyGR0iYUqZIYvulAXEMq6LTJ08zIuWc3cy67IEOG0ZQqb273zjpo+ypVoVagVqBWoB8VyL8k+hGsutYK1Ar0TrU16HHXJ7iPmHCWud+3mBk19zi6g8lkYmS0fCk3SXW4wI/yzyZrGGBRAYsuyapclEg2hWcxtvoWCQ03grZj0s9x59JHpnVda89Edi65p4tJ7BlXzvSMGGaGz+aWfYVlE2QKraW//NprnmEn0WuzVqBWoFagqwrgr/R556K7CqjjS1eOFVQrUCtQK4AKCPFLqiHHlOGjRxHv6+Hb2Q2j+wLyVcE43hQIkCVmZHAMLUCcQvXBGgZYVMASKDmeBe8ES83sRtDSRxQQykwBZYeLuJWPEuHYuAGHZemmpene6b1m8pQpNMvaoe/GHqqhVqBWoFYAKzX2GBIOkLUqtQK1ArUCXVSAeAhd1WGmP30HXfRBJG+B9xNxsbrU2/OZ5HS7lMFYjkRHowJZsscoMriDVYDkR69wrp9FRdgETlNsPrTL28GDVzSeBrXFtLtGcdBguA4ImYskyiRbjmDX14Vhs6o+1QrUCtQK9LUCRABLR5i+hqn4WoFagXdoBa7/gTFj5zdmi5+UCSD/kYmjjDvSCLUhTXQHluRANHPJYUiCloA5Ezy7LWQSYGJTe2VUogLkYt5XjoEGhYmKU4ZVba1ArUCtQK1ArUCtQK3A21OB9Q/lGUDunGYEmzbLkQK30jgmewmJiviPcrNiDPaxY7VNiZ/J4GJ4rEsgWgIu+Ic8lVGJwV6Q5MKYgilSZfGgyJSRS23UCtQK1ArUCtQK1ArUCrz1FXBkb9gCy4W+GwhgtARMpEjxOSZmiSbEIyklh5YWqQiZGBMnj4/VLgf+LWAVQXetHJSoEZncDeHLYmkFZNduK0rWcVXUCtQK1ArUCtQK1ArUCryVFeidZmfXur5BcbK4q/lPuu5J1KyNB/WHHNpu+beAXbVUIkpsLCVjugBmkExhu9BqLTcmUA21ArUCtQK1ArUCtQK1Am9XBXo6/zJFPANIifKcW4navfXkkJaAk04bCtnN7B5cI/IWNeLAzSbQXmLVzYA4UG3VCtQK1ArUCtQK1ArUCrzlFQBRaVhFdbkAEaGY2zTwrv6SQ5dKiV5KafTMob0IRCxqP5CEj8erYkeiMnKf9ITk2wYQ+ddGrUCtQK1ArUCtQK1ArcBbXoF28sfp4M4mPNFWwloC5C39JYeKT6HviGa6TjS3CreBSRyb6hjBokbwaFBbABstohUXwlWpVqBWoFagVqBWoFagVmDIVcBOaNEVwiA8jvR4wofZQ/pf5kJW67HcjChdqAWDNLWzpkiTdIJI9FvAIUZJ8mYv5KhGU2IITT+kPBhpkFPTjaCLDlVZK1ArUCtQK1ArUCtQKzAoKwD2E24TE7gQqbkRNIEdkUT/g0UPzGo9lpt9J4d+BlBC+868IJawz01OkxiSZgigpIiAwqEbJ+VfxVqBWoFagVqBWoFagVqBwViB7CIQITmW37mUPZUTq9UzH7KkKCBgss5lupTguVkghxQinANYjsRJNJq8wabmmzb14nNE+IoIq4ymLltw1VQrUCtQK1ArUCtQK1ArMBgrAF6ERyBwTiJlzpmchiApPsOywmoDFhWwzhkeJurRYwkQ3Qia7QwRKdknEZNmAraBOmIsLPiSA5PEbhyDV5VqBWoFagVqBWoFagVqBQZXBeQiEOyjLSY51uow4EERFg3SOHOIZKUMywqrDVjEoJlApfBLwOUAcAhbhgkmKxGgI4aQEUY3IPvkvJD2Utu1ArUCtQK1ArUCtQK1AoO+Aphz8/Nuju9YdhNzHE3MEpbkaBHhnb+mTbYApHHhQlQrZVhWWG3rEnDmmJaaAB0x5BNhokYcUEzYixwjaqtWoFagVqBWoFagVqBWYKhVIFCzmN+4lttZVMBilE3kMKBIisOo4pCBzAELk23xjaAF6fylme8J0BFDXh7jhTwUNEUzlPyI0y1HqNpagVqBWoFagVqBWoFagcFZgfgikIT1MDGLuU6McC23s8iAZ3VoUgGCd1CTROpgkTrxbwFLo7AvOhVwpOLgeQ8RuGjWSpLBdKHS6ihIbdQK1ArUCtQK1ArUCtQKDPIKCI+RPWbeAjGj5MkQbEHiYREwQSssEA7vdjZuiB7PGio8iYL15wDCnMRjVdMT95nkm2KL5kSZNFWIMBClrGKtQK1ArUCtQK1ArUCtwNCoAM9q4UbQxGmI8FhiljOflOwx1o8wxg9jehRzpBiBjryzJ3yiEXLIVwErnNizPWM6AIvmRJk0s3540ATq9nYxeYCqqRWoFagVqBWoFagVqBV4+ysAzoMfuPUbixndswjmdArrnFJ0zI9ifDs5dFi3o4tAYhYpSbI9jismv8/MmSIiod4vEsjHu0Hw6XghgtdGrUCtQK1ArUCtQK1ArcBQqAD/qtn0HqI28c2YLe/x7McOhZsp3XMcqb/kkPzTyLQEHLaYVQa9SEmqirkJoqgKRkgUJIsTI2qrVqBWoFagVqBWoFagVmAWqIAlfr0gPhn5IUpWmOuysARMzZTAoTiM6oYcEjBEtBL9FnChd1Xy4CA9KaMTIwzrlIZE1cqd0xjAu0cjuBpqBWoFagVqBWoFagVqBQZ5BcB/7Eqr5Vop47ITbyWWlJPDgAoSD5+aRXLYgRhGM4AIFIWNGtyN9BUaqcQ+8VRnCpE2Q3UfkH11vCDwuq8VqBWoFagVqBWoFagVGBoVkAk27PkBjkVEJ6M3VpGq+04ONaGiEnEzp4ZOTT8FJ5hIQCNsSchggOSMrRjnwZgWoJiwF9m51l2tQK1ArUCtQK1ArUCtwJCqQM5nQAYLHJBG1UQOU2KIApTJoSOSiYPlUwmrombjEnACDQV3hkZ7QFoS1wGYmaHgRzICFbeKtQK1ArUCtQK1ArUCtQKDvQJyI+gemgHUfCe6MtgPgngPgVL2Y/0KhuLCL8ih7kmC50vKfgm4BGc3ZVCiRIz2bO8AysxaAdmOPypU1Elt1ArUCtQK1ArUCtQK1AoMiQpYOteLXDXfUTQvvRCkb+TQBY1Yo21EKnTP0JBEfhuYYItzbSh0kWgqrApntZkiqYn3TVP3hirUCtQK1ArUCtQK1ArUCgz6CoDytF0EAmvOoxSBi6hQiRo6AHUUQblfR7gig23gmW8ErStY4GfaXEg0MnMjihE1LLagioMA0BEUu9RWrUCtQK1ArUCtQK1ArcCgqoC6AAS8JqI2zMUCOwsSRuDIXu7Aw0tcA56t8mQjDotiWBui5zOA4if7NGHRq30UO2oEUIPaV4PteKKH3cWlCJGqVCtQK1ArUCtQK1ArUCsw+CvgaA0lGnMabsHImxV8k40FvMD7SA5L84bIx58DqOIyAfPtBsEn6oUY2KD2hA/oRkwcqrZqBWoFagVqBWoFagVqBYZcBeQikGGYCeTNMp+Y/4jNIuIZuwSfkMPYE/4dZg6VAxFAalH8OBmbhH72di9oq5WLJqVUYu5MGrFjPbzTDaqLAaqyVqBWoFagVqBWoFagVmCQVYD5DT8pBuZyZA0/WRZkn2UAMT4lhxE2BGLn2NPFVg50GxjpJN97kxdiTIPaM7lGuwrDGAFiL7LCVLFWoFagVqBWoFagVqBWYKhVgGcAaaIN/0BvAikLZIclfgpWGWfgdBYfvICI8Y3kMASRsOwZLQH7wF7wWC8UTUqpRO+jk2R7GeTx1hzfM8cbq1ArUCtQK1ArUCtQK1ArMCQqQOyLSA1PtmHvcyZ9zN9UM6BY4qcY7FssWHzwQiceYVJiCCuw9iKQ2As2vxVNSqlE75MKbbOMwGYxoMiUadTarhWoFagVqBWoFagVqBUYvBWwdAZkLBAyydYSs0B2gkTYBB6aFuWxLAQrYvuWY34eyx17a34bGNhjcK7I7Bw0PHUifEBGMaSBvZNFFaJWqVagVqBWYPBWAHffH5be0bVDutpHyx3cBtQ8EP0iBjYZv46Z2nTyGqf1Va4VmFUqEC4CoRHhYxL4l6M7SuEGzRr+SAUmFCSyKpcgBoSX/IUnoZqM5ye6DQwiebBgMoXnZYKI94QvuESYyB41AkzUso9GGWBVqhWoFagVGHQVEPLTl8S0j5b7EkOwM0qm+tsv+k9j6LaWJVfZt9kEU/e1ArNCBezNoGkkgeD4YVkSRwbH5gLEKTzSQdQsW4ZVLkEMKJb4iW4D49VesD0lTdU9iWRstTu0x3ghCxMrpAV8g49A6r5WoFagVmCwVADka9q0aWb48OEZGYINj56enixd+IAEwT516lQzevToDNOtoolMSR+l/hG7k72b/idPnszjGzFiBI+jt7fXjBw5ksc2ZcoUDoF2uqFv5NWUe4qv7VqBoVYBPwPoJtsKU26O7hBdK/Aej3dszkICtdP1YC0dS2QLElkSFzTpl0CCNoDFXe3J2GonqLd7Qflre6z2jpy368ez5RRb27UCtQK1AoOsAiAwID8gcqVNSJ4mOsCCMMqmZdg0VjDYl2wgXCCQo0aN0lCWERc+wKQkEDrdb1P8LGii0P2iDnorET+xp32LXu9L4x0Ie6e4uo8q1wr0twJ8aGB+EzgXx1RNT/ZUZ54LJYcW6+aULoZtqYAuDmvYGIJA6sGTPFSfXomk+REZQ4N9HaYUSGJj7zellNiR3QOrUCtQK1ArMPgrgFmuBx980EyaNMknC4KB7c033zQvvPCCn+mDDsQLBO+RRx4xr7/+uvnPf/5jfv/738MUETyJIXrshRhqG4idJmHAoQ9sTzzxhHnqqaeY/IkOesiIgbxffvllqBr7ZqN6kr4x84ft0ksvNX/5y19Y/ve//23OPfdcI7arr77aXH755WzDjJ9sIKwPP/ywmTBhAqskptilXRovMJ3sEkf8pZ36ib7uawVmRgVA4MoP11vEhwhLk3L+oXzT3Kybi619MKnHj+ARuohzoTUJcENxyDv2dofzA3Ed2hlEFyPFJLFtUnECaXy0ZfAh/SrVCtQK1AoMzgoImVtrrbXMgQceyEmCEArZOeaYY8z73vc+JjogIyA+IGz//e9/zfjx482dd95prrvuOrPXXnuxL0ik+GryAhl9ITZIjLTh9Pzzz5uLL76Y/YXkoR9sN998s1lkkUXMHXfcwf3CV5Zsf/CDH5gVV1zRkzX0Cz+JzwHoSciitGUvJO+aa64xRx99NKtBBPfZZx8zceJEbh933HHme9/7HsuyHIwGcl522WXN+eefzzaJlRI0qSXGKzY4yPglJtqyCQ57GQ9s8lpJHQVf97UCM6sCls9Q9MDCXFcxF/LcinmTgygf4UV+D64kHCtJ3pPDhBjC1+dBPj1o0GdE65JQzuZwJaDtLImhlEpk91IHnIP0AQA+y3CsW61ArUCtwCCsgJAMEBcse37sYx8zf/jDHzhTLG1CB3ICYoYZwL/+9a9sE2L0pz/9idtrr702zwLOOeecTMTgB3+QMSGC2GOmECQHS6pCyIQ03XDDDZ58CvHDjCDI5A477GA++tGPms9//vPcH2YkYXvsscfMoYceakACF1xwQfPqq69yzugf8SU2nJrO0xPS9e53v5tJJrA4j3H22Wf3M5VjxowxY8eOhSnaUD/0IWOUegoItYMd40U9MBbBYIxvvPEG5wU7Ysi4gUFeaEOP8Uie2GP82MRP+pd+675WYOArkJC9iJhRb5okcTPBO7JnCZ/LzvlY7kR4iVnCqgF5okl4XgJWNi9GhIyJGBhZePggomNmCXZpH5ldcG7vk0XSiY1nAVnn06lCrUCtQK3AoKyAnFcHooVZrdtvv52JCZK99tprzWuvvWbWXHNNc/rpp3P+IFfYMPO1/vrrs/zKK6+wD4jZ448/zkujID0SG3uQKMT/17/+xSQGZEbIC8jcbLPNxrFEhwbID7aTTz7Z3HrrreaMM84wIGTY9t9/f7PCCiuYL37xi56APvnkkwZLuCBfyEVigcDqpVr0jVxkwzgRBxtsIGeyCZGTdjd7kDghwlgexzI2iKUQQNQG44Ae+SJPGSvqi3zRRt8PPPAAE0nIqDPqBDviIh5qK3G7ya1iagU6VUDPXXmuQ05aH2IkZA+ciB/OwRE9cdbcKpZdRIX3fUtM4lXiA3RYAoZBQLTXZM/KCUlVnYTEAsalEnaEj0hlsHjJhxTBW6pQK1ArUCswuCoAooMNM0nYMMuG7ZJLLuE9nn73u9/xEutRRx3Fesz+zTPPPObpp582t912m9lpp50YC0KDGatvfetbZssttzSYFVx33XXNSy+9xHaco/eZz3yGieSnPvUps9xyy5kLLriAZ9pOOukkc9hhh/H5hB/84AfNpz/9ab9MjLiY8VpmmWXMt7/9bfOFL3yB42E2EjOQv/jFL7iNmTbEXWWVVTinpZdemu0yxo9//OPmRz/6EWMxEwnCtfrqq5uLLrqIdT/96U/Nhz70IZaFqIkv9kJkGdDhCbHhg/pg6Rx9o7bbbbcdE1W4g6hutdVWTKC33357s/zyy/NSN2yPPvqo2Xzzzc2ZZ55p1llnHbPUUkuZ66+/npfaN9xwQ/Pzn/+cZ2s33XRT9rv33nu5PyG7lQyiinUb6AoMA69SHEvzrTLlCWRNSFvwoezECXveCnhH+AShfRCrp42U6fjch1ZQRN1ku+/FGnXszK6YKA/OFSc+p1AHrHKtQK1ArcDgqgDIAsgKSNa8887LpA0XQGDDkuWVV15pNtpoIyYcmFGTZV9gQIpAVLCBFD7zzDMGy8AgKzhfD8QE5w9iwwwfyNxvf/tbc/fddxuQly996UvcB86323bbbc18883H8eEDUioEDDNeIJdHHHEEz34ddNBBfL7ezjvvbHDeIjbM3oFw/fOf/+S+QRYxo3njjTeyHYRVZvUwZsyyPfvss/48P4y9iUAB3w2pknwxTsyabr311ma//fYzd911l7n//vuZ1IIgY8P5k+9617t4vJgBBFGUGUjk8dBDD5lDDjmESe/f//53JoLQY3YW51xiWf6+++7jWcSvfe1rHBMzhHWrFRjoCnjy5jmP5U5RP/0lhxGxpMianHGzTA6jGUBZepWEZTnX7/0AbLBoljAdAGEju2tLbJDDNEnS8CYmadd9rUCtQK3AUKjA7rvvzgQKy6UgT5i522STTTj1jTfe2Jx22mksn3POOUxKFl98cW5jBm7++ec3Bx98MBO3hRZaiAnQLbfcwvYll1zS/OpXvzKrrbYat/fYYw/z4osvMjECsQSBxH6JJZYw48ePZwyehHiBsIFw/vKXv2RSCd9jjz2WcbgSGVcgn3LKKQbn8mGGb++99+bZRlzAgQ0EUmY6EROxsMQqM3uiA1aIHOS+bIiHOsAfM6eoIWbsQNZAejHDKFcaQ0a+mN3DuFF3kEIQcZBojA/EDiQW5BDLxSCwGANmY1FfzFTuuuuu/HohT1lCntH8+zLWin3nVABcJ+Y7biYw4VOWG1laFFUn5VZC9tg/QrpGQvYEL8RK9oTmE0TQ5s0LomhV+0wb3HwQtreAiqai0oesQq1ArUCtwNteASELICHYsHyLDRdl4NYnK6+8MpMy6HbZZRdeZsXyJWb4sGwrG4gUSBSIliZtcr4g4uPcP5xHCH85fw14bJi9EqzMxEGv8wMGs2oLL7ywARnFlcHYcM4h+oQeG2bgsIGcYhYSG+LIDBlyxeymtGEXIggZm/Qrsm4zQD2JDTmIjBk8kDnUCGMEgQOpw4U2IImoB66cxkU30GNmD4QOeSEXxFlsscW4F50nagQMagQyiD6lbtK3Sq2KtQL9qgBozDD6h2cheD4gvfewwRo2aoEfBoWSEjw3Ebewud8ATmNHWGqMwDpwaYuAAlBKJYrV773NC97EQoOaR428e+mBYtWtVqBWoFZgKFQApAOEBbN4OI8OM2dYIpVlSZCWDTbYgGfqvv71r/OQsIwrGwgJyIieVQNBkWVXXDCCGa1PfOITZs899+QrdnGuH3ywyeycxGvbg/BokoilY8QRooSZtznmmIP7HjduHIfC+IQYwi4zaBIH/kKgIMt44Iz+hGTpvCR31AYb+peZRuQEAgqCJ4QPGJEx+4clbcyEog5YBv7KV77COQKj+5faoD88QBRlLNgLiUb8utUKDHQF6C1nptN1X9NpvRWf1sBsrGQ/wapXVlhtwMJOLfqf4Z0mwjpel2EZFNgVpRQ2gOXhtU7BgyjZHZBh9ARcHiSoYOZN45wfVPb6OIepu1qBWoFagUFeASEykiYICc79w1KqzAgCg2VanA+IixNwsQYuXACZwgaCJVfxCpFCG3psJ5xwAl8Icfzxx/OyKIgiiIvMPIJgSR7iz47qSfSIK8uduCoWS6S46ONnP/sZo0G+MCuIGUycJ4gNS8MgWdhgv+mmm3h5G0QRmxAqyIiNGTvpD4QLj3TD2KDHLWOwwU8IJy7swA2qzzrrLD/G5557jq9kBhYEGxfFfPe73+XzGDGrh/4kD8QU4gc8NtiQl97QZ+kWNRpT5VqB/lUAxA3Mix5+OZZm7li2nEnoUOjH4u2socwewsfhxYH3Li7Fz/AUEBC/ObxcTEK/BYyO1KbQSlSAIDLZC81MyvwTRdKM/RtmJmNQbdUK1ArUCgyOCgjhwIUdmK3DVbJYZsVslBAuXPWLW7HI7J/MumHWCoRRb7hiWGandtxxR75CGGQFpA1+IDlyT8H11luPSSLOjcPFEbhYBGQHpFCImMRGP5itxCYEE/htttmGLwIBGcR5dyCy++67L+O+853v8AwmlmBB2uaaay7uX65S1jN8mLXEPQVFhxzTsSEocBgfLmbBBRvIBXmBGOOXRXDV8W677cbL3nPPPTeTTuSEMeKK4BNPPJHj4gIV1A8EW+5lCGINnd6kxkKUJQfUs261AjOrAoGUxWTMMi/HvxwZijmRaxEksLQgxVjK3hGygMCIrHOGdbTQ3iRKWZVYrEefSF8SLGlm8Tk2gbDvhM2cq6JWoFagVuBtqIAQLMwwgVzgFi242hcza7LJzBQI1Nlnn20+8pGPsElm0HBuHn4VA5vMUoF84WpYbLgaFsQIF5aAPIJk4jxD8cFVwFdccQXbcdFJifxJDqeeeqo/P05m33CfwnvuuYeXXHGOodyjUGYWcRsWzABCv8ACC/DS69/+9jcmm8hPYkNGbrgYRcYGcidLxUKSgcPNp7HEC7IGQosYIGk4FxF4/KoKxorb3WA74IADzBprrME1xq+OQMZ5kagdbpmDcwJBTBEHF9lgTNikniuttBLrBQMbiKS8TkKGoa9brcBAVYD5DJY2e4iMKWITz3EpA0EtiXNUrsiHHN7yO5eqxceRyMTEykJcxNDDn7e+TJldHL3znQdXbYYcdRg1ElvBMYKjgXXyadPNqHEjzWanfdiMnJ04KvSu+0mTp5gX6Mq6HppSjXzT2LVdK1ArUCvQUgEQt4XmmzebIWtx6cpUmnUTR7HJXvSd9iBimqBg5gxER8hnX+Ol/SEeYmkip/tA/7BLf9qWxhqoNvqQmVOJCWKIHDvVQ/B1XyvwdlRAPo+TJ0425+58npn0Kl2cNIIu9KLPkXAZyavIrCJlYDqRWgJEe4clYGcsLgIpwShG6DKKzo3IFjUstqCKDI121xXs7azUAeuuVqBWoFZgkFUAJAlLmSAvKYFBqrBhJiwlWyA3+lw5zIrhiwTn+YH84Tw3zJDBD7NasCM+bOgTNjyAl3MDS6WRK2X1bBzigFRhqRZ72HQu6AOEDLmjLyxFo3/o0zFiHMAiB2D1OHQ+GBtyQX+QsWEv40Nc6RM2PS70i1wQW3IVWeoPPHCyoR/UB+MCBhvi4yHnXwq27msFBqoCeGvjgYtbQctSYmbf+bAFSUSLDR4DPWsYLQGr7pFNtHmbFyKz5BsrMVSHb3BjvLdBkEdWpiR0bdYK1ArUCgzSCjQRChCPkg1kJyVSmqBhmCAumpSlJE8TpLay6BiCA/ECWdIXREAnRAk45CfLumin/UOHDQROk9t0HBZFX4UNtRA7+k/7FBv2qKPUElidj+g1HuNL9aW6a58q1wr0rwJC3kD83EUcHNCzHh9ef9ZEGVBOcruUGALfRA4lAz8nSDEkbuNtYDhgnoVoeC9BmpRFuwOzrQXQYoq6q41agVqBWoHBVgEQEmzFg3pCrCT3lHClMaQtcZvwYpe46V7i6NxEFlspRmpL+9f9aJv4SR8pTrdFBhYP8dV6kbVNsNKH7l/w2Jf0JZ32qXKtQH8qgCOBfiBWPg+I96b04gWrIAaX4mOEa7ldSg5Z7Vlg7GlnAKVf2nuzF5RR27XaYRtcPJLtLSCYmCWzh8/Y+1ehVqBWoFZgKFRAiEgp1yZbqu9vu9Q3dGlcjeuLrVtstzidh8h98dVYLUss7Ev6kk77VLlWoD8V4HstY3qOHzYS0yCmODkhSskeSJlFFbAcI+ZKARUkBLCoGEsE0F1MobDpYDOTUigxdeN2YLVFcyCczsx4BO0UuByuamsFagVqBWoFagVqBWoFBkkFLMei25DHtIY4Tkb2KGOmPu6XPOIB5OjArxLCRDwvRccI26Il4LgLaWVqpVCiwKN9U0yAMl+tgEyJY6fV8KtbrUCtQK1ArUCtQK1ArcDgr0CYaQMfkhsvp3lbnlNgOzRbGCIEL0YWyGGGRp/eLUhQ0ZkVeMaT/S1glugpuiI49lHBBK32UWdK78QoVNSwgIKKDKXh57GrplagVqBWoFagVqBWoFZgcFYAXMY+9HmrIVdH3xLKY3lRgR0VyCGjCsQQfaTkMEzQ0UVWg4v0UbI0Ev4t4MK4Q8GqVCtQK1ArUCtQK1ArUCswuCsAKhMeluUlXM9OsAVmpgZE9C0Fc7wCQSoQQwRiZIEcghiOSKf2CmFDMmSMCGOwsOR9vRADGtScIdvw5AfrhThIbdUK1ArUCtQK1ArUCtQKDIUK8MUfxGd4j4TduYAZxUnn6uzgmmYNYU3JoeVYBaZVIIdA8UUgCFRw8cqiDU60eZsXrF6ei2qnLNlKOolV97UCtQK1ArUCtQK1ArUCQ6UC4DT64We5SJlyQH+ZSGSwjUjlBt9EDlNiCLiP7XyxoyXgZHOKTK9g3uYFZSTRqpN0HbbBhQOIbTr9WgpfOh2Hra1agVqBWoFagVqBWoFagSFTAX8BCGYAo61EyRzZEzLk8QobhXF4j7NCEzGEVZNDOwPYLTnLkgq9ZialUGJwUJJf+gYQj2iACljFWoFagVqBWoFagVqBWoEhVgGcPhcTs0B0WPJNRfb8GL2Rr5PwahYcPkBIaxuRyjnpHBpvAyMdeHImCrXPiJ1SKFF5BDHEzVOEb9u5hiFKlWoFagVqBWoFagVqBWoFBmcFmPiB/FF6kGPGY5kSP1uRUAHBUmhyBA/zw7WA/DoPRSSjGCEHfw6gj4Uu8h68OTJFDTt554GpQNgEHiEiGxqRIoLWRq1ArUCtQK1ArUCtQK3A4K4A8xhiX3IBCLU9tWFSFphZkGRIjsB5B+gDKnZXZE/cNTaKgRysggggbSQndh/CmUM7ASbNgHOObfbIhoY84ii1VStQK1ArUCtQK1ArUCsw5CogtMbOBIb0w4ydZUL22dljdqeoHOwK752aiKHFe5gLL0SycQnYOrigiXfS9CFZIGOb3du8ENxFhf07YQlYxhsqMDCSfdVmbvSBybRGqRWoFagVqBWoFZh1KxD9FrBiR+EbOpA3VIFb3mgF32RjAe/L17dZw2wJ2HfkBR9ZpR50oizAPcjbvOBN4u4VGBovQRewHjSLCMP15TgDOCaUbrrpGcCIEooit50fILC6rxWoFagVqBWoFagV4ArY72R8fcbkDUavcVOCMfXxVo6TzhpC6fEMDfggBRRjlQMvAcdK7sc/eazXkOCUdhd3IzDv5wWxePegEImw4BdwmdVnADHGKb3TZOQDuu+hIpZflX52A8I6bGYQy37mVd1rBWoFagVqBWoFBmEF7NIvLgKRb2V8+4fNtxJyKGh92a/H+lg2DmO90Qq+yUYfLfKkJeBgkJS8oyiwd8qizeHY1gLITEqhRN3rLCljrJj9Gzti1ICPD6/mpGHDzRSKn7+y/emOovVONcOmTqYgAxu5P1lV31qBWoFagVqBWoFBWwF84buHXUBz35/qazSIgQl5qcDRGM9PFuWxXIQQDc101lBj7UUgLj/21U8OqR20WeS2VcHAeh1aBVOihGJqYfXxIDxgCAsYUS+9E0YQQXt18mRz94TnmAiW6tDXYSIG5uamEvFbdNLrZv7Jk1iGrn/xyRuzftOmmumzjzO98y/Csp0J7F/kvo6x4msFagXevgrg/mHDsAowANtgjTUAQ6shagWiCugZQPnG5E+RIk6i95Mr6mNmxYBAcG7xkwKS1mxC7wAAQABJREFU3rcC61Pf/97K+aFFvwSilHEfypHx0ZPKPdKjkYSJFJlNecOGuPJQpiEvYmyY9Zs8bZoZN3q0ufGZx8xOV5xv5hg5inU9/Tiw4hUE8RtLJO35UWPNz++91uz72L/NSyRDB5t6lbuvJXIifzN6jBn28nNm0rrbm9e/fILpIXk66djWj7y7T6QiawVqBd7uCswI+WsiejMSS8afxuxPLIlZ97UCM60CTGwoOvZus2L+rWw1ZG3CKpcgBrCXGmcNPYK7GKE7Qm7BLKmGfdekLwmSNENA9MdGNxSSwScCPgwxchrCDYwNZG8KEcEpE14xE4gAQsZBLIy7bwNElabTLF3vtClE1qaaSa88a8xzj5M8h+mZNpli98w4AZxKM39jxpphL7xgzIQXKXk3pzjrvTR9K3pF1woM4QqAROHRw5/nMJCUXMHS29vLx6epdCwYPnx45hO8c6mJnE2jYx5iddrQNx6S14gRIzgX8YMe9m5iiU/d1wq8lRWIZgDVl7z9CnUK931qW+UvV9ZawsTph1AOr9ysGBBw4FZCDMNFIFFFQiTVX4TwAUUb99VKZjrFlFCyly6G+h7jARXDxR8LjpnDbLvcqmbMiJFmKrWbDpTdjBmvFkUwo6dPMy8PH2XGz059LL2imUrnGL5BsacRuQyvaDcRBUNeuFCFSOqwia+a3uXWMIaWlqf30IG7l0YzY0EleN3XCtQK9LECIDyy9euYgWMC/uikeBJHYqc6IYkjR45kvOCQh/ZN44GYgeilpA1+mrBJf7KHXTb0Lf1DBxKKx2yzzcYQ9Nkpls5X4pby1rbUR/CCqftagW4qgE+rJYA52n6S3Zdo+FgzMJoOiiD5l67VUAAVI4qtXIJoEfESMLp2QVSsLHNv80KAFFR9islL170hjxB5aEsofC8dbEfQAe11OoAtP8/85owNt5FyD9jg0M/rPVuYZ4mkQaY5wYHZ6EBrpkwxw96cSEdv+rthOl4k9FC3WoFagbeiAilBStvd5CA+EydONK+++qp517ve5UkgCBt0c845J5MqwT799NNmrrnmMnfeeadZaqmlzPzzz8+zbpqYCUGSPXJJyZvkB1L4+OOPm0UWWSQih9pXsM8++yznBJ/RdOoMfED+QAJBLF9//XXz4osvmkUXXdSPA746lpYlruzFJvtUL+26rxWY0Qowp6GZN1xwq/5+81+fEdlznTSdmme/cR3Lcl+/tlX+LubYipQFkfD0314E4rTBmA/V21iIO/M27eaURZsfZCIA7EJHBdBxZwEZQ8Qs4HNvDBg9i6oygshZz4BTS+oCF4OA/NWtVqBW4C2vAEjKZLp4TGbVMCPX7SZkTnyfeOIJ87GPfcxceeWVZumll+YwjzzyiFl33XXNZZddZt7//vcziQJR+/CHP2yuvfZas88++5jDDz/cbLvttuaVV14xc889N2MQ880332RChn5AzPB47LHHzPXXX2+23357biN/zNbdd999ZuWVVza33XabWWmllcxrr71mxowZYyZNmsTkDhiQUWxbb70120HwQE7R73777Wf22msvtp9zzjnm61//unnqqaeYAKI+qIvMEoKEyqyh1AC6UaPsHRiQN9qwYRzwxQN6bNDDDvJZt1qBGamAnQEEFcNDMRvPkWI+JRwIM2eJhTTYPEmK0vFEUjnlEawLQ/BZLd0GRqJ68uYFsfhJvaCA5AcUq3XLh/JCsIpK9sEy60k4D3AMHSRnxtZLsZte+H71R28YO/PXryjVuVagVmAGKgCCIsRFCIte/mwLKTNcIGYgScssswyTmgsuuMB89atfZVcQPxBDIYBQXnTRRWaOOeYwSyyxBJMikD5sY8fSecE4ztAxATnMPvvsLEP3xhtvMOG7//77zW9/+1uz8847M7kTEoW+ZTYRsRAffshNNokLYnf88cebHXbYwbz00kvmP//5j9l8882ZCH7zm99kGQQVvvARUow6oY0NNh0bOrHJUjJ0soF8aj2w0IEI1q1WoM8VwNvQkxpP05Iw6hu7DevIXSmKj+D9bRfWxSmdv20NK/9cBD43/NkByvkhlDSVyivZhzHoIX4gMTv9SXqchMgnIloM22BPfCwGvc6aG2o4lYo2Mx7T6YuCr9DFFbwD+cD5gHWrFagVeMsrIITlj3/8oznooIN4Zk3PlHWTkMSYQqdyYNtuu+3MhRdeyDKWUiEfeOCBTPow24YNBHCbbbZhGSToxhtvNF/4whfMJz7xCXPXXXcxcXv++efNoYceymRs991352VZzNSdeOKJ5uGHHzZf+tKXzD/+8Q8fA7Nr5557rsEyNLbDDjvMbLnllkxEseSLTWYANcEFAVtrrbXM2WefbY4++mgmsi/QxWmoCbZnnnnGfPvb3zYbb7yx+dznPmckFkgofFC3DTfckMcJwonHz372M/Pxj3/cfPGLXzTHHnusufTSS5nonX766WannXbix1//+lfWYSYRm9SRG/WpVqBDBTzHmY6ZZrx/yCF9OA7ksaodhXd+wqf83uMjNDesi+VYHu+WpOlPGkfEnAIA0clekpK2J3HwcR17m+o/GqzSQ5Txe7UfmC0QmrP6llc6VLE/NjqyUaCZ9JjVX5Q6vlqBQVIBIRqYsQNZOeSQQ5is/OQnPzHrrbee+d3vfsfEBHZsgu+UvsySgcRhJg4zi/feey8v2R533HFM2qDHdscddzBRhAw/LAWDAL73ve81n/nMZ6A2t9xyC/v8+te/5lj7778/nzOI8wYx6wfSteCCCzIWJA4zhD/84Q95FvHkk09mMguiiaVo2LAJAZQ9dOgfuWLGD2P997//bUA+QeKw3XrrrbwUDMKHZeUvf/nLrL/44ouZZG6yySZm11135bxBQs877zyDnJHDBz7wASaVyy23HJPFI444gv133HFHs/fee5vrrruOZxHltei21pxAfXpHVyBwGUj2m114k98z/7Lcx5Mj5+gxnuQJ71JlBZYfZFNcTvsqtBdpCdjLkZCplUKJkQ8aTfHYxmgUgLYkiDSdlQBBYnx9qhWoFagVeAdVAKQPBAjLmSA6p5xySjT6n/70p2aXXXbxV8EC37aJHfFAZFZffXUmYTfffDOfjwfyA8zyyy/vCQ9I12qrrcZ5YDYOM4QgS5jVu+SSS8xzzz3HM38bbLABL5ti9u1HP/oRpwGSilk5zDTKOXWSnxBCLB3jPMObbrrJ7Lbbbn7pVZZskY/MAoI8igw9ZjKR30ILLcRhN9tsM7PpppuybqONNjIgs7LhnMH111+fm6jb3XffzUvK48eP54taVlhhBYPxL7744rxkjZlEEE1sIMEgiTg/En3KMjwb61OtQKcKECHrpccwR/IY7m7UHH9ibUu4EON8A1RObdwAESxtCqsASmudKEY46cLFsXjXVeRc6sjqOpO+KLgPpMJ7nQhtMQVT97UCtQK1ArNyBTRpk3PoRIfz8LD1ZTYKWCFPIDIgSv/3f//HhBBLodg+9alP8bl7uFgDF4pgA2EEKcOFGthA6KBDjIdpmRdLrjg/EDNvQtIwmwccSJMsn8IXbRBbkEPMyL388stmzz335Nk9zATiHEHM9CEO8hXyiCVjnJuHvND3iiuuyERVZg0xi4kLQnAVM5ag5Tw+xNJ5Q49zC/fYYw9z0kknmQMOOMA88MADZt9990V6PAuJi04mTJjA5yeCJMoSttSegfWpVqCLChR5DpFBbJmtSAyBTMied8xoHa/+eTNco03hCcRLwFDJwy7vkoeLgF0xGClB0kpETXzYL2rYWKKK8kI/jimHZegUUdu1ArUCtQLvjAoIWQPZAanBRQ/YQGYw8/WNb3yD20IAZc/KDk/wxwYCdsYZZ/D5crjiFhuu2gUpwxLzZz/7WdbJrJeQUMzcgcRhjyVhzK794Q9/YCIIwoUNM3YgTOhL+oMeOn1hBmYxQd5wRfD5558PiF8KBgnEUjI2XCmMGUdcVILlZ7Rx7iL6wYal5y222MLgymCMC3XDhv4kbyGFyBt9Yg8SjCXpT37yk4zHFdC4OAYXp2DDEjKuWsbWlxqzQ32qFcDMn+JYQbZ8KCoQiCHwpQcBmVNFDoXY7Iv3qnOQPfvFeLoPoAOx0T7lnTgjGZB80+b9vBCQBRWPJtUjeqoLUapUK1ArUCvwzqiAzDaBfIFsgeCsvfbavCSJJVecMwe9kCvBt1VHMBITy7Tjxo0zH/zgB5kk4Z568847r1ljjTX4ilssg4JwgkCBUAkBAslD32iDHF1++eVM1P7yl7+YeeaZh1PA0vH3v/99s9VWW/HS8Uc/+lHWI1/MroHUnnXWWea0004z66yzDpNQmYWU2U0QwK997Ws8SwlS+tBDD/EVwbgIBJuQTMhYmsYFG8jtmmuu4RlJ6JGjnoFE3hgLiCVuVYPlXdzrEHqQ3hNOOIEvJMEMIfrEbOLBBx+MULxkjr3UEXLdagWaKwDCRRs9gZDhERiUlcD54o09WBWZHDBYnVdx1tDF1oG9Y2Bxw373sb8rtUY7maweUDZbbQFUUPlgjTb6Y6532nQzetwI84nfr2xGzU6/OgGwq8SkyVPMC/ShxG1UijEKOVZVrUCtQK1AWgF8iS8037xD5sscxEYID0gNCIsst6Zj66YNf8TDTNgCCyzA58KBKGF2DlfQ4rYryy67rF+OxVW/OEcOxAmkELdkwWwZNsySwW99mgnE+YpYQkVuuJgES8RYSsZsGzYsAd9zzz18zh0wuHgDRAzkFn6SF/Y4Vw9LxRg7iCPO08PNq7HUDOL65z//mS/wwHl6WCLGfQ2BA7HFuYVYTv7f//7HxO3d734393/77bebVVddlYkkZh9xjiI2zAACf+SRR3KfiIn3CGLJDCID61OtQIcKMNEjzjJpwlTzy22uNG+8MoVuoUucJfv9hMBiIrKH+JkCSosvmmCONsISsA077LeKAHpfl1NIzVu8wLYIYLuJVIJ2yqLNYdhGT/R5M71TiQDOSQTw7JUqAZQa1n2tQK3AgFZgqBFADF7OpwPJAeGamRtIZjczXULYkAtk+OCh5W7yBB6bLOk2+eCcPyz/gqB9+tOf5lvI/OAHP+DlYJk5BJEFudT5y3hkRhMXg+CKYcxQ4v6HuKXMz3/+cybCqDNqjA2xkFOnvJryrfp3XgU0ATxl66scAST6hrc4TXK1kTJbrcCWithM2QGfvgRu1pCOIC6S8w9hUg/HPRsAmVoplBgFZb02Qo7TifCzWgMHpL5uckDTvqLra6z+4nUOaaxuctL+3eDTPmaVdlsdurGVatfm123dJEYpfrcxKm5gKwBSIsQEr89AvDYlggMyhocmmZpUoW/MysEOYoQLNaDDOXbwA/mCXggrZtCEQGlfVAeEDLGAgZ/e0CceMlZg5HxE1OGYY47h8/5gB/kr5YHYqJP0j5yhw5XM69OMJWYZsVyN5W6c94dYwIBowg99DkSd9biq/M6qgKU1gdzE3/yqRZAIS2VSVlc00jili0h6J9EuxodWwCKobdHt023MAHN9qB19HopbplYKJZJv1DWvg5cCwkceqU8JP5R1+oDUl3HIX8n6QCm6vsQZCKzOIY2Hg6g8+NWnA2m64YAsB1bBpph3QlvXMa2DtqWvs9hSn/S9lfp1U1MdI43fjX/FzJwK4LWQTT470p7RvSZ5EgOfTSFMotM49K3bcnEFsPK+hKwJK9rYUl8QrKYNfeh+gJO8cLsaPPD+llqU8tD5wF/aIJY4bxAPbIiDB+KjzphlrFutQH8rgDPu6B3K//BTcHqz34rqu5HMAREkUKiACpJCUNjgHBBOol2MRRb4KTidjZdprbpsYERkUg0l+kgidBsPM5OMbQsmQYfwHn+BzsgXMw6GODjhr2ZseHlHuKUKVryFT/jrXn8h6a5xQMaBFvnKgVUO0oLDAVhqAKwc2MX+TtijfnK1IsaLOug6ocayyReXtJtsqCneX7KlMUXftoe/xMDrkvbd5lttM68C+r0xUL3gPViKm+rb2rBhQxyN03qdbzcY4MVffBFfcsX7H+9RTfoEr/PQfUkc7HFsQgw8gEcciS3+wIkOct1qBfpaAXw0+OOBj0hyxUdoxoTH0jZH3tAhYkQduxZBAipIGTbAVRT6I067550EbBQwaqSJKZ8EFyzah5IWHO1REDTBmmfVDQckXsrAX77uwImxchlUu3TgkdseyC0KEAu6t2PDkosQUvQv+SInHJhBbJAbMJgJELInueKkcNjIkQntZCK1EkMws/oexAp1wGuPC5uw7ITaSR1QY8ioqb4KEzo+qZ72vYTHHwSCwx8Es+MWFu69hJjw73YDVr8/QdSxtCY5dRun4oZGBZpe11Tf1ta2JllXoxsM8Bqn/SE3zS4KTnxlL3q9L8UQe5ufYOq+VqBzBcBl6BjOj+Q4TE3LdGK+00QM0VeEJ/84omoRMMKSr7IiFBHALADr/ZN38IIN6Zse6YQ+x7N+Es9GT4POGm0cUHqn0Xk1I0eYJ594kq5Se4wJEIgRbHjoWTCZgcHo2ZdwK9EtF3B126m//CUThQXpLvhfoN+xhP2t2kAQkOd9dPUgbucAEoNchWSgjSv03vXud9Fd+hckEviGmfj6RDNq5ChOEYQCBOUMOgH79ltvM9Mo3mZbbm4223Qzg98gxTk+mgSxEwjMWzjGmV1L1Ap1Ajm761//4tcPYx6/5Hi6fcU8PCsB+3//+1/zJmFAlBdbYnFfQxCy/5ENPqglrs6cMgU35h1tnqMrOHFVJd5n2JZeehmuqbzPWJk8ST4gmbg9x+WXXWYuoVt64HVehW4RgpsD4ypLJvLU56z0WiSlqM0hVAG8b/tz7JNjFobcnzhDqGQ11be4Avjq8g+iZOk3tXCfiJ45ZY4mlA8QPDEkq/ZGDhcQQQJQULQELGKoiod6oWALqqQjbbCyD+OFgCmo2IiCzUqbfMFOoi/uueeZm+9X9f2jjuTfyJRZMnyZy7IeDkZysjNqMXw4XTpEr9VFdJ8r3Kvrt/Qblr2908zSyyzLBHA6SCR9WctBDP21HRzFJnjUWmbotC59DWBDnphlOvKIw83f6MfhQRjgi3wRF28pkL1xc44za63zIbP77nuaZZZdxt+dH7NVI4nQ3HbrLeZPfziHCeB7llqSfnR+W0/8OA517glxDwWl0NBL7mluaVtwMp423xRLndDP93T35ZL5UiJtfSFPW0d7kv136B5jDz30oHmDZku/uN9XzKGHH0EE7lG+Jcbpv/q1+f1ZZ/Dy1I9OPInvT4aaXEi3v/jOwQeZqfRa7PulL5tD6KerHn/8MTPPvPOZg7/1TXPu2Wfza7QC/VrCWeecSyfST/G1lHogD8kz5GSX1O65527zm9NOZZKK1ws33gVx5/ckvRb4J746HuLUrVbgrapAf997/fV/q8ZZ+xnKFQDHcg98h/FQ7LMeVem9WMSSEtHkWWLMCDEEq/AbOsP3N2doe2ZbQeUxwFuoGqQbLE958pou2Tg7i2E9vkCkKIInDH4zb1b+JRDUCkTtzTff4JuMgszhgVsQTJwwkWd6MNuDNwPuwwXbS86O9rSpdD+sESPNfPPNZ+abf34ik/PwazacfEAMQM7wRY2Nl1dZCk9CVsQmeBA4zDjhAUzHjSDAIg5mhTCThTG89CLl/PyLNAv1nHnisSfM74io7rDtNua8P/2Jr9IDwRVSh9lQjGfaFHs+pH1T254RF/GRF+c4xZ4vCF/oO22on4wR9cADutL4MF5gYQehAhYVEP9OfYmv1BJ73X/qj/6Qx+TJk/iWE9tuvwMv4c5J91e78oorzPMvPM9LsFOpNhttsjGfjD6RZlqvuuJK9kMNgXvjDfpjgmYLgXn9jddpSXgO89ijj5obb7jRzEU/ywXcDjt+ggj6OJblDwrJE7WVPOU1x2sA/ZjZxpj5F5if8luA48KO1xl7fs1ojPJaiG86ztoe3BUovW5tupJtRkc40LEGMt6MjmlG/YZy7jM65neSH75L0ocnhIoD2V//ICyB9aOIdfwpiusbjm857hX4VpwHXgM7AwjHwpapnSLTK1+2NQAytVNoPb6AdFuFHvIiPuj8xU8zKrih6c677Mo3VQV5whVnT9K9qG6++SZ6ae35XZttsSV/QaMiPT2WDM0xbg66a/1T5s1JbxIxsudm9dCMDJYEMasmJ0RjKQ86PyuHurr+QQBgm2220f4WB9BhdhK1x/lfIAGtG71QIAKIifw/SLdRWGbZ93FcEI+nnnrS3P3vu+i2CuPQs/niPvvQWHrMDh/fgW8yC8y2O+xAS9qrcIxVPriqP18QMZEfCMZomlUEuQVRkbxhL+WI9w42EGyQOMxcoR6IQQE4T8yUYvYSMWRDPxgDiNwYdyI48oMO9UPf5MCfQ+XGesTBDC5wqCf6BrFF/qjP6DGz0b2f4loiHuoLQoUb2m662abm/07+Oef70AP/o2XxW836G25IfwC8aFZbfXUz/j1LmnvuutvceN215gW6ye6LpL/llr9TfYaZ5T+wPF3FuIJ5mf44wA1y//qXi81TTzxuxtJ5he+iG99utNEm3AfqNWHCa9TnKM4VY0YOqBHqCjs2VAX5oX5v0NJ9DxFVyFI//N4r6oRxoz7YMHbE4Dqxpj4NhQqUXq82Xck2o+McrLFmdDz98RvIWvQnj+o7kyrgiJi/wIG64auB5QtLdVtc8uWvqvB9JXB8LfGXkihoH1BBEmUaG2n528CoGIK3qjyOhnpZfzF6JQnWXY20i3iA8OygwuqYQ1HGhxxfuCAfOJdqQ7oz/hZ0A1J8ieNLeC462f+Syy43f7vpRn5NF6CZlx+feAKTH5APfBED10Mk6r577+MlVvphJv4yxhc0ZgLxhfzII4+YyZMmm4UWXohnCeXH2dE3yCeIDYjHggsuRHfsf46I2tNmCv26CpZrQSCAwUyjJo5pvfFq4oElUsSaRP3t+Kmdzed23828jB9sHz2befmVl82d/7zDHHrIIebhhx+in4eayxx15BFE+FYyuCP/RCJN+Gko/rF5qg0uAAFpQv8Yz3z0c1STaY/z2V595VUzhZYwcV7hoosuZoZTzV6hcwV5RorGRUVkn14iXCA2+HDh4gn8YsGTREQxK4n6L7rYYkSMxprXJ77O/QgJRH/zzze/mTBxgnmYfmpqMtVjgQUX4HrgnESQaQpJl/IT8QSZxPj59cSVtvRrEnQe5kv06zQPP/wIkehJdE7e7GYR+kUDkEnUEmNKN34vEJHCa/bepd5r1v/o+uaC8//M75FL6FcVNtlsc67H+CWXNOuu91Fz3z338rLwbf/4B5PAZ5552owdM7vZYEP7Cwsghoh50UUX83sG5w3u8PGP8zIyfkkBf2AssADlSeTxySefZLIPkrjwwgubMVQr+MtVkPjYoY4g3nYW1M7V4yfCMJ5nEY98cN4hcHiP4bVA//XLLH2lB2cbrxWOBUL8JUu81/HZ1xuOO3h9QfLxXubPGH3209can6dUp+OIjL7tH6CzcSzRt+3bYstFcPjMy5bi03YTTvQDtW/qF/HFhteBP2+F48RA5VHjvH0VsHzGcqFAaYiOhYZPjlUlA33PKBbFePq4uc0Ltk3AHG37l2cbAASwFMLHs136poDFp8lA9sikGkpMojkfANpAmdcQU7iDJA5aIBc4oOIAO4VmVvC7k9jw4uFg+ywto8psC3A4OGPpl7gHky9gcQUovshBGn7329PNww8+zBcNgNDtve++RMzo5H1aPsSBHv44SGJZ+cQf/5iWCq83zz/3POvnof4Xp5mmz9CPv69HN0ed8NpEys3eDwv96E1eHn53uPG89toE8xI98DNQ6AP5r0s/oXTKqaeaHeinlqbQcucTjz9m/vTHP5ivfZ1+1J4G8b2jvmsu+vOFTKz23ncfyvcLTPhwdevFF11k/nLxRfwzVVhSxrsf5xouuvhiZs+9Pkex16cvkTeIGE4189LPeZ304xPNWWeeQV9edHPYHx5n3vve95hDv30IX2DxDP/O53Tz7kXebb596OFm9TVW9xc0gPwh3zPpPLvf/eY3vHSN3EBAP7zeuuabBx1ifnnCj+mCldPNYkQgv3/sDyn2e9kfhAk1/QkR9YsuvIjJ0VT3pQoC/kn60fqtt92Oya2uXyrjg7z5llubCy+40IylmFddfRUR+YeI8M5Jr8Nr9gfuzzqTZ04vOO88O1PbO51I5iJm480241MEQM5wQ9tbbr6ZxwNSv+XWW/N7C+QPrxnyxMUdIHAgwXPONad5N8XYkX4Ca8uttjbInb+UCIs9NryOI4kQTKJxHvO975mbrr+exzmNvsSXot+i3f/AA8zqq6/pZhctSeiGBHDw+tTnCghpkH2fAzgHEI6U/CFmSv4AF5wQP+jwGqc5yOsueuwFy4J7QhxN1rQtlSVWqT9gQSbTWOIDu8iSG3SyiQ3tJlmwKUbr22TpV8cXvNhArus261aAT2nDdBu+xNTGs4Cq7UXCxkhrmV4khoiaoOljZz959tnHJUHec6KLLwJReCUK1u7J0GSL9FGjyQcHERUesh+LFxRg1hFB7PDBl7+ocRCTAy3eGJgZxBe3JoDA4gVEzXAQBXkB5jdEsg479FBaspvIMzP4Yn/tiVfMN+lH1Oen3/jceNNNzYt0fh4uPvkX/XzS/nShwf3/uY+WKMmf+p2NYjz26CPmvvvupfPMLjdf2f8A8+WvfIVmp+yMHA5eeoteGdcA8cIYkM/o0bgYxPDPKy37vveZT9PvbZ5w/I+YwN1IBGLPPT9n5ibC8uKLL5inn3mKSQbOYcNSKWpyBI3l1P/3SyYko2lZdV461xEzhFj6fvihB811V19jjiQysseee/KPuOOcSJwniTGBCN1y89/Mdw871NxAfaGms9Ey7JxzzmX+SbNn++/3JXPehReaeeeZl2ch5qDZuqOOONL87Gc/NXMRwZxKV9JOIHL0KL0+NziCjME8+MD/zHQiQ6iZzHyCSH/pC/sajAmk9Q0aA5Z/MXMGsnvDddebm+h8vO9SrlkN6XXElxfGC5K3Fv0O6jJEqB568EEmwVdfdZX5zG67U5zHzYorrWRWXGVlc8Wll9GYruPbxeB9sM6HP2SWHD+ez/tbnPZXErnDMi++xFdcaWVeXgdBBSk/4MtfNn/72038BwMIHf5AePK+J+hK4vvNdddcwxfzHHnU0eFlpvgYN5a0J9AfKgfu92VzOhHksWOJTBL5xFLw3268gQnnST//mdls883Na6/avkEa0wNNCFyl/lRA6ir7vsbCa4PjCH767Cp6j+Hqbjmu4Hhy6aWXmg022IA/y3h/YjvrrLN4pv60004zW9MfFbj5sszgCbHBHjNZOF7h2CQb9HhAh3jY4/34i1/8wuy99958ERxygg15aF/EwDiRFzbE1pvkh1iYmf7Wt77FZsRATOzhDxza8Je6Sd6IrccPO9p60zN08MMmcTQOcmqHbzou6RuTADhm4ifpllpqKbMpHacxGYBjltQqjV/bQ7EC9J3N7w0+pKoB0DGWNhxq061IDpuIIaIXYmTEkDqxb1/7HkafWC8jrXvEIrXCBkd+sAq9hQcWiPCwa9xu73TepvDAyQmPoQcrSSrYz8obDgI4+OgHDlKyodYgG9oOGRvIIWyjaan1USJu3z/6KD5hf/e99qKlxA14hggXFAwj3Hl//CMflHAQwmzffvTzR49gSXbeeegcxF3MuX86z5x97h/NsSccT7NBi5pxdM7esd//vjn3nD/QDNFcPMOFA6kc2CS/dI+ZSCzT2nztTYRBBjFztM6H1mFiiIPmU08+xRc5gPjgDQqyAnnEcPvzTCB8i9MsH3z3/NznzCn/71Rz2q9/Y04/40yzOxG+sXTLkznnGmeOOfpocx/9GP3sdACdTAdZe67faF4m/uXJ/8e/E7rWOuuYz+6xh/nACisyycKy7ON0exQQnhFEGjFzevbvzzY/PelEswQtZ2KMS79vOXPAV79q9qBaLk+/EHDO788yV115BS3zLmyGUQ2xhI+x4u389a8eyOQPS9oYxzbbbm8OJNK9Pn2B9tB4FqEZx9/8+lfmB8d8n39iSr5IpJbY43VBjTCzuymRqNdp6RZfVJf99VKaNZ3MX2JY/t9yi62oRvY8UODHEVndbPMt+PUZSV8YrxFJQ5748sCXyJZbb8V9vkkk/huU081EivGa44+Bs845x/z+3HPNL+hWQksvuywtz89rfkV/RPz0JycZnGMK0ojXhPuhZferr7qSZm7PNRtutJE58Ktf55lNjG8cYUeOGG6+c8jB9D581Iym2Uu8L/F+qdvAVwDHB7w2eN/gNZb3UTc9CVaIC16jveg9ftNNdM6x+wa68847+Xdx/0F/KGEDBjKIGt7fp59+uvnf//7HNsTDA754X+MBDNpybuh/6PP5VfosIY6QNTiDrIFM4g8obDhm4P2GeBqHNogmPg94oA/osKEPxD388MPNqfTeXYc+66gJdKgRPlfIReqE+Kifjo94iAsdfCDDH3psUm/4yjixxyZ5iKzbwGBM8jkCBrJs6E/jzz//fDqn9xY2y3K29CM+dT90K2A5jeNImgex7HgVgfDWDo/Ao2KuRRgqRfxwWOJVmoMxx8qwqCPew/ZBf1JBsAFZ0E9ISLeVHOmjRoNPSyyElRCcjQxE9TcriviQp49onM4OneBw4ICMgxPOZ8OVt8uv8AFz/Akn0pLcMkyEDv7G183pRJpw4MKFJZgdW4Dux3f0kd+lJeKH2G/tD33I/PgnP6EZL0sy1157LbPAvAuaA/ffj68gPZn+qgZZkL9G0WfrRnacnyh59tIsEXLFwXThhd9F56vR73TShSs4cOOcPpAZjEEeU+mCFhyAcX7kJ3b6pFnyvUuZzbfYgs+5wzwEbnmDmYkHH3jA3PL3v3Ps66+5mkjhXkw68P7BffAQD+e57frZ3czXvvENOpdvQR7/TnTByQMPPsD53XcPnUNJs5RPUW1+TV8euJoasxKYhTvl1NN4douA5t577iHC/EVz/3332TpQbMxE4nzL04nYXUMzKCB/OB/xuB8fb3ba6VN8oAdh+yH9OP1JpFt0sUXNmXS/w+3oSt8VVljBLz0jT9QKXwZ4nTDureg2OKfTVdO4t+Id//wnzWjebxYjMoyLc8YvuSQTLLwG8JmTiNniiy3O9YR8B83s3kP3ZcS22BJL8DmmqOcll1xMM3XX8/mQS77nvebnp5zCV/XiHMHVVlvDjB+/pNn9M7vw1ci/Pf03ZhN6zddcYw36ArNfgoiB99huRBYOOeQ7PGMxikjmlZdfbvYmHUjfM3Qe6R+JUH7roIMNltvH0njwBYjx1W1gKoDPEsgJiA3krj+Xrnu8FhIDJAPn+65N7/fz6JSCddddl1EXXHABz2RfTKeTfOQjH2Hdn+l2Q+vTKSHz0Hse79kF6fOEU1VA4pak9yR0eP/i9b6PPic4LxTvGWz30vvx9ttvZxmfe8ySIwfMduF0BfyRhw06+OIUC8FIvvjDDrOVOI6MHz+e3/uwoRbYLqJTRQ466CDOEafUQI98HqSZdOSKG+bjHFWc9/qe97yH7fj8IB/MvoHQ4jxY4HD+NHzxmQYG/YDU4l6cOP0E5/qidhgzzkfGJkQPsbCBsMIX4wDu/vvvp3NvF+D6YZwYB+wY1wN0LMMxAbHEH/3hWAQdXmP4II+6DeEKCJ8BB8IXVfRy2kak4qG6OUAhRn74mDZJY4A/ZUDrQX2nsRnplpN70IhcnQKJRnobjnWsdzgB2WaB5VIClokijfghs4PYR8w1zcn1XXeWCNo3kSUPY2hJ7ghauluJlvxwwQRmjbbaZjte9sSB+EU6UAOPq0Qvv/xS1uPAtNdenyfiNI31vdN7eQZnc7oZ86qrrMKE43G6D93tt93GM008E+W+eGbkNUB8OZDhAIhbrdhjGkgjvUFpphJ2fLm9SRdRzEEHv+3o1jE4QF5MNyO+mM4FPJ8ukHjkkUfNGmutyef9YRbuaSIbEhcHVSxt4sC+6uqrmcPogpO5aNkXS6j4IsA5g5MpNg68IDSz0ZL1PXf/m5e+0S8Otgd951A+cD9LdQSRwVLXQXSPPnypyBcODsaY5bqCLtjBFxgO1jsQudz5U5/mL6pXX32Fl9sPpJmPVVddzUyk8yJBsq+56mruA7XXB3TOm750XqdbAOFikA/RFy9mC0Dar7/2as4X+GuuuZKJIfDI9ynK7/obruMx43W+mmb/XicSiddqgw02pC/Txfm+i1fQkv5wmq1DXXbbfQ+uyXN0DiBmkXHLmDXofMiPbbQxx55AS7jX0vI6FsBwIRGW8kFMV131g+Y73zmM30evvPIK3d7nMfrjYBPzub334fcPvrxupKXpibT8jFyQox7jjLxnqk+ogNQTN/f+JJ2vifflgQceyGQjoPou4X17GZ02gO25554zV155Jc+mXU7kHjebx4Yl4a3oYjVseN8de+yxZl86t3gjmg3G0it0t9JV6x/+8IdZj9/VvZnOQwVBPJxm50CqgMVMIza8L9DXWmutxZ8dfNawrPw1mqXeZpttmGwBg88APnPoazs6h3gL+mPw85//POtAsvB5Pfnkkxl/2GGHmf3228/8i26ovuuuu5pv0z0x30ennoB8XnLJJXSO6ursiz2IIDYsfWN2chdaBdmTVhYwls/RisPGG29sfkznR6NvfLbR9yF0Idu2225rfkOnQODzgD9EQUqxHXXUUWb77bdnGU+4X6aMf8011+RlacQ87rjjeOyY7duH7ojwFTrFZtVVVzW4QAukEzXBdjStbIDQYnyoQf0ccVmG9FOgSvSdnXAdy3uI/hCIHzRSzaWYG2W8SeHFz/GslGOhcKF/JTtSav9UA4KBKVe0emtjQFA4ybnGeiQVa6KWt3nBmtFMVJFfbbg6gezQFy3OOVt66WXNcrRsiQMIrnrFlwVuRwKig79WQT5G0DLd82R//uln6ApaOs+GLu446ojD+fw/JlD0BptOJI2ONkyYcA85xHuElpdxIOQbIncqPr1wQvQsKbNvRRzccLDEL4FAxl/auC/dNDpXjokf4pIv+sGFBaOJmL1CRAQXcOAilYfoohac1waiiHMBcZ4eiB3OHwSRhA++hJA/yAe+HNZYYy0iZ2OZRPF5fYTDcjZ/jqg7LFWD5OBLDvIwsr///e/nc/Aw+4YcQdQw07Ec6eel2Q9c5QuigzxRVywlo18Exc2usQyNNm57gy8/LBWv/aF1zD9vv42v4H74kQc5Jg7oqI/euI2PHqlx65+//uUSWmaeylf07kLnAb5KpAuEE31jdgJjRm4X04Unn9jxk+YVki+jL2rUF1cp47YyyAt1w9IsQo+hGYlT6FYz59DFJJidFdKNfEB2McPz8ksvmwcfepBTw2sO4oh6Lk+zFEJ2ce7fBELgnpVrrLkG/0GB2/s89fiTTDgxftQOuabj5MD1qc8VwGca9QQBAiHD7BBICrbjjz+elzm7mS0SMgEsNhBAkBsQHZAlLJfutNNO5sgjj+QlScx6gcCBfGGD/zLLLGN+QLPbmHkD6QJBQ7zv02kjuKr/V7/6lTmUzuG9hk6z2JkuggIBA6EEcZINcfDH2/z0eT7mmGP48/Ynuk8ojhN4H2LDTBjee5vRRU4YI95/q9Afp3+n2X8QK3xOQaROoRntL9FpLXvQqR5YrsYs5kknncTHL8zCYWn1zDPPZLKFXH/4wx9y7TDe9WlmE2QNeYIAgkAiV5C4Aw44wHzzm9/kWUnEQ25bbrkl54PjAHC77bYbnVf7N3MPrRSAWOLzd9dddzFB3GSTTZjYohaYjURtQHQx2wgiCbKN+JhVxMwlZkUvpHOTQRARA685alC3WaECOALbBx39CxwHNrvF13nY7wl+DhAC2kakYneKHX+1BGwO5kzoNjBIqbyxvsGYqZ0i03No1UcBoFXIk9tgqHVrrICtmSUT+KLFwQd/MeKgAVneJHiv4MsDtyfh2Sea+cHBBT/jhgMxfHFS/zAihWhjiXMeupAChAsHYLyjunklQCpxMQZIGC6CQFxc3DDvfPPRlaM38KwiCNKCdHUsfr4OuYKMAid5oB+cd/b/2TsPAC2KpA03CoiCAoqIYFjMYs4BA0owx8Occ06/2fM8w3mm88x65hwwnFkx54iYUFRAMWMWBAQJ3v8+NVPz9cx+uywIKss0fDvT3dXV1TXT3e9Up/879GBbrcr8vrXWXiust34PgZGZzCL4mE5CsTdE6SgXcsKD8nIljNWs0JMfwAz+HIuW0Ik0dQZCBV7QC+DZdejyMNQJ0DT9pPkQB4AiDY780Dnh5IduueJnmFk3pj/oi/mTPuGXLgZRp8Zcps4LLRSYp/mGOqnBGkLCUvfB+x/YIpldBAh/lExnq+N8/bX+2mvxnTBGi1Y+0NZALWZrEZZYcqmw4kqyPGpLG3j/LODNHpLo9sMhH2b6QhbiiftFQ/OAfnntPTG59Mf1yTY/aJhyUg7KjJ+O38o8EX0kG3XDs3RTTwO8T9SpYcOGGZjhw45hR57B0wJZPCMHCg3RPfQ8MyzCfEwwZPuQrOwMVfqwL1d4A9o6depkWwl529Jd+1Pi2McUUAaQW1anzWCtB2hh6QPQ4PhYID8cebpDfsrBRwzWscsvv9xA5uGHH27WQspM+Xi/sD4CjLB+Qg9YxUGDQzdeftqrmpoaA3Dw512lPmGhvOmmm8xaSHlxgFssgjjAlw/pdu7c2doCPg4BdgzfYiEETPJhh04AcvBcWXufMqy8vI7nBJizAA3rLM+BtH10Gg/0TvPMM8+Y3hj2xYqINR1H23PKKacY+IUPuvL2Bf015Lkao/LPn1IDVIHKr9I+2l3mTepJ8teLkUVW2TImBZIVEiVKPLkgY1UNGBKhfjGfoVGbsMmd/01Y1qKNAqJbT2RXC68SWSXI+nV6FlNWjkvpKWrAnwirNGkgvNGEDoCCo/FgXh4NLlultNSk/RHDR1jjcva5/7ZzhfmSpiHn6x/Q1Lp1G7Nw0UEwdGp7vDWf9Ea/DO2ShkaYxhsQxr57b7/9Vrjl5psNCH7z9TdqkNcKbXV6BR0KoNHkVoOHfzZZ/xiSel6AkUUR6+qr+fwLLrTFGvBu16Z1OP3Ms8I5Aj8sFmGYEmsYnQAvjUEtyqz8AW2ZTuyFqjSk6Av4xjnFM4sWEPSB5tt9p6Hh2WX9M2sF/ETH4pQJmn8oj/lpmGfVqmJOyBg6VFY9WRAHf/C+dNfU9AaIRJfI886Ad5Jno/t55kn2WKzWoBNGGbAsziMLwQY62eOiCy6w53jfPXeHb3UyCMO7nRdeKPRUhwkovfaaa2W5G2ZHwjF/kuZgoqy9G22ysXUoWCTogOduN0/4Zpi2fRFvtt/ZZLNNbfJ9q1YtJSfA7n/2PJCZZwfo/UW6a6ZnYfrT+yNNmsUZvdA5cQXYD9Ikf1aKU+a55tZ8K1mmHJxQptL9dg3wLvMcsBwtvPDC4TVNywCMELacVofzjjo4q/Zu1SWBP5/e2ivy0ksvNaCDNRCHBYx7rGfE46AHaNlHYeqnTmKxA/hhJTtEK82Zx8d8VBzvAm0LDjndITsAjfdoJZ0z/ZxW0TPvcI899tBq/EtsKJh6BuBDls4CZRtrgRQgLeYDvxhY4kdG+PM+AyApB2CNIXOsbZ6e8nhZkJOy4MiXtoxRAHS/00472XAxgBDrITyxQMLzRs3tBUQCgNEh9ABad8jgwJJnlHyYJzJCQz442mCskIBphoovUN2H3nVnROWf6VIDSSvIu++/Srtod5m3Uj/sLvMmBBlZpoWEIG8xJHLygKFm0sIo+SUrcyv+LNzYwlwOSdJfdGtR8R/af+sDIIqcp8mC0rFonydIN+75ZjTlTS0NJGqtWAC9YTNCqRAtJsOiydd+p07zaf+71axhoZHr/3r/sMKyy4QumrOzkDoWTvJYaKFFwrPPPG2JF9McmjkEIGhMc7zha5lw5Q4ZdHSYrE9tBCroEOYQUGuuBv6xRx8Je6tR58gzLHvzLTh/2E0WLBo85usZb+OArAlXtkFheJthza5d19JXdVuzftCYjhTY+HDIYANLHJNmJ5k015YJyh8ZTR6uKS8LS+8TjSSWA8DWWIGfLkstrQUgc6th1rYtOj3jvHPOtu1RWOTRWiCVlbY3XH+dLG4/WuMN36TzUifQdQ07fg1r6U3qCAYOHGB7DzYXGFq4c43tY8hCCbeCrL76GpkuXb5UjSY7fOkgAHpbbLW19Dinle/2PrdpLuAzpqVeG25kAHHRRRcLa2uPRZ4xJ388eP991vF16Dhv2ETDVHSslB2g0FVzs+hMWHTD9jhLyHKzvIbSOutZs70Mc0df0TDY8J+GB7bsweKBLABa0rEqmPz7CQwsWFNjHfcCWmTy4ZAhWj19oXVSnBiyijrFNvp4II0B8EzvXsryOrka8PeEK8+TYUrm2FF/ARr/1PZCOAcW0DTUAWRwzIVjWJVnzrw8PhSwmsGTcOJx0FNv7WNLfvKiTgLAGIZlHhxgCeDkYIo0ACemk2A9c0darISAQBZ/AHwYzsWSxlArDr5sU8McObZJAXTxXsc6gY680AeOq3+Akjcfr3dpF4TTTjvNtlihjMiMA3zFZbFA/SGMfBjmxfp4pVbK49AHC2JYucx8R3TBUC6WPCyBLHhhWNfnS66qhVTMTYTf07KmssKaOY7oopgvdYYPXlZZ364V+vz8oxxdeZlNkPLPdKUBaiRNYfajv4x+Sb8EVaXu0hNm9IzQpj+bL2h0BVros1/CP15TUd88QzsJJOl6xaHgsvDsJiGoeCuCEIPQdblcVOSJbutKWoZPsQaSxoPGlIaPhR9sBAwYuOvOOwysbbPNdqFp86Y2rHjxhRcbmKBxPPKYY2UxOtqGKWhMaVzjDobnRkfP1zP77P1X28a889YAa4BJP0wWqLffelONneYcqhGjUb1ADfl8C8wXvtKqUUAWDbKY5kqH1XGcVvNiYWJj6xVlIegwb0d1GCMCW6r8945ke5qxY5qoYX1Kx8n1DqusvJIN9SJPfS8hFkIaUxpgOg4slFvLwvHP004NC2sPvj633WZz/TZVww/tU089GfpoDzSGi1j4gQO4jvxplObebRfu0BDPMHVwrITdS/OBdttjz9BBVob31KldJwtdGwFhJrl3UyexzrrrJLpUesod6xK+hLE1DXpaeJFFbdHKnXfebie+jP15rJ5VG23WvJnpG/k30zDUg/ffK55aUS0dM4zbvWcvKxOLXOjAsKDsqE75rjtut8UabAVzyEEHhv32P0DDxbMa2GS1+C3SMyuZd9tzr3CK5n/5EHoiU1OtJP88HKitQHbSBPvOnTtbp3zllVeoM/vGOiosy9to7hjgAdnsuVKo0v0mDfg7Qv3lvQVoYAEEhGDNcqDtdA3JzGnhSd1dXNsAYV3zhQyAEd4dLH+AEIYvAVWANYYu+aDB0SYwJ49nzVw25g2yWpYPQPazwwGGmNsH8MGyhRUTB1/AHvkwxxDrIfwYbmYhBmVFTkAuc+LgR9mZR+f5O4hCJuYS4qinWEWJow3C+sa8SebzAchoWxbUxwsOOj6QcKyIdn5cAcAA1hO0AAxwyrA3+sLS52VDNoZ8a2pqjAfzAykLw+rkzTY3zDmk7OiPOZvohnLCB+fAHVAPcMYxbMycR/KhPK4Liyz/THcaSPBNCsrUpxhSS/5YWTL8Y91gpS+s3EGWUNnffALjkdFmN6kV0GL9TxJpfzMe6n6vWuftyOtZpYlyMYU45yuaApnH5MMLRAVvkoZASfir+tpZWjcNu9y1WGjeSnNH0nCIftEJB9+rY7O5X0mq6fYvldvBGY3DI5rfdvAB+1vZFlhgwXCnGj+fTwcdjTONwkuaZ4NljW1P2Prldn3lEg9Io3FlPs/O6pBHjR6pRm/ecJ+sRMyBo5G5XQ3MsUceJfpkaInVoq0FLj7XPDNWngLIsBRepKEYNmv2fd2QFUfDTFgzWd5233Xn8LJkYQ4LYMO+xHnDaMD1jw2mAVqcSXuGJo5zpBnbi0BHQ37YIQeHeyQ7R6wdoVWAxxxznA0r7rHLrirDB7LAtRKP2dTZdVBD/KUWhAwNW2ni+ruaJA3YACydo8YS8HX4/x0VbrnpBuPN1jCn6KufRhy5+bq++MKLwln/PN2Gndlu5XxtgUN5Gc49WIDo3nvvyY6Do2OljCP1lb+7LJavvdbPrJA0+Df3ud06EfTNUNeeGqICnNKYU7YWLRJgxQbb7M2HlfHaG27UvEcBWz0/0rkuTaHpn/hdQDePPtI37LPnHjbUDIhcS/OyrrvxJgPy1sEprx232za89867tsAFi8SNt9waVpOlEXl4D+h4GJZlQ+oD9t1bOtMwl6yl86jDQx6A+FeaW4ZMzDv8z5VXWSfM87xMQ1on/+1E67TXUIfYV/PEmLPExuJsS8NQMe8Cz/1Mde7oCast4cWPhbicf6Z75J9HUyO4Tg8OwIasPC9ABu8p97/F8d4Vyx+HxffV8vF46jn3gDoPg553AbkBPnU54vlABZDFaaEHYFLPabuKctbFz8OdF3WDoWF+HuY09V2RHf261ZAyFNMX/c7Pw9EL+cKHsvDM6nJeb6AjPW2K86krTRn+59SAHp/eV20LNGpCuGCDl8PPIzQvvamAIFNXC81NxZv0sbkSVSItOO+tQp9LnGaVJapNn72NRFm036S0BW+FvSIoZEpWCTc+KeJNh3fddFmn6TM2cxa1k+PcuD00cMleenosWqyR6TZ7gGn5oVND4vvuVdOK8QrMb0tW1zZvhuVqpLaR2CFcpwnRK2ruCoCGc3r7aaiHRrZm4YXCHnvvFS7X3nh09FiCSE+DVMtJJkDezJojxpWTNtq3n0dzztobYJt/wRqBn6XCAQcdHO68+57Qo9cGAiTJPBuACY0+DjmZr0c+dGrs23e+wOeK+uKXEuyM2ncGvK2OpWX4m1YuX3n1NbYh8SitQiXNLAKiOO7RR106cd0irzvCWMF65r/OEQA9UsCog4FFrI9dll4qnH3uueEoWTcAgzTgRq+ngqWOTgWrBJsq99A2F6wyZmNu5iW21EpY5lLuKCB7veY/dhBfOhHvBDz/+Apv9Eyjz7NYVcNxSy2zrAFoOhC29gFU4nguDBFvsunm8iWLdVbSwo8VtK0Eiz+gR5dcOQZwnW7rhlvvuDN0W3890y/79r360iu2MTjDuVtp+A6QytYZ7A/IRwedEWc6Axp32HHn8K9/nxcW1/Cx6dlARxMdrddJ+wpernlau9mQXjasr7KUbuprAODv7xDvCfe/1fHe8azjOu7vogMSz8OBSeyHlrqMhRDwR912XqTH8R76fZyWez6KcIA/v7cA/QH8wAtLHu9zMR66WCan9/QuG+AR3QHG3BXTkdady49+KQ/y8+Oj0+mgodzkgaN8cRmhIy0fYtAiO3WnKCNpPYz8nD/PF+f8zVP+mS414EO4fk3wUKUovHnJL8FNjpNo2ytDuQmRYS4R21XxTsvV6O1a4O30Mc4Cm4m2yZVYAMm94BKGtQKrkWZEGZvsJokqeLPAWuEKoH+eOEEbncoCuGsjtwC64qj0VH46fqwyPJqmmoTPyRXcu4OORmSMGhYsNwAnOt1OnTpmDQUNBvPthn3xpTU8M8vyN5/4YDEljoYUKyKA5L2B78myNswaMgAMwz01NTU2d4bGjUbTGySXIbuK11ca5gUgIDuNn79I5ENnwDAV1izAEvkRzhFk434Zrzl2rW0jYRY50EAeq9MkDj/iSNu4GosdunjzjTe1Z993tkJ1kUUXCZ06drJGnDLY6lfpgdM62KaFoRo2mMbBm2EhjmVDJuTDGvj9d9+bDC01V5HhKMrIQpRW6nxY7DFE8w+/0kkl6Iy5h4svtnh4Uytx/7LVltKDLGeyRN6uIS3AHXohPQ08POZJMa8AAEAASURBVFil+8nHnxiAosNZWPIurM2s2aoHeZGBcqKDSTl7zqLnzF5AO2k5x5hOyJ8H7wFgjcUeLPrBitse0E6Z+HhQXYKWtHQ+NtylvD/QXCXmZY2TJb2lNhJfQM970UUWEa+xtlE3zxzeri/u524/t0DsvPpY+FjlfN9WdzP3kaEsPiKYz1XvuzKpAv9B8TyL6ckCyPNsyPvzR6gT2fjxvhRdQ+SmblRLC6/64op5VfN7vZtS3SE/bkrSN6TsLrPT/pb8nFd5/WM1wCtDU48F8Pxer9RrAUTSrFeovaqjakEy+mqIrBJpaSve5D2OGTa5cu0BudCcB8o0oFZ4yiULz24q7GsFGerMWFYInZcSAAB/BQDOIQD430Ub9RBwUQE0gP7lRyNQ7YuXNJOio6ECLLjzIQxPC19oAAV03DgaScL5yiUt8d4QGUGVP8jqjXaxcQQQwo+fD520atlKx4o9GVq1nl0gYlQ4UvuITdQK2+FamcwJHBttvJHNb4Iv6fnyB8Bwz9c05XD9GPCSvggH9BAOLQ56QJfLRDkop5cVP9YAjoLjDORLL71EWz3so8URyxtopDayIXUzgcJjZBlkIQa8GAq9XtbTkZKd/AgjH3QHiORINsI40xhZfU4cOvJOqIoaqwYhI3k4sMKy6ADbE5AX+/5Rz9ABP8JiBx/0gpzc88xdh/j9mZMPdMiJ4971BV/0jJUHvbPynI24Aenw5fl6ujjvP/s9upqeAOCfVZ+8R/7exfcNkTemj++rpZ1U/KTS/N7p4/zi+2pylmGNSwOqEqoT6kdGTgjn9Xo1/PxTMgRM86rvc7la6KhOBSQtOgzrJMkiKiRV+FcijR5v0vvrJkceeaLbNJOEi4XXjszzSVN4YBVyo8jCufGfp52Brg5cvMgOaNzv10nR0dgAPtzFfEjrliQ6cO+4acCho4OHpiGABZBDXtUc/AA+PrQDeOj/Rn8tQjjA8rAzb5UfE9pXWGHFsPY6a9scM4aq2aSY9FiWvOFENnggG44VfsQBUqAFyLgsnrfLhR8QAw1O3C0diyX23mNPW6zy7tsDwsabbqJtKVYR8JwjDB/xY7hPq/4e0I9NpZlXt7cWQgB+XCZ4OpiiPL9Knx6HvCwOAQw2RJcuq1/RHfI6eI+fodOQ1+j0OUNPOYuOMHSWySl6f+bQmpwCcPCCznnE+oI3uifM51VCB0/KaGcjFzMu/TOMBvydocDxfUMUENPH99XSTip+Uml+7/RxfvF9NTnLsEasAZrlFNdg4Et6zLStLjTZiTffp2b0+eAUDyow4lEhiQKVvfksskLBnfYBjAgrcY7Zaj2VOvr72vQpr4hlbV6EGEEkQxqUpMuH12LQyAJoJLyjpmhxRx0XtSF0dfEhrXf0RiM/WgYA8KOTh4bfpNzMWn2apM5TwgeH/PzgCeh84pHHbBuEWQUa2KAZ8FbTuXM4VYsziAe0Av5cvtgSGcsGb+JwLjdAxmX2MCNI/wBiYhCFTFjtNtORc19++bkde9dfKyznmqudDV8PH/6jgUwsbCxsYP/BddftJmA4wixeyAhPrso4A6LI4PkzdxC/yxXLM6l7eMRlqutd8OfseVbjS/6uUwfMOTlT4BfLGevLnyFhWPs8LeFexmr5lmGlBkoNlBqY0TUAxqr8KtogtAiccrgn6oKT2yTWOWS0+WDrz40mGk6ukERMRWTbwDhDrhXCOJSONu93XyVYjCue+NZJ7WokEV0cmQvOeWKqxn1vgCItYtwhF0s9Kbr64p1vTAN/wj2umF81v222bMua8rHOgysgAbDGPMADDj7Ihln7CWixkrSmc42OVto4tNPCD4ZkASfQe/pYPsI8nNw8zsMAQKTFeZh50j/FeMAMdEdog9jll18h3KqhXY6CYs7hd99/ayBwifmW1HYRK4Rdd9/NtqPBIsk+f7GMnlfM32XwuFiOybmPedbFq6iHuvh7+phnfXLGdKTlF4fVl7YuGcrwUgOlBkoNzFgaoN1Uif0XFT5nfIvCDRjijzBQcpuCtwjDJbcRYZwsnXLnrLNkETC0IeB88ozMBMjHOatItgJBwZslmDSATElhUBeTjFvjvfGOelIlnBTdpOLh3xCa3ypHnJ78emp/q420Zxa1Aj9DuWNk+QP8ATBiV5981eKqhdXHDyD3w/c/hG6y7K2rjZWHDh0avv7mazsOj2PoWPiwoFYzs6iGY+0437coY33847gpvZ/cMjUkn0nxdB7V6KqFOX15LTVQaqDUQKmBWAP0aUC69Jfv4iw0o06h1+8JDPNDwEgiAQsyZvLlwnOeOtIYrwhQZpwK9M4LepHjrUsJEYvydjrTAODhJw2huqUOEMgq5qLl7/cqFvIw53GE5vcB7Fgt3blz52xolwUOnD3KUKxvcZKTzQGr+JSu1ECpgamjAf/IKj82qusT/Uwr3VTjXS2sumRlaG0NZPa82lEKyeEcx0EKz6WaJDCENeCJa+KS2zRh1D0ltxXCbBFIIb3zsWvGrJIuCs+RJh7RFUgzoiw8u8mS2E0ka5amMd94Y9eQMk6rSt+QvKcWjc/rc36AwT+ygfH5icjDgguGol0egB8AEX8GWlPBeRYsCMERz690pQZKDVQ0QJ1hqsXkOm/nvB5Obvo/M/3UKJPrx8s5NXg6ryJvwquFOX1d1/pkqi+uLn7Tb7j6BVm1fA/ArJvIgE4OAmbFzIVGXUt1YEiyjGHGIwN7UfrkNqXVReNuOZZZYm6ydNlNEl3wZoFVw6vyqQhbLQ1KQmEzgsP61VDn870aSv9npCuWYUoal6lZLvJ3mQB88fOgoQIg4opykoZ4j5uSjs4Sl39KDUymBqZWB+ofX7z3seOd5332d9rfc2i8HhRliP1+T3q/5+rOebifuuQfWFyxvLPq3Osi8kDDAiRcNV7FfOI8YnrSV4uLw6DBOc/El/fHPD1ttTDn4zyc1v1c+fBEVyzo8jydVzX64vNxmmppPIx8nI57HHrm2ftzri+MZ0H6+vh5HHTFvOqLM2Ea7R/wlf+iQmbVoQr+MuiTg4BZwlxoxkPPtoLW8JhLe6csrd8k0YrVfw0B13YWViWiVlAK0mqFpyyz8OwmiSh4MwGsjagrMqNqPDdUCua/ZU4Vpy5HhfIVn3XRTA/hxYbhzyCzy8Tz8I4IuQj3uJycekebaaNuNo/G0TlxOoeIc2Slp9TA1NQA72ed7+QUZOQdv3fOzsKBF37P0+PcX6wXsd/vv9ZG5mzq7vw83Hn5FRASg1DfV5J6RTjpnQdpqvHxML8677roPb4afV1xMW18D73rxdO6368ezkIyRhXittyBLTTO16+eLr7GuqC9gieb+/vzdNpi3h7OlTgHnHF4MczpPE0sV5F/HBeXM6YD7PJD3hnGSdeJy8G0qPg5WGfATG9CDOk8uV2rxBjIzBh6dgrI0VYBhpF9XqSpqdIm4hmMJAUskh/39gP4QStflJd8ibNwj4wIPMjp7KpA9JPoKOXv+eQIG5eHSkHjxtFn2U8nOcxd5cch5pwVXLpprwEaMf9Vy43nxskfnCoy6INBdgIIHd1MepbEla7UwLTSAO8lHX685+Xk5OXvJ5t64x5++OFw0EEH2fuOVYl48thnn33CY489ZjTkhaWIxVqki2UwAv0BqEHjjs4f99e//jXco/PMcewfyfQKfrEj7f777x+6deumHQE2Cj169Ai77757+FinzvjH2MUXXxzWWGMNS0Y+sTzOizB4sZUU+5t6WYmnDOxCgPxeHsIpM+HxfqiE40gf69n1nsQGKwc6Acy43qAnLN6DFX0hl++fufPOO4eXXnrJ2JA3bq211gr/1pnmONLjiPPpKBagP+RDOQcPHmwnHxH+2Wefhb/ofHTO6SZf16/LhHzw9HDXKXug9u7dO3yqM+BxhEO7q842HzhwoIVRHuQn7HWdiMS9l8/fBQjRo+sHOXDb6Sz6559/3u6J9/A777wz7LHHHhZOfjhkbczO8JNhqxTnUNz4F2Esx1rJtaCVNI3jtOya4bMCvWVTwW8ZveG3RAaZMERQh/5zwZEnus3lWOEDkKu4WvRpQK3wNImH+7XCafq/8waBuXAAh9NPOzUbZuRBxGWmYgASqSgcC7f/AQfaxsKqiaYIeOG8ArnfAqNw93Mt0nic84hp4rA4vFqaavFO59civ2ppYppYVg/3MPcXedQVDl0chx/n/BJf5a/Tejx+ngUNKUfcXXLhheHyyy4Lvyp8xx131HnC/7Kj2zivlwYvds4jDivvSw1MrgZ4r7Dy0HYAKngnY2tQQ/mRFvfFF1+EJ3UyD442Bl4MvT7++OMZ4AIEcCIPcbzHyMA9MrijXvBDHmjcugUgcesWVi+fT+vpAA3Qk99ee+0VNtQOAZ988kl44oknwoo61/ruu+8O6623Xlhaxz3utNNOlgx68vc84IFO8HPPEZQ47nHIRFwsL+HogHQc24iD3nnhJ584jeudONJSltgRFucDL3gQjm7IBz9tvgNw/DjA0jLLLGP3rq9YLiKcF3mccMIJ4dRTT7XjLHluPEfKSdnJ158DeVMG5+nl45lyVOYbb7xhOj788MNNF/379w833nij6XspneNO2pdffjk89NBD4fzzzzfeXg7y8HeB5+F5eZk4otLLSZzri7BhOsYUB48Zy6X9dbHQqR6S2ChS70d1DQEPI5cSFUL10iQ01bg4bdNqzyCXKWgxdblwD9S1Gg+ic/SRJ7qNuKT0RPovFzv9e3jhaUi40ijwVXTzDTdqm5HkS8g0nTYKXuGphGxBsqz2qttv/wPM0uSNLRULVeGH3is//PF7eKw5aPh5RfW4mBa+uDgMv/PnHleM93RJbOWvlxv62BFOGpfFZYaGOPLDoTPi4jDPm/L7SRR1pa8vf8/DMkr/xHyI50cYDZ2X4VftfzhhooAeZdBxdjhkcefy4Y/l9vjyWmpgcjTAO8j7R+eJBWi55ZbTmdSt7d2kfkyJ452GB452Bv44hucAGjiugMTnnnsurLrqqmal49ztt956y6x1vOfv63xoLFxupWM/TcDBFltsEXr16mV8AHWvvPJK6CZLHz+vRw6sVlppJZ0ItEKoqakJW265ZZh//vnDfjp5Z9CgQTpTe2EbGYER6V588UUDJauttlrYlC2l5F544QVLSz7IhxWTURPK+Oqrrxo9IIvzzgG0i+j864909vd/dbY3wAkQxnA1ekYmgNWjjz4a1llnHdMRwO017V+6ySabGM3NN99sVkr8yI1clPuuu+4y2XfZZRfTHeFvvvlmgH7jjTfOdIzMyIbDAtixY0e7R0eLL754uEn7kiIn1jcAHG0Iz+eZZ54xCx2gjLYTYMVpS7wXl156qaXdZpttMnAG/SOPPGIyYinE8Wx43ttuu224VycdAQBx6ILyYKHkhCbO+b711lvD2muvbfdYStE9uuYZohsc1kE+iik/91h+Kbe/l8h5xRVXmJw8Gz4ycF5+8zTiP7HlzU08FVRlmrDSx/1HEpCE5GkVo/emFm3KIUebEjnYMxL+pERwUcuBL/lBaMRmIlRYCv7gUytDBeidtB88Y5ejjzwZ/yhP8nYFxUPPtYSOM5hO73nhqcg4XgQqNJsgZ0PAqkRzzy1/9GvXTsPC7ecJbeeaU6maWMMUm/pnVmPFF93PqpwOprwhH6dGDItV/KPyUzmLjgYPurFjGB5KjnGDL3MU/eeyUw5vJIlzeeqq0MiDbLEc3DOcEcuCbM6LOOdn5VM+yIgjPAtLh7MIp/GGLzyc1htOjxvzc6oP0cCDcng+8MDFsrq+LD18Pb/kMSYJ0r/UIvKDp+kulYX7Yh65hKWn1EAVDXh9oy7wTmERW3TRRW3PymWXXdaABeG8rzinr8KqahDv5LfffmtACJDCj+E/Pky9/tCZH3XUUQamjj766HD88ccbUDrggAPCO++8Y3xPOeWUwNAmjvqy77772vsOqAK8XHvtteGf//ynbbMEEMA65LRcvS5zT1koL+APUAPwYjgaQIUDpBx44IEGfI444ohw3nnnWfiJJ54Yttpqq/D5558bYAVs4fr27Rv23HNPAzDXXHONWRmHDx8eBgwYYNZFgE6/fv0MqHKPPnEMdZIPQ6w49MJQNQ4LHEPbbdq0CRdccIGleeqpp8Lee+9tzwegiGzwYph98803N8BFGoCzWynRFY4h0T59+tg9PHbbbTfT/0UXXWS6JMKtac8++6zpD8sc+cALff7973+39Mh22mmnWd9ymUYoCMeaesstt4R/aZQC5+8LYA/AxlZXPG+A/oUa2UDnhOMAwQzL43j+6JmPhkN1jjvvAg7eDN9fddVV4b333rMwyu7vEECToV/KALD1/skIZ7Q/KbZyzJNdpYfaXUoelzl+StKkCUjkP7BU1V9BySk9fOyTzzK2P3nCKkGWWRKOcHmX0Wc3SXzBmwVWCycssfvkeTcGHw00R53hNNMsASwGRMZqk+Hm4SxV0AXmXzCM/WWsASP/Gp04MRnaUHttDTFf5YSNGjXSjlTji52GlnkjVDp++OdQAwVATDKURVAMOLOWLzn/wk8iE74zp0BtpObwjB//q1V0Nj/GIfvIn0ZK5mToCdnazNk2WwjxP1nERgxn7k/Fykk6OhlAGQ1V67Zt9HCTp84WKgBUGlpkgT/Dp3zRoqExaizGKh3pGXbgzFk6BgAnefN1zFcsehg9epSFISuNMmmgRR8ATBoevjpbE2cSJnKNFzD7SfnPJHrokIEfuuPrl+FdZIQPeRFG52glSB4jRUyc/KSFD+WdQ41kU93TEI4VjzHSeTlP0JVVXhuiAd5jHPWDdwogRt2lLjF366STTgr33Xefvfvxh9SkeDvIoU4AcBhO5L0mHN6EMRcZq97tt99uAKlDhw42DMvQIB1/N1mAsC5hieSDq3PnzgYg6dypP2uuuaYBC4YasRgtuOCCBuoAcuSBc5m5+hAhdZ3yEgYfwAntG3UP1717d7NSITtgGAD4fzrNBzAF0EBHBx98sA2pkhYAxjAygGXJJZe0uXYrr7yyWbUAsccdd5zx3X777U0PDHXSflLfsaw5WEEm/DjKA3iCJzrC8SwAoEwHwaIHAGU4+5JLLgnHHHOMyQTQBbjxLHG0Y7h5teG88wacwRdAhdy7az4k9K6fI4880qx255xzTqipqQkffvihtdMA7MUWW8x+gLi//e1v4eyzzw7QMdcPCx18Aee0kciCnOgYIAl/2i8spDwrnu3qq68ePtZcTAA0ABirI8PEWEqxJgIseXd4ZvDE+unzP5GZPCkvoPCDDz6w54o+AYE48psRXB6UVcqc60IiY1teJ6IXYY7WCAB7BWcB5FZwakdq0RqJjFDJM8gnqUWsgFphaR5ZeHaTRBS8mUS1n3mSt9PjAxy59TFL2AhuknJVCoKfCjHxVzWaAoDLLrucmfBpUAEzDG3SCVBRaOAAMpjzh+tLtYUqbDc1EJxn+4pM9s+rUerRq2dYTjxI870aP4Y+hmqYg9MuZppp5tC+fbuw8iqrhMWWWCKMFqjxDgbdP/LIo+HH778LLQWsaHg4A/eZp58O77w9IIwSwKKR6qU5OlR0BzqPP/pYeFdWgLF0AGo4NlA8ctG40IBDRyNH401DRePxrb4uJ0yYGOZsN5fNNWH4xEHgR6J56403Ld2iiy0altLcHxpEvpqHaCiojaygq66yqnUg/VS2T9Q4zanGaBUNTdGAYTF48NV+4j8+dOzUKaymBgxdtlX+n6tTe/CBB8KnH38SxisegLbc8suFVcRvomQcb8PwybwfhobekjUE/SwuXdHQkdftt92ml7NJ2P/AA0wuwPyvE5IKR1ln0rMEeNKYPyvdjZClAfC3mIZ06DhpFHne0Jau1EBDNED9AZjRsTJxHyDi9Za5XzgHUh4+Kb4OPACTvJfXXXddVmfhRefPlY6bugv4owNnaJKhWcKxCmGZAxQAAhnCxFpE+4AfB4jCYTXCqsVH2+4CNIAs+Lu81HE+snAAKtoaAClhCyywgIEI2hQcdefcc8+1oeEhQ4ZkIIr2EWCCow7SHmANdDCFNQ0r1Prrr280WD4ZdsYaCIBheJvhYxxyoSPypP3AAQrdcsaCDSx1gE/AMNY+dIlFlCFbHCcLISsglDaOfHh2AFe3/Hk7QFnj8nk50B80MQBEJ8iE1a+mpsZkgqevqkV20pEvaXkmd9xxh4UxHO/g30Eu+uAjAtk22GADk525mAD/G264wYA0umQKAM8C2ZiCAPjmI4G2EufPnLIgixshsCRCy/NGdmT1988SzgB/9BgSAGXXBO8YxMmVvdInpBRpLFgoSZ4jJ1BReVooqoA9Y10dGMoCWGFRESHNqmrGSVxGm93UkTnBDeGT0hnSrIcessbkrBHQG4K1icaPhsmBAhWFCk2lTX5Nwjln/DO8piELvtL6qsE658wzw3333qPG7otQ07mzQNUytjjh0YcfMuBEw0MePOU55mgtK1hrnW27ZzjksEOt8bD8FXe+GtUXnn82rLzSytbQ//tf54Qn1MAjCzTIct01V4drNUm4WfNZwl+POzY8r+EI4pFx3C/jwoYbbRguuPSy0CwFOaRjqxRk7HPbrWHYl8PCyFHJKjcaAlY39+i1QThGX+F0IDSifz3+2PDtN9+G7j17hmvVANGYDFLnc8gB++m+Teijr0yA4fHHHhP668t1r733CWtrLgoN2B233xbOOO10e6XP0NcvAHmiOoZrr746XHbxhWoUvzcQTUPOly8N26qrrR5O1DAJX880mjRwL6hc8OcIuIsuvsQ6lMMPOTh8/NHQsJIA9MECgL/KkmmAXrpDN82aNjOLZXs9lxuvv1bpjws/jxodOi+8ULjptj6ma298G9P7W5Zl2mmA+sM7A6DBmsJQIpP0qTs4rFY44nmfoacuNtTxMUK9wQFA8NNR8wEDT6xBDItSLwF/1HX8zK0DOAAQ+DHfrrPaHqxvpN9LCzpwzrumpsbAFXGAIebDAZQAMoAvyuNzEd06iKWLDy9Aow9/whPg1Ukfd9dff70NPWLtwlF+BxbwoCyE0f5RtwEhDD9zxQFeALU91c7gmMcIX5zVZ+kF3TuIJcxlw4II2OODcxW1B1jDAMnMXWT+HeCHspMesAdwBxgTTlmcp7cH6Nt15c8ROaDjh97c4YfGZYUHaeOyc4/lFbrDDjvMQD7Pl7S8IzjucVj3eF60ewzl4rBuMmx/xhlnhGOPPdbCvH3kHUCH6JX2Ejng6fnzPHHoinDaeMAqchLHM/e8jXCG+AMo818KmNJLpbamd7qkUalmKr4KLVEJYSXWFakQReVpE/patAqoDAFH6blNiGuzsfBanJzemaRX0VUhtcgsPLtJ0uBNDOO18065NroLdZJ2u03rNlYRqSRUaoCKNyI0Hgy/8kXeRg0wFq5L9VV7ycUXqZLNbY0EFYth0wv/fW74QWBykUUWDut376Gh2jm1QnWYWbV+1ZDp2Wecrgo6q0DgYVaJAUI0wDRSs7acNRx/zNHhMX058iVOpUUO8mXezHkaUhgha8R/BcQAochHA9Vq3lZmDVjn9jvC/gcdEL784ktrZI/S1/FNN1xvw9EdO3UMq6y+mpXtjf6vh6/UgN52y8025HTpf/5jQw5bbdM73NXn9vDhkMGyBr4R1um2Xugua8O6Gvp5QhbH1/q9Zm83ls2FNZF75912Dc3V0GHxfO6ZZ2XZmyMsuVSXsLkmoNMAXaotJM5SQza3dISjoaNx+u7b76yzfPKJx8OH+qK9RV/JlHGcOj7KjC6aC+gOHvRBuPzy/+g6yBoujoRzxzNj6JtnxTOD9yN9HxI4Pj40V1gHyXeLJlF31iR2voz9mU5OJ+15ldcZTwP+nvDe4JjTxeIFFgow3AgY4h2no8c5vXka8Id67ZY32g5AEw7wB7gB1DCUy1w+FgownNi1a1cDVNBRT7AWXq0PLEAMc8dIh8UJQOByM/cOEMDwLXXPQRjxyA+ogAegCh7Mp6O9Y0gR5xYz7uEDGOHcbuJJj8NC6lY0LxcyUBbmAfKB+c033xiQPeuss2xYFnDEByYyU44HNEKAIx3lYfEJcyAZNmUrGuo47vTTTzfdYBGjjeTH/EDmLfIRz4gGK2wZ6mRYmiFqgB/tJyMhMaCDH2DKQS5g2x1lw08ZcOgBnSMfQ6+AaPImPe0wjjgflmZe5tZbbx2Yo8koCul5htDwzqAnrILoGqDWpUsX4wV4xKKHThg+hp5RoeWXX97Kg97QIR8B6C9e2OHPg7zQK4t00N8hhxxiPHgXKAPOZTZPI/7DK5q8pVzdbJAU2MMzXxpQQT/pHX1NTkcVX4UWgoSwEuuJFKKoPK1GDzae/9CTk0REJSg1IcuTGsPaXAtCiUVKkydNeGf8bby7EpaFK39rxH7V0GiLJmGFHdqEps1TOdILc76YHza5jZ2r4Y++IjcVisaPL8O7rLFM9uD6TPN6ntJE3Ec1zNtXc1e4/6+GLdhkeGmtYKORuEOThb+QtY8K9ormV9R0Xihs9ZfeYbsdd9AQ8rJqXBdR5W4ROs43fzjtH6eHbdQA9ezV0wDRLC1mlZXvudBKX9VDBg8KW2y1ZdJ5SLd9br0tfPHZp2qMx9pw62ZbbBmOU+O3hb5qBw8eYgCIr2a+lD/Qbzd9NR4joLNG17U0BP2y5tL9FGSntHl+3QTayONWfemfK0tiu7nbhbm1mOUCWdN23mVXNRzdQ4+evTRn6A0bimYY4Rd1AptusrEa2TGyPD4uACtLw5xzhbW0Am2WFs017D1CoPSR0EId1TfffB2eeerpsK4ape223yHMJgD7/LPPyUJ5jRq1CbJEbhy222GH0FfDU3/764kG/pjrt/Emm4aTTz0lbN17Gw3/Lq8h8n6yPjSXZfLL8LVWp22y+WY2Z/IdNdT3asJ2SzVUb6ohHzF8hIa/NzKePWQxWGyJJTXE+1Top/Q05ouqU+79l61tGP4w7avG88XyeZFW5XWRtZIGGSsHDe70+t7+0fVmWuTPs2ilD6Hp4ZnQsQLQumnuHVuiYB3jPZvcTpSy8uO9JW1NTY3xQr/4ieNdBehhdWQuG20NYIBVnyeffLLlS3oAIitEserh4AUNQIJ33QEltKzmZUoKFifABPG0gZQBQAB4czCKJY0hW0AKwJQhR1aYMoyMXMwrgx/z7dADc/sAbNwDiCgDfix1ADfmwwHEkJV5cTh0yPA3YJq8z9QoBVZO5HELFeAIwMZcPgAMAIg0lAeAhwURgMgZ4qRlzhzzA+G3g9ofACIrlfmYZHiZMAARw+h8LPJM0QGgmOFoZEf3DEdj+eR5AMawMqJLa1d0BZwxbw8gzBY5gDBo4EXZ+TCHhmFo7pEJHWMx5pmSL3Q8A8qC/Fj9avT8yAM+hLFqmmdFGLLwLvCM2N+P4WLKDi0GBEA9gBm+yEoY7wXlJB3y4hgu5yOGdwRa/1lkI/uj4oUJ4/4Xnrv+6zB+rHSuKUO1prYpSP9Tx121n8dXoSWTXJpqtIQV6RJ/k0tWH1QXtjNOoNfarq5x5gz/1UpSVyY59vJQHnbXaNF6prDX/TVhllb6soEIeeV+GTc+fM8XjwhzaZPoP/dfyqeXgAaVSs9Gwjtsu40aDG0mKsmHCyj4vD9A32xqxAAuB6vxOfNf59r8ub123y0MUGM4c7OmYZGFFw0XaJIxjQ+OL2m+5pjT1kFgjZXGI34alTQ0szQXeGoWeumrDRDXQo3rNRq+YQiUSr2HvibffON1q7xLLNkl3Ko5IDSEbeeYPTwqQLa9LHPMt8Psv61A14WyPP404qcwj+bynXHW2bKynS76WdQQrRyuvelmGxLeeYftBRbfU/kmhKs0pLCVANY3P/xojU4bWeref/+DsIEA1fhfxhrY66MVfh3VCO6idC9pu4FF1MDdJGA6b4d5A/N9tuu9tX2Fm7VBgO1fmku03Q47GkA+VEO09wu0dVADd4mGerqrnLvstHN4/LFHbe/ENdbqGm6+tY81Zmy7005W1PsffDDslc5NAlxffd31YaMNemk7hcs0FK3VjnPPpYUvo8IJmsO0uzouFqKwJQ/5n66Vdlf85zLNHRwX9tGX//4HHRzWV+eHlfZngegL1IFtraEhhvR51nzF09iV7s+jAZ7HPHPNOd08Fzput3KhRbf8TSuNkh+dPyDBnYMG/A4kPK7o9/D4Cg0/AEU15zxoI8mbjyeAE+DiyiuvNIsY9c/p4BHfO0/qG+CExRQAJaxQfGj+RyMNrIYFNDqN84jl4h43qTrrdC5Dkd7DjZn+FP0ePi2uDtwawtvLUZTf0xJffBfwQ19XGtJOiq/zb2xXXh+a+7EjJ4bT13sr/Dxcu280VQDDm3V2A8k7Z7oQTZ1kmbIq9FVpc4HVadOj4HKUxj59/7Os/KbCRiGRJ7p1UrvWzaeQpxgYbRac3eT4NU6PGsQmM+sLc0UNZybzNKhcNPA/as7NAgtqsq8aRBpNGmBWk47XnLuDDj3EvgA/+eRjfXElK+v4+gJw3H/f/bJIPW/WLRZ8sDhj6WWSRRU0jCxOGDlylHhWVr/Cnw5mLzWWDAljkaQhbj9Pe/uSw/JK+F6a8/OL8h+uYc1Z1RgvpMaZTgKr1yjxtK/2QYNtaJdnyhcwQ7SAypmayE44s7YIEK9mzZqHGn2hDh36ka18fn/ge2G5LkuG9TRszeRhhnmfevIJsxousOACYS0BrHsEEinj/Pq67qpVbDQ+gwcPCq/rC5P7FVZcSV/drF771EAjZZqg+Xp77LW3NWAAMr6uh37yqVkXAcCvvfqKzcHs/1r/sLEAIB0DZcDyt84664YDtB0EwxwszAFk8zVNXm7F+OLzz8OB++4ncDra8jjqmGNDb1kcvpJlESsiOq2rw2uc73NZqmmhAd65qQn6eH+p30WefERSx6jTvLe887RH3GPZcUd6wt1iBi86fPc7He8/dQoH32r5eVrSezx8sF5h2WOVLQ4LGfJABy90QntGHsjrYNXrJosZsAIy/w++zGsD/CE3aX3IlTj4uSMOGs8LWbxs9pGtsuMIdzmqlRM+fFxSPmjxu17hhz+WHd6UB10TT5ync9ngBU/oiItpkNnzggd06ALn9M7Hr6SHlnK4TMV3Azmhid8FngXh/mzh7+njcri8pEdeaKCdYVy69QuQLsFJtdFSgnYizAMeyhRUuQMVVqgqdxGFUqU+XSoU6Z0uMa3e+AoJMXFkln+FZRIUEVVuIz7QVyJiNnn+EU10m6OfUTxUiDM1XLqw5u2xV51XRipLcwElrHQAkP+pghPGli0tNKRLhZxttpbWMFLZAYcn/+2kcMvNN9regOiPfQbHj58QHpbFq7mGPFtrMQjbqVAhefxJpU3AJcPHbQXYJqjRYFsWKiyWPeShogPmGHKloQFoEj6LQCuNGpsjM8eBrWeYk4PMrCZmm5YD999XsicbPyOTbU8jOtLPISsjc3++/177UYkvq41v04RkhqkffuBBWdI0D0W8f9SwsL43TV4ALEPoS2qVLquRv9P8HuRiOJzGfLTAGNvW4LAYzDVnO7tHZmSl8aKsDLtgMcWi/MMP3xsNLy8NG/MlmVNIXgowPjSMpn+B2PHjx4XWGtp++umnrREmX+YJva9VkqNUfuYLQm96TjiXf0sN/CYN8O654x39LY56wK/oeI/dkUcM+jycK3U3dnV16kkbUpk7G6fhnvziPON45rDx83IjbzV5yCN21G/SUN99vzriabf4USf5FcsQ8yCe9EVXl6x1lRNZqjl/frHsMW/iY7/zQGafR0dYTIPMMb+68nZeXGN6l6nau1HXuxA/d08fy1SUN857RrinxtpPf6i+9GFFl+wCA1XeJZQRPTwyksodLCtUlbuIQqkqiZ0iqcGV8Ix1cuOINUkbR+YZpzF18omELiQseMUoyZNNCmc010KAZDYseVIKlYaGyitUcp/okRcIQISjohIH8GirffbYDf6Kyy+zlXrdNAx6gubAtdcQKkDkow+HhJNOOD4MkzULAMmXmWlZDQ3DxeQFL1YkE048W7YkjW9i6iceMIQj3k7hiB6icTL5m5lFkHxpDHbdbQ9Zw1pmYAiepMeyCQ3gdQmBuR81RMwcEba0+fDDITZ5mbk2LFp54bnnbfsYtr4ZonlBrEJeURY/ViuzYndZzdFZU0O9LLig4aZhQlSGaX8Zp69wzS0AxCKPfcVPSPYKNB2LMOtYkuJZGZHNGjjJS1r87lgJzHMCiC6yyKJqlFvavKB77rozrKT5R1hKGTKHL2X1Z+npy2upgcnVwNR+h6iHRZ7FsKT+J5LGtB7uYUV/XDaPI8zpPT6O8zCnoc7xy+qmCJweGu7jq6f3cAARVj6utF2AHQcszsfTeJ7u5+o0cR4e5nSebnLDPT3pYh5+7/nHfg/ztMTF6T3e09Qlk6d3eq6exuOKfGPamN7ziNPHaT3e+cZp47DGe0+H4r+kD/e/WZnVZ/4RwFD7AEa9XSZNJF7UuRNd8CYpFFg13OhT/hFBdJukT/9aOH/qIshRNw4PlcZ/gDAqS/yjlHHFsnupFIsVzisXw68s4HhKq1r5OmQrlmOPPyEso8nAWLZmnbWFbYvCpOJPtScewNEbQjFJZBC/mTRHEdbwpdH0/BIZkmEAy1d/krhEjiYa2sUBiJhjN//889kq4O+++0aWwNFhe03YXn+9buHLr7426xv8scxB21ryAqxGjBytMvxs9xtpQcg999wdPvv4E63ufVqWxzltC4rNttwiLLP0MuEorax7Z8A7Ku8TAl3vW1m69+hlq9mGafVZO82BXGCB+WVZHCYL3s86b/Sx0F0Tmn8erZNLZDUl/uOhH2mT21escwGALqmJyTjKgg4on3ccvJKZPowq8QOW52w7Zzj3/As0j7Ft2EJy89V9rlbbrbbGmpp/tKiBc/RCGRM9pgzKS6mBP1gD1d7HYljR7yIXw4t+p+M6pXG0UVk7lTKMefm9Xz1P93OlnanmnKZanIfFNH7vV6fx6+SGV0tX5FH0k6YYVp+/GOd5xte6aKqFT0lYtTRx/o39Xl0EXaz9ZDNQ302Jk34zLjt9jKjiIPNOS2BYayYu2SOsyRHJ4kGJ4BI+Hde2Y0kydEuhkp8ghfhAl/KqzVIhiXPleNmjbJ2kUVwBePFzx49lyH+J4uspqpJjMYOeIV1AlFcuFpcAMBi6JQwLFytbsZy1ajW7rSZ74P77wwBttcDXNF/FACUDkKK3tClvhmqNLw+Gx6kLebLCdryulm8qpkWLzmTSAh0SsBUNq8jWFeD7ScOwyHDaySdr3t0ntmJN2dnw8jVXXxU2kqXvIO3cf6/mLJIRwBTZlllmOa0iW1GLZmayldLXX3u1AbAe3XuGzTbf0oBe/9f6hTO1Az5lZYXyhhtvZJZEZKfT2GSzzYxXe8Vdc+VVmgB+hQ2ns2cfm04fdcT/GSAcJ7lZxcbO+KN1byBWcxwTnVQsfmmRTTdYJZo2ndkW5mwuULramqsb4Dxc+5dhgQTIHnf0kVqxPsb4xM/K+ZTXUgOlBurXAPXG2qj6yeqNdR5+rZe4jCw1MNU1QC+Z/ABzhpnUp9K9Fn9OF18NS4mDyCs/84hnisP8WpU2K09FDuiRI53EIQ9E9iejtptaQWlArfA0mYUXIgteUSJ41eyyzClIY3MJqKqUigURzLObqelMmivHhFpN/K32ECpJZF2aVYBKq+C0nGhmzUNjGBLLFICEEy+WXmrZ8MIzz2mfwI7hlJNPsoUYc8rq1+/Vl8Od2l8PWoZ/22gxxzVXXW1WQZbqA3pmkyUOAAaNNbogNb2hyD2rQNxYWesAj1aOVCbomHfIkCvPmXlvLO5gL6xDteT/hedfsLl8Q2Vt23v33cNWvf9iIJAtVB7RVjcMn779xlthA20IDWhjcQlDNeTD9gFPan7faA1v/zRieFhe2wosrwnhlK1Hj57at+t+kxvwue7669kQMkOuWEBZPPMXbffCdjqP9H3YNiw97ZS/axud27SPYuvw3sD3bJ4i5Wau4DGyls6uuYisvmaYiPJSHp/LQpmprDgrp8rYIh2uty80PYfhP44Ie2pvticffzy8qu0lODHh2quuCsdpRfHn2heRMiFrrL+EY/m31ECpgWoamBp1ZWrwqCZbGVZqoCEaoL+If6SpZtUj3Ppdbgqu2jucdEfJ34xc3mq8wYmJFBml3Ux6CLiQrpBdxs2sfZkvualKq8Cq4Uri4dbRuqfAc3r2GlgSuDKnB8KctO+0KnXsL2O0LUu6T1wKfKs9cNIxnMs+ePBKVm8l1juACosuOKbs9df7hX6vvGoLMI484vAMJG259VZmPTtCq4d5H77RwouxGjYG9HFc3LdaSMGqYMAkljfyQA4AGRsnf6+8mfOHPwHxihcdc+zYZBX3Q4fvDJgyHM3Q6OWyvB195P/p1I5+tqLvGQ3nkgfWNeby1XTuHE49/Z+hp/aV4pQBwJeiDEB279krdOjYKXz88Yey5P0c/rLNdgbkKHfv7bYNt+l0EcowUfMUt91ue7NO2vZAqdzg1/O0Vczxx7UQEHzIgO2rr7xsebOlCzpoIxnP02kC3bXy+JtvvzHLJYtW0AXDuwBPdJDoIqmg5OE0LMoZNVrnGWuLHcA71tNTTvtH2FobUX8nfmdo09jFFl9S5esloPlTWr5yKNhelvLPH64B3mt3dbU5Hl/f1duK+mgac9zklj/WO3op6n5y+TVm3U73ZYusdFQ3+h0z9HBTcNXAGyTF98WTFd8bo7XISr12bzXe+WVcoswlS2Cjp7dr8U/UfmRROR6EpgG1wtMUWbgpKlGQ/82YNoKbCpBIVpgyNLu5Nj1lWBdLVKvZ2eU9AQdxAxA//PUFirpoDhwgrH37eTKLEryxXmHNu+7Gm2Tduyq8/OLLtmq4rfY620jWtF4bbhBaynoI0On7wENhfm3BMlvL2QwQrdeju/YTXMwaorlkMQQEAgzZeHuWFrOEjbWH3xiBMKxrs8oKiZy2HY3AWHvtvde797b2yDpp3h1psOYxDLpgzYLhZp2h+4DOm3xaO/xzzBvAdy5t8rziyivZZtTzzNPBtonhRA+AIfkyrMuK48M11+9RWfCI20r76klAW8G84korh4MPPczO+F1sMc7aXdpWPfvKW3hwqgdnG19y2X9sP8CHtKKYkwQmSnascStq89VtdMrBgjU1dkQdIJq5gAt2Xij8ZdvtQhO93CuIxnWBzo2vytxF+fXeRmWWW26FlWwombl/gPBFNJwMCHzwwQdC05ma2pF13TQc7pbVapW2EbzeZRGmQw0U38W43Zmc4hT5NDTtlObXUP6/F93klr8afayLavG/V1nKfKaeBhzbcPVfwl1wzCOj7KYKMBSwrAb2kuzymTa5cNWPLCQXHHmi20hMEGnOa55aQSmArBWeJrXwOJJ7GciED8Ks2gh63wfna1wbQRdUBiAAUHllZ9gUAOT+Arl5OWGDLVRQ1c/pMUFmrRM4gZ8DKHaHHykwwn57bCiNZW2Uhjp5webQ8C/hpAM0mjVOfJsKNOGYg2dWQIEtHPKwdx5XGilADlukMJsVCxhgr2VLjvfRNi/ys1myp0vKE3QGcVuzFFJGhq1bCniSZqROEMGiB4+47ORFHrPpaDq2a+F9Y2sXrI3E8Ut0MbNAcLKa1zKN/hgPyQMg5fxS5GN7GvJh6B3dIw9zFsmfsvEDCBKPIz/0AS+c8wRAuhWRbWLYVoc4fs7f4xn2JR9fuGOMyj9/uAZ4VtPTRtBTW2G867yrfNigCz5CuU6ugwe8SD+jOuo4H4cN0R+6gp4rjna7qDviCedXuulPAzxaqtIYbQR96toDk42gmzGaloQncLB6uarXQBjWpq8SlBIl71acolrVbnJBCgDVN+ZcwZvEKbCuuXkZfXZTdxHT9z6XHx5T2gwEAGkAABjusF5NqgEBmAG6cOwLWGwgSM/5tOM0l87jsTDSyGNFw40TYMF6hyM9acZr8QPpcJ7OPPpjcirf5AElCyxiOeENkMQRTjlwpHP5sOgBgOCNo9OgkQOY0nDCo+jgZQBVdNSmolzoDpmbaBNthmCrOXjww7KHA+jh9/zx0/jG+WPdnKBFNjjkd5ktgD+qdRPHTxSPlEbyxw04/HlODJdTHeBBOb3Bz/iUN3+oBnhO0xsAjN8h5J+ajjrBz99V+JNfnI/7/Votf4/zq9O4nysOvtQT6gdtAC6mifON44ywCm3M12nidM7b49wfp/N7aIrlj+mLsjlPrs6jmD6mKd5b+yg90B4VXV38GhoOP5e3oWUoylD6J08DvOJUTweAo9OTQOjm4mprNThXjSMAVcgyR5bFkVHmyW6qBKVxef7a+tvTJEkyrwdzVWDV8CQqoYwIotskLv2b1nv58uLl6OUx02g0/Jxj0og8VEq3NFEsGt9JuXhjT0CLNwKejjDn6/EOLJ0/p4I4Hen5MczrjYSnc57GT2ncOR/303h7w8WztL0BdSWdy4fFzPPiCj0dDXnBz/N2nlyNTjQOXItyUQ53RZk83PMkf5zzqC//mbWlDgtZcKQnTc6pkADO5k2q00BP2bxMVXnkGJaeUgOT1gDvkb9Tk6aum8L5sIk8x6NxpV3huDWvp56PX52b+7lS56j7X3zxhVnJOXKNd98/+py2WloP83bD/Z7Grx7OtRjm/uI1ThOnczqPd79fY9oiTRwX0xNOmQcOHBg6d+6cbTnjNH6FzvXOaMDHH39s4BcdttdG/ZzZSzwfxXxMsvcpoxbEEV5NpzHvhtwjg9P5lbDSTVsNYDRLDGd53AOqMuxjf1yGhMb+5shTWifLrjJw5NInEUadS5+EizpLyY1s9klALR5pQK3wNLmF5yIpZBWnwKrhIs2F44FW4tDd5uKqsG0sQVR4dw2plJOidx7Q+T0NlDc+5OVxZklMP0diAOXpXC5P4/5ivDdcdcXH6T1tLJOHefr4Wp9ck9JFzMdpPa/68m9Iedy653k4X/zcx3J7mNOW11IDU6oBLEW8uwAvPjImx3kbgNWNtP369bOV9mussYaBEY47PPnkk8P2229vc3ABIn5MGNMieKfJ363d3DM15DSdi/2KVr2/8cYbRs/7z486Rz5OD9BEbq9f7M93/fXXh5W1afpSSy1l/L3eUEa3nFNG/M4PPzy8HMjoYVyR1ctKnKeDHqDrshFOHtByBYwS5jJAR76kgYZRBMrifByUMa1k9dVXD//VMZW9evWyKTKehvTwpdykB2A/rJ0JON94fW3UDxhkignTUa6++mo7po4ycPrJlpoffroWkXEeMkdwIhdyOG9k5YdMxKFrZEI+8iXP+PkRxjNDnmIZyLN000gDjm3AN7ksEuyVh2QQ/H7A0CZt5IRKPcmlmmgmX64YufQeo8Cq4XHyHEECICs5Vu6cZWO80shMjmsofZEu9mf3Ud5ZWB3CTIv4SfFElPpo6osrFqMabbUwT1dfnNFId/U9uUmm94zKa6mBBmqAzh9w445On05+ch1AAAfwqKmpCY8++qjVs1tvvTUcdNBBYT1tmD6PFnZB55Zz8uadjo9GcwDE+bqAO5yDHe4BJKTzn/MiztPeeOONGehxUEJ80ZG38/O65X6uRRfTeDxACVlw3PNz5zLWFQ6dy08ZYwc4wwKItQ4Xz+vG7/r2qy0U02lHj+kEI05wQj5A9Nprr21noGMNfOSRR2y7LNJjCURfLi+yUj7kcFn8Shx0Xv44DTz8+UHvZXZa8ird1NeAWwC55q11ybtof3OdSeLJBZlYUx8YzoRQZgW0FbiJqTILi3SBkFZ3EpmzmILXUB90SXjKO83DFeGbFibWR88zY2nUllclqLwrNVBqoNTADKsBOmsA3w033BAOOOAAAwiAPwcVU6IYOn4sSPAGwGGVYhcBVsrffffd4Radx3300UeH1VZbzWgY6t19993DRhttFA499NBs66cndBpPnz59TAT4nHjiidpWqXvYZpttwuDBgw2MICfWLPb2JPzNN9+0Yytff/31cPbZZ4d//etfZtm6+OKLw7rrrhu23XZbsyh6uZ555plw3HHHGS+sWvA7WBvIYx275557DDxttdVW4cknn7QkbhV8Rxvf77LLLgErJ/ReVgDXvffeG/6inQV69uwZnn/+eeN90UUXBUDpCSecoI3oVzCrHHrCcnbMMceEddZZJ+y///62iT4Zuf4vuOACs/x9/vnn4aSTTgo33XRT6NatW9h1113tOEhoydud3wPEeK6nnHKKWRHJF3eVdnF47bXX7P6uu+4yayBlOO+880xOynXmmWeaBZUN7PfW/qPfaksxZCUd5cKCePjhh1sawD5bde2xxx72DPbZJzmmEnqXxTIr/0xTDfjoJm9ChodAPCn+Sq4WqeeS4KiEtkDvuC2V1migz3481zz+SvBWnmeynJTUcukl8aR/nWE+0kFbATwqwwp4JC5x8LV33248tCJIJSSh0yLR0pUaKDVQamCG1oB3zIAZOuojdcrMbrvtZgBlww03DFdccYVZhhzsOH1DlQY9ViGuDCtyjjggAeDz1ltvhcMOO8zmBR577LE2fNm7d287ceeaa64xwLidtlDC9e/fX5uyP2D3x2vTc3gACgEhBx54oIX/7W9/C/dpKyjy2Hzzzc3ytZK2WALErrnmmtpGqreBt3//+9/hoYceCvvuu6+BLkusP0suuaQNsTLMjMUMkMZG61gNDznkEO0JelsgbwdkhOMYml588cVNngEDBgSAGpY8ysCQ7T91khBAbaeddjJ6gCnACpALKAVAMR+P4dmXX345PKvzx7HUAQhx5AeAu1+nLLGpPe4cHQMJ8GV4+2vtU/rXv/7VwrH24dA3zxMXg3iGhF999VULR3+APNxLL70U9txzTwP/52tfU8KxMiI7w/aAzY81p/Af//iH0aM79En4008/bfM8oUfvc+qwAMpOvgB+HB8BpZt2GkhO/kgBWQ6UJXk6LKpcIxw1SWBYwGJFYCimYK/KL5UjpSsMAUegDWmquFxw6smFRWksvEpkAhLzhE6b1gtFVmSJKMvbUgOlBkoNzBAaACQAMAA8gCoAhQMHFAAApLP3Yb44rj4F+fArQGjQoEE25As4wRp18803W1LmtQEYsHbhGJIE9ABuAAwAufnnn9+sTh06dLA5atBhrcLKBEBjztvQoUMDwKtv377h3HPPDTU1NTa8TN4MhXI2eY8ePSycMgKmAFtY7ZKtm5KhaoakAUiAF6x0V155pVkhOQKS8hCOLqADYDG/kOtee+1lYJOhz2WWWcYsj8hJWRnuBhxidSM9oI05jYBrQB4OqyLgEusbQJByYFnz84UdwOHnOZAnesFCijV1v/32Cxdqo3lcXc+p2nNjGy9AGw5Ail6gQ9foE0tk586dDaQD3gGIvB/ultMZ8KRHv8gLWMZayjMAHPP80AfWQuZg8hHBexaDU+dVXqeeBhznJBwrGMfuMm8CmmpDp4TA/uYiI/qMR0SbEz+lTdNXhoAdcCkCtFh0BGXBkScLSxElwM1Mm45ci+GeDxmkfCo8KrlWC6vElnelBkoNlBpo/BpwcACAARTQQbsDYODc6uXhk7o6PYAOsAKQZAgXSxPDrzho2IjdHaf0YD3CYXUCQAHiOPcacOIWMeTlHHCAEQ7w1LFjRwN7yAt4dFpAB37AJ+VaddVVzWrF3LguXbpkYNTLjFULwPL222/b/EWsdIA/hquZgwfowUKGDPDkCiBlOBrrIGl9DiU8ScuQNfeUh3vK7QAZ+ZGZYV0Wd5x66qlmdVt22WWz4WkHZp6W9JTLt50C5FazsPkzcEsleWFdXH755bm18rll9+STT7Zh27POOstWXAPUyJd4tyqiU2TAAdyxXDJkzXxCyg8A9DmKAG3KyPvE88O5POYp/0xVDRgeSnFRYtgCnGW4TvkvAABAAElEQVRIzfKiVlO1k19ipbMh3Cm2GMLQ+dltCrcSfOZyVHaZdGITp/LHhc+NUaeFSSx5lcJ4ASynCgvHeUmIlVS35JdcUsqETy6/NKa8lBooNVBqYEbTAMAEEANIwJrD3DIcnT2A0OeLuV4cKLl/Ulc6fSxXSyyxhAEF6B2QABAcgBDWtWtXsxa+//77BvCYM8e8skW0mAHgASDBLbTQQgaydtxxx7C75gsCQABRCyywgA0TYwUDEAEoKQN5YMGinPBjNTDDqcz3Yw4izsEkQAY+rJBlHiEABoDF9jUsYMEyyLw+TwMIQ2dYvViogtWMPHDocNiwYQZiGcIGCAHsWJWLbDhke1pDqOSL20LHOwLSVtR55Awf4yg7unLQSDm4p0w4v5on+uPWQPQGDcO5zz33nM0FhAw+AHD0zdD54zpf/O9//3uoqakxcIlOoAGE4wC2+HHMq2RYndXcDGPjWKUMcGf4uFOnTjbUzPA0ZcE5MHYeFlj+mToacKAD5ol/EY4qYinP2JJmaSYHGKaGOAOaei/cIGcMK3LIZg1hbZeFZTcJTcGbBVYLTwqV8o4IotssYwvTn2QPwCy4vCk1UGqg1MAMqQHvjLFOAdaYuI+V7N133w1M/AcMEe5gwukbqiyACukBIYAy+GBdwhHn/ABF5MVcQIAdYJC5dQ4uAFU+XMkiBeRkHp8P8TIXDRDGsC5z1QBeWNQYJmW+IXMJmcfHMCt5YAXDWucAF3ACCEUPWLfuvPNOkwM5v/vuOxvKXVTHLwJuGAbGUSYAJqCOYetVVlnFeLqFDdDF0CzACoujz9NDB6yKBoA+paMrGSYFSDG8ijWTvQ6HDx9uQ67kAwBDh7G+uHfnlkb8Ho5cADvKwlA7QBV5mfcHfxw0WPcoF/dY9LDAolN07c+LvHHk4+8BwJEykQfvCkPa6IAFPcwh5fkBbLFoMswO0C2Hf02N0+SPG7WSa2T7Aw1GLvOlQN6jEliPL6NI7jJvhcLu7E8WGaWCR562yb9X+rRCSbycBRRC896UiQLz4VH6jFESVsVrETkdiFkT1R0OWGiho+AO7NuhUR8FV9FMeVdqoNTA760BAM70dBIInb5bfuj46fTdOjY5uiMdZQe4sXK0pqbGeBEGEIEnw4TQ+Zw6+BP/6aefGrBgAQfgB3DCAg/AF0OxgBbABAsmiAdwOTgCOGFtY9jZgQ70LHzAikf4J598YnPxsCwil4MrlxmLG6CPYWbC4I0li/ydr9MiM/xZQQyABUwxD44yAewAgFhA2cYFyyUAE5CKhQxwyrAy8xPRCfkwjIoVjaFmrJqeD1eALelcR8iOHgF4lNvBOnx8I2iskJQPYEf+HufzEAGILKIZMmSI6QSwjLykAQTyLLCwkg65sIhSVlZSP/jggxTfhqqxxAKoKR/D2ZRj6aWXDvPOO2+mXyMu/0w1DeiV0LuQnATytzUGh9EjVHebxkfB1c5K5KmrhqoUVSGIbxVRB72z86SWPk+bA4AWZWPOlZR58kpetcIrUbXkqU0rSRRYK5yAFAByFvCBfecpAWDlUZR3pQZKDUxFDdBZT08AkKIDAvnRmU8J+KumPgcy1eLiMKxw5AngcIscW7CwWpj5aVjKAFwAP3SLc0DJFUd68uMHHwd4Fhn9iWmi4Bzo8jw8njTwc70UeRCHIx0LHwBKWB2RDWAJqGLRCHPlGDIGIDvgQlZ3zicO87jJvSIj8mCF48qPLWGYu8jKaoCh65p8offyxXk5HwA9W8IgN+CQ+ZIsEGFFNmXk2eDgxc+thjGv8v63a0CPSc8SAPhrOHGNQWH0cH1YRQAwqR0QTTqvCkktxJQkrhAU2NVBn2ZJMgHAz3h3qrpccOrJhUWpLHxS4BF6EVbjkaSXQABAreA3APhICQAjFZe3pQZKDUxFDdDZTk8A0Dt5V0HR7+ENvZIeEFANUBCOK4IcwCeACd1h6WO7GGixTjnYgy/WLWh8bhm8PJz8ALAeBvghDDACfwc81cAJPPjFcpGvg1Pna8zTPBlihT/yIitpP/vsM9vSBhmJ48c9lk/yxSoIz3gOH37ygk+cP3kRThg8XA+EI2tRx4RRTtexl93LxlxAgB8WTWjgCXhDl+Th5a8rH8rLdjZYGpnf6XxISxrXL/mWbtpoQI9Yz61uAFhXrgmWI3FdFJXwCkkVRFWJtAQVb562ybkrfpYPEXkuwDzV5wnC2aJzCQrpM6Iq4cTJJcklotqceAj4oEfalxbAREXl31IDpQamsgboWKcnAEjx6fzdIf/v6cg7ztP9XB3keNjUkGtKeE1JGmStK11d4VOjfEUecV7c8ysCzWKaop/nQDoHd9zX9WyIi59nkVfpn3INSLUZAPzr6hoCxgLYrDIEnNTcSl2eVE4ZfQOqfEZbjWkhvfYBrITkxIk80W3GkgJWc7lg80w+eMzxqJZJGVZqoNRAqYEZUANTu8OeHBDgeZMGh9+HLt3yVo0mfkzV8iuGud95xem59/g4nDBctTTV4txi5zw8nVvc8BfzqcbH08e08T3xRb+HeVqu5OcyYD3FCukgzuk93tMV+eJ3C6HPL+S5uCXV03s69zu/8jqNNcArmoKb9G1NMqxAsBSNpUSROBl9ISoDexGPjDZKz62RFICbbQRNpCUqMC94IdPLbJf0TyXXXHDqyYVFySy8EImXX2WmRRoQpStvSw2UGig1UGpg6mlgSkBAnIbh0Gouponjq4UXw4r+OD331eKrhXm6anExuHI6rrHFrZiu6I/TxXHxPTRFf11hzi8eNvewhvBwGq4xDwd89fHyuPI69TUgO6uwjf8q/DPTWISFktsUV1Xg1WQBwyRZyjTikeOditHUAlNaF60aIeisQGbkubDIE90620mCR5OVhPpZer3IpSs1UGqg1ECpgT+nBgAXOAcff04pa0tVBEW1Kf64kKkhW/xcprdn88dpftrkbFUkxTVxDoDCau63AsO0RiasE4/dJ7kpIMrW9gGMhYjoMwa1whSThWU3Th5xTxnnrYZpYMyDIPjoZ/sVup9r6UoNlBooNVBq4E+pgekVXPyZ5Z4ask0NHn/KF266FMqtf7pGeCkDepQpgk1TBxhGGaU6S0KUURSVHwKOlSuiiC6NSaS08EJkwZvQK7BaeC4s9XCh4JUh4EgjsVyN+H5qfPlNa/VMDzJOax2U/EsNNBYNVKvP1cKmdnl/jzyKMs8oeRbLXfr/WA3k8E4kSg7oRUSTAwxztBGPHO8ISuXoJUsyBGxC5ZFhxCsT2cIKEQVvQqvAfHgEHKHIR2beSM6MT3IzY/xlXgqTkKel48uQhnBKHROKmUD9e7pJyTyp+IbIOjV4NCSf+mj+DDLUJ18Z1/g0wDtXdNXCijS/1f975FGUcUbJs1ju0v8HasC6Wvpc/0mWrMrlYFomZC406qpz4C3lkaPNOJBFlDB3myZMLzK46S4bd02wWURvLPFn49hRJgkdnJxHWkgrYRqeimK0xqjCoOC1CPKxX4VshrljRV0MzriP/SgiDrO4Ak0c74rzsP/9Lzn2yfnE8X7vccZbHk/r4Wz0Woxzf5FH/A56XMzPw5x3kY/TAjjrigMwx4DU02S8eZmquCJdMY9ivLMohrufK879Tl8trBotYZTF4+L05X2pgWmhAd552pyiYwVpXKeIn5rvJbzYB68+vlMjvyKPeO+9YpwJMxl/6kvvcdRn9tyryzldXfFleOPQQK0eiAD7OSis4CYAXS36VA1JHPFxOueVXqvRGs8kXRqd5i8LoOdWZ6aFzZ1hkKNNPbmwLJeUthBZ8QISU6fAX/WbKQvKbpyiUV/5Op199jl0LuQYa2x9NRrhNMZc/YciCIPGw7zB9iX/MZiwFW9Spzjoj/ip8Y2tjdzTGPFznrF/JqX5VXE4jlHieCPyIx354zx/l4craf5XsGjOLAsiKVy+mD7HRx5oTSblg8zcu8vyTvOfoIYW2U1v5P2rrJS8T5FV1WWFD3qCG/IhC6sZCaeTgAf8cfXJCT/XF7TowPUf68P0q3jy8vIg3MxNEr2TB3La9AeTvQSC6LN0tTXA+8N759faFA0P4b309zxOVW0FaVx3/D5OM6n7WF7Sez0p8nK6Yvik+MfxRR7u9zyhhb+Hx2kbch+ni+9JG/uz9qgQ7jS/pYwNkbOk+bNoAPClDbx5D3IiAeUil0VCHzkjKtBm0QXaLGGBPs2oEEqfAwNi8z83WWb56AbeEf/Mk4VFxPCEh1kXU94WFueTMqRf5zaVMeIyI9xKK2qMxo0fF/r2fdCOUjK/vszH/TLO/DQYgIQxsr6NTA8PJwxQxBc8Vjlv0KDB7wCERujn0T+bgt8e8HZ4XAeds7s9O8sTh+MrFf5N5Hd+v6QHlEM3fMSIMF55cRD5ZTo+CQDYVPtLseM88Vy9MQNAOQ9AmYeTDzKPFf3POmIJOuKQk/zH/DzGeEFnZdEbMVr5EXePjkXiiCNAmoMsZOGFGaCTCB5/5BE7+micLBdYL9DB//Q1QZlI7zKQp+sFHY2T3JSz1eyzh0fF443XX7d7ysMPGtOL5CQtvAijzLyrxn+cZJefH87vvZGHxtLEvMRngtKZDKkFBv9P2rmfMruMxrD8U2og0oC/y36NoiZ5yzuJ4z3GcYrHtddea/e8cx5/1VVXhQEDBmTh3Pi+clY30/bICPSHdJ6WMN55fu7gjd/rCPkeeeSRFk0diNPCH1rqX8wDYvxxWF35xjyg8fp04okn2rnD8OKYNy8LflzMG38sF37nQzp0GLctHk8cJ3DgnnzySTsnmXvaD5cFGni5TokvXePVANWOXwag/F69iGOiyjUhy2nD6BM85bjMrpY+Rxl5CrzTIeicDKKeCd6ZkycTNgtMbjK6VBh6Xxc6gW50iWlYNKTsbLL0BBiP7OIkdnWeBh5zMY3PkzRA0lraoDz+2OMCAKNDcx3500JnNrZp28YO7KaxaKsDwwfrUPA333gzLNBx3jBBYbPp7EoODscq96uGd/mab6dzLDnLkg1AvUFrOXsrO/HglzFj7VDxWQQA4a+MrVHiQHe+jgFsnCHZsWNH8W4pvu3DOwPeCQN10Pp8ugfYzT7H7CYvMnH4eHvl3aZNG2vQKMes4kX4PB062EHxv4ouKWeyO327du3CvDo0nXxoFLE2kH+79nOHuRQHLbxnbtrMytJu7rnD4A8GGfg0S5rKSUNqebdtG34WYPpIejHLogAsuuAHLTqAt+uBczAJIw901F4yYnlrqt9HH36kA9W/tnToAh7kDR/kIS28SDenDoLHukncbCoHB8Pzg2+7udtZOQDXpIMXOoIf94TBp6WeHWGUA/la6RndLaALP84khQ5+pSs14BqgvlAHcb8FPDiPfv36hXPOOcf48b454Dn99NNzQAkC6inxDnrqezeJ4/33escH4z777JPJ/uWXX4Z7773X8vWj1sgfB3/yIZyrhxMHzzjf+B5azzfmQTp0hXviiSfCoEGD7B5epIkdYe6Kcfip75QJ/dGO8OPey+nyOJ+hQ4eGR/RhifOPZHjwHKF1S2sxL5ehvDYWDUTYyDGSisbrZ69giocMFyk+w1EZLbgqwUs5jVggfXjhZ+lylJknw1fQKF2yChhGcskl3+mkUR4Z0dlt5Y8IM9pKaD4MYChXjY5wvhkNkdZFAFEjdNa4zDSzQFErAbMW4csvvgjff/edfaXSiHTv0cOscy8+/7w1OG3nmtNA2icff6zGbWwYOPC90Hubbcw6yAHiv06cENZaax0BkbnUaM0Unn/u+fDDjz8ofmRo07pNGP7jj6H/a/3DKqutao3qK6+8YgeHdxIwe+ON18PAdwcK6MwTll9h+dDv1ZetgZt9jtZhoYUXCkstvaw1XM3V+L2mDuT9999T2prQda217Mv3/fcGWuP29ltvhxVXWiksseSS1vgBfmgEn9c5l0M/HhpWXXXVsPzyK4R3BC6pBZSTxn799dcPswhsDf/hh3Dn7beHuQW4qBOANF4LKgwN7+OPPWaWvlH62p6t5WxWDu6ffOJJyfFT2HiTTcIP4jF61Miw1DLL2vDrwIHvCqC2DB0EvG69+eYwUY35SjoUvoOAII0xMjZv3kxA8Kvw8EMPmcWx61pdQ9u2c5pFZDbJxRmbs802a9hwo43Dd3pGX4v2B+lz+PAfQ88evcIdt9+BuKHbeusZmKMcD9x/nzq2CaFbt26hrYBi//79QyvJ8dbbbwV0vtbaa4eXXnopDPrgvfCgnh8yAcLHySrI8ys7iEZY6SezSA5AABAAHN5XBx6TySojhxcfGzh48QO88FHp4AQghrWderr44ourLrQ1P9a8ufWBhKNeA4Q4Pxc3fPhw48PHDe7DDz9Uu/KG1UdoqL98MJHfiy++GJZZZhlLCzAi7kfVp/feey8svfTS9oFEu4CsAEnKTlqcWw/5mARQff/995aefEdo1GLgwIGhS5cu9sEFPR9xfHRRbzkLOD6/GFm+/vprKxPtAPpGDsqLTigf5eIDkJEI9IGs6ARaZCeeD1zaiK5duxqIdf2iT84ZhhYZaGOQYUm1j9AQ7gASWUvXeDSgR1sF81RwVg7uQCxXiU31kBoDcrQWVYXeghLQmKaOGAIBK069C4TJL6JKOlvoYBblGt0mXBSQFBC2lV+OJ8CvHvBnWehPkwLzgjfJr5H+pfLTkNL40Dhcftmlang09KiG58brrrNGaMyY0WFmhc2sBunXib+Ga666Mrze/7XQToBwjIZ5r7j8cqWfyRrIiy68wADVk/rqfeyxR8NSSy0VPv3kY3tENFSP6cuUuX00Zg8LdDAs++6774Y+t90aFltscQNzNhzJ16oeRDMBI76kr7/6apOFA8sfevABgbwVwssvvRj+K+tVS1kNr1P8oEEfhE7zdwzXXXetNao0oDSWH3zwQfj6m68E/lYJt918qzXog95/P1yrIaf5dPD5O+8OCPfec4/RXnj++QaSWqjh/GrYMHVILWy4dnY17n0f7htefOH5sOgSi4ePh35sHQnD4TffeIM10Ast3NnA4+jRo8Jdd94ZxkuHNLD33nO3hs3Hh9tuvdksmUt2WTLcdcftYayG2mnA0es3X38T/iPdzztvB9Pffy691HT07NNPhzvv6BO6SI/9BXwfEUCkU7rs4os0j6JJ+PGH78MZ/zxdz2Ku8MnQj8J9yotG/zoNsc0ri23nzguFWwQ6cQ/ed68A7KNh0cUWC/fr/j11VOhn7JhfAuW1uZqiS+u8pSn/zLgaAJzQPgwePDhsttlmYaGFFgr77rtvNtTIuz0lDmDl1jHqKD8cIAtwhcNSt84664TzVR/XXHPN8PDDD1s71UMfpZ988onRnHDCCSaXefRn++23D0+rviAzUzdOO+208Pnnn4dddtnF+AHQKMvBBx8cGJaFP6CJto/8Nt1003C52rJN9BEH0KKe4WifNtxwQ2s38KODPffck1uTd6uttgpf6OMZy2b37t3DlVdeGTbeeOPwvD6cceiRchxzzDFhiy22sGFoeDNkS9nh50Pizz77rLWZAFHcmWeeGU466SQrU8+ePcNRRx0V9t9//7Djjjta2Keffhq23HLLcPzxxwd007dvXwOegE0c1seNNtrI2hJA79Zbbx2wtO68884GNNHVlD5Hy6D88yfWQIJ/8pa6WtAqlT/BUI6fsququFVzqnr8SzFXRid/cl9QR5aG96zyyw8Bp2mgzTLJwhLGhiDI1JmkAqRkdrH03Hmm+VujsWjFI0y1eYIUAlXMUE5PmCHJiWqAF11s8bChGpptd9hBX7M/WWOy9NLLhQUFJNaVVYrGu42+pntvs23YcbvtZE2SZUpfuL17bxs223yLMJ9Ax7NPPW1DHjSkq664Ylh9jTXNEtZMw6t82f8y7hf7sm0q/ywtZg3PPPVUWG+97qHHeuuG9dZfLyy39FJh/vkXCACltddY3fJkWJSG9LVXXg5bbbV16LraGmoEdwqD1FD++MOPZk3r3qNX2HrzLfWl2z4M+XCwfd3zRU4HsvHGm2o4W0O9GsodpqGgZs2aCkSuGNbtuqbl/ePwH2RZfNUA3/Y772iWxQUWWDCM0eKYBCSNCW+90V/l3CasIUsZVkzKgpWBxh+L6PhxE80yiaxt28xl1oQh6nAYqm7VslV4d8A7pucRw3+SDF8ZMMbCCJ8XX3guLLzwwmETNda9t93G3s233347zCFdL7vcCmGt1VcLm26+eRj84RADpB3n7Ri22GwTWfG6yaI4IWy60YZh/Z69wghZW997953wtcDrL2OZpzk6fPnlF+EzdZpYAbuus3bovu46sn4sK8vfID2bNcIcsgT03HCD0HG+TvZc6JTKTmGGagGqFtbfAYZRH3zwQbM0AW6OO+44owew4ZzOPPX8caDHVARA1XZqPwBEgMvevXuHIZpSgeUL93//93/hvPPOC7fddpsBqj322CPMqekoWM0BSTjqB9Y3QB6gEEvX5qojgEushIcccohZvR5//HHLB+shdQ3ABVBcUW3TxZpbjDvooIPC2WefHa6//nqL97mCzNlbQ3WEtFjQcdR55KctxMJIHBa13XffPfzjH/8I11xzjc3BA6Di+MBebrnlLBxQ2KdPH5sHicUTB3BDv7in1BYCDh083nfffWG//fYLf//7360tBuBBQ1kBh4BygN2CCy5olk6AKhZELPzo5YgjjrAyoleAHxbCe/SxC9D1/C3j8k+j00AEgyJMk+Iex1HZVfVYGuCXd6AhB3fRVYR1AcNqoLDIN9sIOmGuPAoUBW8WXys8ThpFIkQtp/iIJIsmLKOuRpBRNs4bAA7lR2eAtBFaGPH9d9/bUCKNF40giy9QDVu6tGo1h4DC+DB81GhrbFu0SIaFxqlDmFVzykbJAjZTk5lsfplpTF+ZzJWboCFifbbacDBf3fwAdVgVW2poku4EOX6Z+D/7sp6j9RyBTRsIm6jVtTS4dDYMqYyZMDE0n1VWq6YzG2ihDAzF/jByVGimVa6zqBw2ZKUG/2UNcz7/3LNhhRVX0hc3smgVsXFNhv+xQjIH7meVm+Fw8iAtZSZvvpLxUyY6L5yCTH7CW2vO5OJLLhFGDB8RjjnueLMqLr3MUprDOEBgd1xYbvkVzNKH3rp0Wcq+/I8+7lhrvFmEw9zIn74bIZA4u8qezDU0oKyODDlnFUjGITuyiMI6iR+l/1Eadm7dek49s5+t/LPOOpvJOuecbSXTkjbsfqw6otlbzW4WSVYpo1/0znNjWL6J+GKtBJDDv3SlBng/ACLD9CHBwgzeRw9j6gZ1hDqHa+g7Q3ocgGmRRRYxYIeljnwAI4Ae6vZrr71mH2/rrruuWfLX0jQPhkCRg49KLG0MsfKDBlDER9aiiy5qsjB0jBXc2xeGUZGffAGQpMMtJks4IPJ9jQYwzHunrPYAI+QkLc5lXmWVVWx+Iu3h2po6gaUSqyQy4Sc9cwyZCnOzLO7kT1lw6AnghVvg/9v70mDLruq8815PQhNCEpIaJDEYNKA5CAQpYsRgwGAn2JSNsR3AlH/YVFyVSkLxN3ZREKpsEpOKSdnlJDixAAsQBgsBQgLbTFYAGWQGOSAGIQySmCTRogd1Z31r77Xnfe45793ufu/1d6R3z95rfWvtdb5777lf7zOde66KQWwjRCF4xGwhYiDqvi6n10CogQuIY+xfIFRf/epX6yyfJpEXzPpBNEIoQ+xCTFvNGO+zcmHZVVddNbz+9a9XAYtxfvu3f1tnDyFeEQfhiX0q+OeyBRnAJJf8fuB3G988t2ePAiff00vPuyICnEhPXDkWdmepsN6Q4f1vSoqVOX9ApDhYU0/Z9f4c5mM1XtqN2TxJExcJxjjIkS5ZztBxhKW4rdzGZuMqUKwPyGFK7NhwrtkuEQe48heHax8m/W/IzNNXv/4NPX/tR3Io134QsHPCDNinPvWp4Qufv00u3vj88Mxny3losvP78Ac/NHztzrv00CXE2amnnjbcJzNttwj2FpnJu+NrX5Wdz+pw6eWXyeHiDw7flPzI8z05rInDNbd/6ctyjt7X9b37sQi7XTt3DU88/7zhvXL48h7ZWb7nXdfJD4NcxCEzWzgfDoeVcV4OtgE7fWzTDtmRf0B21Bfix+Lqq4cfYVtlB79PZyH3ymFUt4PGOXXnX3DB8NWvfWX4OxGMt8kPw1e+8o9yCHqn5kI9DxdR9YEP3CA8fFN+hD6tVynjhwyfxm/Jdp5yyiNE9H1Bz6N8ppyL9yWp/w6ZAXzKlU+RizTOEBF2gl44ggs2bv3sZ+QKbLkqV87R+4Gcr3eVzGh+9tZPy2HZLwyf+NjHhYN7h0svvXS4/4H7dbbhLjlE/KEPfHB44hOeqNuE8w1PlG3FzhvvB0QifnSwHZjFPSBXI3/7W3fqjMpn5bxL/JDtkR/Ag2LftU0O8cvYEPa4Evl++cG8Td47XHXN2T95M7no5wDiYPfu3XpIEsIHnw3YcB6t/aMIVEFczFkQi3Py8J06R07BwB++wxBx+Jzi3DQ7RAwbFgghjIPDoHfcccfwtre9Tc43foYe3sR5rB+VGT3MfmGxmUbkwj/YsK/CAoEEH/YNWEz8QHxCrGEG8E/lVBIcjrUZORO5OHQKsQiR+PznP18PF1933XUqVnHoGN9DbA8OO2MW8S1veYsKU4yDcVORjBk6m33DdxDC9eyzzx7e/OY3Kw+/JOdVY/txVTTOF8SCU0XwHtiCIxvYNoyL/MaPYXHqDS60+f3f//0QhzqxDciPWV2ITMQbH3PfR6uF643JAL6Vqnukoae5qcHrJWin7M/po/qb7PDp4VvL2cTqr2GRW4C6i9DxUZR8Ry1JSp35VRx6UWdFmmB06yRhkiDGe6MYdJyAwU+1+3MzhJ6MoJSd+ANiKy/pFx3nn131tKfpeWg4dHnRpZfo7VtWZLbrqWJ/UHY6OEy4Iv+q/Njf/K3u5C4RwbZjx04VWqef/sjh5a/8DTkn8DPDTTffNLzyla8aThOh9/Pyr9eHy4Uf7772Wj2ceqHskB4mF5r8ghxCvVkOYXxXBNwvShs7rp+Wf8Vf+dSr5AKJa/REb8xGPV127jJRpbN3OMfvCvkXOA4d/+yLfm447/wLhrf+z/81PFx+HF76sl/VHE+96mm6I4T4u1jqe6RcTIIdPP5eIju8L9z2xeG6d183PPd5z9MLMs6Ww7uPFzH1E5lJxNWy51/4JJkdOHP41y9/uey4PyiHlr4/vEgOJ+EHADtY5P0l+Vf2qlw0896/fI/WjG3CDvTXX/4Kubjl/w5vu+bPh30iovEjAzH2bDkf6Hkv+Fm98hmzd7/+ilfo1c3X/Nn/kZrdrWHAN65EPlcO4bzsZb82fOD9H5BDuF8cXvEbr9IrdrfJeDtl/Gvf8Rcye/DY4QUyWwAR91Q5rI2ZDhwivlLObcQPCfi46JKL9Qfv1+Qcn1tuuWW4Vg6hPSTbiEP8l4ighAj/sczePkFOIn+0/Ohg21AjLpKB4Mf24Icz/cHayt8FblvNQLp/gPeP5HxUzGBBmOFQLWaosJg4mvtZwecLM2ZYIGzwHcUCIYLzkC+Qf4jhH3IYB7VAVEFcYeYOh1oRDwGImTfMzOE8Plz1CmGDBbG2xgwjhA7OP0Ycvsf4hyIWfPZxmBSHS/H3u7/7u1oLDhm/+93vVgy2ETXgMDXOy8PhZ4z7LPkHHm63gnPwcC4hxsQ/2HC+HsTbxz/+8eEv5GIyLJh5xKFc2P/wD/9QD1ubWEUNWHDuILb3Sjm9BLke+9jH6mFk26aXySk5EKg4TI4ZPIjMl8u+Crnxh++tLdj/QGTiPEHke8lLXqLfZ8xOol4cTscFIXbbGPDCZSsy4LQONI/s0b3gU/1VCbJ0Es00l+kpW0eGfF7RTZUwFBDw+eLwMa8cyfpPl96d4UInNFqJnKDLkxsOg/jF50hSmccVVzggEkXvyA+lXLF1ysrwb288ddh1kuQDzqfdKz+a35OdCGbEivCQe7M2cGsW3CcPOxG9z560sRPBbWFwjzvcpw//isbMGXZi2IHiX6PY8WPnDR9sODQJsYFDqujjX9V2I2fMOCEGt2txOythUf7/ieSDDxdZ4NYt8GEnDdp3CRY23DMPggpjQ/zgljCwQ9TgghHsoHEFL+6vh50Ztgc58eOCGrETR178YVsQYzte5IQfM316KBj1yU4ZOXFPv71yDqDeWFr6iEH9erNnqdC2CbUdJ7OkGA+H0CGkUIdtP+rHAtGMK4cRhzHxr3hwDF7BP2bjUO92OT8Rh5Oxna9/nTtvB+f43SM25AUeh43BE2oC17gHIerGVdKww49ZQdSEfPfJWLBhbIhutLEXwI8u6kQs3mv05/6g68bxZTID4PfM007dFDzje4AFnzv8IwNCDLY5nxHD4/uPfcX75UImXHSBw634LOJ7if0NLqyA4MFFCxA5mMGCSMH363Vybt1jH/tYxSEOYgwXVmB505vepIeqgbcx9Hsidb7mNa/Rc+ZwPiEOlQL7x3/8xzomzsWDeHzDG96gwgoCDFfwY9t+8zd/U2f5kB/7CNQAHLbFzu2D2MNMJs4XxPcG/yBDGzmwQLThwhTgEY87DuBoyRvf+EY9rItc+MO24zYxuEgEYhtX4uN8w9/7vd8brrnmGp3pQ03Yho/KTCfwmIXExSAQzNhGzB5iVhH7gw/JPVfBMfjB/hmCD9yCS5yfiOVp8o/71772teoH/1y2BgPycZLPr1ycdN/B4T9ceefwwA/kVA45U0PO3FJ7eyvdd9x8XvJY160zY8Rn5jwi6aGoIKXUHgRgSBUaTncl0a4JtVkZC6wHdHENh84Eij0IwIeLAPzwI44pAagiQXYc2Blhx4mdCNqpHW3shLCzwE4FGCywwYc4LNg5QdwAA7GBTx0+JCsShwseYIOg0g+OvGzbFg/LIBfyIB6LjYmxcLXtqqwRh0OnOHSLGiHcsACrAs/XgzrwhwViUYWo4PER0PMZUa/0IXxQq42bbottL9ZYMB5+sKyP/FobthX1yYcI90VE/fDBhsX4xBiKEx/aEG4YG9lRE35EMIYyJkYIs3+UK5hx7z6cAwUhCXGLWMTh8Da2C+10jKymdCzUKO+B1Wbbh23CuPZDrEXz5bAxAN43iwAECennGJ8VfH7WIxr0M+6/Uy2S4ccfxjEsPvPgDX9ma8WuxZaONzc+rQU1ouZFC2KwYFtsSfOYLV23/FPGw3uH/UGKtVy2Tsdhe3MzgI8WPlZOAH7LCUD5qZaPptjd5y5soeDiJzBYk0aOr7CVIeIrV5IVTVUPCg8xLiR0LUAMlU18mc13MpvFyyb671uwoFFhYZA/v8qwW72js3fYwcrOS+97h0+LLBBXmG3Cjgr/gsWCHQkEDnYeWLB2Fw9oV18gSLAjxKyckQ8c/lSw4RPq45EPdp1hTGw2ZhoHLBZgNV7yqM3nRa1YTEAiFgtEnv0bF3kRAyGEBRj8mNlOEut0x2xjAgu73sja57XaNF5m2fDhAQbbD5/VYTlsHMtlwg19tPE+pAsEIe5niHjsyHGhCnAYI7xnRRtjAt8aS99PqQu1YTuxoG3j2vakNbBNBtLPin2m18MKPmfpZ99y2T+OsO/AZxizefhs2trEFWKRw2pBXNq3fLDBZ99nfCfScTEG/uy7j0Op2LfYP8R0P2PJZF2OY/8YNH4ARQ7sK4FFbuRAG1hsC9rYDqs9Sa/jwo56EQusfTdhAw8Yy/hDbmtj22w70+2C3WYwLR7jYxttn57WwPbWYcC0jPsVxHYVskwczhcRigqw0FBSIsq3/CqifEtWFVYzxAq2621YvBGrGOCNYqhs0eVaCnCDtrDy/a+WyiQGxfmi/SZUcVvZYKICRGDnYTuSQ7KjlY5uOmbRQjvBAIsrg3FoFgv6zia5ZAeG2SzMu1lOHUuR7v01O3Z2FmdrFXRhfPwTxgViNtAwFo/6rA0Udoy2pG3bvtSGdmpXn9iQIc2JfDq2rFOfxh9wvKFtMaipwnnuDKdj+XGMG6scefA4PVyli522caR1JNsb3j/U5+1aUzGW+RBv41ourK1utLmQgZIBfD7sc1v65vTxWcZfuaRCCsIFf1gwE54uKQ72sm9Y1FsKrRSb1oGxbJyeMEpjMUaZG/kshwk34BBnsbZNsKcLak1jkCvtA5sKUhsbcZbb8qXbBZttTxpvNovhegsy4K+jwI+Q+02xX5a4re4nNVc98aczwQskomILmarcYoiI2ILRMrrpB1+HGbXrO9EWEwRbaMSEPpVLkfgzu3X0og/XqaFxPIMfS2vsULCYQECv3OkbBjiIEiytHZtmkhc9pKkoJzIsnxvJO2RldmkA6P7MXYLFntZhMKxN6LT8qS2MlwRDCGLBTrQxZBjTfJbD8tpak8g2GE778mJ+W5sda7OlMTh/D4uNox15MSz6i9rmt7XlsHXPbn6uyYAxsKzPSvl5Rv7SZn1bWw3oY7Fayr7hsLbYcm0Ys6fYsp1i0R4bt5UPtjLOcqjDv6SxMI31U1/atnxmwzjWtnUrt8VxvXUYwKfO/pzySn9Z3HY6KeQ+n+mWO2SCF4hDFViBVFg/rh8hppVQy6i/ai6VN/m8RfoQHFVpMAU1GSwSnOX0jpAzNAznADBbYa1xQv4t2oB4s52DCSCzYZNtJwJRZH6z4V+8OA8NV+6aCASfmP3SvviUX9kR2Swb8th4WOMvxEpbBlSmbQzDql38Vgf8hrGcCMQFDhgf4yEWC3DpYmNabqzxt3OXHIaVEIhIW2DHB0THkpnOclzjxPDLXBtny8zJXGTgaDNQfh9RT2mzvq2t5kV9w6U5LcbWhkn7vXYLm+Y2f2mzfLY2XNnv2Utc2u+1W7kMa+uyTovheqsxgN8897vnfoXr7XOnBea/jQhp4R2qwMpPo/uFda82Qvy5zfGG2o5T3XUxi3SSpuWRH+XQDI0QaxbBNGDqVXvhLLoOJ0Z3WDov2IbYqmvsFHD1J25vggsYIMTUJoIOi7GBc+ZwHgv8+MMVgbgz/5/IFXmnn3G6PgkENzLFoQWIFhyiAN4EFt4hnCsIYYU/E2zVePGTo7G46hrn8B2QGD0fUQ6H4q6WmBnD7CPGslyrck9BXIjx9Tvu0HuKnSBXxWF8+DGmCjn/RuKwCc6NgU+3U8aB7Z/u+icZb5vej8sOueoj8ET44WbUqBe59JAzhKyMj/rSnasfYimrw5V3KcUxCRkgA2SADGxIBqCd7C/+kueltoQexFR97EpyqRio1ZPTCKYUXP6o2xK8QAwlZ7LGQpKmN2LaOvrTVmb2nczmwWrLHDgXrbGIEWMluqMB2romCCjcSw5X1uIWJnikGQSO3aj0IfHjTYNYwo1HcSIx/LhXFWJxj0DcKBq3cznppJN1Bg3nyeFkaLsflwkvvT2JCETc+gTiCsIKJyOjbbdAsfPmwDjEGfrIhZlGiFD0IQp/LLc6wTktOE8GQhPiDbdhOF7uGXj99e8fXiq3X8CNknH/L+SBIIV4g9BFPXhEGh5pt1di8Rxc3DcL90F8z3XvlkeyPUGfl3u3PKQdt33BLVaQH+IWT/bADKMJXFyJa5xQrG3d7wm3jAyQATKwuRjAL7eTXPYbXNbf+81qCcPmbKEkbAlDE3o2vo4LreUbcgjYF1ZWhIQOlXkyk+9ktjRf7vBDZum0EoPFYq3AArsFu3jjIeR2ySHPm+TGp1+742sidnbJ83xfrDdp/fCNH5Ibv5403Cr3o8INjU+WmwzfJk/5eOELX6Si6yNyE9RT5BFoD8nFD3gvcY+pj8k9qsDp1+RxRq+WZ2t+/nN/P+CxUavyaLYrnnzFcJWIxZtvvFEE0169V9b35Ykfv/zSX9HZs5tkvBXB3fmtO4dnPefZw+dv/fvhbrmJ6/Plxs3nyY1h/5/cJ+uT8sxLCNXLLrtcb179PnkiCJ7p++1v/5POxP3yy35l+KTcgPUb8oSR9733PXLz2mcMT5C77OPDf9dd3xpuvulmFZC4qe3FctPWm+VB6XiqAMQc7j32Jbn32OfkvmDfkPoxW7lv/16d6Xz+818w3C63Y/kHeVrGC174s8NHbvqw3oLldnmWLkThL8qNVvV+fq0P7hb87HCTyAAZIANkYGMzgN9i+zO9VVY8Rxi2RCHytYRhSxQqVguQixpjYWrRF/x+tn5DgXUAkWqaGbN5kG3pn48NYB8iq8zkx4g2lwP5NKer3AVvwVe84ZgRw8wbbr58y9/dIo9m+6Q8eeKVIgBPkAeFX6eC7K/e+z59DNTzRRhd9653qui79dbP6o1MEX/DDe8fdssNS/FYt9tv/7I8pm3n8K53XitCaIc+w/Kb8nD2t8vd+q+WO+Zf/eyr5Skffz58X56u8Y07vjZ8Sh519uJfeLHccmZ1eP/179OZxRvkLvWP+6nHDxddfNHw5j/4g+HJT7lyeIL03/Pud+lMI+IvvuSS4cXySKa/lFm67373O8OXv/hFeXTal+Rmqy/TR6D99Uc+OlzwpAtV8F355Cv1SReYncPM5Tvefs1wvjz94qW/+ivDI+QmvJ/73OfkySZ/ozdrxVMA/vefvVWf4Xu83Dz5PBGNl8nTRG7/8u0iEL86HL8TN3e+Xx7f9lm9DQweFYebur7yVa+Su/rfq4+Nwozpvr3uPMjel2oLfpy4SWSADJABMrARGYCW8X+qraRG6J70L9dQpqcEYzopWZv2KmPSfKGtjTh+qEN1lhzdy/jyg9SJE1HmhZkNkMZbsakNbWBDTiMiE43YYI9rJVbvFnyR2T8TgnjmLZ4e8dcye/f9e74n7KzoDOATn3ieiLFLhsvkWZQ7j5Pnacoh2Isuunj4ojyr9ivyfNvTTjl1uOCnfkpmEQ/K82ZP1cOgj5HHqz33Z543XCqPI8Mzgc8/7zx5rJM8vkke4fS4xz9OZ9dOPOlEffbvWaefPlx26eXDngf2aOyjRITh4egY97TTz5D73z1JH12GQ6+Yfdv74J7hzju/KTN8n9DDvD/80Q/lEPOJw5PlObtnnn7qcOHFFw/33n3PsPusR4ngO3HYLfnsqQUH5BEvF1186fBRmbW8+cabRRieI8/svU1F69/KI9BwqBf/usHh3tOlrlPluaSPkDoxM4gZvj3y2DZ8bNxTQORZpSL2niyPX3ukCMmrn/NcuRv/t1VQ4xxE8NqbVt+CnyRuEhkgA2SADGxABkzSBB2UCEInyLzQk9pTbD255oShYuTF9Jatg8YqtFWeM9VZcr69BgHhB3et+Kou7zdr0dWMrlhDuHWG853M5uFqwwv+nBbUpndv2RU21QQgrno96eRHDy980Yt0du8sefj7bTI7hit777/vR+Hm0JjduvzyK4Yb/ur64Qf33CuHdP+Z50ekEz4JsmyXiydwKBiHT3HO3tflkWg7ZPZsmwijB+5/QB9NBoGJc/qwPCiPWcMhXAgmnE+I54M+uOdBPd8OeNwDD+fsHSezctsk57Oe/Rx9YsYzn3W1PoLp+r98nwgveTyc5Nonh5VxGBbn9h0UUXq8nJeIvDjvD7X/3M/9/PCc5/7M8Cd/9N+Gd7ztGrlI5BHDfY/4kT6zGAIQ5xLiKSU41xHjYdm/f5/Olh4vNUIk64UfkvPAPnl+qRz6xr9ifqiPjnJPBME2cCEDZIAMkAEycPQZcMINAsf9QpcV+Us9KqfgvR5KI1oXhsBvv/8pFu3WRIhVIlMlTneVY6OveiJxQORlqlSq04cQm2rzI2usb+sW+xxJKu918eWUZhzDkmy9tYktzKxBbOEQLWb0brrxwzpD9nGZEcNjyfC8XFzsAAGFK3B/IELnCpkN3PPAfcM/yLlyV/3zpw8PyswYLhLBhSNY7vvRfXreIA67PuWqp+lFGde+4+3DtW9/h4q9pzztKjl0+10VeMDjff6xiDx8gHCBCEQYZtFwMQeu8sXs271yHuC5554zPOrcs4d3XnvtcNvff254p+QDBmINz+uFEIP40otA5MKP7dtXh+ve+S45TPt1FZ84ZH399dcP/yiHdB99zjl61e5Tn/604a5v3zXcIBeMfOJvPzZ8SB4mj1lOPPAe5zd+5nO3DRfLjOfnb711uOGDNw4f/ehHhj0yCwn+5LbRwy2f/MRw480fEexNwzOe8S/0fEqMw4UMkAEyQAbIwNFmAL+v7k/UnCo6E4S2FrMUWf95fDZj6HM18O0ZQI8PNbi+Ybc9+4zX/sdIkCso3obFCjTh55GoVBa/ch3/Gmza8PlUIMZcGLx8AknIJzC5C8qwY9fK8PRX7hq2y1oXv8KhzgdF2LRUrS9hU60g7DDDdepppw+Pl0O53/i6XAQi4umiiy7SR47tftRuvRUKxNlpp582nLX7LBVoux999nCRnIt35pln6tW3uBDk7LPP1quGzzjrLH1mLS4uwQzgJZdeJoLvbr26+Of/5b8aTpBDrBjjnMc8Rg7jyiFWmR18lMSeeuppA2Jx+BV17X70o6T9SL3q90w5z/A0OSR7iYy5RwTr3ffeM1x40ZOGswSPq5fPOfdceeQcDlEfp+f84cpe5P+hzCaec/aj9XAtZu4wOwgBiPP/fvqnnylXCJ84nH/BhbLd35CHZW+Xc/4u10O+yPegCMsT5Wpi2E6RW93cIyL0qfLw9PPPO18Pd3/2058eHvO4xw/75erlq0ToXi44CFiI6t6/hjbVh4PFHlYGsA850c9QH9aBmJwMkIFjjgHZvQz79x4abvjve+TIGM75N/FVUoE5PQEjIGilEmN9jw04i/F+dLNlHL/yuot+EDVbaMUMmcl3MpsWkojB3FmLRPEXEB1MbfKCx209tH8Yjj9lZfh3HzlxOO4k2SI4/Ybt3bd/+B5uKaIzQLHOzdzCD5G7EniXu60LZuLk/n6YTcPsmx2qxcwYbvSM263AjpkuzPIhHrdiwQwhbv2CNoQQ/MgBMYeLI0Djj+WQ7j4RnLggAz7M3mHGDxhckAIBhxlJxNrYaEO44TYsGAu3mcEMIerADCVEJm4ho8+1lLGB+YkcXt513C4VsXse+LH6YEdOnMOH7b1fxCFqwPgniBCFaEMcasI9/TALCHH8Y4nHrWyAwxj4w+zof/3P/2V4gRwyv0qubL77+z/QnJv5c8DajywD+DyeKf8QwZoLGSADZGBZDGDGD7uVPfcdHH7n8ruHB36A+9SKlJHJrXx3g1/l/qJ7pmz31MdnsJAShYROaJjJCUDBtNIGW3IgOthCKh9bOIqugqLNhs/HBTmiNUTEyIn+IgD//TEiAEElfoQginD+GxYIHLNhRguL3rNPhBoEGbAQTBBuWNAHHj7gLAY2iCwIRyw7REQZBj7Ep7ksFrlht9k0ayMHBJgMrucl4gKNhw7I2CLc01yIe0jeyP1ynh4wEIxYkAdjoAbYbRshJvGpgPBDrNWMcw8xQwl/WgMwOFdRc0suy8eZP6WZLxMYwGePAnACUYSQATIwi4EoAA8Nv3PZd4MAlJ9i+c2TVFECad6iK7aolsqBFZsF9LGIzaCazOPFsR2FuiXCggmOpJM0fYzqgNC2hjuHz/d8UDMWkMKBbmHyibb2ysQcBA0WCCDYMOuFNha0YTOsiTv4IIiwlDHoQxxh1g2L5U3xJiLTWOS2sdM2cmDGDwvwyJc+JzfNtU3+ybPjBFc/sFgwLkSoBIdaEFNut9VsY6AW215bnyL3RERWfHINhzG4kAEyQAbIABnYCAw4TYPT6JJFO9GirSjBBOg6mclnKEJzbBbg8sdRbHw94Cw/mvJ7bAOZK4BDQ3HmDuvuOXyG8PFJGvO4zagcjqBYf2yFwC3egIjB7BgWiBwsmPVqtU3wmA99W9IY2Fp5Uzza+EOuNLbXLmuECGzVYeOaz2o5WGyj4eA3rNmsj1rMb+NZHepIYq3PNRkgA2SADJCBo8sAfsvd73P8lUZFUeNoKzhDw0UFmGuEbtioJHcM1fyKzQISrCDctJFPpK4iQdYFTgyVzZldlsSZNJ1PNjjRKd4W84U6MUYdHPBbuWGCx7Yx7adt+Mt+K2bMZj6sLZetU9tYu/Shny5pPrOvxZbGWBuzhBCKXMgAGSADZIAMbEQG8BOld0vBT5X9XKnYsU40u/qDEnISMcBcI3QDzDVCV5Mk2BAAR4KVps4Aqj8DlQVJnPgLSDKM81vyJq5hrExiULI0M1/IwDgDFH/j/NBLBsgAGSADG4eBoHm0ESVbaLnnuYWCA14tiXhDX50RkacssEVGC03OAQyIXOj5/HGYUGo5viaIuCRfwxhNks93sIrZYytmYosMkAEyQAbIABkgA5uDAVwTAW0TNQ/q7vSSC26BUhWkLxEfWwGBhsMGp2uEbpBTrmHd7BAwkoQAX0jow+kXtRWOoqvIeHTOhnMJAjY0knFtEK7JABkgA2SADJABMrCZGYDO8X9BE/lz/G2zokJKRJEPc6IsIkJrCbOF4SKQbFjfyWy+UrUVDtcNZenGFhCNDrbQyIUfzJpFxGfrIhNfAldkgAyQATJABsgAGdjwDNQzgKJ0Eg2EDQjdRBhGRRW8uq2ht4TZQp0BjAkjl8EWTU1RluF8J7P5eLVlDjctmqTXJs8BLBlhnwyQATJABsgAGdjsDDgJFKWdbY+ziDfRSKGZiELgY3RAaBrt6UtEhFZntnB7DHKlZPfwcya9MMM3wyob2ncymyK9yCscRTdsNMRfsa1hPDbIABkgA2SADJABMrCZGLArgPXwr4ofCJ18C5wmyo2uJx7nDAGhm4ilGBm8ig+9ZLYwYKUhD00N3XIcHTgkCMMn9ajTxTdxDWNlEoPZXCbLF+tKhmaTDJABMkAGyAAZIAObjgGndUTbmOiRLTDFoxuTyJ6ALbYy4JMcoZmIQoTFdAERhxZTuAgkuiXKdzJbWmbiSJqhzHCiY7CElN4iZUlgM9aGbzmTfGySATJABsgAGSADZGAjM5CfA1gLG2fxUi1xB6EXVZxuZob3Gx6wSTxcoZsIw5jukDwKzidwK3GJIbc5T7CFRgcX/OkwySDeH2CFSw9Vt5wJjk0yQAbIABkgA2SADGx4BqBn/F+4uDXKI5laawseZ3WazLbRhXl8kiNgDejXAZ8MEZoiCsNVwFZDcCaJ1FY4XDevoIBohmALjZ5wlFzAhJShkVTCJhkgA2SADJABMkAGNgcDNgOYKZ9MDyVaJ2smIL+pzuJBidtZxJDEIyTD+xwBK045B9BbAzj20XKHc2PWBO6AYqhsiHPepIFmzBPcAeighkjMBuWaDJABMkAGyAAZIAObjoEoBPPSsxnARPgEvWSiSMIybJLGhQkwiXdh3pDkCFiJT24DkyDEsfA8Pp83Gc+XM/HK38YYVkGd06fmigyQATJABsgAGSADm4QBdxWwqBoIGxM3JnbUlHT8NmVCz2JKbBKW4X0OF+ZBSY6AFZecA5hkscAE7E2h7tjAtjRiLWDCGtHpUGjDVmedkIwQMkAGyAAZIANkgAxsOAac7Ap6J2lkesd3WtqqUlwhR+JJkgWhV3ARckt8uApYMWJIchZhvosBRkAL3HnOWeA8lD0yQAbIABkgA2SADGxkBiCX+pKpkGkKDBLNbVYQdQXWb3RmTQbKsvgcGVbicwHoEx6OFbXe4WCVOckAGSADZIAMkIENywDutSzCDKfVhVPrVJBlEi0pv5BpXtQV1nCotJ2lsPocmVVqyAWgGHAbFo9NCmo3sQ1d7Kgz5kthaHMhA2SADJABMkAGyMBWYAAaqdJJaqgknRNggm9poUy8gRjNUVhDYCO35k0qkWYuAJF01oJkYcQQCUsyTLCzQQbIABkgA2SADJCBY4EBp5CcRkI76iLXqtSTfzJbxEmQggqhF8grhJ4GFthkkMIzXQAiRygq64RK1tbo5EpqXlteRpEBMkAGyAAZIANk4GgxIKLJazLXMBHln8xhXVee61XaR82F0FNQKedsIwtsDo1v2wAAKKxJREFUGKTAS451zgA6cRry2/i2RpGJs+gaimsyQAbIABkgA2SADGxBBpwggxRyckhe5X/VcOnWNkUhAC4qw6upEHqA6qPUGrnhkxFdJu1o2loAyihzzgP0qda1ojBcF30MJgNkgAyQATJABjYgA5no0vqclMvt0vOGTOgB3xSGDlxhZx5C3j5HfGXY0EEhVRlq8dujmzz6EnKNougkA2SADJABMkAGyMDmYUBEmV0BfAgNL5dy1RR7uW6SXgyJ2zxLFCKsmP3T4Q6t/xCwSx3Eayyw08K4+QY6IOwH5S/S4Ox8JQNkgAyQATJABsjA5mdAFI4XQFEH+Za4av3jLBELBqQn/1fYpij0eFlleE240hGAglzaYWCMmlePiuplKq6OpIUMkAEyQAbIABkgAxuOAVx6cUj/i1IoE2MmzZyu8/V70eSBLXwuq2JwjpV0TWHooutzABfQh+T5wAiApRpWLTUW+PZSZ2jjaCUDZIAMkAEyQAbIwIZnACLI3wzapFLURbGF7YgayLe8O6J8S9wRm0dWWDHkWAzkLCoA0YxBSDZxWWPgGsMmFkUYGSADZIAMkAEyQAaOPgPQVumfv1DXF+aEmHak6XRYrsYShMB8TyAR5VviamL9+H5A15MQYPszgEiWDRLDWy0kiwUViFFnggWOCxkgA2SADJABMkAGtgQDubCJOim2sJlRGCZ4aUZUbCUIRDqWxB0RviWuHKsjKR6IvgB0KWe8Il17qFjUjHSEkgEyQAbIABkgA2RgEzMQrwAWgSZiyB99lS3K9ZLTSYVaAj5su2/JKqJiC7AKK+4cIb2YJgpA2HJgGLVqZNisU0G7hjWGdfPRQQbIABkgA2SADJCBjcUA1E5cIAIrtSUQh8qxEZmos6jhxO3xfuVQCTYikEoWAXo3VuMzgII9koeB/TZomXwhA2SADJABMkAGyMBmZgBCy/7idhRqRwC4UjhboL+CIbZgcsgEL82IiK2o9xKsxBtiXACGwac2MIiljjGw5MNHX9WqwysIDWSADJABMkAGyAAZ2PAMJFcAVyLPF+9kTyF+RDS18HMOIS86rzATgHOEWobNOut7OwoK1peM0WSADJABMkAGyAAZOEoMYPLL/vR2MGUdInqaQk9xtSJqHUJemyhcdAi4LHRCf1QLFs6iqyTBhj8uZIAMkAEyQAbIABnY3AyYomnJPNE7enjUMHFLD8Xpu2CMqNiCsyUKIaQcqsBqNh10wTmAACKJYB1cI9f0ghLWm2NNAzOIDJABMkAGyAAZIANHgQGIs4Pyt60ztdWWhdBduXBD6S1RCLtDFngZs8otkBSbHQK2RFOFGhIFbOjA4oZAvjlLiAqNOdHEkgEyQAbIABkgA2RgozDgxAxeIQTdTF1e20o8fps4KummvpYohNxqoePIWdoMWwnABLrmpm7sxOg52IkpCSMDZIAMkAEyQAbIwFFnAFNieB5wvbjps/WLQmQu8kt3iiicJgAl2TIOAysBqNNtt3Z7L8Xm9GC0kwEyQAbIABkgA2RgYzLgFKDKnlz6rJSyTeo/jKIQ2YvzCrdrBXlVs0jM9FzoIGEt4YJ7ygh1+JQoYsgAGSADZIAMkAEysCEYCLN/kEVBa7lGfZpfSxRiM2Q+L8TGzZp1+FjT5MKqOQM4S6jFWrLWnBxzsNkg7JABMkAGyAAZIANkYAMzYNovajgv9KJBqnedWhRiOi0Xbm5TO6IQ2Aa8dUh4+2TxhZxSX1bvWgmfPOhaB2AcGSADZIAMkAEyQAaOMgOVovNCryprSaIQeQuhpnqwcbGJmwFcpyDLwkMHFeiw2WYGd2Z1yIPNiALILhkgA2SADJABMkAGNgEDUEK4Dcyq/LnDuF7oZfIIqEq3iaUlCh1SI7IcsLfmCv3cnxsCoLA0DwHD2xNqIXJCYxk5JgxDCBkgA2SADJABMkAGNiADptKiAtNW7ErNc0QhNrElDF3CasLRsBkzDqsCcLJQE+DhPAxsNGV1skMGyAAZIANkgAyQgU3IAKSW+1vRda5znBDDZmkrdsXikPoagiIgthCNZb4ojDOAGKDOqGmnvGThoYOEofKQJriDhQ0yQAbIABkgA2SADGwxBjAlh2O/kEN+FWWR00e1SgLYLdoK3QQfgoKzIeHGRWEUgDZaskb+mDpxzGguI8eM4QglA2SADJABMkAGyMCGYMBpKDf7FwpSY1RX2gqCDijXyUyJGsvDE2wIKHKHgV1uhQkkCEAYYkiGzjsCPJyHgfPB2CMDZIAMkAEyQAbIwOZlwLSVrd2WBLXm5J46c4T2Asw1QleTRHwenmBDQIGV+CAANReAEaOmOS9ZeOggYaggpAvuYGmhEiebZIAMkAEyQAbIABnYRAwckkPAQZypHKpFVrRErRRaxR2gFRucrhG6ykvMpq3QTbA+IBeADVKBC/EN/xTTMnJMGYcYMkAGyAAZIANkgAxsNAago5wg8+rLF6g9fcmVVuxFfGgtSRRmAhDJ46Aj9AlwGYeBdbxiUHS5kAEyQAbIABkgA2RgszMQHgWnG1IrLLXoS1Q/oQWhlSyxFxDx+OoaRGEmAHUc5I2j9ExJSXkzCw8dJIwF5xGxZ6jFyBjDFhkgA2SADJABMkAGNiQDImygbdyFwLm6cT148yVYkpv6hcglisJaAOZ1LK2H4sNGlVlHnSWYfTJABsgAGSADZIAMbGwGnObBrVi8+ilEkHaLR7QdSVFYCcDJWkyA8w4DY1PdpqVvWTpe7U2RbJMBMkAGyAAZIANkYHMwYPrmoGifVSk51X8bQRRWAlBptaoTjhumxJs3M2zWyXFZr8Chy4UMkAEyQAbIABkgA5uWgVT1JRuRnxvoHEdaFLYFYFLkaLMQbaNYcc6EL0pHPxkgA2SADJABMkAGNiQDTvs5WefOAXRHTsNcYDHT1RaF2DTJVAhJy50eWHXpCqCLdvwU5xQ2BeAcoTYH67ag2GIpa14Otx18JQNkgAyQATJABsjAZmIgCDcUnWi1MPtXSKQM7zfUQXxwkiNgkxwZNiEK2O1wJvHR3XA0TBFftDJs1imAaRc4LmSADJABMkAGyAAZOIYYCLN/iSA73KKwOQM4i3MRbXMuBulpQdgPyh814Cz2CSYDZIAMkAEyQAa2IAOHVRTK1cddAdgTanM4bueAvKXMm8MjsWSADJABMkAGyAAZWJooFCmmArAt1ITohqNhmvaOTAgEhNpwGp1EkQEyQAbIABkgA2RgraKwOwMISidoNse8AJdxGJhvIxkgA2SADJABMkAGyMD6GJgiCkcFoA4/WQW2i83CQ4eHgdts0UoGyAAZIANkgAyQgeUzUIpC3JxaF2izqcscbC/nMnL0ctNOBsgAGSADZIAMkAEy0GcgCMAeZLJQE+BkbGewEB8aHSDNZIAMkAEyQAbIABkgA2tmYKEA1MwNQdYwdYvIsKGT3OwmiQzuxMYmGSADZIAMkAEyQAbIwPIYWE2n7Y60+OqNp/aec3nbzkxkgAyQATJABsgAGTgmGZg0AzhZiwlwMlbpzmcB894x+X5wo8kAGSADZIAMkAEycNgZqARgV8A1HA1Tt+AMm3ViSMccAWyRATJABsgAGSADZIAMrJsBJwCXqbwk15x0c7Dr3lomIANkgAyQATJABsgAGRiqGcAeJ8sQalmO0Gkf+A3uXkG0kwEyQAbIABkgA2SADKyJgaYA7IqvhqNhml3IMnLMHpQBZIAMkAEyQAbIABk4RhmIAnCCCpsAcTQKcDL2GCWem00GyAAZIANkgAyQgaPFwOpsodYIaJi625NhQ8c9oKR9MLibig4yQAbIABkgA2SADJCBNTAQZwCL4KDNCju7ZIAMkAEyQAbIABkgA5ubARWAQeyFRn+jJkBcsAAnYzUiPKa4Pzg9ZIAMkAEyQAbIABkgA+tmoDsDiMxdAddwNEzd4jJs1umG0EEGyAAZIANkgAyQATKwJAZqAbhMQSa5lpluSdvMNGSADJABMkAGyAAZOKYZCAJwjlBT7JyABsVZuO+sDLwMpEEVTWSADJABMkAGyAAZWCoDQQD2smZCrQfy9jnYBanoJgNkgAyQATJABsgAGThMDGQCMAi40OiPOgHiggU4CetBnAXsc04PGSADZIAMkAEyQAaWwUAmAGcnbCi7hqmbtoft2buJ6CADZIAMkAEyQAbIABmYzEBfACYqLGlOTpwBJcGUHDwDMGONHTJABsgAGSADZIAMHBYGKgE4RahZJXOwFlOu0xwroUMpWPLEPhkgA2SADJABMkAGlsWACMBpYitos3LkhqNhKqMm9KfVNSERIWSADJABMkAGyAAZIAMJA9UMYOKbdNx2stgT4CSsB7nVpIisZHbIABkgA2SADJABMkAGxhnwAjCfbZstuxoBDVO3kj42r6ubgA4yQAbIABkgA2SADJCByQys9sWXz5EAkubkATKgJOjlgJ1yL2OLHTJABsgAGSADZIAMHBYGuoeAe0KtVcUcbCu+si09YTUCDWSADJABMkAGyAAZOGYZUAHo9Na0+beuNms4GqZRoufiR5PRSQbIABkgA2SADJABMtBkoDsDmKEnKLMJEJdSgJOxWRHskAEyQAbIABkgA2SADCyDgdVcjeWzgLOFWiOgYZpW95oDp6UnigyQATJABsgAGSADxyoDYQZwod5KAElzbbxJglaOlm1tAzCKDJABMkAGyAAZIANkoMdAEIA9wBxRNgfbG492MkAGyAAZIANkgAyQgcPLgBOAXrm5VX4YuDd8V+w1HA1TL21zZrALpoMMkAEyQAbIABkgA2RgNgMLZwCzjBOU3ASISynAHrZnz2phhwyQATJABsgAGSADZGBNDEQBmKmufBYwc00ZphHQME3JRAwZIANkgAyQATJABsjAkhmIAtAnXijUEkDSXFtZkmDdOdY2MqPIABkgA2SADJABMnDMMpALwBE1NuKqyFPsnIAqAw1kgAyQATJABsgAGSADh4uBXAD6UZx2yw8D9wqYo/MOF7ZXG+1kgAyQATJABsgAGSADNQNNAVjDnCUIuNDoIWcc2pVcE9L1B6KHDJABMkAGyAAZIANkYBYDq5X4ygzrnAXMcrm6GiZ1wD5ttFnbRzAZIANkgAyQATJABshAwUB3BrAn1EL8QsCMmb0JucK4bJABMkAGyAAZIANkgAysiwEVgJX+ygz5vFzmmjJ0I6Bh0kw9+5RhiCEDZIAMkAEyQAbIABmYxkB3BhDhCwVZAkia00YuUetOUCZknwyQATJABsgAGSADZKDFwKgAbAXANkerzcH2xqOdDJABMkAGyAAZIANkYHkMBAFYCbXMkB8G7g2fhaSghqNhGlZaxjQP22SADJABMkAGyAAZIAPrZiAIwF6mhZpsIYAzhj1uaScDZIAMkAEyQAbIwNFgIBOAlZbLDPksYOaaUnkjoGFStdi0TxmDGDJABsgAGSADZIAMkIGFDGQCsIdeKMgSQNLspaOdDJABMkAGyAAZIANk4CgyUAnASsBVhljtiCuCfEuxjYCGqYqlgQyQATJABsgAGSADZGB5DFQCsJfaCbX8MPA4tuedYKcqnEASIWSADJABMkAGyAAZWBsDkwVgL33QaqHRQ/JikD4z9JABMkAGyAAZIANk4Mgx0BSAlZbLDOucBcxyuQ1tmI4cAxyJDJABMkAGyAAZIAPHGAOrc+69t1CoLQT0ZwERmknLCbmOsfeKm0sGyAAZIANkgAyQgaUw0JwBROZKf2WGTKrV2EWlZbkWgeknA2SADJABMkAGyAAZWCYDKgAP1yzgXJ03F79MIpiLDJABMkAGyAAZIAPHCgPdGUAQUAmyyhBpGnFFkG8pdk5AlYEGMkAGyAAZIANkgAyQgbUyMCoAe0mddssPA49je17ayQAZIANkgAyQATJABo40A0EAzjkM3CsyTOqFRg/ZmF0U6ISwfkJ6yAAZIANkgAyQATJABiYxEARgD12JssywzlnALJeroGHqlUY7GSADZIAMkAEyQAbIwBoYyATgnFnAhUJtIaA/4zchdA2byhAyQAbIABkgA2SADJABMJAJwB4llSDLDPksYOZKEvbsPO6bkMQmGSADZIAMkAEyQAaOAAOVANwos4BHYNs5BBkgA2SADJABMnCMMXDo0KFh//79w0MPPXSMbXm+uZUAzN2xV83gZYZps4AxW9HKchU+dskAGSADZIAMkAEysCQGHnjgAc0EIbhv374lZd18aZoC8HDNAs7ReXOwm492VkwGyAAZIANkgAwcaQYg+I4//vjhrW9963DLLbcMO3fuHPbu3atlQBAeS8v2ORsLUTaVntnYIkDHyQZDx4HwJqGXuedsCLFkgAwc8wzYLgdrLmSADGxtBqAbVmR26+DBgyr6vvCFLwy/9Vu/NXzqU58arrjiCrWvrq4OhlsKGyJSNrJO2W47wTVtrA92K2zm4l1pbzzYDyYZ6kzOsrqyOuzcsUPfyDXVzCAyQAbIgDCAH4N6P0NqyAAZ2MoMbNu2TcXehRdeOOzevXt44xvfOLz5zW8ezjjjjOWJv0QObeR9zMobLnqgO+nZclRq1hvcqt7UgA+NviLW8STFIVGCO48fhn/zgYcNJ58pil3O01zdtpU/ktw2MkAGyAAZIANk4EgxYDN9uBgEyw6ZWDLbemswzXLPt4bh184fhgf3iIaBtkl00HrHWEa8HgKGbJtaV4XNDMgCw/iShSRQmdwbHpL3YsfDhuH+uw8N3/zMweHiF4paP+AEIIThhPRJRjbJABkgA2SADJABMlAwcGhl2H/gwLAqs0vbtuHQL/wr6xJpyCFHkYcDomN2yqTV5z82DPeK+HvErkHOMxyGbSJ+NpIIHD0HEBeDTC22J+oC5QsBDqkXoAiJKyKXb732gApAqwECkQsZIANkgAyQATJABtbFgGiSHauQQFB+7vzAdeWTYNUvspbTDHX5qz8VQSgt0zDOunFegwCcqM+08gqbGUAmDG7JXGaUddMO4Seq+YAo5eMfPgxfvumh4ZP/48Dw9FdtHx7CldrC5CGZDUzSJxnZNAbwDnDZpAzwzVvXG0f61kUfg8nAMchA1Cvr2XiIvG2iqHCk8jg5he3tbxqGj314GE7eMcitZjbe7B+2NQjA3oYf6VlAfStE6OFQ8K4ThuGG1+0bHvjeoeHq39kx7Ng5peLeltBOBsgAGSADZIAMkIHDx8DeB4fhLa8Zhj/7A5nIkgktnGK4UWcB9SKQlIrWv6B705cVVgzRlqvqYA+NFJtW4O3AyR9mBB/84aHhjPNWh/Ofs2047XGrYZo1j8p7yTD9gXxIhs3TTO5VOSpDnqp253zlaNmEOqCELOxnKbJOO3QCJAuchF8AWuDOxtNOJ6BjruO9JcNnnW5I8lnvY5xH3tuRnCOubuK5Mcv4/Fgx2dhZxxD1eiIsBkrAeMz49yUmiq3xfBGXtRbWkaFDZ/JYk4GL+AhDVw0M0WMrGz7ruPFiXGxhgAJajdk0+KA1xTYT5sY155XANcdKCeuJzbeAvc3MAPaxd94us37vHYY7vikzfzK99pAcscy/ORtrCycJQJTc+gGpPvje4Fb5ZmfYpJM0AzNq8w6MuwMnUMqNu/fuqdGturRe1GwZQ0NO8DRbsVZ7w9kwNblAugybdJJmGDXYQsPxFboB6Rqt7Wxixdi0l/X5cxSQPWm6wfyr5pETZculmX/quElw0syGUHvD2TBJHE7aXX+NKCDkDw1XVtF1RsM3nE0+pcYGNM9lvQSYNM2ra7U3nA2TixNHz5fbhUtvyO3Z8AbJjdLrxfTsSNDzwT7m6+1aezGLxoK/tSw334zPQVHMWupAivXE5bH59yz35cUeDt96tiXG5ttgVY/VG2MNna8XxeZo9rY6A3IN63CCHK3cKzN/Kxv8w7HwEPDYm4Wv0tTtm431ATgEvU+mVLcfJ4eET2rsPKWAXg2Z3XfkVM/mJgVsaDhY0Q3Glr2yeUNl9xUEuzZiXcGeVKq2hqNh0g8d7C1fSJk4k2ZwoxHshcAK9gwt+I6jMntDZff5gj00nKPohtEnj4sISdLNEzI6nHVH8R1n0yzGpj0dzn/uDTiKN6wV6tfNmJGxEZbFJJ2kmY0S7KER3Q2TOnvvE5xVjDdU9jhMHlMAi65GBboazobJjSSOrm+kbgRPimuAGiZXC3KOOJsub2z6fNbMl3UmbEOBt0I75pCw68c2WhJbJ4akad5srf4OqGN28eIc8zd9iTFpZvWwc+wxgCuAH/Tn/G30rd+ueij59Iad5Foq98FuhaRojS9TxsOFOrivDs4LTEqNicXYsme20MFTRNp1KSTgXPqiG8bs7YgzvO9ktpAhqVkBeHF1dfEdR2UWQ2Xz42b2pJM0kwp9Ht3YnLMmXoxNu2TM7EknaTbGzUzaaeKlvtH3NE3jEzTzCC7YQ8MFF92QcdLnwNCSpJvHMLZOgEnTvLpWe8PZMDl8zyHeyuUNlT2pIPhCwzmLbohQe8fZNHtj06c1w+M/lwWo6OY1oNcANEwuThw9H+z4y74dHtyOKT6rDRBM+MtySh8LPm+NEOeEP7R8IzEkzRIV4xqgaEIrr6r3+ccAMS4ZDkb5U1+eKgEVsUWiopvFoTPmd8+Q6g88HlsNlRnGYjMgO1uaAZzvhydsjH03NgoBk2cA51wM0ts4fO30SxIaPaTbzYQvlDQwPs4HxBLsrquGyuZ9mT3pJE3LEvMWzqLr8GJs2SubN1T2sr4CUHQVrbaGo2FaGicYuDVuc0xgO47K7A2VXbc04bYAFF2PPgzjInMyWNIMY1pj2jYjA/YKWVpLoetsjKSTNDM8OuprABomN0bPYbk0I76gwZDS4Oz+NUuVdRZsY4G1pE2zGJv2I1kDxppTh8cnKzSrJWxXaERIwxScvc8bAM04b2z6fNbMl3U6OdO4Au9duuq6xNH1SWTlKwxFNx0yxnZAYyJwjFsM0kzpjU1fVhk7xwoDiz5HG4UHJwALQVZ0R2utsJkBXwkYxpcsJIWaw6eBCGwuhms6pxtnpemAK3NlGKtnnK9ZqcaGWZMvr61Xy7LsocRewgCQhmFQYrGYS83WEZw1C7izw4nF8o3gs0SGd9H9V8vfR8SxBdOrNYRPHRe5BDsJDtCCOkNdE7BWq8ZMKsBHCDaMY0mydTL4xLyza8B4E3OH0jy+XburOfjWmDuMtagxIX+oBbkKfOZTJyxuUV+BN9/oWmLyvDm68s0YI8TOiLHRJ38/LABrP04YN/WxfcwxoA+s2CRbPetZwHNmAXtfhmAPjT5TBsENoHFjRRwGxtL8XouxaS/xCioOw2hW9+LdiSWxF9aeyq/q8IbK7vO1xuxiO47K7A2VPR0T7QSQND3KrdTecDZMmq9pz4eaPi5KKBIWXVekgFoXgzTCQ752nuBOGm6IUXzDWZvEgvMpsfJVl6vK7g2V3QcGe2jEjA2TOhd/bhGJb58sPkk3l0O51wSUNFOEttXXAMDUMI/yhYRZTNYpfDq6ewmw0IjOhikEdX2CqHzeUNk1G6zJOc0NUMPk6sBYI86myxubPp8182Wdctvg9J8Piy3w3qyrrkscXZ9EjvmQeMw/5nOxQOTbADuWxbEO13pdFNuKoW1rMYBDwBvxsW8tluMhYHwXkk9v0W3FBluFzQz9L1pIII0sJHFAdOJSalwJvOvklWE77gUoS1KqM8DWMpbYgEl2viFDvxHCUogYm/bOmAuxAQA2+rlbg4ZQjfQvYmzay9wJKGmmmVwedbrazNnEi7FpX8O4Nk667uZWR14f4iq8N1T2ZJDgCw3nLLohQu0NZ8MkBc347CUJkmYYF41gDw3nLroxRhw9X27Pucx9Wbp+wgjLWpO+qxbhBx4d37BYJ8CkmSK0rb4xQBkh2DF40wej0Nj0iSvY0fBYGzb4zGBr7+j6fSqD6zoBJ80Mgk7whUYFaRoU3onpmHWwrs+PUvkTQ9JcXk3IJIk1Nz7+nUGC2b4iMAQjknA5FhnYJw+xeOCH7grgzXAeoArAkc959R4uYxYwJJ0wMH4oTjpjRf+2yR21bWl+15pGF5G5fGfyhQN+0CzHaCGNfUEY0wLzdcitDbdXCbYc6noNZ8Ok2IX2BJA061EbzobJjdlxVGZvqOz16Jmlh58rLHp5eoON4SeP7T/3Y7my8X1nDK++BqBh0g9n075g0LGYnq9nDz+yxZjuk18Y0ZVE3VzqTiITYNKskqpvDFBFOEMvpLInhqRZZQ2+0KggTUPv8wZwM5U3Nn1+hDFfXgSQkXONGwnuusTR9bW2YwycFxjzdmJGzwUscpXdZsqmsYxkfyszgO8krgK+965h+P7d8g3x+/qNus1xBhAVFsUW3dFtqLCZAd8MGNySucxYrEEcDvmevHtlOPmsFb0CGDOB6VJ93ypDRGeupJM0AzjYQsO5im7A9xoZ3ncyWxIY7NrAi+Mr2BOsNhuOhmn0hzPDJ52kWY7a7DfxYmzZK5s3VPZypAJQdANa7Q1nw+RixNH1hax5o4fv/SBXeG+o7Pkwob7U3IsJ9tBohsdUgiug0ddqLcCHXGjEr/roGD2+WsOrbbSG4rSOUND4dioswXbHThxjdY+lmuQbAyU1oKnQDr5jDmR0/ZbXxhoDGsavx6BjPmzImL/yVYaikKQboKERnc6E1+QDG93dI0qANNIlkYv9GZidrcOAfJRwytrux8uj32TC6m4RgtvENrbPOJobnwvAiZUcrllAfA31iyUNiL9dJ8rs3yNF/OE5wJ7YhSVKgvLLibzZEgBoVF61KCTgXDSQhck5GkaYssy+08sR7I1cbpDitYELOVKo4Jp2X19IExp9fJp2YTvJl2KrWjyusqdB1k5y9vA4uNo6F7CHt9TpGlgsYbjQcPZeLrUXWETUeIBWsgsybEw3QjI2DEnOElfiE6i6DF/a4ezdpDRi0fIZpGm5NHHxEmJCwwGKbhalvg6gY15QA6JivTZYLxf88GHn3Nq2XlyPN8uHdViSJEkzuK2xFp/WPBLYdHlj0+eLyXxZJ/soChrOyBxaJZcWjvOirC3NapnlK8BFN8sdquuAOmbNsehHuxmbGJNmVhM7W5cBfc/lZf9PhuH0Rw3DnvvkkPD9G1cEBgGoX168L6Ex/02qQitDzNl1CXk6+yfr40+VH0kf0hKdzRz6DsRx0GqYgrGZIw1vBqcAN8AUWBHV72oyvLjtb+UOkH6W6GkliN7YmoCbM+5Cbm3kBeMGd2hYYGc9FYfwBtZMtu6M0jbPCUqwSVPzlv20zspXVlIAim6G7vmiHS15J70h2rM0eacAFd0M2/uRbcZ4Y9OXZa07i2JadXRj5taRJEqaVZHBFxoR0jAF55gvgNKGDxiLy3xZJ3wU0oyhDegsLi1SAothzKPrtfoQHGJDI0vtEdhb1UtrW1JUM6U3Nn1pMNtHnYFD+gbL72z77V9TfapVfL6Hn+4EIBLh87DEYdZUWxmEf5iNLsso2OUY+Tokg5jQw/TpzuNXhoMSZrbRQs0puZJ0Zh1Zt+ualWMOGNuDIcf+Rqo115whLWajrHu1L7T3AMWGrXSmaHrhc+02XOst7H346jHwQeh/Vmu8jTp/vZZcVYw3VPZWOQWo6OYRHWfT7I1NX8iKd6VexmNqPCzdmK6jnSdNNCl0Eqgz1pLMWQlZp+Ql51uhBX4ZJY2lHPNh7EX+sfoWxTb93tj0jQ1G3xFnYFUu18XvhROCyxkemlI1i9y55GFyFHO7qCy1LSf9UrOEGUBkxQc2/zr3x+qJslk5euOhCEm0mshTy3tIFOFDuCdMslQ1i6GyeXxpd3nxWi8BGxoOU3SDsWWvbGKwbalHTOoOga620E2CWja4W3Zoopa9wiegpJmM6vM0nKVJt7M0+kwd8+Iai8CiG+ssHl9njibeG5s+CQz20HDZiq4N0V038QuuCM5ikk7SbI9XAIpujBFHz5fb5d1MDEkz5hppjeF7syzdGHF0fVqD+85oMwEmzVDp9m3bRr+P+hkO6KQhjrHvVIKc3OyOJRkW+lob50cecU2ubRyIEVChW8ZqBaJZz6IgiasgSaLK50qZ/Nq9IGSdidcZPrl+AqczALG3IgLm3nvvHb7zne8MJ5xwwnD22WcPO3bIrNMSF3w8V/HwCvkQ5N+QJQ6yzlSZAAy5ik9t0Q2wSQ0f7Fbro8HqKNV6sh+IJYmxaY8IBQDT/fKrLw1w7V7e3g9ZmQG4bg4DF4Cia6jm4ZbgTBq5ZE4c0sxyJ52kmQWoveEsTT2cJcvwSSdpGlTX8+yCnioCfeJJ+RNQ0szqRGfqZ8E2rJdrrl3HDi+afeFLr9bm2N7Y9PmRgi80xksYgzV9YmzawzD4RmNvIUsCtP2Hc+SvwZfgc8T8XpYqDDCeJ8BCI+IbpuDs/YMcgG5cVmBIFRrduLGcFj0WbJj1rosxim6WPfM1ttv54UCrXhohNSi1JAMmzRTB9lFgAN+TgzKJtCqNB3/y4PCTfT8ZHve4xw/bt7el0HpK1E/S7A/OekacH1tt9ZwP69hOZ2opYbzQcF9B+9e1kpgmqwwjO7g0LmmH9yQZM3EvbPbCevYw3sLMybYUyYpuzNRxrGnMmFVbndTuB6XhbJiSDSqSl91mcAk6TH0/dq+EuXZUie9GKj6s8ub7AmxnqdL4BJU9idd0DUBzbIlrQDVbbke0Zm741LTml3ycPE3TJ0bbP+ToRi9J0Nr+lq3MkqQoXdPrKCKnjFuEHLbu5FoKYM4LnLC4JfeZdYHPBxXD5MFlb2ygAjsDWkT678iswqoUNGwQBjD7h1PLHnbcw4YLzrtgOPnk44f9+0UU+kO1G6TMI1JGJQDDqMW3pegGWKtRYb3BrfIdRSvebECu+Tsng03+kdAB23WFbVlzIX7nYRuFdUiaGnvtdl2G7qVq2texDTZevcZIi5c5QzdrlyEye5Iws2elJDNBmX0dnf5gWdKkvMxed4CU81BkNT2mzlJaZuUa2abKVRnKkZP3aQLWohU6q+hkHEuSrZEMWWcuM2pelLmZym9j05cknEmFRo79g7w5njc2fa1aFgGTmNDsbMhYqjGf5e2kNff4ujOAMyMzWvOXZk1N4/zcjFgOAzjaIXtbPY3stNNO06QHVPzJ/SPGDpOtdfgN/v43BWDn+9GkYGyn0wxoGMN4oSFvkrTxo3g4lmQY911fwzhZjqTIuT/ko0MXgxTdOGrXESHa8rjRMS3Eg3qpoz3PFu2WSNZNY+K35lSc4ReuJWFe3pSIZkivtFF7z7mwihxQpVnw3uTR03rVGM0wDAykW6bFGDquZ74l/Y/PSKJFtfVCe/ZYfdGSgca+81UdlaHItwG700sGe0C7ReOmB1uYrmeFzQAHaGhkw/pOvh2GWPRb10xZGGd/vmxwrpfKwKpM99m5gLhvX+80mPUMivfa3m98DDbiMv4s4OLDW3RHt6fCZob2F0wTGs6YS1kEwOzF6BZWmPs/HiXQ9zvp1y1i1lcfqkKG9rK+3O2c86z92ixPr0bzl+sePthDw0UW3ZBu0U47AOc0eoPNyJF/zqSnhc5IsAA6VmI+tk80ElC5KkNdTICERo2pLHOwi8sWxPj3phpfDFrC3Drm4ifUnqVsvmGt6sd3U1lOC/fGps8w6XohcDrno6kWbPNorNS7IDzdoqy9KO8if5aMnQ3NAA4FYzkc4m9Db3hSXHMGEP45H/Q5P7JT807fjSRbUzZHBstcoTNv1BBWjju1v4a9VHfMrqMoRnBjMxahpAn5AiQEubGCvRi6183C5wb3kk6wZ+Mavml0zl5po/ae08abuM7SJJ2k2c9UbNOkmG42JEMGt6wl11iMXrdT1GtjVeuxRAIec4/5dJwOYGppaa1VqsSQNNOQvN0AjdYx6sxTp73GMMGd+bKOg4wO2cCHxCON2WFJEbNjkzpcLJKhVSwLEjfdiTFpFonZJQNHnoH/D03kToM108T9AAAAAElFTkSuQmCC",
    "RulerGuidesX" : [],
    "RulerGuidesY" : [],
    "RulerShowing" : false,
    "activeThemeId" : "e59eeb42-ccf0-4a36-bdf9-e630fdab686d",
    "firstMedia" : true,
    "hasNotifiedAboutHFRMedia" : false,
    "projectDuration" : "05:21"
  }
}
